<svg width="32" height="32" viewBox="0 0 32 32" fill="none" xmlns="http://www.w3.org/2000/svg">
<path d="M16 2.6875L0 7.06299V27.8601C0 28.0891 0.0737305 28.3157 0.2229 28.4895C0.410156 28.7075 0.672607 28.8196 0.9375 28.8196C1.06177 28.8196 1.18652 28.7949 1.30444 28.7449L8.27588 25.7798H23.7241L30.6956 28.7449C30.8135 28.7949 30.9382 28.8196 31.0625 28.8196C31.3274 28.8196 31.5901 28.7073 31.7773 28.4893C31.9265 28.3154 32 28.0891 32 27.8601V7.06299L16 2.6875Z" fill="#D2D8E2"/>
<path d="M16 2.6875V25.7798H23.7241L30.6956 28.7449C30.8135 28.7949 30.9382 28.8196 31.0625 28.8196C31.3274 28.8196 31.5901 28.7073 31.7773 28.4893C31.9265 28.3154 32 28.0891 32 27.8601V7.06299L16 2.6875Z" fill="#B1B8C4"/>
<path d="M24.427 15.2844L16.1616 12.5278C16.0566 12.4927 15.9429 12.4927 15.8379 12.5278L7.57251 15.2844C7.36353 15.354 7.22266 15.5496 7.22266 15.7698V26.0637C7.22266 26.2849 7.36499 26.481 7.57495 26.55L15.8403 29.2612C15.8921 29.2781 15.946 29.2866 15.9998 29.2866C16.0535 29.2866 16.1074 29.2781 16.1592 29.2612L24.4246 26.55C24.6345 26.481 24.7769 26.2849 24.7769 26.0637V15.7698C24.7769 15.5496 24.636 15.354 24.427 15.2844Z" fill="#1A56B0"/>
<path d="M15.9998 18.481L7.24829 15.6104C7.23169 15.6609 7.22266 15.7146 7.22266 15.7698V26.0637C7.22266 26.2849 7.36475 26.481 7.57495 26.55L15.8401 29.2612C15.8921 29.2781 15.9458 29.2866 15.9998 29.2866V18.481Z" fill="#F2F2F2"/>
<path d="M16 18.481V29.2866C16.0537 29.2866 16.1077 29.2781 16.1594 29.2612L24.4248 26.55C24.6348 26.481 24.7771 26.2849 24.7771 26.0637V15.7698C24.7771 15.7146 24.7681 15.6609 24.7515 15.6104L16 18.481Z" fill="#6199ED"/>
</svg>
