<svg width="75" height="75" viewBox="0 0 75 75" fill="none" xmlns="http://www.w3.org/2000/svg">
<path d="M34.7956 32.5459C34.6247 32.229 34.3023 32.0327 33.9525 32.0327C32.1846 32.0327 21.608 32.0327 19.8334 32.0327C17.7645 32.0327 7.46401 32.0327 5.71777 32.0327C5.36592 32.0327 5.0416 32.2302 4.86963 32.5489L0.376953 40.8793C0.734814 40.4724 1.24839 40.2156 1.821 40.2156C3.39307 40.2156 36.3537 40.2156 37.8459 40.2156C38.4185 40.2156 38.9319 40.4724 39.2899 40.8793L34.7956 32.5459Z" fill="#F8A748"/>
<path d="M11.0658 32.0327C9.21465 32.0327 7.57066 32.0327 5.71777 32.0327C5.36592 32.0327 5.0416 32.2302 4.86963 32.5489L0.376953 40.8793C0.734815 40.4724 1.24839 40.2156 1.821 40.2156C3.47305 40.2156 6.54234 40.2156 7.92515 40.2156L10.5313 32.5489C10.6395 32.23 10.844 32.0327 11.0658 32.0327Z" fill="#EF8C29"/>
<path d="M15.3145 32.0327V40.2155H24.2354V32.0327C23.1559 32.0327 16.4008 32.0327 15.3145 32.0327Z" fill="#DDDDDD"/>
<path d="M15.3145 32.0327V40.2155H19.7749V32.0327C18.2148 32.0327 16.8744 32.0327 15.3145 32.0327Z" fill="#CECCCA"/>
<path d="M65.4192 55.5984H48.4695C47.8537 55.5984 47.3545 56.0976 47.3545 56.7134C47.3545 57.3294 47.8537 57.8285 48.4695 57.8285H65.4192C66.0351 57.8285 66.5343 57.3292 66.5343 56.7134C66.5344 56.0976 66.0351 55.5984 65.4192 55.5984Z" fill="#EFEFEF"/>
<path d="M66.8235 41.0277H49.1016C47.3799 41.0277 45.9792 39.627 45.9792 37.9054C45.9792 36.1837 47.3799 34.7831 49.1016 34.7831H60.8103C61.4262 34.7831 61.9254 34.2838 61.9254 33.668C61.9254 33.0521 61.4262 32.553 60.8103 32.553H49.1016C46.1502 32.553 43.749 34.9542 43.749 37.9055C43.749 40.8569 46.1502 43.2581 49.1016 43.2581H66.8234C70.1021 43.2581 72.7695 45.9254 72.7695 49.209C72.7695 51.857 71.1023 54.2542 68.6208 55.1747C68.0433 55.3889 67.7489 56.0306 67.963 56.6081C68.1779 57.1874 68.8206 57.4791 69.3962 57.2658C72.7479 56.0224 74.9999 52.7847 74.9999 49.204C74.9999 44.6955 71.332 41.0277 66.8235 41.0277Z" fill="#EFEFEF"/>
<path d="M39.6979 41.8586C39.6979 40.784 38.8267 39.9128 37.7521 39.9128C36.2767 39.9128 3.51372 39.9128 1.9459 39.9128C0.871143 39.9127 0 40.7838 0 41.8586C0 43.2244 0 70.5146 0 72.0149C0 73.0895 0.871143 73.9606 1.94575 73.9606H37.752C38.8266 73.9606 39.6977 73.0895 39.6977 72.0149C39.6978 70.536 39.6979 43.2117 39.6979 41.8586Z" fill="#FAC149"/>
<path d="M8.02881 72.0148C8.02881 70.7627 8.02881 41.5201 8.02881 39.9126C6.58682 39.9126 3.55547 39.9126 1.9459 39.9126C0.871143 39.9126 0 40.7837 0 41.8585C0 43.2243 0 70.5144 0 72.0148C0 73.0894 0.871143 73.9606 1.94575 73.9606H9.97456C8.89995 73.9606 8.02881 73.0894 8.02881 72.0148Z" fill="#F8A748"/>
<path d="M16.8583 49.5291C18.2969 49.5291 18.2969 50.5822 19.7355 50.5822C21.1743 50.5822 21.1743 49.5291 22.6132 49.5291C23.2416 49.5291 23.5957 49.73 23.915 49.9563C24.0493 50.0515 24.2354 49.9526 24.2354 49.788V39.9126H15.3145V49.7383C15.3145 49.8995 15.4948 49.9975 15.6279 49.9068C15.9295 49.7016 16.2761 49.5291 16.8583 49.5291Z" fill="#EFEFEF"/>
<path d="M19.7749 39.9126H15.3145V49.7383C15.3145 49.8995 15.4948 49.9975 15.6279 49.9068C15.9295 49.7016 16.2761 49.5291 16.8583 49.5291C18.2969 49.5291 18.2969 50.5822 19.7355 50.5822C19.7494 50.5822 19.7611 50.5806 19.7749 50.5805V39.9126Z" fill="#DDDDDD"/>
<path d="M62.2929 1.03955C60.0121 1.04204 57.8359 1.76787 56.0175 3.10601C51.2913 6.58413 50.2795 13.2351 53.7578 17.9613L61.1229 27.9689C61.7034 28.7578 62.8822 28.7578 63.4627 27.9689L70.8278 17.9613C76.005 10.9265 70.89 1.04907 62.2929 1.03955ZM62.2233 17.0159C59.2261 17.0159 56.7965 14.5861 56.7965 11.5891C56.7965 8.59185 59.2262 6.16226 62.2233 6.16226C65.2205 6.16226 67.6501 8.59199 67.6501 11.5891C67.6501 14.5861 65.2204 17.0159 62.2233 17.0159Z" fill="#FC5B6F"/>
<path d="M33.4529 69.4259H28.6951C28.0793 69.4259 27.5801 68.9266 27.5801 68.3108C27.5801 67.6949 28.0793 67.1958 28.6951 67.1958H33.4529C34.0687 67.1958 34.568 67.695 34.568 68.3108C34.5681 68.9266 34.0687 69.4259 33.4529 69.4259Z" fill="#FCD597"/>
<path d="M62.2257 35.7322C61.0703 35.6508 60.2552 34.6614 60.3288 33.5707C60.3845 32.5031 61.3343 31.5967 62.489 31.6746C63.5782 31.7314 64.4618 32.7054 64.3851 33.8348C64.3304 34.8999 63.3888 35.7999 62.2257 35.7322Z" fill="#647892"/>
<path d="M62.359 31.6724C61.2391 31.6697 60.3814 32.5626 60.3288 33.5707C60.2552 34.6604 61.0698 35.6506 62.2257 35.7322C62.9824 35.7761 63.7104 35.4187 64.1168 34.7169C62.5519 34.7191 61.5779 33.0328 62.359 31.6724Z" fill="#4D6682"/>
<path d="M62.2927 21.8232C58.4705 21.8232 55.0998 19.8919 53.1016 16.9524C53.2996 17.2965 53.5168 17.634 53.7578 17.9613L61.1229 27.969C61.7034 28.7578 62.8822 28.7578 63.4627 27.969L70.8278 17.9613C71.0688 17.6339 71.286 17.2964 71.484 16.9521C69.4859 19.8918 66.1151 21.8232 62.2927 21.8232Z" fill="#F74352"/>
<path d="M66.8956 58.7332C65.7378 58.6515 64.9252 57.6604 64.9988 56.5717C65.0541 55.5103 65.9982 54.5972 67.159 54.6756C68.0746 54.7234 68.9036 55.4263 69.0426 56.4377C69.2115 57.7228 68.1643 58.807 66.8956 58.7332Z" fill="#647892"/>
<path d="M67.0289 54.6733C65.9039 54.6709 65.0511 55.5687 64.9988 56.5716C64.9245 57.6723 65.7494 58.6525 66.8956 58.7332C67.6534 58.7773 68.3808 58.4191 68.7867 57.7179C67.2183 57.7201 66.2492 56.0307 67.0289 54.6733Z" fill="#4D6682"/>
<path d="M46.777 58.7332C45.7877 58.6634 45.0239 57.9248 44.8927 56.9699C44.7264 55.7025 45.7566 54.5891 47.0404 54.6756C48.1313 54.7326 49.013 55.7085 48.9365 56.8358C48.8819 57.8992 47.9416 58.8009 46.777 58.7332Z" fill="#647892"/>
<path d="M46.9103 54.6733C45.6573 54.6704 44.7352 55.7699 44.8925 56.9699C45.0242 57.9274 45.7902 58.6637 46.7769 58.7333C47.5342 58.7774 48.2621 58.4193 48.668 57.718C47.1028 57.7196 46.1287 56.0335 46.9103 54.6733Z" fill="#4D6682"/>
</svg>
