<svg width="30" height="30" viewBox="0 0 30 30" fill="none" xmlns="http://www.w3.org/2000/svg">
<path d="M18.7658 19.7695C17.243 19.7695 16.0041 21.0084 16.0041 22.5312C16.0041 24.054 17.243 25.2929 18.7658 25.2929C20.2886 25.2929 21.5275 24.054 21.5275 22.5312C21.5275 21.0084 20.2886 19.7695 18.7658 19.7695ZM18.7658 23.5352C18.2123 23.5352 17.7619 23.0848 17.7619 22.5313C17.7619 21.9778 18.2123 21.5274 18.7658 21.5274C19.3193 21.5274 19.7697 21.9778 19.7697 22.5313C19.7697 23.0848 19.3193 23.5352 18.7658 23.5352Z" fill="#FFD73F"/>
<path d="M13.9963 15C13.9963 13.4772 12.7574 12.2383 11.2346 12.2383C9.7118 12.2383 8.47284 13.4772 8.47284 15C8.47284 16.5228 9.71175 17.7617 11.2345 17.7617C12.7573 17.7617 13.9963 16.5228 13.9963 15ZM10.2307 15C10.2307 14.4464 10.681 13.9961 11.2345 13.9961C11.7881 13.9961 12.2384 14.4464 12.2384 15C12.2384 15.5535 11.7881 16.0039 11.2345 16.0039C10.681 16.0039 10.2307 15.5535 10.2307 15Z" fill="#FFD73F"/>
<path d="M19.3148 13.3723C18.9357 13.0691 18.3826 13.1306 18.0794 13.5096L10.5482 22.9236C10.245 23.3027 10.3065 23.8558 10.6854 24.159C11.0825 24.4766 11.6326 24.382 11.9208 24.0217L19.4521 14.6077C19.7553 14.2286 19.6938 13.6756 19.3148 13.3723Z" fill="#FFD73F"/>
<path d="M13.1174 0C12.7258 0 12.3821 0.259395 12.2735 0.635566C12.165 1.01174 12.319 1.4148 12.6503 1.6234C12.6838 1.64449 16.0041 3.76723 16.0041 6.52729C16.0041 7.85947 14.9202 8.94328 13.588 8.94328C12.2558 8.94328 11.172 7.85947 11.172 6.52729C11.172 5.46697 11.7408 4.90295 11.8066 4.84137C12.1433 4.57078 12.223 4.10355 12.0079 3.72809C11.7917 3.3508 11.3214 3.19693 10.916 3.35467C10.6881 3.44326 1.883 6.97559 1.883 16.8828C1.883 24.1157 7.76733 30 15.0001 30C22.233 30 28.1173 24.1157 28.1173 16.8828C28.1173 6.11848 17.4623 0 13.1174 0V0ZM15.0001 28.2422C8.73659 28.2422 3.64075 23.1464 3.64075 16.8828C3.64075 10.3123 8.05116 7.10789 9.42712 6.17555C9.41862 6.28916 9.41417 6.40641 9.41417 6.52729C9.41417 8.82873 11.2865 10.7011 13.588 10.7011C15.8895 10.7011 17.7618 8.82873 17.7618 6.52729C17.7618 4.9848 17.0798 3.64506 16.2664 2.5957C18.5866 3.61336 26.3595 8.00455 26.3595 16.8827C26.3595 23.1464 21.2638 28.2422 15.0001 28.2422Z" fill="#FFD73F"/>
</svg>
