<svg width="65" height="65" viewBox="0 0 65 65" fill="none" xmlns="http://www.w3.org/2000/svg">
<g clip-path="url(#clip0)">
<path d="M55.3516 10.362C44.811 10.362 33.8875 0.59157 33.7793 0.493689C33.0533 -0.164563 31.9466 -0.164563 31.2207 0.493689C31.1119 0.592332 20.217 10.362 9.64844 10.362C8.59676 10.362 7.74414 11.2146 7.74414 12.2663V35.0719C7.74414 53.5466 21.485 60.929 31.8208 64.8748C32.0395 64.9583 32.2697 65 32.5 65C32.7303 65 32.9605 64.9582 33.1792 64.8748C47.6714 59.3422 57.2559 50.712 57.2559 35.0719V12.2663C57.2559 11.2146 56.4032 10.362 55.3516 10.362Z" fill="#36F499"/>
<path d="M32.5 19.1699C25.1498 19.1699 19.1699 25.1498 19.1699 32.5C19.1699 39.8502 25.1498 45.8301 32.5 45.8301C39.8502 45.8301 45.8301 39.8502 45.8301 32.5C45.8301 25.1498 39.8502 19.1699 32.5 19.1699ZM37.6551 31.9422L31.9422 37.6551C31.5704 38.0269 31.0831 38.2129 30.5957 38.2129C30.1083 38.2129 29.621 38.027 29.2492 37.6551L27.3449 35.7508C26.6012 35.0071 26.6012 33.8014 27.3449 33.0577C28.0885 32.314 29.2943 32.314 30.038 33.0577L30.5958 33.6154L34.9623 29.2491C35.7058 28.5054 36.9116 28.5054 37.6553 29.2491C38.3989 29.9928 38.3989 31.1985 37.6551 31.9422Z" fill="white"/>
</g>
<defs>
<clipPath id="clip0">
<rect width="65" height="65" fill="white"/>
</clipPath>
</defs>
</svg>
