<svg width="24" height="24" viewBox="0 0 24 24" fill="none" xmlns="http://www.w3.org/2000/svg">
<path d="M12.0003 2.94519C5.37284 2.94519 0 8.36902 0 15.0597C0 18.6876 1.56563 21.0536 1.56563 21.0536L22.4298 21.0546C22.4298 21.0546 24 18.4688 24 15.0595C24 8.36902 18.6272 2.94519 12.0003 2.94519ZM21.5497 19.5788L2.48877 19.5705C2.48877 19.5705 1.47309 17.647 1.47309 15.0215C1.47309 9.15736 6.20419 4.40318 12.0405 4.40318C17.8765 4.40318 22.6079 9.15711 22.6079 15.0215C22.6081 17.6767 21.5497 19.5788 21.5497 19.5788Z" fill="#818181"/>
<path d="M15.392 6.16221L15.2413 6.16196L12.0404 12.4342L8.72432 6.1084L4.18409 17.5362H3.01074V18.454H9.43874V17.5362H8.1633L9.43874 13.9646L12.0404 18.454L14.5402 13.9646L15.8154 17.5362H14.5402V18.454H20.9169V17.5362H19.8123L15.392 6.16221Z" fill="#818181"/>
</svg>
