<svg width="64" height="64" viewBox="0 0 64 64" fill="none" xmlns="http://www.w3.org/2000/svg">
<g clip-path="url(#clip0)">
<path d="M29.6929 27.7723C29.547 27.502 29.2719 27.3345 28.9734 27.3345C27.4648 27.3345 18.4394 27.3345 16.9251 27.3345C15.1596 27.3345 6.36989 27.3345 4.87976 27.3345C4.57951 27.3345 4.30276 27.503 4.15601 27.775L0.322266 34.8836C0.627641 34.5363 1.06589 34.3172 1.55452 34.3172C2.89601 34.3172 31.0224 34.3172 32.2958 34.3172C32.7844 34.3172 33.2225 34.5363 33.528 34.8836L29.6929 27.7723Z" fill="#F8A748"/>
<path d="M9.44339 27.3345C7.86377 27.3345 6.46089 27.3345 4.87977 27.3345C4.57952 27.3345 4.30277 27.503 4.15602 27.775L0.322266 34.8836C0.627641 34.5363 1.06589 34.3172 1.55452 34.3172C2.96427 34.3172 5.58339 34.3172 6.76339 34.3172L8.98727 27.775C9.07964 27.5028 9.25414 27.3345 9.44339 27.3345Z" fill="#EF8C29"/>
<path d="M13.0684 27.3345V34.3171H20.6809V27.3345C19.7597 27.3345 13.9954 27.3345 13.0684 27.3345Z" fill="#DDDDDD"/>
<path d="M13.0684 27.3345V34.3171H16.8746V27.3345C15.5434 27.3345 14.3995 27.3345 13.0684 27.3345Z" fill="#CECCCA"/>
<path d="M55.8254 47.444H41.3617C40.8362 47.444 40.4102 47.87 40.4102 48.3955C40.4102 48.9211 40.8362 49.347 41.3617 49.347H55.8254C56.3509 49.347 56.7769 48.921 56.7769 48.3955C56.777 47.87 56.3509 47.444 55.8254 47.444Z" fill="#EFEFEF"/>
<path d="M57.0233 35.0103H41.9005C40.4314 35.0103 39.2361 33.8151 39.2361 32.3459C39.2361 30.8768 40.4314 29.6816 41.9005 29.6816H51.892C52.4175 29.6816 52.8435 29.2556 52.8435 28.7301C52.8435 28.2044 52.4175 27.7786 51.892 27.7786H41.9005C39.382 27.7786 37.333 29.8276 37.333 32.3461C37.333 34.8646 39.382 36.9136 41.9005 36.9136H57.0231C59.821 36.9136 62.0971 39.1897 62.0971 41.9917C62.0971 44.2513 60.6745 46.2969 58.5569 47.0824C58.0641 47.2652 57.8129 47.8128 57.9956 48.3056C58.179 48.7999 58.7274 49.0488 59.2186 48.8668C62.0787 47.8058 64.0004 45.0429 64.0004 41.9874C64.0004 38.1402 60.8705 35.0103 57.0233 35.0103Z" fill="white"/>
<path d="M33.8755 35.7192C33.8755 34.8022 33.1321 34.0588 32.2151 34.0588C30.9561 34.0588 2.99837 34.0588 1.6605 34.0588C0.743375 34.0587 0 34.8021 0 35.7192C0 36.8847 0 60.1723 0 61.4526C0 62.3696 0.743375 63.113 1.66037 63.113H32.215C33.132 63.113 33.8754 62.3696 33.8754 61.4526C33.8755 60.1906 33.8755 36.8738 33.8755 35.7192Z" fill="#FAC149"/>
<path d="M6.85125 61.4526C6.85125 60.3841 6.85125 35.4305 6.85125 34.0587C5.62075 34.0587 3.034 34.0587 1.6605 34.0587C0.743375 34.0587 0 34.8021 0 35.7192C0 36.8847 0 60.1722 0 61.4526C0 62.3696 0.743375 63.113 1.66037 63.113H8.51163C7.59463 63.113 6.85125 62.3696 6.85125 61.4526Z" fill="#F8A748"/>
<path d="M14.3857 42.2648C15.6134 42.2648 15.6134 43.1635 16.841 43.1635C18.0687 43.1635 18.0687 42.2648 19.2966 42.2648C19.8329 42.2648 20.135 42.4362 20.4075 42.6293C20.5221 42.7106 20.6809 42.6262 20.6809 42.4857V34.0587H13.0684V42.4433C13.0684 42.5808 13.2222 42.6645 13.3359 42.5871C13.5932 42.412 13.889 42.2648 14.3857 42.2648Z" fill="#EFEFEF"/>
<path d="M16.8746 34.0587H13.0684V42.4433C13.0684 42.5808 13.2222 42.6645 13.3359 42.5871C13.5932 42.412 13.889 42.2648 14.3857 42.2648C15.6134 42.2648 15.6134 43.1635 16.841 43.1635C16.8529 43.1635 16.8629 43.1621 16.8746 43.162V34.0587Z" fill="#DDDDDD"/>
<path d="M53.1567 0.886963C51.2104 0.889088 49.3534 1.50846 47.8017 2.65034C43.7687 5.61834 42.9053 11.2938 45.8734 15.3268L52.1583 23.8667C52.6537 24.5398 53.6595 24.5398 54.1549 23.8667L60.4398 15.3268C64.8577 9.32384 60.4929 0.895088 53.1567 0.886963ZM53.0973 14.5201C50.5397 14.5201 48.4664 12.4467 48.4664 9.88921C48.4664 7.33159 50.5398 5.25834 53.0973 5.25834C55.6549 5.25834 57.7282 7.33171 57.7282 9.88921C57.7282 12.4467 55.6548 14.5201 53.0973 14.5201Z" fill="#FC5B6F"/>
<path d="M28.5467 59.2433H24.4867C23.9612 59.2433 23.5352 58.8173 23.5352 58.2918C23.5352 57.7662 23.9612 57.3403 24.4867 57.3403H28.5467C29.0722 57.3403 29.4982 57.7663 29.4982 58.2918C29.4983 58.8173 29.0722 59.2433 28.5467 59.2433Z" fill="#FCD597"/>
<path d="M53.0991 30.4915C52.1133 30.422 51.4176 29.5778 51.4805 28.647C51.528 27.736 52.3385 26.9625 53.3239 27.029C54.2533 27.0775 55.0073 27.9086 54.9419 28.8724C54.8951 29.7813 54.0916 30.5493 53.0991 30.4915Z" fill="#647892"/>
<path d="M53.2129 27.0271C52.2573 27.0249 51.5254 27.7867 51.4805 28.647C51.4176 29.5769 52.1128 30.4219 53.0991 30.4915C53.7449 30.529 54.3661 30.224 54.7129 29.6251C53.3775 29.627 52.5464 28.188 53.2129 27.0271Z" fill="#4D6682"/>
<path d="M53.1566 18.6223C49.895 18.6223 47.0186 16.9743 45.3135 14.4659C45.4825 14.7596 45.6678 15.0476 45.8735 15.3268L52.1584 23.8667C52.6537 24.5398 53.6596 24.5398 54.155 23.8667L60.4399 15.3268C60.6455 15.0474 60.8309 14.7594 60.9999 14.4657C59.2947 16.9742 56.4184 18.6223 53.1566 18.6223Z" fill="#F74352"/>
<path d="M57.0835 50.119C56.0955 50.0492 55.4021 49.2035 55.4649 48.2745C55.5121 47.3687 56.3178 46.5896 57.3082 46.6565C58.0896 46.6972 58.797 47.2971 58.9156 48.1601C59.0597 49.2567 58.1661 50.182 57.0835 50.119Z" fill="#647892"/>
<path d="M57.1973 46.6545C56.2373 46.6524 55.5095 47.4185 55.4649 48.2744C55.4015 49.2137 56.1054 50.0501 57.0835 50.1189C57.7302 50.1566 58.3509 49.8509 58.6973 49.2526C57.3589 49.2544 56.5319 47.8128 57.1973 46.6545Z" fill="#4D6682"/>
<path d="M39.916 50.119C39.0718 50.0594 38.42 49.4291 38.308 48.6143C38.1662 47.5328 39.0453 46.5826 40.1408 46.6565C41.0716 46.7051 41.824 47.5379 41.7588 48.4999C41.7121 49.4072 40.9098 50.1767 39.916 50.119Z" fill="#647892"/>
<path d="M40.0298 46.6545C38.9605 46.652 38.1737 47.5903 38.3079 48.6143C38.4203 49.4313 39.0739 50.0597 39.9159 50.1191C40.5622 50.1567 41.1833 49.8511 41.5297 49.2527C40.194 49.2541 39.3628 47.8152 40.0298 46.6545Z" fill="#4D6682"/>
</g>
<defs>
<clipPath id="clip0">
<rect width="64" height="64" fill="white"/>
</clipPath>
</defs>
</svg>
