<svg width="32" height="32" viewBox="0 0 32 32" fill="none" xmlns="http://www.w3.org/2000/svg">
<g clip-path="url(#clip0)">
<path d="M25.375 1.9375H21.625H17.875C14.2568 1.9375 11.25 4.88181 11.25 8.5C11.25 11.8005 13.7616 14.5398 16.9375 14.9957V17.875C16.9375 18.254 17.1654 18.5964 17.5161 18.7411C17.8619 18.8854 18.2676 18.808 18.5379 18.5378L21.625 15.4507L22.0132 15.0625H25.375C28.9932 15.0625 32 12.1182 32 8.5C32 4.88181 28.9932 1.9375 25.375 1.9375Z" fill="#E4E4E4"/>
<path d="M23.875 23.5V27.25C23.875 28.8813 22.5431 30.0625 21.0756 30.0625C15.675 30.0625 10.4062 27.5094 6.4875 23.6063C2.56875 19.7031 0 14.45 0 9.04937C0 7.49812 1.26188 6.25 2.8125 6.25H6.5625C6.96625 6.25 7.32438 6.50813 7.45125 6.89062L9.32625 12.5025C9.41813 12.7775 9.3775 13.0788 9.2175 13.3194L7.6275 15.705C8.23 16.9688 9.29625 18.35 10.5275 19.5662C11.7594 20.7819 13.1562 21.8325 14.42 22.435L16.8056 20.845C17.0475 20.6856 17.3475 20.6438 17.6225 20.7362L23.2475 22.6112C23.63 22.7381 23.875 23.0963 23.875 23.5Z" fill="#1A56B0"/>
<path d="M17.875 9.4375C18.3928 9.4375 18.8125 9.01776 18.8125 8.5C18.8125 7.98223 18.3928 7.5625 17.875 7.5625C17.3572 7.5625 16.9375 7.98223 16.9375 8.5C16.9375 9.01776 17.3572 9.4375 17.875 9.4375Z" fill="#1D1D1D"/>
<path d="M21.625 9.4375C22.1428 9.4375 22.5625 9.01777 22.5625 8.5C22.5625 7.98223 22.1428 7.5625 21.625 7.5625C21.1072 7.5625 20.6875 7.98223 20.6875 8.5C20.6875 9.01777 21.1072 9.4375 21.625 9.4375Z" fill="#1D1D1D"/>
<path d="M22.5625 8.5C22.5625 7.98225 22.1428 7.5625 21.625 7.5625V9.4375C22.1428 9.4375 22.5625 9.01775 22.5625 8.5Z" fill="#1D1D1D"/>
<path d="M25.375 9.4375C25.8928 9.4375 26.3125 9.01776 26.3125 8.5C26.3125 7.98223 25.8928 7.5625 25.375 7.5625C24.8572 7.5625 24.4375 7.98223 24.4375 8.5C24.4375 9.01776 24.8572 9.4375 25.375 9.4375Z" fill="#1D1D1D"/>
</g>
<defs>
<clipPath id="clip0">
<rect width="32" height="32" fill="white"/>
</clipPath>
</defs>
</svg>
