<svg width="30" height="30" viewBox="0 0 30 30" fill="none" xmlns="http://www.w3.org/2000/svg">
<path d="M27.1875 11.25C27.1875 11.1257 27.1381 11.0065 27.0502 10.9185C26.9623 10.8306 26.8431 10.7812 26.7188 10.7812H18.75V3.28125C18.75 3.15693 18.7006 3.0377 18.6127 2.94979C18.5248 2.86189 18.4056 2.8125 18.2812 2.8125C17.81 2.81503 17.3397 2.85579 16.875 2.93438V1.40625C16.875 1.28193 16.8256 1.1627 16.7377 1.07479C16.6498 0.986886 16.5306 0.9375 16.4062 0.9375H5.15625C5.03198 0.938425 4.91282 0.987096 4.82344 1.07344L1.07344 4.82344C0.987096 4.91282 0.938425 5.03198 0.9375 5.15625V28.5938C0.9375 28.7181 0.986886 28.8373 1.07479 28.9252C1.1627 29.0131 1.28193 29.0625 1.40625 29.0625H16.4062C16.5306 29.0625 16.6498 29.0131 16.7377 28.9252C16.8256 28.8373 16.875 28.7181 16.875 28.5938V20.5031C17.3397 20.5817 17.81 20.6225 18.2812 20.625C20.6427 20.6229 22.9068 19.6839 24.5766 18.0141C26.2464 16.3443 27.1854 14.0802 27.1875 11.7188C27.1875 11.5922 27.1828 11.4656 27.1781 11.3391C27.1838 11.3097 27.1869 11.2799 27.1875 11.25ZM17.8125 3.76406V11.0578L12.1125 16.7578C11.183 15.6215 10.5856 14.2503 10.3864 12.7958C10.1872 11.3412 10.3939 9.85995 10.9836 8.51551C11.5734 7.17107 12.5233 6.01581 13.7284 5.17731C14.9335 4.33882 16.3469 3.84973 17.8125 3.76406ZM4.6875 2.53594V4.6875H2.53594L4.6875 2.53594ZM15.9375 28.125H1.875V5.625H5.15625C5.28057 5.625 5.3998 5.57561 5.48771 5.48771C5.57561 5.3998 5.625 5.28057 5.625 5.15625V1.875H15.9375V3.13594C14.053 3.64763 12.3894 4.76531 11.2032 6.31647C10.0171 7.86763 9.37443 9.76605 9.37443 11.7188C9.37443 13.6714 10.0171 15.5699 11.2032 17.121C12.3894 18.6722 14.053 19.7899 15.9375 20.3016V28.125ZM18.2812 19.6875C16.2155 19.6876 14.2312 18.8821 12.75 17.4422L18.4734 11.7188H26.25C26.247 13.8313 25.4065 15.8564 23.9127 17.3502C22.4189 18.844 20.3938 19.6845 18.2812 19.6875Z" fill="#FFD73F"/>
<path d="M20.1562 9.84375H28.5937V9.84094C28.6561 9.83953 28.7176 9.82558 28.7745 9.79992C28.8314 9.77426 28.8826 9.73742 28.925 9.69159C28.9673 9.64576 29.0001 9.59187 29.0212 9.53314C29.0423 9.4744 29.0514 9.41201 29.0479 9.34969C28.9236 7.07611 27.9323 4.93671 26.2783 3.37186C24.6242 1.80701 22.4332 0.935782 20.1562 0.937503C20.0319 0.937503 19.9127 0.986889 19.8248 1.0748C19.7369 1.1627 19.6875 1.28193 19.6875 1.40625V9.375C19.6875 9.49932 19.7369 9.61855 19.8248 9.70646C19.9127 9.79437 20.0319 9.84375 20.1562 9.84375ZM28.0697 8.90625H20.625V1.8886C22.4927 1.99717 24.2625 2.76002 25.6238 4.04328C26.9851 5.32654 27.8511 7.04823 28.0697 8.90625Z" fill="#FFD73F"/>
<path d="M8.90625 18.75C8.07186 18.75 7.25621 18.9974 6.56244 19.461C5.86867 19.9245 5.32794 20.5834 5.00864 21.3543C4.68933 22.1252 4.60578 22.9734 4.76856 23.7918C4.93135 24.6101 5.33314 25.3619 5.92314 25.9519C6.51315 26.5419 7.26486 26.9437 8.08321 27.1064C8.90157 27.2692 9.74982 27.1857 10.5207 26.8664C11.2916 26.5471 11.9505 26.0063 12.414 25.3126C12.8776 24.6188 13.125 23.8031 13.125 22.9688C13.1233 21.8504 12.6782 20.7784 11.8874 19.9876C11.0966 19.1968 10.0246 18.7517 8.90625 18.75ZM8.90625 26.25C8.25728 26.25 7.62289 26.0576 7.08329 25.697C6.54369 25.3365 6.12312 24.824 5.87477 24.2244C5.62642 23.6249 5.56144 22.9651 5.68805 22.3286C5.81466 21.6921 6.12717 21.1074 6.58606 20.6486C7.04495 20.1897 7.62961 19.8772 8.26611 19.7505C8.90261 19.6239 9.56236 19.6889 10.1619 19.9373C10.7615 20.1856 11.274 20.6062 11.6345 21.1458C11.9951 21.6854 12.1875 22.3198 12.1875 22.9688C12.1865 23.8387 11.8405 24.6727 11.2253 25.2878C10.6102 25.903 9.77619 26.249 8.90625 26.25Z" fill="#FFD73F"/>
<path d="M10.3125 23.9062C10.311 24.1962 10.2202 24.4787 10.0525 24.7152C9.88471 24.9517 9.64816 25.1308 9.375 25.2281V25.7812H8.4375V25.2281C8.16434 25.1308 7.92779 24.9517 7.76004 24.7152C7.59229 24.4787 7.50149 24.1962 7.5 23.9062H8.4375C8.4375 23.999 8.46499 24.0896 8.5165 24.1667C8.56801 24.2438 8.64121 24.3038 8.72687 24.3393C8.81252 24.3748 8.90677 24.3841 8.9977 24.366C9.08863 24.3479 9.17215 24.3033 9.23771 24.2377C9.30326 24.1722 9.34791 24.0886 9.36599 23.9977C9.38408 23.9068 9.3748 23.8125 9.33932 23.7269C9.30384 23.6412 9.24376 23.568 9.16667 23.5165C9.08959 23.465 8.99896 23.4375 8.90625 23.4375C8.57646 23.4349 8.25807 23.3166 8.00672 23.103C7.75537 22.8895 7.58707 22.5945 7.53122 22.2694C7.47537 21.9444 7.53554 21.6101 7.7012 21.3249C7.86686 21.0397 8.12748 20.8219 8.4375 20.7094V20.1562H9.375V20.7094C9.64816 20.8067 9.88471 20.9858 10.0525 21.2223C10.2202 21.4588 10.311 21.7413 10.3125 22.0312H9.375C9.375 21.9385 9.34751 21.8479 9.296 21.7708C9.24449 21.6937 9.17129 21.6337 9.08563 21.5982C8.99998 21.5627 8.90573 21.5534 8.8148 21.5715C8.72387 21.5896 8.64035 21.6342 8.57479 21.6998C8.50924 21.7653 8.46459 21.8489 8.44651 21.9398C8.42842 22.0307 8.4377 22.125 8.47318 22.2106C8.50866 22.2963 8.56874 22.3695 8.64583 22.421C8.72291 22.4725 8.81354 22.5 8.90625 22.5C9.27887 22.5011 9.63591 22.6496 9.89939 22.9131C10.1629 23.1766 10.3114 23.5336 10.3125 23.9062Z" fill="#FFD73F"/>
<path d="M3.75 7.5H8.4375V8.4375H3.75V7.5Z" fill="#FFD73F"/>
<path d="M3.75 10.3125H8.4375V11.25H3.75V10.3125Z" fill="#FFD73F"/>
<path d="M3.75 13.125H8.4375V14.0625H3.75V13.125Z" fill="#FFD73F"/>
<path d="M3.75 15.9375H8.4375V16.875H3.75V15.9375Z" fill="#FFD73F"/>
</svg>
