<svg width="30" height="30" viewBox="0 0 30 30" fill="none" xmlns="http://www.w3.org/2000/svg">
<path d="M4.24863 24.5396C4.28215 24.629 4.34213 24.7059 4.42055 24.7603C4.49897 24.8146 4.5921 24.8437 4.6875 24.8437C4.7829 24.8437 4.87603 24.8146 4.95445 24.7603C5.03287 24.7059 5.09285 24.629 5.12637 24.5396L6.53262 20.7896C6.55245 20.737 6.56257 20.6812 6.5625 20.625V7.26562C6.56202 6.83065 6.38901 6.41363 6.08144 6.10606C5.77387 5.79849 5.35685 5.62548 4.92188 5.625H4.45313C4.01815 5.62548 3.60113 5.79849 3.29356 6.10606C2.98599 6.41363 2.81298 6.83065 2.8125 7.26562V20.625C2.81243 20.6812 2.82255 20.737 2.84238 20.7896L4.24863 24.5396ZM4.6875 23.0402L4.1332 21.5625H5.2418L4.6875 23.0402ZM3.75 7.26562C3.75016 7.07919 3.82428 6.90044 3.95611 6.76861C4.08794 6.63678 4.26669 6.56266 4.45313 6.5625H4.92188C5.10831 6.56266 5.28706 6.63678 5.41889 6.76861C5.55072 6.90044 5.62485 7.07919 5.625 7.26562V8.4375H3.75V7.26562ZM3.75 9.375H4.21875V16.4062C4.21875 16.5306 4.26814 16.6498 4.35604 16.7377C4.44395 16.8256 4.56318 16.875 4.6875 16.875C4.81182 16.875 4.93105 16.8256 5.01896 16.7377C5.10686 16.6498 5.15625 16.5306 5.15625 16.4062V9.375H5.625V19.2187H3.75V9.375ZM3.75 20.1562H5.625V20.54L5.59336 20.625H3.78164L3.75 20.54V20.1562Z" fill="#FFD73F"/>
<path d="M26.7188 1.875C26.0543 1.87591 25.4116 2.11163 24.9042 2.5405C24.3967 2.96936 24.0572 3.56379 23.9455 4.21875H12.1875V1.40625C12.1875 1.28193 12.1381 1.1627 12.0502 1.07479C11.9623 0.986886 11.8431 0.9375 11.7188 0.9375H7.96875C7.84443 0.9375 7.7252 0.986886 7.63729 1.07479C7.54939 1.1627 7.5 1.28193 7.5 1.40625V4.21875H0.9375C0.81318 4.21875 0.693951 4.26814 0.606044 4.35604C0.518136 4.44395 0.46875 4.56318 0.46875 4.6875V25.7812C0.46875 25.9056 0.518136 26.0248 0.606044 26.1127C0.693951 26.2006 0.81318 26.25 0.9375 26.25H7.5V28.5938C7.5 28.7181 7.54939 28.8373 7.63729 28.9252C7.7252 29.0131 7.84443 29.0625 7.96875 29.0625H11.7188C11.8431 29.0625 11.9623 29.0131 12.0502 28.9252C12.1381 28.8373 12.1875 28.7181 12.1875 28.5938V26.25H26.7188C27.4644 26.2492 28.1793 25.9526 28.7066 25.4254C29.2339 24.8981 29.5305 24.1832 29.5312 23.4375V4.6875C29.5305 3.94182 29.2339 3.22691 28.7066 2.69964C28.1793 2.17236 27.4644 1.87579 26.7188 1.875ZM7.5 25.3125H1.40625V5.15625H7.5V25.3125ZM11.25 2.8125H9.84375C9.71943 2.8125 9.6002 2.86189 9.51229 2.94979C9.42439 3.0377 9.375 3.15693 9.375 3.28125C9.375 3.40557 9.42439 3.5248 9.51229 3.61271C9.6002 3.70061 9.71943 3.75 9.84375 3.75H11.25V5.15625H9.84375C9.71943 5.15625 9.6002 5.20564 9.51229 5.29354C9.42439 5.38145 9.375 5.50068 9.375 5.625C9.375 5.74932 9.42439 5.86855 9.51229 5.95646C9.6002 6.04436 9.71943 6.09375 9.84375 6.09375H11.25V7.5H9.84375C9.71943 7.5 9.6002 7.54939 9.51229 7.63729C9.42439 7.7252 9.375 7.84443 9.375 7.96875C9.375 8.09307 9.42439 8.2123 9.51229 8.30021C9.6002 8.38811 9.71943 8.4375 9.84375 8.4375H11.25V9.84375H9.84375C9.71943 9.84375 9.6002 9.89314 9.51229 9.98104C9.42439 10.069 9.375 10.1882 9.375 10.3125C9.375 10.4368 9.42439 10.556 9.51229 10.644C9.6002 10.7319 9.71943 10.7812 9.84375 10.7812H11.25V12.1875H9.84375C9.71943 12.1875 9.6002 12.2369 9.51229 12.3248C9.42439 12.4127 9.375 12.5319 9.375 12.6562C9.375 12.7806 9.42439 12.8998 9.51229 12.9877C9.6002 13.0756 9.71943 13.125 9.84375 13.125H11.25V14.5312H9.84375C9.71943 14.5312 9.6002 14.5806 9.51229 14.6685C9.42439 14.7565 9.375 14.8757 9.375 15C9.375 15.1243 9.42439 15.2435 9.51229 15.3315C9.6002 15.4194 9.71943 15.4688 9.84375 15.4688H11.25V16.875H9.84375C9.71943 16.875 9.6002 16.9244 9.51229 17.0123C9.42439 17.1002 9.375 17.2194 9.375 17.3438C9.375 17.4681 9.42439 17.5873 9.51229 17.6752C9.6002 17.7631 9.71943 17.8125 9.84375 17.8125H11.25V19.2188H9.84375C9.71943 19.2188 9.6002 19.2681 9.51229 19.356C9.42439 19.444 9.375 19.5632 9.375 19.6875C9.375 19.8118 9.42439 19.931 9.51229 20.019C9.6002 20.1069 9.71943 20.1562 9.84375 20.1562H11.25V21.5625H9.84375C9.71943 21.5625 9.6002 21.6119 9.51229 21.6998C9.42439 21.7877 9.375 21.9069 9.375 22.0312C9.375 22.1556 9.42439 22.2748 9.51229 22.3627C9.6002 22.4506 9.71943 22.5 9.84375 22.5H11.25V23.9062H9.84375C9.71943 23.9062 9.6002 23.9556 9.51229 24.0435C9.42439 24.1315 9.375 24.2507 9.375 24.375C9.375 24.4993 9.42439 24.6185 9.51229 24.7065C9.6002 24.7944 9.71943 24.8438 9.84375 24.8438H11.25V26.25H9.84375C9.71943 26.25 9.6002 26.2994 9.51229 26.3873C9.42439 26.4752 9.375 26.5944 9.375 26.7188C9.375 26.8431 9.42439 26.9623 9.51229 27.0502C9.6002 27.1381 9.71943 27.1875 9.84375 27.1875H11.25V28.125H8.4375V1.875H11.25V2.8125ZM26.7188 25.3125H12.1875V5.15625H23.9062V23.4375C23.9062 23.5618 23.9556 23.681 24.0435 23.769C24.1315 23.8569 24.2507 23.9062 24.375 23.9062C24.4993 23.9062 24.6185 23.8569 24.7065 23.769C24.7944 23.681 24.8438 23.5618 24.8438 23.4375C24.8438 23.0667 24.9537 22.7041 25.1597 22.3958C25.3658 22.0875 25.6586 21.8471 26.0012 21.7052C26.3438 21.5633 26.7208 21.5262 27.0845 21.5985C27.4483 21.6709 27.7824 21.8495 28.0446 22.1117C28.3068 22.3739 28.4854 22.708 28.5577 23.0717C28.6301 23.4354 28.5929 23.8124 28.451 24.155C28.3091 24.4976 28.0688 24.7905 27.7604 24.9965C27.4521 25.2025 27.0896 25.3125 26.7188 25.3125ZM28.5938 21.3434C28.0787 20.8809 27.411 20.6251 26.7189 20.625C26.0267 20.6249 25.3589 20.8805 24.8438 21.3428V4.6875C24.8438 4.19022 25.0413 3.71331 25.3929 3.36167C25.7446 3.01004 26.2215 2.8125 26.7188 2.8125C27.216 2.8125 27.6929 3.01004 28.0446 3.36167C28.3962 3.71331 28.5938 4.19022 28.5938 4.6875V21.3434Z" fill="#FFD73F"/>
<path d="M4.6875 17.3438C4.56318 17.3438 4.44395 17.3931 4.35604 17.481C4.26814 17.569 4.21875 17.6882 4.21875 17.8125V18.2812C4.21875 18.4056 4.26814 18.5248 4.35604 18.6127C4.44395 18.7006 4.56318 18.75 4.6875 18.75C4.81182 18.75 4.93105 18.7006 5.01896 18.6127C5.10686 18.5248 5.15625 18.4056 5.15625 18.2812V17.8125C5.15625 17.6882 5.10686 17.569 5.01896 17.481C4.93105 17.3931 4.81182 17.3438 4.6875 17.3438Z" fill="#FFD73F"/>
</svg>
