<svg width="30" height="30" viewBox="0 0 30 30" fill="none" xmlns="http://www.w3.org/2000/svg">
<path d="M26.7188 3.75C26.0543 3.75091 25.4116 3.98663 24.9042 4.4155C24.3967 4.84437 24.0572 5.43879 23.9455 6.09375H8.4375V3.98438C8.43702 3.5494 8.26401 3.13238 7.95644 2.82481C7.64887 2.51724 7.23185 2.34423 6.79688 2.34375H6.32812C5.89315 2.34423 5.47613 2.51724 5.16856 2.82481C4.86099 3.13238 4.68798 3.5494 4.6875 3.98438V6.09375H0.9375C0.81318 6.09375 0.693951 6.14314 0.606044 6.23104C0.518136 6.31895 0.46875 6.43818 0.46875 6.5625V27.6562C0.46875 27.7806 0.518136 27.8998 0.606044 27.9877C0.693951 28.0756 0.81318 28.125 0.9375 28.125H26.7188C27.4644 28.1242 28.1793 27.8276 28.7066 27.3004C29.2339 26.7731 29.5305 26.0582 29.5312 25.3125V6.5625C29.5305 5.81682 29.2339 5.10191 28.7066 4.57464C28.1793 4.04736 27.4644 3.75079 26.7188 3.75ZM5.625 3.98438C5.62515 3.79794 5.69928 3.61919 5.83111 3.48736C5.96294 3.35553 6.14169 3.28141 6.32812 3.28125H6.79688C6.98331 3.28141 7.16206 3.35553 7.29389 3.48736C7.42572 3.61919 7.49985 3.79794 7.5 3.98438V5.15625H5.625V3.98438ZM5.625 6.09375H6.09375V13.125C6.09375 13.2493 6.14314 13.3685 6.23104 13.4565C6.31895 13.5444 6.43818 13.5938 6.5625 13.5938C6.68682 13.5938 6.80605 13.5444 6.89396 13.4565C6.98186 13.3685 7.03125 13.2493 7.03125 13.125V6.09375H7.5V15.9375H5.625V6.09375ZM5.625 16.875H7.5V17.2588L7.46836 17.3438H5.65664L5.625 17.2588V16.875ZM7.1168 18.2812L6.5625 19.759L6.0082 18.2812H7.1168ZM4.71738 17.5084L6.12363 21.2584C6.15715 21.3477 6.21713 21.4247 6.29555 21.479C6.37397 21.5334 6.4671 21.5625 6.5625 21.5625C6.6579 21.5625 6.75103 21.5334 6.82945 21.479C6.90787 21.4247 6.96785 21.3477 7.00137 21.2584L8.40762 17.5084C8.42745 17.4558 8.43757 17.4 8.4375 17.3438V8.90625H10.3125V11.7188C10.3125 11.8431 10.3619 11.9623 10.4498 12.0502C10.5377 12.1381 10.6569 12.1875 10.7812 12.1875H15.4688V16.4062H11.25C11.1257 16.4062 11.0065 16.4556 10.9185 16.5435C10.8306 16.6315 10.7812 16.7507 10.7812 16.875V24.8438H3.28125V8.90625H4.6875V17.3438C4.68743 17.4 4.69755 17.4558 4.71738 17.5084ZM16.4062 16.4062V11.7188C16.4062 11.5944 16.3569 11.4752 16.269 11.3873C16.181 11.2994 16.0618 11.25 15.9375 11.25H11.25V8.90625H19.2188V16.4062H16.4062ZM19.2188 17.3438V24.8438H11.7188V17.3438H19.2188ZM26.7188 27.1875H1.40625V7.03125H4.6875V7.96875H2.8125C2.68818 7.96875 2.56895 8.01814 2.48104 8.10604C2.39314 8.19395 2.34375 8.31318 2.34375 8.4375V25.3125C2.34375 25.4368 2.39314 25.556 2.48104 25.644C2.56895 25.7319 2.68818 25.7812 2.8125 25.7812H19.6875C19.8118 25.7812 19.931 25.7319 20.019 25.644C20.1069 25.556 20.1562 25.4368 20.1562 25.3125V8.4375C20.1562 8.31318 20.1069 8.19395 20.019 8.10604C19.931 8.01814 19.8118 7.96875 19.6875 7.96875H8.4375V7.03125H23.9062V25.3125C23.9062 25.4368 23.9556 25.556 24.0435 25.644C24.1315 25.7319 24.2507 25.7812 24.375 25.7812C24.4993 25.7812 24.6185 25.7319 24.7065 25.644C24.7944 25.556 24.8438 25.4368 24.8438 25.3125C24.8438 24.9417 24.9537 24.5791 25.1597 24.2708C25.3658 23.9625 25.6586 23.7221 26.0012 23.5802C26.3438 23.4383 26.7208 23.4012 27.0845 23.4735C27.4483 23.5459 27.7824 23.7245 28.0446 23.9867C28.3068 24.2489 28.4854 24.583 28.5577 24.9467C28.6301 25.3104 28.5929 25.6874 28.451 26.03C28.3091 26.3726 28.0688 26.6655 27.7604 26.8715C27.4521 27.0775 27.0896 27.1875 26.7188 27.1875ZM28.5938 23.2184C28.0787 22.7559 27.411 22.5001 26.7189 22.5C26.0267 22.4999 25.3589 22.7555 24.8438 23.2178V6.5625C24.8438 6.06522 25.0413 5.58831 25.3929 5.23667C25.7446 4.88504 26.2215 4.6875 26.7188 4.6875C27.216 4.6875 27.6929 4.88504 28.0446 5.23667C28.3962 5.58831 28.5938 6.06522 28.5938 6.5625V23.2184Z" fill="#FFD73F"/>
<path d="M6.09375 15C6.09375 15.1243 6.14314 15.2435 6.23104 15.3315C6.31895 15.4194 6.43818 15.4688 6.5625 15.4688C6.68682 15.4688 6.80605 15.4194 6.89396 15.3315C6.98186 15.2435 7.03125 15.1243 7.03125 15V14.5312C7.03125 14.4069 6.98186 14.2877 6.89396 14.1998C6.80605 14.1119 6.68682 14.0625 6.5625 14.0625C6.43818 14.0625 6.31895 14.1119 6.23104 14.1998C6.14314 14.2877 6.09375 14.4069 6.09375 14.5312V15Z" fill="#FFD73F"/>
</svg>
