<svg width="36" height="36" viewBox="0 0 36 36" fill="none" xmlns="http://www.w3.org/2000/svg">
<path d="M36 0H0V36H36V0Z" fill="#3F3F3F"/>
<path d="M28.3467 7.94704L4.27301 17.3283C3.49326 17.6322 3.5405 18.7511 4.34316 18.9881L10.4605 20.7945L12.7435 28.0388C12.982 28.7954 13.9409 29.0248 14.496 28.4581L17.6589 25.2286L23.8646 29.7838C24.6241 30.3413 25.7057 29.9271 25.8985 29.005L30.0086 9.35448C30.2099 8.39193 29.2629 7.58999 28.3467 7.94704ZM25.3285 12.308L14.1464 22.1963C14.0349 22.2949 13.964 22.4313 13.9474 22.5792L13.5169 26.4063C13.5028 26.5311 13.3282 26.5476 13.2909 26.4277L11.5196 20.7201C11.4385 20.4588 11.5442 20.1757 11.7767 20.0315L24.9816 11.8418C25.2852 11.6533 25.5962 12.0713 25.3285 12.308Z" fill="#BABABA"/>
</svg>
