<svg width="16" height="16" viewBox="0 0 16 16" fill="none" xmlns="http://www.w3.org/2000/svg">
<path d="M15.0105 4.01221C14.0973 4.01221 13.2548 3.70971 12.5783 3.19939C11.8023 2.61439 11.2448 1.75627 11.048 0.767207C10.9992 0.522832 10.973 0.270645 10.9705 0.012207H8.36202V7.13971L8.3589 11.0438C8.3589 12.0875 7.67921 12.9725 6.73702 13.2838C6.46359 13.3741 6.16827 13.4169 5.86077 13.4C5.46827 13.3785 5.10046 13.26 4.78077 13.0688C4.10046 12.6619 3.63921 11.9238 3.62671 11.0794C3.60702 9.75971 4.6739 8.68377 5.99265 8.68377C6.25296 8.68377 6.50296 8.72627 6.73702 8.80346V6.85533V6.15502C6.49015 6.11846 6.2389 6.0994 5.98484 6.0994C4.5414 6.0994 3.1914 6.6994 2.2264 7.78033C1.49702 8.59721 1.05952 9.63939 0.992025 10.7322C0.903587 12.1678 1.4289 13.5325 2.44765 14.5394C2.59734 14.6872 2.75452 14.8244 2.9189 14.951C3.79234 15.6231 4.86015 15.9875 5.98484 15.9875C6.2389 15.9875 6.49015 15.9688 6.73702 15.9322C7.78765 15.7766 8.75702 15.2956 9.52202 14.5394C10.462 13.6103 10.9814 12.3769 10.987 11.0641L10.9736 5.23408C11.422 5.58002 11.9123 5.86627 12.4386 6.08846C13.257 6.43377 14.1248 6.60877 15.018 6.60846V4.7144V4.01158C15.0186 4.01221 15.0111 4.01221 15.0105 4.01221Z" fill="#818181"/>
</svg>
