<svg width="104" height="30" viewBox="0 0 104 30" fill="none" xmlns="http://www.w3.org/2000/svg">
<path d="M15.1308 21.0541L14.0982 17.1244H7.28574L6.22443 21.0541H0L6.84114 0H14.3994L21.3266 21.0541H15.1308ZM12.9222 12.4776L12.0186 9.03547C11.8083 8.27056 11.5501 7.28096 11.2441 6.06667C10.9477 4.85238 10.7517 3.9823 10.6561 3.45643C10.5701 3.94405 10.398 4.74721 10.1398 5.86588C9.89121 6.98456 9.33187 9.18845 8.46179 12.4776H12.9222Z" fill="#2D9CDB"/>
<path d="M33.203 4.51774C33.6906 4.51774 34.1543 4.55598 34.5942 4.63247L34.9097 4.68984L34.4077 9.98204C33.9488 9.86731 33.3129 9.80994 32.5002 9.80994C31.2764 9.80994 30.3872 10.092 29.8326 10.6561C29.278 11.2107 29.0008 12.0138 29.0008 13.0656V21.0541H23.393V4.80458H27.5666L28.4414 7.40048H28.7139C29.1824 6.53996 29.8326 5.84676 30.6644 5.32089C31.5058 4.78545 32.352 4.51774 33.203 4.51774Z" fill="#2D9CDB"/>
<path d="M45.2658 16.9092C46.0212 16.9092 46.9247 16.7228 47.9765 16.3499V20.4374C47.2211 20.7625 46.4992 20.9919 45.8108 21.1258C45.132 21.2692 44.3336 21.3409 43.4157 21.3409C41.5321 21.3409 40.1744 20.882 39.3426 19.9641C38.5107 19.0366 38.0948 17.6168 38.0948 15.7045V9.00679H36.13V6.72641L38.6255 4.96234L40.074 1.54894H43.7456V4.80458H47.7326V9.00679H43.7456V15.3316C43.7456 16.3834 44.2523 16.9092 45.2658 16.9092Z" fill="#2D9CDB"/>
<path d="M66.4789 6.75509C66.4789 9.09762 65.7857 10.9095 64.3993 12.1907C63.0224 13.4624 61.0624 14.0982 58.519 14.0982H56.9271V21.0541H51.262V0.0860521H58.519C61.1675 0.0860521 63.1563 0.664513 64.4853 1.82144C65.8144 2.97836 66.4789 4.62291 66.4789 6.75509ZM56.9271 9.48007H57.9597C58.8107 9.48007 59.4847 9.24104 59.9819 8.76297C60.4887 8.2849 60.7421 7.62517 60.7421 6.78377C60.7421 5.36869 59.958 4.66116 58.39 4.66116H56.9271V9.48007Z" fill="#2D9CDB"/>
<path d="M80.2054 21.0541L79.1297 18.9028H79.015C78.2597 19.8398 77.49 20.4804 76.7059 20.8246C75.9219 21.1688 74.9084 21.3409 73.6654 21.3409C72.1356 21.3409 70.9309 20.882 70.0512 19.9641C69.1716 19.0462 68.7318 17.7554 68.7318 16.0917C68.7318 14.3611 69.3341 13.0751 70.5389 12.2337C71.7436 11.3828 73.4885 10.9047 75.7737 10.7995L78.4843 10.7135V10.484C78.4843 9.14543 77.8246 8.47613 76.5051 8.47613C75.3195 8.47613 73.8136 8.87771 71.9874 9.68086L70.3668 5.98062C72.2599 5.00536 74.6502 4.51774 77.5378 4.51774C79.6221 4.51774 81.2332 5.03405 82.371 6.06667C83.5184 7.0993 84.0921 8.54306 84.0921 10.398V21.0541H80.2054ZM76.0462 17.3825C76.7251 17.3825 77.3035 17.1674 77.7816 16.7371C78.2692 16.3069 78.513 15.7475 78.513 15.0591V13.797L77.2222 13.8544C75.3769 13.9213 74.4542 14.6002 74.4542 15.891C74.4542 16.8853 74.9849 17.3825 76.0462 17.3825Z" fill="#2D9CDB"/>
<path d="M86.0581 4.80458H91.967L94.7207 14.1269C94.8546 14.6145 94.9454 15.2025 94.9932 15.891H95.1079C95.1844 15.2312 95.2992 14.6528 95.4522 14.1556L98.2775 4.80458H104L97.5748 22.0867C96.7525 24.2858 95.739 25.8395 94.5343 26.7479C93.3391 27.6562 91.7758 28.1104 89.8444 28.1104C89.0986 28.1104 88.3337 28.0291 87.5497 27.8665V23.4635C88.0565 23.5783 88.6349 23.6356 89.2851 23.6356C89.7823 23.6356 90.2173 23.54 90.5902 23.3488C90.9631 23.1576 91.2882 22.8851 91.5655 22.5313C91.8428 22.1871 92.1392 21.6182 92.4547 20.8246L86.0581 4.80458Z" fill="#2D9CDB"/>
<path d="M3.24643 29.6338C2.7002 29.6338 2.20551 29.5153 1.76235 29.2782C1.32434 29.036 0.979081 28.7036 0.726581 28.2811C0.479234 27.8585 0.35556 27.3819 0.35556 26.8511C0.35556 26.3204 0.48181 25.8437 0.73431 25.4211C0.98681 24.9986 1.33207 24.6688 1.77008 24.4318C2.21324 24.1896 2.70793 24.0685 3.25416 24.0685C3.69732 24.0685 4.10184 24.1458 4.4677 24.3004C4.83357 24.4549 5.14275 24.6791 5.39525 24.9728L4.74597 25.5835C4.35434 25.1609 3.87252 24.9496 3.30053 24.9496C2.92951 24.9496 2.59714 25.0321 2.30342 25.197C2.00969 25.3567 1.78038 25.5809 1.61548 25.8695C1.45059 26.158 1.36814 26.4853 1.36814 26.8511C1.36814 27.217 1.45059 27.5442 1.61548 27.8328C1.78038 28.1214 2.00969 28.3481 2.30342 28.513C2.59714 28.6727 2.92951 28.7526 3.30053 28.7526C3.87252 28.7526 4.35434 28.5388 4.74597 28.111L5.39525 28.7294C5.14275 29.0231 4.83099 29.2473 4.45997 29.4019C4.09411 29.5565 3.68959 29.6338 3.24643 29.6338Z" fill="#2D9CDB"/>
<path d="M6.33597 25.4289H7.30217V28.1497L9.5824 25.4289H10.4636V29.5565H9.49737V26.8357L7.22487 29.5565H6.33597V25.4289Z" fill="#2D9CDB"/>
<path d="M13.7575 29.6106C13.3298 29.6106 12.9459 29.5204 12.6058 29.3401C12.2657 29.1597 12.0003 28.9098 11.8097 28.5903C11.619 28.2656 11.5237 27.8998 11.5237 27.4927C11.5237 27.0856 11.619 26.7223 11.8097 26.4028C12.0003 26.0833 12.2631 25.8334 12.5981 25.653C12.9382 25.4727 13.3247 25.3825 13.7575 25.3825C14.1646 25.3825 14.5202 25.4649 14.8242 25.6298C15.1334 25.7947 15.3653 26.0318 15.5199 26.341L14.7778 26.7738C14.6593 26.5832 14.5099 26.4415 14.3295 26.3487C14.1543 26.2508 13.9611 26.2018 13.7498 26.2018C13.3891 26.2018 13.0902 26.3204 12.8532 26.5574C12.6161 26.7893 12.4976 27.101 12.4976 27.4927C12.4976 27.8843 12.6135 28.1986 12.8454 28.4357C13.0825 28.6676 13.3839 28.7835 13.7498 28.7835C13.9611 28.7835 14.1543 28.7371 14.3295 28.6444C14.5099 28.5465 14.6593 28.4022 14.7778 28.2115L15.5199 28.6444C15.3601 28.9536 15.1257 29.1932 14.8165 29.3632C14.5124 29.5281 14.1595 29.6106 13.7575 29.6106Z" fill="#2D9CDB"/>
<path d="M19.7184 26.2482H18.2729V29.5565H17.3067V26.2482H15.8536V25.4289H19.7184V26.2482Z" fill="#2D9CDB"/>
<path d="M24.2188 27.5159C24.2188 27.5829 24.2137 27.6782 24.2033 27.8019H20.9646C21.0213 28.1059 21.1682 28.3481 21.4052 28.5284C21.6474 28.7036 21.9463 28.7913 22.3019 28.7913C22.7553 28.7913 23.1289 28.6418 23.4227 28.3429L23.9405 28.9381C23.755 29.1597 23.5206 29.3272 23.2371 29.4405C22.9537 29.5539 22.6342 29.6106 22.2787 29.6106C21.8252 29.6106 21.4258 29.5204 21.0806 29.3401C20.7353 29.1597 20.4674 28.9098 20.2767 28.5903C20.0912 28.2656 19.9984 27.8998 19.9984 27.4927C19.9984 27.0907 20.0886 26.73 20.269 26.4105C20.4545 26.0859 20.7096 25.8334 21.0342 25.653C21.3589 25.4727 21.7247 25.3825 22.1318 25.3825C22.5338 25.3825 22.8919 25.4727 23.2062 25.653C23.5257 25.8282 23.7731 26.0782 23.9483 26.4028C24.1286 26.7223 24.2188 27.0933 24.2188 27.5159ZM22.1318 26.1555C21.8226 26.1555 21.5598 26.2482 21.3434 26.4337C21.1321 26.6141 21.0033 26.8563 20.9569 27.1603H23.299C23.2578 26.8614 23.1315 26.6192 22.9202 26.4337C22.709 26.2482 22.4461 26.1555 22.1318 26.1555Z" fill="#2D9CDB"/>
<path d="M29.4496 29.5565V26.8202L28.0582 29.1236H27.6408L26.2727 26.8125V29.5565H25.3915V25.4289H26.4041L27.8727 28.0106L29.4109 25.4289H30.3153L30.323 29.5565H29.4496Z" fill="#2D9CDB"/>
<path d="M33.2731 25.3825C33.8812 25.3825 34.345 25.5294 34.6644 25.8231C34.9891 26.1117 35.1514 26.5497 35.1514 27.1371V29.5565H34.2393V29.0541C34.1208 29.2344 33.9507 29.3735 33.7292 29.4715C33.5127 29.5642 33.2499 29.6106 32.9407 29.6106C32.6316 29.6106 32.361 29.5591 32.1291 29.456C31.8972 29.3478 31.7169 29.2009 31.5881 29.0154C31.4644 28.8247 31.4026 28.6109 31.4026 28.3739C31.4026 28.0028 31.5391 27.7065 31.8122 27.4849C32.0905 27.2582 32.5259 27.1448 33.1185 27.1448H34.1852V27.083C34.1852 26.7944 34.0976 26.5729 33.9224 26.4183C33.7524 26.2637 33.4973 26.1864 33.1572 26.1864C32.9253 26.1864 32.696 26.2224 32.4692 26.2946C32.2477 26.3667 32.0596 26.4672 31.905 26.596L31.5262 25.8927C31.7427 25.7278 32.0029 25.6015 32.3069 25.5139C32.611 25.4263 32.933 25.3825 33.2731 25.3825ZM33.1417 28.9072C33.3839 28.9072 33.5978 28.8531 33.7833 28.7449C33.9739 28.6315 34.1079 28.4718 34.1852 28.2656V27.7864H33.1881C32.6316 27.7864 32.3533 27.9693 32.3533 28.3352C32.3533 28.5104 32.4229 28.6495 32.562 28.7526C32.7011 28.8557 32.8944 28.9072 33.1417 28.9072Z" fill="#2D9CDB"/>
<path d="M42.6727 25.4289V29.5565H41.7142V26.2482H39.6813V29.5565H38.7151V25.4289H42.6727Z" fill="#2D9CDB"/>
<path d="M47.8334 25.4289V29.5565H46.8672V26.2482H45.3213L45.2827 27.0676C45.2569 27.6138 45.2054 28.0724 45.1281 28.4434C45.0559 28.8093 44.9297 29.1004 44.7493 29.3169C44.5741 29.5281 44.3319 29.6338 44.0227 29.6338C43.8785 29.6338 43.7007 29.6054 43.4894 29.5488L43.5358 28.7371C43.6079 28.7526 43.6698 28.7603 43.7213 28.7603C43.9171 28.7603 44.064 28.683 44.1619 28.5284C44.2598 28.3687 44.3216 28.1806 44.3474 27.9642C44.3783 27.7426 44.4041 27.4283 44.4247 27.0212L44.4943 25.4289H47.8334Z" fill="#2D9CDB"/>
<path d="M50.7888 25.3825C51.3969 25.3825 51.8606 25.5294 52.1801 25.8231C52.5048 26.1117 52.6671 26.5497 52.6671 27.1371V29.5565H51.755V29.0541C51.6365 29.2344 51.4664 29.3735 51.2448 29.4715C51.0284 29.5642 50.7656 29.6106 50.4564 29.6106C50.1472 29.6106 49.8767 29.5591 49.6448 29.456C49.4129 29.3478 49.2326 29.2009 49.1037 29.0154C48.9801 28.8247 48.9182 28.6109 48.9182 28.3739C48.9182 28.0028 49.0548 27.7065 49.3279 27.4849C49.6062 27.2582 50.0416 27.1448 50.6342 27.1448H51.7009V27.083C51.7009 26.7944 51.6133 26.5729 51.4381 26.4183C51.268 26.2637 51.013 26.1864 50.6729 26.1864C50.441 26.1864 50.2117 26.2224 49.9849 26.2946C49.7633 26.3667 49.5753 26.4672 49.4207 26.596L49.0419 25.8927C49.2583 25.7278 49.5186 25.6015 49.8226 25.5139C50.1266 25.4263 50.4487 25.3825 50.7888 25.3825ZM50.6574 28.9072C50.8996 28.9072 51.1134 28.8531 51.2989 28.7449C51.4896 28.6315 51.6236 28.4718 51.7009 28.2656V27.7864H50.7038C50.1472 27.7864 49.869 27.9693 49.869 28.3352C49.869 28.5104 49.9385 28.6495 50.0777 28.7526C50.2168 28.8557 50.41 28.9072 50.6574 28.9072Z" fill="#2D9CDB"/>
<path d="M57.2483 26.2482H55.8028V29.5565H54.8366V26.2482H53.3835V25.4289H57.2483V26.2482Z" fill="#2D9CDB"/>
<path d="M61.7487 27.5159C61.7487 27.5829 61.7435 27.6782 61.7332 27.8019H58.4945C58.5512 28.1059 58.6981 28.3481 58.9351 28.5284C59.1773 28.7036 59.4762 28.7913 59.8318 28.7913C60.2852 28.7913 60.6588 28.6418 60.9525 28.3429L61.4704 28.9381C61.2849 29.1597 61.0505 29.3272 60.767 29.4405C60.4836 29.5539 60.1641 29.6106 59.8086 29.6106C59.3551 29.6106 58.9557 29.5204 58.6105 29.3401C58.2652 29.1597 57.9973 28.9098 57.8066 28.5903C57.6211 28.2656 57.5283 27.8998 57.5283 27.4927C57.5283 27.0907 57.6185 26.73 57.7989 26.4105C57.9844 26.0859 58.2395 25.8334 58.5641 25.653C58.8887 25.4727 59.2546 25.3825 59.6617 25.3825C60.0636 25.3825 60.4218 25.4727 60.7361 25.653C61.0556 25.8282 61.303 26.0782 61.4782 26.4028C61.6585 26.7223 61.7487 27.0933 61.7487 27.5159ZM59.6617 26.1555C59.3525 26.1555 59.0897 26.2482 58.8733 26.4337C58.662 26.6141 58.5332 26.8563 58.4868 27.1603H60.8289C60.7877 26.8614 60.6614 26.6192 60.4501 26.4337C60.2389 26.2482 59.976 26.1555 59.6617 26.1555Z" fill="#2D9CDB"/>
<path d="M66.7271 27.9023H66.0314V29.5565H65.073V27.9023H64.3773L63.3724 29.5565H62.2285L63.5811 27.4231L62.329 25.4289H63.357L64.3618 27.0985H65.073V25.4289H66.0314V27.0985H66.7348L67.7474 25.4289H68.7754L67.5232 27.4231L68.8836 29.5565H67.7319L66.7271 27.9023Z" fill="#2D9CDB"/>
<path d="M73.4466 27.5159C73.4466 27.5829 73.4415 27.6782 73.4312 27.8019H70.1925C70.2492 28.1059 70.396 28.3481 70.6331 28.5284C70.8753 28.7036 71.1741 28.7913 71.5297 28.7913C71.9832 28.7913 72.3568 28.6418 72.6505 28.3429L73.1684 28.9381C72.9829 29.1597 72.7484 29.3272 72.465 29.4405C72.1816 29.5539 71.8621 29.6106 71.5065 29.6106C71.053 29.6106 70.6537 29.5204 70.3084 29.3401C69.9632 29.1597 69.6952 28.9098 69.5046 28.5903C69.319 28.2656 69.2263 27.8998 69.2263 27.4927C69.2263 27.0907 69.3165 26.73 69.4968 26.4105C69.6823 26.0859 69.9374 25.8334 70.2621 25.653C70.5867 25.4727 70.9526 25.3825 71.3597 25.3825C71.7616 25.3825 72.1197 25.4727 72.4341 25.653C72.7536 25.8282 73.0009 26.0782 73.1761 26.4028C73.3565 26.7223 73.4466 27.0933 73.4466 27.5159ZM71.3597 26.1555C71.0505 26.1555 70.7877 26.2482 70.5712 26.4337C70.36 26.6141 70.2311 26.8563 70.1848 27.1603H72.5268C72.4856 26.8614 72.3594 26.6192 72.1481 26.4337C71.9368 26.2482 71.674 26.1555 71.3597 26.1555Z" fill="#2D9CDB"/>
<path d="M74.6194 25.4289H75.5856V28.1497L77.8658 25.4289H78.747V29.5565H77.7808V26.8357L75.5083 29.5565H74.6194V25.4289ZM76.6213 24.9419C76.2039 24.9419 75.8845 24.8466 75.6629 24.6559C75.4464 24.4601 75.3356 24.1767 75.3305 23.8057H75.972C75.9772 23.9912 76.0339 24.138 76.1421 24.2463C76.2555 24.3545 76.4126 24.4086 76.6136 24.4086C76.8094 24.4086 76.964 24.3545 77.0774 24.2463C77.1959 24.138 77.2577 23.9912 77.2629 23.8057H77.9199C77.9148 24.1767 77.8014 24.4601 77.5798 24.6559C77.3582 24.8466 77.0387 24.9419 76.6213 24.9419Z" fill="#2D9CDB"/>
</svg>
