<svg width="298" height="215" viewBox="0 0 298 215" fill="none" xmlns="http://www.w3.org/2000/svg">
<path d="M18.7627 167.797V178.449H20.5234V169.471H24.8103V167.797H18.7627Z" fill="#333333"/>
<path d="M37.6028 177.049C38.6898 175.969 39.2257 174.66 39.2257 173.123C39.2257 171.586 38.6898 170.277 37.6028 169.212C36.5311 168.132 35.2144 167.599 33.668 167.599C32.1217 167.599 30.805 168.132 29.718 169.212C28.6462 170.277 28.1104 171.586 28.1104 173.123C28.1104 174.66 28.6462 175.969 29.718 177.049C30.805 178.115 32.1217 178.647 33.668 178.647C35.2144 178.647 36.5311 178.115 37.6028 177.049ZM30.9581 175.862C30.2385 175.132 29.8711 174.219 29.8711 173.123C29.8711 172.027 30.2385 171.114 30.9581 170.399C31.693 169.669 32.5963 169.303 33.668 169.303C34.7398 169.303 35.6431 169.669 36.3627 170.399C37.0975 171.114 37.465 172.027 37.465 173.123C37.465 174.219 37.0975 175.132 36.3627 175.862C35.6431 176.578 34.7398 176.943 33.668 176.943C32.5963 176.943 31.693 176.578 30.9581 175.862Z" fill="#333333"/>
<path d="M49.1146 178.647C50.0945 178.647 50.9978 178.419 51.8092 177.962C52.636 177.491 53.279 176.867 53.723 176.091L52.192 175.223C51.6408 176.273 50.4619 176.943 49.1146 176.943C47.9663 176.943 47.0477 176.578 46.3281 175.862C45.6239 175.147 45.2717 174.234 45.2717 173.123C45.2717 172.012 45.6239 171.099 46.3281 170.384C47.0477 169.669 47.9663 169.303 49.1146 169.303C50.4619 169.303 51.6255 169.973 52.192 171.023L53.723 170.14C52.8044 168.573 51.059 167.599 49.1146 167.599C47.507 167.599 46.1597 168.132 45.1033 169.197C44.0469 170.247 43.511 171.556 43.511 173.123C43.511 174.691 44.0469 175.999 45.1033 177.065C46.1597 178.115 47.507 178.647 49.1146 178.647Z" fill="#333333"/>
<path d="M57.4841 167.797V169.471H60.5156V178.449H62.2762V169.471H65.2924V167.797H57.4841Z" fill="#333333"/>
<path d="M78.0006 178.449V167.797H76.6226L71.5702 175.025V167.797H69.8095V178.449H71.1875L76.2399 171.221V178.449H78.0006Z" fill="#333333"/>
<path d="M89.71 172.164H85.1169V167.797H83.3562V178.449H85.1169V173.838H89.71V178.449H91.4707V167.797H89.71V172.164Z" fill="#333333"/>
<path d="M105.019 178.449V167.797H103.641L98.5888 175.025V167.797H96.8281V178.449H98.206L103.258 171.221V178.449H105.019Z" fill="#333333"/>
<path d="M116.116 172.667C115.412 173.017 114.631 173.184 113.789 173.184C112.625 173.184 111.906 172.514 111.906 171.419V167.797H110.145V171.601C110.145 172.59 110.482 173.382 111.14 173.975C111.814 174.569 112.687 174.858 113.758 174.858C114.585 174.858 115.366 174.691 116.116 174.356V178.449H117.877V167.797H116.116V172.667Z" fill="#333333"/>
<path d="M129.587 172.164H124.994V167.797H123.234V178.449H124.994V173.838H129.587V178.449H131.348V167.797H129.587V172.164Z" fill="#333333"/>
<path d="M140.656 178.449C141.666 178.449 142.508 178.115 143.182 177.445C143.871 176.76 144.208 175.938 144.208 174.949C144.208 173.96 143.871 173.138 143.182 172.469C142.508 171.784 141.666 171.449 140.656 171.449H138.466V167.797H136.706V178.449H140.656ZM147.009 178.449V167.797H145.249V178.449H147.009ZM138.466 173.093H140.656C141.697 173.093 142.447 173.869 142.447 174.949C142.447 176.03 141.697 176.806 140.656 176.806H138.466V173.093Z" fill="#333333"/>
<path d="M158.622 166.731V165.301H154.335V166.731H158.622ZM160.566 178.449V167.797H159.188L154.136 175.025V167.797H152.375V178.449H153.753L158.806 171.221V178.449H160.566Z" fill="#333333"/>
<path d="M176.563 172.986L180.896 167.797H178.798L174.725 172.575V167.797H172.965V178.449H174.725V173.382L178.951 178.449H181.049L176.563 172.986Z" fill="#333333"/>
<path d="M193.45 177.049C194.537 175.969 195.072 174.66 195.072 173.123C195.072 171.586 194.537 170.277 193.45 169.212C192.378 168.132 191.061 167.599 189.515 167.599C187.968 167.599 186.652 168.132 185.565 169.212C184.493 170.277 183.957 171.586 183.957 173.123C183.957 174.66 184.493 175.969 185.565 177.049C186.652 178.115 187.968 178.647 189.515 178.647C191.061 178.647 192.378 178.115 193.45 177.049ZM186.805 175.862C186.085 175.132 185.718 174.219 185.718 173.123C185.718 172.027 186.085 171.114 186.805 170.399C187.54 169.669 188.443 169.303 189.515 169.303C190.586 169.303 191.49 169.669 192.209 170.399C192.944 171.114 193.312 172.027 193.312 173.123C193.312 174.219 192.944 175.132 192.209 175.862C191.49 176.578 190.586 176.943 189.515 176.943C188.443 176.943 187.54 176.578 186.805 175.862Z" fill="#333333"/>
<path d="M208.268 167.797L205.023 173.123L201.792 167.797H199.894V178.449H201.654V170.84L204.915 176.212H205.13L208.391 170.856V178.449H210.152V167.797H208.268Z" fill="#333333"/>
<path d="M215.504 167.797V178.449H217.264V169.471H221.628V178.449H223.388V167.797H215.504Z" fill="#333333"/>
<path d="M227.879 178.449C228.935 178.556 229.762 178.358 230.497 177.734C231.231 177.08 231.645 175.802 231.645 173.93V169.471H235.304V178.449H237.065V167.797H229.884V173.96C229.884 176.319 229.226 177.019 227.879 176.836V178.449Z" fill="#333333"/>
<path d="M244.178 173.899H248.465V172.24H244.178V169.471H248.848V167.797H242.417V178.449H248.924V176.775H244.178V173.899Z" fill="#333333"/>
<path d="M257.349 172.986L261.682 167.797H259.585L255.512 172.575V167.797H253.751V178.449H255.512V173.382L259.738 178.449H261.835L257.349 172.986Z" fill="#333333"/>
<path d="M270.347 178.647C271.327 178.647 272.23 178.419 273.042 177.962C273.869 177.491 274.512 176.867 274.956 176.091L273.425 175.223C272.873 176.273 271.695 176.943 270.347 176.943C269.199 176.943 268.28 176.578 267.561 175.862C266.857 175.147 266.504 174.234 266.504 173.123C266.504 172.012 266.857 171.099 267.561 170.384C268.28 169.669 269.199 169.303 270.347 169.303C271.695 169.303 272.858 169.973 273.425 171.023L274.956 170.14C274.037 168.573 272.292 167.599 270.347 167.599C268.74 167.599 267.392 168.132 266.336 169.197C265.28 170.247 264.744 171.556 264.744 173.123C264.744 174.691 265.28 175.999 266.336 177.065C267.392 178.115 268.74 178.647 270.347 178.647Z" fill="#333333"/>
<path d="M18.1764 154.782C14.9102 154.782 11.889 154.1 9.11272 152.737C6.33644 151.373 4.11542 149.474 2.44966 147.039C0.816552 144.572 0 141.747 0 138.566C0 135.546 0.832883 132.754 2.49865 130.19C4.16441 127.625 6.48342 125.58 9.45567 124.054C12.4606 122.528 15.8248 121.765 19.5482 121.765C21.0834 121.765 22.5368 121.895 23.9086 122.154C25.3131 122.414 26.8156 122.804 28.416 123.323C29.1346 123.55 29.5428 124.037 29.6408 124.784C29.9021 126.862 30.0328 128.777 30.0328 130.53C30.0654 130.79 29.9838 131.001 29.7878 131.164C29.6245 131.293 29.4285 131.358 29.1999 131.358C28.9713 131.358 28.759 131.293 28.563 131.164C28.3997 131.034 28.2854 130.839 28.22 130.579C27.8934 129.443 27.5505 128.534 27.1912 127.852C26.8646 127.138 26.391 126.521 25.7704 126.002C24.1373 124.638 21.8509 123.956 18.9113 123.956C16.625 123.956 14.5836 124.573 12.7872 125.807C11.0234 127.04 9.65164 128.68 8.67178 130.725C7.69192 132.771 7.20199 134.962 7.20199 137.3C7.20199 140.124 7.65926 142.705 8.57379 145.043C9.52099 147.348 10.8928 149.182 12.6892 150.545C14.4856 151.909 16.6087 152.591 19.0583 152.591C21.41 152.591 23.3534 152.088 24.8885 151.081C26.4236 150.075 27.7138 148.516 28.759 146.406C28.8896 146.179 29.0366 146 29.1999 145.87C29.3959 145.741 29.5918 145.676 29.7878 145.676C29.9838 145.676 30.1471 145.741 30.2777 145.87C30.441 146 30.5227 146.195 30.5227 146.455C30.5227 147.007 30.4084 147.786 30.1798 148.792C29.9838 149.799 29.7225 150.789 29.3959 151.763C29.2325 152.152 29.0529 152.445 28.8569 152.639C28.661 152.802 28.367 152.964 27.9751 153.126C26.7666 153.646 25.3131 154.052 23.6147 154.344C21.9162 154.636 20.1035 154.782 18.1764 154.782Z" fill="#333333"/>
<path d="M41.3494 154.344C41.0228 154.344 40.7452 154.279 40.5165 154.149C40.2879 154.019 40.1736 153.857 40.1736 153.662C40.1736 153.24 40.5982 152.932 41.4474 152.737C42.6559 152.412 43.5051 152.039 43.995 151.617C44.485 151.162 44.7299 150.416 44.7299 149.377V127.316C44.7299 126.245 44.5013 125.482 44.044 125.028C43.6194 124.541 42.8029 124.167 41.5944 123.908C40.7452 123.745 40.3206 123.421 40.3206 122.934C40.3206 122.706 40.4185 122.544 40.6145 122.447C40.8432 122.317 41.1371 122.252 41.4964 122.252C42.4763 122.252 43.8154 122.284 45.5138 122.349C47.2123 122.414 48.4697 122.447 49.2863 122.447C51.8993 122.447 55.0022 122.414 58.595 122.349C59.6075 122.317 60.4731 122.268 61.1916 122.203C61.9428 122.138 62.3838 122.106 62.5144 122.106C63.2003 122.106 63.576 122.349 63.6413 122.836L63.9842 125.028C64.2782 126.716 64.4252 127.949 64.4252 128.729C64.4252 128.988 64.3598 129.199 64.2292 129.362C64.0985 129.524 63.9352 129.605 63.7393 129.605C63.4126 129.605 63.1513 129.378 62.9554 128.923C62.6941 128.242 62.4328 127.609 62.1715 127.024C61.9428 126.407 61.6979 125.969 61.4366 125.709C60.522 124.735 59.3625 124.248 57.9581 124.248H53.4017C52.7811 124.248 52.2259 124.427 51.736 124.784C51.2787 125.141 51.05 125.612 51.05 126.196V135.741C51.05 136.488 51.4257 136.861 52.1769 136.861H56.6353C57.4518 136.861 58.0397 136.65 58.399 136.228C58.791 135.806 59.1502 135.108 59.4769 134.134C59.6728 133.485 59.9831 133.16 60.4077 133.16C60.571 133.16 60.718 133.258 60.8487 133.452C60.9793 133.615 61.0446 133.842 61.0446 134.134C60.914 135.433 60.8487 136.683 60.8487 137.884C60.8487 139.54 60.8977 140.855 60.9957 141.828V142.072C60.9957 142.656 60.8323 142.949 60.5057 142.949C60.2771 142.949 60.0485 142.835 59.8198 142.608C59.6238 142.348 59.4769 142.007 59.3789 141.585C59.1176 140.643 58.8073 139.962 58.448 139.54C58.0887 139.085 57.5988 138.858 56.9782 138.858H52.4219C51.9319 138.858 51.5726 138.955 51.344 139.15C51.148 139.312 51.05 139.605 51.05 140.027V149.279C51.05 150.318 51.2624 151.049 51.687 151.471C52.1442 151.893 52.8628 152.104 53.8427 152.104H57.8601C59.6238 152.104 60.9467 151.779 61.8285 151.13C62.7104 150.448 63.6413 149.182 64.6211 147.331C64.8498 146.909 65.1437 146.698 65.503 146.698C65.8296 146.731 65.9929 147.007 65.9929 147.526C65.9929 148.565 65.4867 150.594 64.4742 153.613C64.2782 154.068 63.9516 154.295 63.4943 154.295L57.6151 154.198C53.4344 154.133 50.1518 154.1 47.7675 154.1C47.1469 154.1 46.1181 154.133 44.6809 154.198C43.6031 154.295 42.4926 154.344 41.3494 154.344Z" fill="#333333"/>
<path d="M75.0218 154.295C74.2053 154.295 73.797 154.084 73.797 153.662C73.797 153.435 73.895 153.273 74.091 153.175C74.3196 153.045 74.6952 152.915 75.2178 152.786C76.0344 152.526 76.7039 152.071 77.2265 151.422C77.7818 150.773 78.1247 149.945 78.2554 148.938C79.1046 142.997 79.7578 136.261 80.2151 128.729V127.073C80.1824 126.586 80.0845 126.18 79.9211 125.855C79.7905 125.531 79.5455 125.255 79.1862 125.028C78.4677 124.541 77.4388 124.135 76.0997 123.81C75.3158 123.648 74.9239 123.307 74.9239 122.787C74.9239 122.333 75.3975 122.106 76.3447 122.106C77.2592 122.106 78.4513 122.154 79.9211 122.252C82.2728 122.382 83.9712 122.447 85.0164 122.447C85.2451 122.447 85.4574 122.528 85.6533 122.69C85.882 122.852 86.029 123.047 86.0943 123.274C86.4209 124.183 86.6005 124.735 86.6332 124.93L87.3191 126.927L94.6681 144.75C94.7987 144.978 94.9457 145.091 95.109 145.091C95.2723 145.091 95.3703 145.01 95.403 144.848L103.291 127.414C103.683 125.531 104.009 124.135 104.271 123.226C104.369 122.804 104.581 122.593 104.908 122.593H106.916C108.288 122.528 109.562 122.43 110.738 122.3C112.502 122.171 113.596 122.106 114.02 122.106C114.772 122.106 115.147 122.317 115.147 122.739C115.147 122.999 115.049 123.193 114.853 123.323C114.69 123.453 114.396 123.599 113.971 123.761C113.155 124.054 112.534 124.297 112.11 124.492C111.358 124.817 110.819 125.206 110.493 125.661C110.199 126.115 110.068 126.748 110.101 127.56C110.199 131.001 110.313 134.134 110.444 136.959C110.607 139.783 110.787 142.575 110.983 145.335L111.277 149.377C111.309 150.253 111.62 150.951 112.208 151.471C112.828 151.99 113.71 152.38 114.853 152.639C115.311 152.737 115.637 152.867 115.833 153.029C116.062 153.159 116.176 153.354 116.176 153.613C116.176 153.808 116.062 153.971 115.833 154.1C115.604 154.198 115.327 154.247 115 154.247C114.151 154.247 112.942 154.214 111.375 154.149C109.807 154.084 108.713 154.052 108.092 154.052C107.504 154.052 106.524 154.084 105.153 154.149C104.075 154.247 102.932 154.295 101.723 154.295C101.364 154.295 101.07 154.23 100.841 154.1C100.613 154.003 100.498 153.857 100.498 153.662C100.498 153.143 100.939 152.802 101.821 152.639C102.964 152.445 103.732 152.12 104.124 151.665C104.548 151.211 104.744 150.448 104.712 149.377C104.581 144.052 104.385 138.16 104.124 131.699C104.124 131.472 104.058 131.358 103.928 131.358C103.83 131.358 103.699 131.488 103.536 131.748L93.5412 154.149C93.4106 154.441 93.2146 154.587 92.9533 154.587C92.8227 154.587 92.692 154.539 92.5614 154.441C92.4307 154.376 92.3491 154.279 92.3164 154.149C91.2386 151.454 89.3278 146.958 86.5842 140.66C84.2979 135.4 83.0077 132.43 82.7138 131.748C82.6158 131.553 82.5014 131.456 82.3708 131.456C82.1748 131.456 82.0442 131.634 81.9789 131.991C81.4889 136.569 81.244 142.267 81.244 149.084C81.244 149.994 81.5379 150.756 82.1258 151.373C82.7138 151.99 83.5793 152.412 84.7225 152.639C85.1797 152.737 85.5227 152.867 85.7513 153.029C86.0126 153.159 86.1433 153.354 86.1433 153.613C86.1433 153.808 86.0126 153.971 85.7513 154.1C85.5227 154.198 85.2287 154.247 84.8694 154.247C83.8896 154.247 82.9424 154.214 82.0278 154.149C81.244 154.084 80.5744 154.052 80.0191 154.052C79.8232 154.052 78.7943 154.1 76.9326 154.198C75.9527 154.263 75.3158 154.295 75.0218 154.295Z" fill="#333333"/>
<path d="M124.559 154.344C123.645 154.344 123.187 154.1 123.187 153.613C123.187 153.354 123.285 153.143 123.481 152.98C123.71 152.818 124.053 152.656 124.51 152.493C126.535 151.974 127.923 150.838 128.675 149.084C131.614 142.364 134.521 135.059 137.395 127.17C137.689 126.294 137.918 125.547 138.081 124.93C138.277 124.281 138.408 123.843 138.473 123.615C139.649 123.323 140.58 123.031 141.266 122.739C141.788 122.479 142.213 122.154 142.54 121.765C142.899 121.343 143.111 121.099 143.177 121.034C143.438 120.84 143.634 120.872 143.765 121.132C143.83 121.262 143.977 121.667 144.205 122.349C145.414 126.18 146.802 130.514 148.37 135.352C149.97 140.156 151.081 143.484 151.701 145.335L152.828 148.646C153.253 149.88 153.808 150.789 154.494 151.373C155.18 151.925 156.078 152.331 157.189 152.591C158.07 152.786 158.511 153.143 158.511 153.662C158.511 154.052 158.136 154.247 157.385 154.247L154.004 154.149C152.534 154.052 151.146 154.003 149.84 154.003C149.121 154.003 147.945 154.035 146.312 154.1C144.81 154.165 143.781 154.198 143.226 154.198C142.866 154.198 142.572 154.149 142.344 154.052C142.115 153.922 142.001 153.743 142.001 153.516C142.001 152.997 142.442 152.656 143.324 152.493C144.434 152.299 145.234 152.039 145.724 151.714C146.247 151.357 146.508 150.886 146.508 150.302C146.508 150.075 146.492 149.912 146.459 149.815C146.198 148.386 145.626 146.179 144.744 143.192C144.679 142.9 144.565 142.705 144.401 142.608C144.271 142.51 144.042 142.462 143.716 142.462H134.897C134.505 142.462 134.227 142.754 134.064 143.338C133.084 146.228 132.48 148.208 132.251 149.279C132.218 149.442 132.202 149.669 132.202 149.961C132.202 150.643 132.431 151.179 132.888 151.568C133.378 151.958 134.146 152.282 135.191 152.542C136.073 152.737 136.514 153.078 136.514 153.565C136.514 153.76 136.399 153.922 136.171 154.052C135.975 154.149 135.697 154.198 135.338 154.198L132.986 154.149C131.876 154.084 130.961 154.052 130.242 154.052C129.785 154.052 129.246 154.068 128.626 154.1C128.038 154.165 127.597 154.198 127.303 154.198C126.388 154.295 125.474 154.344 124.559 154.344ZM143.03 140.221C143.291 140.221 143.471 140.205 143.569 140.173C143.667 140.14 143.716 140.059 143.716 139.929C143.716 139.897 143.683 139.718 143.618 139.394L140.188 128.144C140.025 127.69 139.91 127.463 139.845 127.463C139.812 127.463 139.698 127.674 139.502 128.096L135.387 139.394C135.321 139.523 135.289 139.653 135.289 139.783C135.289 140.075 135.599 140.221 136.22 140.221H143.03Z" fill="#333333"/>
<path d="M165.671 154.295C165.377 154.295 165.115 154.23 164.887 154.1C164.658 154.003 164.544 153.857 164.544 153.662C164.544 153.175 164.952 152.834 165.769 152.639C167.01 152.38 167.875 152.023 168.365 151.568C168.855 151.114 169.1 150.351 169.1 149.279V127.219C169.1 126.148 168.888 125.401 168.463 124.979C168.039 124.524 167.238 124.167 166.062 123.908C165.213 123.745 164.789 123.404 164.789 122.885C164.789 122.69 164.903 122.544 165.132 122.447C165.36 122.317 165.622 122.252 165.916 122.252C166.634 122.252 167.745 122.284 169.247 122.349C170.619 122.414 171.664 122.447 172.383 122.447C173.003 122.447 173.967 122.414 175.273 122.349C176.71 122.284 177.854 122.252 178.703 122.252C179.029 122.252 179.291 122.317 179.487 122.447C179.683 122.544 179.781 122.706 179.781 122.934C179.781 123.193 179.666 123.404 179.438 123.567C179.242 123.697 178.931 123.81 178.507 123.908C177.364 124.167 176.58 124.524 176.155 124.979C175.73 125.401 175.518 126.099 175.518 127.073V150.01C175.518 150.497 175.649 150.903 175.91 151.227C176.204 151.552 176.596 151.714 177.086 151.714H184.288C185.039 151.714 185.529 151.552 185.758 151.227C186.019 150.903 186.15 150.448 186.15 149.864V127.122C186.15 126.083 185.954 125.352 185.562 124.93C185.17 124.508 184.386 124.167 183.21 123.908C182.785 123.81 182.475 123.697 182.279 123.567C182.083 123.404 181.985 123.193 181.985 122.934C181.985 122.479 182.328 122.252 183.014 122.252C183.831 122.252 184.99 122.284 186.493 122.349C187.864 122.414 188.877 122.447 189.53 122.447C190.183 122.447 191.131 122.414 192.372 122.349C193.678 122.284 194.74 122.252 195.556 122.252C195.85 122.252 196.095 122.317 196.291 122.447C196.52 122.544 196.634 122.69 196.634 122.885C196.634 123.437 196.226 123.778 195.409 123.908C194.299 124.167 193.531 124.508 193.107 124.93C192.715 125.352 192.519 126.05 192.519 127.024V150.156C192.519 151.195 193.09 151.714 194.234 151.714H201.436C201.958 151.714 202.366 151.536 202.66 151.179C202.987 150.789 203.15 150.351 203.15 149.864V127.073C203.15 126.131 202.954 125.45 202.562 125.028C202.17 124.573 201.387 124.2 200.211 123.908C199.786 123.81 199.476 123.697 199.28 123.567C199.084 123.404 198.986 123.193 198.986 122.934C198.986 122.479 199.329 122.252 200.015 122.252C200.831 122.252 201.991 122.284 203.493 122.349C204.865 122.414 205.878 122.447 206.531 122.447C207.151 122.447 208.148 122.414 209.519 122.349C210.957 122.284 212.051 122.252 212.802 122.252C213.096 122.252 213.357 122.317 213.586 122.447C213.814 122.544 213.929 122.69 213.929 122.885C213.929 123.437 213.52 123.778 212.704 123.908C211.528 124.167 210.695 124.524 210.205 124.979C209.748 125.433 209.519 126.164 209.519 127.17V149.231C209.519 150.302 209.764 151.081 210.254 151.568C210.777 152.023 211.642 152.38 212.851 152.639C213.7 152.834 214.125 153.175 214.125 153.662C214.125 153.857 214.01 154.003 213.782 154.1C213.553 154.23 213.292 154.295 212.998 154.295C211.789 154.295 210.646 154.247 209.568 154.149C208.197 154.084 207.184 154.052 206.531 154.052L189.383 154.003C186.64 154.003 183.863 154.003 181.054 154.003C178.245 154.003 175.355 154.019 172.383 154.052C171.664 154.052 170.586 154.084 169.149 154.149C168.039 154.247 166.879 154.295 165.671 154.295Z" fill="#333333"/>
<path d="M249.347 154.977C247.518 154.977 246.048 154.636 244.938 153.954C243.827 153.273 242.831 152.088 241.949 150.399L237.491 141.682C236.609 139.962 235.694 138.972 234.747 138.712C234.355 138.614 233.8 138.566 233.081 138.566C232.82 138.566 232.689 138.825 232.689 139.345L232.787 149.084C232.82 150.123 233.032 150.903 233.424 151.422C233.849 151.941 234.649 152.347 235.825 152.639C236.282 152.737 236.625 152.867 236.854 153.029C237.115 153.159 237.246 153.354 237.246 153.613C237.246 153.808 237.099 153.971 236.805 154.1C236.543 154.23 236.217 154.295 235.825 154.295C234.682 154.295 233.457 154.23 232.15 154.1C231.366 154.003 230.583 153.954 229.799 153.954C229.178 153.954 228.28 154.019 227.104 154.149C225.406 154.311 224.132 154.393 223.283 154.393C222.923 154.393 222.597 154.311 222.303 154.149C222.009 154.019 221.862 153.857 221.862 153.662C221.862 153.175 222.335 152.834 223.283 152.639C224.491 152.412 225.308 152.071 225.732 151.617C226.157 151.162 226.369 150.383 226.369 149.279V127.268C226.369 126.196 226.141 125.433 225.683 124.979C225.259 124.524 224.409 124.167 223.136 123.908C222.286 123.745 221.862 123.404 221.862 122.885C221.862 122.69 221.976 122.544 222.205 122.447C222.433 122.317 222.695 122.252 222.989 122.252C223.871 122.252 225.063 122.284 226.565 122.349C227.937 122.414 228.949 122.447 229.603 122.447C230.158 122.447 231.089 122.414 232.395 122.349C233.832 122.284 234.976 122.252 235.825 122.252C236.151 122.252 236.413 122.317 236.609 122.447C236.805 122.544 236.903 122.706 236.903 122.934C236.903 123.193 236.805 123.404 236.609 123.567C236.413 123.697 236.102 123.81 235.678 123.908C234.437 124.2 233.62 124.589 233.228 125.076C232.869 125.531 232.689 126.278 232.689 127.316V135.839C232.689 136.391 232.836 136.666 233.13 136.666H234.453C235.694 136.666 236.805 136.228 237.785 135.352C238.764 134.443 239.565 133.225 240.185 131.699L241.949 127.316C242.668 125.498 243.5 124.119 244.448 123.177C245.428 122.236 246.816 121.765 248.612 121.765C249.788 121.765 250.653 122.057 251.209 122.641C251.764 123.193 252.042 123.924 252.042 124.833C252.042 125.612 251.813 126.294 251.356 126.878C250.931 127.43 250.392 127.706 249.739 127.706C249.314 127.706 248.71 127.544 247.926 127.219C247.273 126.927 246.767 126.781 246.407 126.781C245.787 126.781 245.232 126.976 244.742 127.365C244.252 127.722 243.827 128.355 243.468 129.264L241.998 132.965C241.508 134.199 240.773 135.222 239.793 136.033C239.663 136.163 239.597 136.293 239.597 136.423C239.597 136.553 239.679 136.699 239.842 136.861C240.659 137.089 241.328 137.462 241.851 137.981C242.374 138.501 243.01 139.41 243.762 140.708L247.73 147.818C248.481 149.182 249.167 150.188 249.788 150.838C250.441 151.454 251.078 151.86 251.699 152.055C252.352 152.217 253.217 152.299 254.295 152.299C254.491 152.299 254.655 152.38 254.785 152.542C254.948 152.704 255.03 152.867 255.03 153.029C255.03 153.191 254.948 153.354 254.785 153.516C254.655 153.646 254.573 153.727 254.54 153.76C254.116 154.052 253.397 154.328 252.385 154.587C251.405 154.847 250.392 154.977 249.347 154.977Z" fill="#333333"/>
<path d="M276.949 154.782C273.977 154.782 271.201 154.117 268.62 152.786C266.073 151.422 264.031 149.523 262.496 147.088C260.961 144.653 260.194 141.877 260.194 138.76C260.194 135.774 260.863 132.982 262.202 130.384C263.541 127.787 265.501 125.709 268.081 124.151C270.694 122.56 273.797 121.765 277.39 121.765C280.362 121.765 283.122 122.447 285.67 123.81C288.25 125.141 290.308 127.024 291.843 129.459C293.378 131.894 294.146 134.67 294.146 137.787C294.146 140.773 293.476 143.565 292.137 146.163C290.798 148.76 288.822 150.854 286.209 152.445C283.629 154.003 280.542 154.782 276.949 154.782ZM277.782 152.639C280.82 152.639 283.139 151.536 284.739 149.328C286.34 147.088 287.14 144.069 287.14 140.27C287.14 137.381 286.732 134.702 285.915 132.235C285.131 129.735 283.939 127.738 282.338 126.245C280.738 124.719 278.795 123.956 276.508 123.956C273.503 123.956 271.201 125.076 269.6 127.316C268 129.524 267.2 132.511 267.2 136.277C267.2 139.166 267.592 141.861 268.375 144.361C269.159 146.828 270.335 148.825 271.903 150.351C273.503 151.877 275.463 152.639 277.782 152.639Z" fill="#333333"/>
<path d="M96.6857 190.613C97.0399 189.796 98.2063 189.796 98.5606 190.613L101.401 197.17C101.549 197.511 101.872 197.745 102.244 197.779L109.396 198.438C110.288 198.52 110.648 199.623 109.975 200.211L104.58 204.922C104.299 205.167 104.175 205.545 104.257 205.907L105.837 212.872C106.033 213.74 105.09 214.421 104.32 213.967L98.1443 210.322C97.823 210.133 97.4232 210.133 97.102 210.322L90.9266 213.967C90.1564 214.421 89.2128 213.74 89.4097 212.872L90.9888 205.907C91.071 205.545 90.9474 205.167 90.6667 204.922L85.271 200.211C84.5981 199.623 84.9586 198.52 85.8504 198.438L93.0018 197.779C93.3738 197.745 93.6972 197.511 93.845 197.17L96.6857 190.613Z" fill="#F1912C"/>
<path d="M194.763 190.613C195.117 189.796 196.284 189.796 196.638 190.613L199.479 197.17C199.626 197.511 199.95 197.745 200.322 197.779L207.473 198.438C208.365 198.52 208.726 199.623 208.053 200.211L202.657 204.922C202.376 205.167 202.253 205.545 202.335 205.907L203.914 212.872C204.111 213.74 203.167 214.421 202.397 213.967L196.222 210.322C195.9 210.133 195.501 210.133 195.179 210.322L189.004 213.967C188.234 214.421 187.29 213.74 187.487 212.872L189.066 205.907C189.148 205.545 189.025 205.167 188.744 204.922L183.348 200.211C182.676 199.623 183.036 198.52 183.928 198.438L191.079 197.779C191.451 197.745 191.775 197.511 191.922 197.17L194.763 190.613Z" fill="#F1912C"/>
<path d="M145.763 190.613C146.117 189.796 147.284 189.796 147.638 190.613L150.479 197.17C150.626 197.511 150.95 197.745 151.322 197.779L158.473 198.438C159.365 198.52 159.726 199.623 159.053 200.211L153.657 204.922C153.376 205.167 153.253 205.545 153.335 205.907L154.914 212.872C155.111 213.74 154.167 214.421 153.397 213.967L147.222 210.322C146.9 210.133 146.501 210.133 146.179 210.322L140.004 213.967C139.234 214.421 138.29 213.74 138.487 212.872L140.066 205.907C140.148 205.545 140.025 205.167 139.744 204.922L134.348 200.211C133.676 199.623 134.036 198.52 134.928 198.438L142.079 197.779C142.451 197.745 142.775 197.511 142.922 197.17L145.763 190.613Z" fill="#F1912C"/>
<path fill-rule="evenodd" clip-rule="evenodd" d="M63.4669 2.59441C62.1457 4.00685 60.7997 5.17427 60.4756 5.18869C60.1515 5.2031 59.3357 5.8045 58.6627 6.52513C57.224 8.06554 56.9157 8.14241 56.9157 6.96188C56.9157 6.48146 57.1122 6.08839 57.3524 6.08839C57.5926 6.08839 57.7892 5.49878 57.7892 4.77814V3.4679H52.9849H48.1807V4.77814C48.1807 5.79707 48.3746 6.08839 49.0542 6.08839C49.8666 6.08839 49.9277 6.3797 49.9277 10.2571C49.9277 14.1014 49.8443 14.5097 48.8555 15.4981C47.7702 16.5834 46.4337 16.9341 46.4337 16.1336C46.4337 15.3976 36.451 15.5719 35.7024 16.3209C34.9591 17.0638 34.7874 25.3053 35.5151 25.3053C36.658 25.3053 35.6644 26.9168 32.6832 29.8981C30.8855 31.6957 29.1167 33.1667 28.7525 33.1667C28.3882 33.1667 28.0904 33.3632 28.0904 33.6034C28.0904 33.8437 28.8765 34.0402 29.8373 34.0402C30.7982 34.0402 31.5843 34.2367 31.5843 34.4769C31.5843 34.7172 31.9774 34.9137 32.4578 34.9137C33.2667 34.9137 33.3313 35.205 33.3313 38.8444C33.3313 41.1736 33.5091 42.7751 33.7681 42.7751C34.0083 42.7751 34.2048 43.1682 34.2048 43.6486C34.2048 44.1291 34.0083 44.5221 33.7681 44.5221C33.0693 44.5221 33.1776 81.9378 33.8773 82.2645C34.314 82.468 34.314 82.5702 33.8773 82.7737C33.182 83.0982 33.0745 104.793 33.7681 104.793C34.0083 104.793 34.2048 105.579 34.2048 106.54V108.287H21.7265C11.494 108.287 9.13554 108.399 8.62411 108.911C8.28083 109.254 8 109.647 8 109.785C8 109.922 73.25 110.034 153 110.034C232.75 110.034 298 109.922 298 109.785C298 109.647 297.719 109.254 297.376 108.911C296.66 108.195 295.38 108.075 295.38 108.724C295.38 108.964 294.397 109.161 293.196 109.161C291.995 109.161 291.012 108.964 291.012 108.724C291.012 108.484 290.226 108.287 289.265 108.287C288.304 108.287 287.518 108.091 287.518 107.85C287.518 107.61 286.928 107.414 286.208 107.414C285.487 107.414 284.898 107.217 284.898 106.977C284.898 106.737 284.308 106.54 283.587 106.54C282.867 106.54 282.277 106.344 282.277 106.103C282.277 105.863 281.491 105.667 280.53 105.667C279.569 105.667 278.783 105.47 278.783 105.23C278.783 104.99 278.194 104.793 277.473 104.793C276.752 104.793 276.163 104.597 276.163 104.356C276.163 104.116 275.573 103.92 274.852 103.92C274.132 103.92 273.542 103.723 273.542 103.483C273.542 103.243 272.953 103.046 272.232 103.046C271.511 103.046 270.922 102.85 270.922 102.609C270.922 102.369 270.136 102.173 269.175 102.173C268.214 102.173 267.428 101.976 267.428 101.736C267.428 101.496 266.838 101.299 266.117 101.299C265.397 101.299 264.807 101.103 264.807 100.862C264.807 100.622 264.218 100.426 263.497 100.426C262.776 100.426 262.187 100.229 262.187 99.989C262.187 99.7488 261.681 99.5522 261.064 99.5522C259.509 99.5522 258.693 98.5853 258.693 96.7444C258.693 95.8866 258.496 95.1848 258.256 95.1848C257.97 95.1848 257.819 85.7218 257.819 67.6697C257.819 40.446 257.828 40.1547 258.693 40.1547C259.173 40.1547 259.566 39.9581 259.566 39.7179C259.566 39.4777 260.352 39.2812 261.313 39.2812C262.274 39.2812 263.06 39.1755 263.06 39.0462C263.06 38.9165 261.291 37.0572 259.13 34.9137C256.968 32.7701 255.199 30.7144 255.199 30.3444C255.199 29.975 255.002 29.6727 254.762 29.6727C254.497 29.6727 254.325 27.7803 254.325 24.8685V20.0643H251.705H249.084V16.1336C249.084 13.8044 249.262 12.2028 249.521 12.2028C249.761 12.2028 249.958 11.4167 249.958 10.4559V8.70887H245.778C242.737 8.70887 241.427 8.87876 240.974 9.33298C240.109 10.1973 240.193 11.0241 241.223 11.7661C241.887 12.2448 242.096 12.8968 242.096 14.4831C242.096 15.6309 241.994 16.5703 241.868 16.5703C241.743 16.5703 238.504 13.4257 234.672 9.58236C230.243 5.14108 227.38 2.59441 226.817 2.59441C225.894 2.59441 210.651 17.4464 210.651 18.3453C210.651 19.7171 209.378 20.0643 204.349 20.0643H199.295V24.8685C199.295 27.7803 199.123 29.6727 198.858 29.6727C198.618 29.6727 198.422 29.9736 198.422 30.3418C198.422 30.7096 196.26 33.1601 193.617 35.7872C190.975 38.4142 188.813 40.6683 188.813 40.7958C188.813 40.9238 189.992 41.0281 191.434 41.0281H194.054V45.3956C194.054 48.0161 193.88 49.7631 193.617 49.7631C193.335 49.7631 193.181 54.8586 193.181 64.1757V78.5884H185.319H177.458V73.3474C177.458 70.1448 177.628 68.1065 177.895 68.1065C178.135 68.1065 178.331 67.7566 178.331 67.3295C178.331 66.9019 178.724 66.2691 179.205 65.9227C180.022 65.3336 180.078 64.792 180.078 57.528C180.078 50.0544 180.111 49.7631 180.952 49.7631C181.432 49.7631 181.825 49.5666 181.825 49.3263C181.825 49.0861 182.218 48.8896 182.699 48.8896C183.179 48.8896 183.572 48.7773 183.572 48.6402C183.572 48.1624 182.321 47.1426 181.734 47.1426C181.41 47.1426 180.861 46.7495 180.515 46.2691C180.169 45.7887 179.628 45.3956 179.312 45.3956C178.997 45.3956 178.057 44.7143 177.225 43.8814L175.711 42.3676V36.4567V30.5462H166.539C160.716 30.5462 157.367 30.3868 157.367 30.1095C157.367 29.8693 157.018 29.6727 156.59 29.6727C156.163 29.6727 155.53 29.2797 155.184 28.7992C154.837 28.3188 154.283 27.9257 153.952 27.9257C153.621 27.9257 152.8 27.3361 152.127 26.6155C151.453 25.8949 150.632 25.3053 150.301 25.3053C149.97 25.3053 149.416 24.9122 149.069 24.4318C148.723 23.9513 148.162 23.5583 147.823 23.5583C147.484 23.5583 146.813 23.1158 146.332 22.5756C145.739 21.9091 145.394 21.7685 145.262 22.1388C145.154 22.4389 144.732 22.6848 144.325 22.6848C143.918 22.6848 143.301 23.0778 142.955 23.5583C142.608 24.0387 142.054 24.4318 141.723 24.4318C141.393 24.4318 140.571 25.0214 139.898 25.742C139.225 26.4626 138.403 27.0522 138.072 27.0522C137.741 27.0522 137.187 27.4453 136.84 27.9257C136.494 28.4062 135.904 28.7992 135.53 28.7992C135.156 28.7992 134.566 29.1923 134.22 29.6727C133.628 30.4942 133.089 30.5462 125.139 30.5462C118.397 30.5462 116.561 30.6724 116.064 31.1703C115.584 31.6494 115.44 33.1667 115.44 37.7215C115.44 42.8616 115.347 43.6486 114.741 43.6486C114.357 43.6486 113.492 44.2382 112.819 44.9589C112.146 45.6795 111.324 46.2691 110.994 46.2691C110.663 46.2691 110.108 46.6622 109.762 47.1426C109.416 47.623 108.872 48.0161 108.554 48.0161C107.997 48.0161 105.831 49.9107 105.831 50.3986C105.831 50.5296 106.814 50.6366 108.015 50.6366H110.199V52.8203C110.199 54.0214 110.395 55.0041 110.636 55.0041C110.909 55.0041 111.072 57.7381 111.072 62.3322C111.072 69.1595 111.132 69.7036 111.946 70.2902C112.734 70.8584 112.819 71.4209 112.819 76.0644V81.2089H106.268H99.7169V72.9469C99.7169 66.7648 99.8544 64.6212 100.263 64.4304C100.7 64.2268 100.7 64.1246 100.263 63.9211C99.8558 63.7311 99.7169 61.6741 99.7169 55.8413V48.0161H96.2229C94.1846 48.0161 92.7289 47.834 92.7289 47.5793C92.7289 46.9116 99.6011 47.0138 99.8247 47.6846C99.954 48.072 100.227 48.0052 100.783 47.4496C101.527 46.705 101.521 46.6395 100.638 45.8739C99.7916 45.1397 99.7169 44.6265 99.7169 39.5576C99.7169 34.3315 99.7632 34.0402 100.59 34.0402C101.071 34.0402 101.464 33.8437 101.464 33.6034C101.464 33.3632 102.25 33.1667 103.211 33.1667C104.172 33.1667 104.958 33.0597 104.958 32.9287C104.958 32.4941 102.822 30.5462 102.346 30.5462C102.088 30.5462 100.998 29.667 99.9239 28.5922L97.9699 26.6386V21.1675V15.6968H91.4187C87.3425 15.6968 84.8675 15.5317 84.8675 15.2601C84.8675 15.0199 84.56 14.8233 84.184 14.8233C83.8079 14.8233 82.5435 13.8406 81.3735 12.6396C80.2034 11.4385 79.0264 10.4559 78.7574 10.4559C78.4879 10.4559 77.1104 9.27664 75.6958 7.83537C74.2812 6.39411 72.9054 5.21489 72.6386 5.21489C72.3717 5.21489 70.9959 4.03567 69.5813 2.59441C68.1667 1.15314 66.7525 -0.0142806 66.4389 0.00013203C66.1253 0.0145447 64.788 1.18197 63.4669 2.59441ZM56.9157 4.77814C56.9157 5.03714 55.3141 5.21489 52.9849 5.21489C50.6558 5.21489 49.0542 5.03714 49.0542 4.77814C49.0542 4.51915 50.6558 4.3414 52.9849 4.3414C55.3141 4.3414 56.9157 4.51915 56.9157 4.77814ZM65.6506 4.77814C65.6506 5.01835 65.4541 5.21489 65.2139 5.21489C64.9736 5.21489 64.7771 5.01835 64.7771 4.77814C64.7771 4.53793 64.9736 4.3414 65.2139 4.3414C65.4541 4.3414 65.6506 4.53793 65.6506 4.77814ZM56.0422 7.62836C56.0422 8.87003 55.6635 9.54742 54.0882 11.1223C51.2139 13.997 50.8012 13.8035 50.8012 9.58236V6.08839H53.4217H56.0422V7.62836ZM63.9036 6.52513C63.9036 6.76534 63.7071 6.96188 63.4669 6.96188C63.2267 6.96188 63.0301 6.76534 63.0301 6.52513C63.0301 6.28492 63.2267 6.08839 63.4669 6.08839C63.7071 6.08839 63.9036 6.28492 63.9036 6.52513ZM68.2711 9.58236V13.0763H66.7115C64.6762 13.0763 63.9036 12.2391 63.9036 10.0348C63.9036 7.86114 65.282 6.15477 67.07 6.11503L68.2711 6.08839V9.58236ZM225.5 8.05506C225.5 8.48569 194.416 39.3515 194.2 39.1357C193.96 38.8959 224.637 7.92971 225.172 7.87119C225.353 7.85153 225.5 7.93451 225.5 8.05506ZM71.9978 10.2231C74.0549 12.2801 73.9903 13.0763 71.7651 13.0763H70.0181V10.8926C70.0181 9.69155 70.1229 8.70887 70.2509 8.70887C70.3793 8.70887 71.1654 9.39019 71.9978 10.2231ZM232.71 14.601C235.951 17.8417 238.602 20.695 238.602 20.9413C238.602 21.188 242.73 25.5101 247.774 30.5462L256.946 39.7031V46.0433C256.946 49.9788 256.78 52.3836 256.509 52.3836C256.224 52.3836 256.072 59.6628 256.072 73.3474V94.3113H254.762H253.452V66.3957C253.452 45.0772 253.575 38.4391 253.976 38.3059C254.643 38.0836 248.014 31.4197 247.126 31.4197C246.762 31.4197 246.464 31.7254 246.464 32.0989C246.464 32.4727 245.285 33.9358 243.843 35.3504L241.223 37.9224V41.9086C241.223 46.8561 240.998 47.1426 237.105 47.1426H234.235V34.6896V22.2367L230.085 18.0876L225.936 13.938L222.224 17.65L218.512 21.3619V34.2525V47.1426H215.205C210.822 47.1426 210.651 46.9461 210.651 41.913C210.651 38.2679 210.56 37.8408 209.578 36.8594C208.989 36.2698 208.287 35.7872 208.019 35.7872C207.384 35.7872 206.283 34.6796 206.283 34.0402C206.283 33.7655 205.97 33.2283 205.588 32.8461C205.007 32.2653 204.833 32.2504 204.52 32.7557C204.315 33.0881 203.989 33.1912 203.795 32.985C203.602 32.7789 203.69 32.5225 203.99 32.4155C204.291 32.3081 204.536 31.9412 204.536 31.5997C204.536 31.1389 226.061 8.94733 226.705 8.74468C226.767 8.72503 229.47 11.3604 232.71 14.601ZM59.5361 9.82039C59.5361 10.2702 57.2996 12.2954 57.0637 12.0596C56.934 11.9299 57.29 11.3315 57.8542 10.7297C58.8334 9.68631 59.5361 9.30677 59.5361 9.82039ZM63.0301 11.3293V13.0763H61.2831C59.2317 13.0763 58.9893 12.319 60.5188 10.6851C62.0889 9.00848 63.0301 9.25 63.0301 11.3293ZM248.211 16.1336V20.0643H246.663C245.601 20.0643 244.777 19.7271 244.042 18.9921C243.122 18.0723 242.97 17.5146 242.97 15.0614V12.2028H245.59H248.211V16.1336ZM56.0422 13.5131C56.0422 13.7533 55.8456 13.9498 55.6054 13.9498C55.3652 13.9498 55.1687 13.7533 55.1687 13.5131C55.1687 13.2729 55.3652 13.0763 55.6054 13.0763C55.8456 13.0763 56.0422 13.2729 56.0422 13.5131ZM77.6725 15.0303C78.7473 16.1047 79.6265 17.0874 79.6265 17.2141C79.6265 17.3403 78.6438 17.4438 77.4428 17.4438H75.259V15.2601C75.259 14.059 75.3625 13.0763 75.4888 13.0763C75.6154 13.0763 76.5981 13.9555 77.6725 15.0303ZM57.7892 15.6968V17.4438H56.0422C55.0813 17.4438 54.2952 17.3399 54.2952 17.2132C54.2952 16.8642 57.086 14.0145 57.4616 13.98C57.6415 13.9634 57.7892 14.736 57.7892 15.6968ZM63.0301 15.6968V17.4438H60.8464H58.6627V15.6968V13.9498H60.8464H63.0301V15.6968ZM68.2711 15.6968C68.2711 17.1272 68.1195 17.4438 67.4338 17.4438C66.9735 17.4438 66.4822 17.6897 66.342 17.9897C66.1384 18.4265 66.0363 18.4265 65.8327 17.9897C65.6925 17.6897 65.2012 17.4438 64.7409 17.4438C64.0552 17.4438 63.9036 17.1272 63.9036 15.6968V13.9498H66.0873H68.2711V15.6968ZM73.512 15.6968V17.4438H71.7651H70.0181V15.6968V13.9498H71.7651H73.512V15.6968ZM51.6747 16.8031C51.6747 17.2481 48.5581 20.1503 48.3275 19.9197C48.1999 19.7922 48.7537 18.9999 49.5578 18.1592C50.9204 16.7341 51.6747 16.2511 51.6747 16.8031ZM225.5 20.501C225.5 23.978 225.41 24.4318 224.723 24.4318C224.295 24.4318 223.663 24.0387 223.316 23.5583C222.97 23.0778 222.421 22.6848 222.097 22.6848C221.772 22.6848 221.217 22.3952 220.863 22.041C220.296 21.4737 220.494 21.1142 222.532 19.0165C223.804 17.7067 224.992 16.621 225.172 16.6031C225.353 16.5852 225.5 18.3391 225.5 20.501ZM228.12 17.8806C228.794 18.6012 229.574 19.1908 229.856 19.1908C230.505 19.1908 231.614 20.2857 231.614 20.9264C231.614 21.6519 229.573 23.5583 228.795 23.5583C228.424 23.5583 228.12 23.7548 228.12 23.995C228.12 24.2352 227.727 24.4318 227.247 24.4318C226.438 24.4318 226.373 24.1405 226.373 20.501C226.373 18.3391 226.491 16.5703 226.635 16.5703C226.779 16.5703 227.447 17.1599 228.12 17.8806ZM53.4217 28.7992V39.2812H47.3072H41.1928V34.9499C41.1928 31.9124 41.0299 30.5427 40.6468 30.3641C40.2101 30.1606 40.2101 30.0584 40.6468 29.8548C40.9473 29.7147 41.1928 29.315 41.1928 28.9665C41.1928 28.1996 43.9958 25.317 44.7815 25.2764C45.0899 25.2603 46.8159 23.7011 48.6175 21.8113C53.5842 16.6013 53.4217 16.3646 53.4217 28.7992ZM84.8675 21.3745C86.5258 23.056 88.095 24.4318 88.3549 24.4318C88.6148 24.4318 89.5088 25.1131 90.3412 25.946L91.8554 27.4597V33.3707V39.2812H86.1777H80.5V28.7992C80.5 19.628 80.5847 18.3173 81.1761 18.3173C81.5482 18.3173 83.2091 19.6931 84.8675 21.3745ZM57.7892 21.8113V24.4318H56.0422H54.2952V21.8113V19.1908H56.0422H57.7892V21.8113ZM63.0301 21.8113V24.4318H60.8464H58.6627V21.8113V19.1908H60.8464H63.0301V21.8113ZM68.2711 21.8113V24.4318H66.7115C64.6212 24.4318 63.9036 23.6028 63.9036 21.1872V19.1908H66.0873H68.2711V21.8113ZM73.512 21.8113V24.4318H71.7651H70.0181V21.8113V19.1908H71.7651H73.512V21.8113ZM79.0024 19.8149C79.3614 20.1735 79.6265 21.2872 79.6265 22.4354V24.4318H77.4428H75.259V21.8113V19.1908H76.8187C77.6769 19.1908 78.6595 19.4716 79.0024 19.8149ZM85.741 19.6275C85.741 19.8678 85.5444 20.0643 85.3042 20.0643C85.064 20.0643 84.8675 19.8678 84.8675 19.6275C84.8675 19.3873 85.064 19.1908 85.3042 19.1908C85.5444 19.1908 85.741 19.3873 85.741 19.6275ZM220.259 23.1215C220.259 23.3617 220.609 23.5583 221.036 23.5583C221.464 23.5583 222.096 23.9513 222.443 24.4318C222.789 24.9122 223.338 25.3053 223.662 25.3053C224.606 25.3053 225.5 26.4591 225.5 27.6764C225.5 28.7756 225.435 28.7992 222.443 28.7992H219.386V25.742C219.386 23.995 219.573 22.6848 219.822 22.6848C220.062 22.6848 220.259 22.8813 220.259 23.1215ZM232.488 25.742V28.7992H230.055C227.673 28.7992 226.373 28.1825 226.373 27.0522C226.373 26.3299 227.508 25.3053 228.308 25.3053C228.685 25.3053 228.994 25.1087 228.994 24.8685C228.994 24.6283 229.344 24.4318 229.771 24.4318C230.199 24.4318 230.831 24.0387 231.178 23.5583C232.225 22.1052 232.488 22.5437 232.488 25.742ZM42.9398 24.6645C42.9398 25.1096 39.8231 28.0118 39.5925 27.7812C39.465 27.6536 40.0188 26.8614 40.8228 26.0206C42.1855 24.5955 42.9398 24.1125 42.9398 24.6645ZM57.7892 27.9257V30.5462H56.0422H54.2952V27.9257V25.3053H56.0422H57.7892V27.9257ZM63.0301 27.9257V30.5462H60.8464H58.6627V27.9257V25.3053H60.8464H63.0301V27.9257ZM68.2711 27.9257V30.5462H66.0873H63.9036V27.9257V25.3053H66.0873H68.2711V27.9257ZM73.512 27.9257V30.5462H71.7651H70.0181V27.9257V25.3053H71.7651H73.512V27.9257ZM79.6265 27.9257V30.5462H77.4428H75.259V27.9257V25.3053H77.4428H79.6265V27.9257ZM146.012 25.742C146.012 25.9822 145.816 26.1787 145.575 26.1787C145.335 26.1787 145.139 25.9822 145.139 25.742C145.139 25.5018 145.335 25.3053 145.575 25.3053C145.816 25.3053 146.012 25.5018 146.012 25.742ZM144.265 26.4281C144.265 26.5657 143.961 26.9819 143.589 27.3536C142.736 28.2066 142.224 27.7794 143.02 26.8793C143.616 26.2045 144.265 25.9695 144.265 26.4281ZM141.645 28.1751C141.645 28.3127 141.341 28.7289 140.968 29.1006C140.116 29.9536 139.604 29.5264 140.399 28.6263C140.996 27.9515 141.645 27.7165 141.645 28.1751ZM146.012 28.3625C146.012 28.6027 146.405 28.7992 146.886 28.7992C147.366 28.7992 147.759 28.9958 147.759 29.236C147.759 29.4762 148.109 29.6727 148.536 29.6727C148.964 29.6727 149.596 30.0658 149.943 30.5462C150.289 31.0266 150.879 31.4197 151.253 31.4197C151.627 31.4197 152.217 31.8128 152.563 32.2932C152.91 32.7736 153.499 33.1667 153.873 33.1667C154.248 33.1667 154.837 33.5598 155.184 34.0402C155.53 34.5206 156.12 34.9137 156.494 34.9137C156.868 34.9137 157.458 35.3068 157.804 35.7872C158.151 36.2676 158.74 36.6607 159.114 36.6607C159.489 36.6607 160.078 37.0537 160.425 37.5342C160.771 38.0146 161.361 38.4077 161.735 38.4077C162.109 38.4077 162.699 38.8007 163.045 39.2812C163.392 39.7616 163.981 40.1547 164.355 40.1547C164.73 40.1547 165.319 40.5477 165.666 41.0281C166.012 41.5086 166.602 41.9016 166.976 41.9016C167.35 41.9016 167.94 42.2947 168.286 42.7751C168.632 43.2556 169.222 43.6486 169.596 43.6486C169.971 43.6486 170.56 44.0417 170.907 44.5221C171.253 45.0025 171.843 45.3956 172.217 45.3956C172.591 45.3956 173.181 45.7887 173.527 46.2691C173.873 46.7495 174.463 47.1426 174.837 47.1426C175.212 47.1426 175.801 47.5357 176.148 48.0161C176.494 48.4965 177.127 48.8896 177.554 48.8896C178.256 48.8896 178.331 49.3975 178.331 54.1306V59.3715H177.021C176.3 59.3715 175.711 59.5681 175.711 59.8083C175.711 60.0485 176.3 60.245 177.021 60.245C177.742 60.245 178.331 60.4416 178.331 60.6818C178.331 60.922 177.349 61.1185 176.148 61.1185C174.947 61.1185 173.964 60.922 173.964 60.6818C173.964 60.4416 174.16 60.245 174.401 60.245C174.641 60.245 174.837 60.0485 174.837 59.8083C174.837 59.5681 174.444 59.3715 173.964 59.3715C173.163 59.3715 173.09 59.6628 173.09 62.8655V66.3595H174.837C176.487 66.3595 176.584 66.4324 176.584 67.6697C176.584 68.907 176.487 68.98 174.837 68.98H173.09V72.0372C173.09 73.7842 173.278 75.0944 173.527 75.0944C173.767 75.0944 173.964 75.291 173.964 75.5312C173.964 75.7714 173.571 75.9679 173.09 75.9679C172.61 75.9679 172.217 75.7714 172.217 75.5312C172.217 75.291 171.867 75.0944 171.44 75.0944C171.012 75.0944 170.379 74.7013 170.033 74.2209C169.687 73.7405 169.054 73.3474 168.626 73.3474C168.199 73.3474 167.849 73.1509 167.849 72.9107C167.849 72.6705 167.456 72.4739 166.976 72.4739C166.495 72.4739 166.102 72.2774 166.102 72.0372C166.102 71.797 165.753 71.6004 165.325 71.6004C164.898 71.6004 164.265 71.2074 163.919 70.7269C163.572 70.2465 162.939 69.8535 162.512 69.8535C162.085 69.8535 161.735 69.6569 161.735 69.4167C161.735 69.1765 161.385 68.98 160.958 68.98C160.53 68.98 159.898 68.5869 159.551 68.1065C158.901 67.2041 157.367 66.8975 157.367 67.6697C157.367 67.9099 157.018 68.1065 156.59 68.1065C156.163 68.1065 155.53 68.4995 155.184 68.98C154.837 69.4604 154.205 69.8535 153.777 69.8535C153.35 69.8535 153 70.05 153 70.2902C153 70.5304 152.65 70.7269 152.223 70.7269C151.795 70.7269 151.163 71.12 150.816 71.6004C150.47 72.0809 149.88 72.4739 149.506 72.4739C149.132 72.4739 148.542 72.867 148.196 73.3474C147.849 73.8279 147.217 74.2209 146.789 74.2209C146.362 74.2209 146.012 74.4175 146.012 74.6577C146.012 74.8979 145.619 75.0944 145.139 75.0944C144.658 75.0944 144.265 75.291 144.265 75.5312C144.265 75.7714 143.872 75.9679 143.392 75.9679C142.911 75.9679 142.518 75.7714 142.518 75.5312C142.518 75.291 141.535 75.0944 140.334 75.0944H138.151V78.1516V81.2089H126.358H114.566V79.4619C114.566 77.8119 114.639 77.7149 115.877 77.7149H117.187V74.845C117.187 72.8369 116.984 71.7716 116.511 71.2991C116.139 70.927 115.697 70.7715 115.528 70.9532C115.359 71.1349 115.467 71.3711 115.767 71.4781C116.688 71.807 116.418 73.3474 115.44 73.3474C114.712 73.3474 114.566 73.0561 114.566 71.6004C114.566 70.6396 114.37 69.8535 114.13 69.8535C113.889 69.8535 113.693 69.6569 113.693 69.4167C113.693 69.1765 114.395 68.98 115.252 68.98C117.406 68.98 118.06 68.1663 118.06 65.486C118.06 62.5615 117.46 61.992 114.379 61.992H111.946V56.513C111.946 51.2777 111.993 50.986 113.018 49.9618C113.608 49.3722 114.315 48.8896 114.589 48.8896C114.865 48.8896 115.64 48.3 116.313 47.5793C116.986 46.8587 117.808 46.2691 118.139 46.2691C118.47 46.2691 119.024 45.876 119.37 45.3956C119.717 44.9152 120.306 44.5221 120.681 44.5221C121.055 44.5221 121.645 44.1291 121.991 43.6486C122.337 43.1682 122.927 42.7751 123.301 42.7751C123.675 42.7751 124.265 42.3821 124.611 41.9016C124.958 41.4212 125.547 41.0281 125.922 41.0281C126.296 41.0281 126.886 40.6351 127.232 40.1547C127.578 39.6742 128.132 39.2812 128.464 39.2812C128.794 39.2812 129.616 38.6915 130.289 37.9709C130.962 37.2503 131.784 36.6607 132.115 36.6607C132.446 36.6607 133 36.2676 133.346 35.7872C133.693 35.3068 134.282 34.9137 134.657 34.9137C135.031 34.9137 135.621 34.5206 135.967 34.0402C136.313 33.5598 136.903 33.1667 137.277 33.1667C137.651 33.1667 138.241 32.7736 138.587 32.2932C138.934 31.8128 139.523 31.4197 139.898 31.4197C140.272 31.4197 140.861 31.0266 141.208 30.5462C141.554 30.0658 142.144 29.6727 142.518 29.6727C142.892 29.6727 143.482 29.2797 143.828 28.7992C144.479 27.8969 146.012 27.5903 146.012 28.3625ZM98.2463 30.3571C99.1032 31.2136 99.6994 32.0194 99.5714 32.1478C99.34 32.3788 96.2229 29.4784 96.2229 29.032C96.2229 28.5188 96.7605 28.8709 98.2463 30.3571ZM36.8253 29.9055C36.8253 30.3506 33.7087 33.2527 33.4781 33.0221C33.3505 32.8946 33.9043 32.1023 34.7084 31.2616C36.071 29.8365 36.8253 29.3535 36.8253 29.9055ZM96.8894 31.6267L98.8434 33.5803V39.0514V44.5221H96.2229H93.6024V37.0974C93.6024 28.5442 93.6793 28.4162 96.8894 31.6267ZM225.5 31.4197V33.1667H222.443H219.386V31.4197V29.6727H222.443H225.5V31.4197ZM232.488 31.4197V33.1667H229.431H226.373V31.4197V29.6727H229.431H232.488V31.4197ZM39.4458 37.5342V44.5221H38.1355H36.8253V38.6103C36.8253 33.082 36.8891 32.6308 37.808 31.649C38.3487 31.0721 38.9383 30.5877 39.1182 30.5729C39.2982 30.5584 39.4458 33.6908 39.4458 37.5342ZM138.151 30.983C138.151 31.2232 137.954 31.4197 137.714 31.4197C137.474 31.4197 137.277 31.2232 137.277 30.983C137.277 30.7428 137.474 30.5462 137.714 30.5462C137.954 30.5462 138.151 30.7428 138.151 30.983ZM252.142 32.2932C252.488 32.7736 253.027 33.1667 253.339 33.1667C253.871 33.1667 258.693 37.6822 258.693 38.1797C258.693 38.305 258.395 38.4077 258.031 38.4077C257.439 38.4077 250.831 32.2006 250.831 31.6451C250.831 31.1236 251.557 31.4826 252.142 32.2932ZM57.7892 35.3504V38.4077H56.0422H54.2952V35.3504V32.2932H56.0422H57.7892V35.3504ZM63.0301 35.3504V38.4077H60.8464H58.6627V35.3504V32.2932H60.8464H63.0301V35.3504ZM68.2711 35.3504V38.4077H66.7115C64.5151 38.4077 63.9036 37.6062 63.9036 34.7263V32.2932H66.0873H68.2711V35.3504ZM73.512 35.3504V38.4077H71.7651H70.0181V35.3504V32.2932H71.7651H73.512V35.3504ZM79.6265 35.3504V38.4077H77.4428H75.259V35.3504V32.2932H77.4428H79.6265V35.3504ZM135.53 32.73C135.53 32.9702 135.334 33.1667 135.093 33.1667C134.853 33.1667 134.657 32.9702 134.657 32.73C134.657 32.4897 134.853 32.2932 135.093 32.2932C135.334 32.2932 135.53 32.4897 135.53 32.73ZM35.9518 38.8444C35.9518 42.3384 35.7837 44.5221 35.5151 44.5221C35.2465 44.5221 35.0783 42.3384 35.0783 38.8444C35.0783 35.3504 35.2465 33.1667 35.5151 33.1667C35.7837 33.1667 35.9518 35.3504 35.9518 38.8444ZM141.645 37.5342V41.9016H143.355C144.297 41.9016 145.18 42.1471 145.321 42.4476C145.524 42.8843 145.626 42.8843 145.83 42.4476C145.97 42.1475 146.658 41.9016 147.359 41.9016H148.633V37.5342V33.1667H145.139H141.645V37.5342ZM143.392 34.4769C143.392 34.7172 143.195 34.9137 142.955 34.9137C142.715 34.9137 142.518 34.7172 142.518 34.4769C142.518 34.2367 142.715 34.0402 142.955 34.0402C143.195 34.0402 143.392 34.2367 143.392 34.4769ZM147.759 34.4769C147.759 34.7172 147.562 34.9137 147.322 34.9137C147.082 34.9137 146.886 34.7172 146.886 34.4769C146.886 34.2367 147.082 34.0402 147.322 34.0402C147.562 34.0402 147.759 34.2367 147.759 34.4769ZM202.789 34.287C202.789 34.4228 201.806 35.4906 200.605 36.6607L198.422 38.7876V66.7993C198.422 97.1982 198.514 96.0583 196.051 96.0583H194.928V68.7559V41.4531L198.531 37.7809C201.845 34.4027 202.789 33.6283 202.789 34.287ZM225.5 35.7872V37.5342H222.443H219.386V35.7872V34.0402H222.443H225.5V35.7872ZM232.488 35.7872V37.5342H229.431H226.373V35.7872V34.0402H229.431H232.488V35.7872ZM246.464 35.7872C246.464 37.4372 246.391 37.5342 245.154 37.5342C243.55 37.5342 243.428 36.6367 244.826 35.143C246.197 33.679 246.464 33.7843 246.464 35.7872ZM250.191 35.5544C251.023 36.3868 251.705 37.173 251.705 37.3014C251.705 37.4294 250.919 37.5342 249.958 37.5342H248.211V35.7872C248.211 34.8263 248.316 34.0402 248.444 34.0402C248.572 34.0402 249.358 34.7215 250.191 35.5544ZM207.389 36.4279C208.222 37.2603 208.904 38.0465 208.904 38.1749C208.904 38.3028 208.117 38.4077 207.157 38.4077H205.41V36.6607C205.41 35.6998 205.514 34.9137 205.642 34.9137C205.771 34.9137 206.557 35.595 207.389 36.4279ZM143.392 36.6607C143.392 37.1411 143.195 37.5342 142.955 37.5342C142.715 37.5342 142.518 37.1411 142.518 36.6607C142.518 36.1803 142.715 35.7872 142.955 35.7872C143.195 35.7872 143.392 36.1803 143.392 36.6607ZM203.663 37.0974C203.663 38.2622 203.517 38.4077 202.352 38.4077C200.782 38.4077 200.749 38.2526 202.025 36.89C203.334 35.4919 203.663 35.5334 203.663 37.0974ZM225.5 41.4649V44.5221H222.443H219.386V41.4649V38.4077H222.443H225.5V41.4649ZM232.488 41.4649V44.5221H229.431H226.373V42.1017C226.373 38.9462 226.865 38.4448 229.977 38.4243L232.488 38.4077V41.4649ZM246.464 41.0281V43.6486H244.28H242.096V41.0281V38.4077H244.28H246.464V41.0281ZM252.578 41.0281V43.6486H250.395H248.211V41.0281V38.4077H250.395H252.578V41.0281ZM57.7892 42.3384V45.3956H56.0422H54.2952V42.3384V39.2812H56.0422H57.7892V42.3384ZM63.0301 42.3384V45.3956H60.8464H58.6627V42.3384V39.2812H60.8464H63.0301V42.3384ZM68.2711 42.3384V45.3956H66.0873H63.9036V42.3384V39.2812H66.0873H68.2711V42.3384ZM73.512 42.3384V45.3956H71.7651H70.0181V42.3384V39.2812H71.7651H73.512V42.3384ZM79.6265 42.3384V45.3956H77.4428H75.259V42.3384V39.2812H77.4428H79.6265V42.3384ZM203.663 41.9016V44.5221H201.479H199.295V41.9016V39.2812H201.479H203.663V41.9016ZM209.777 41.9016V44.5221H207.593H205.41V41.9016V39.2812H207.593H209.777V41.9016ZM51.6747 41.9016C51.6747 42.8625 51.4782 43.6486 51.238 43.6486C50.9977 43.6486 50.8012 42.8625 50.8012 41.9016C50.8012 40.9408 50.9977 40.1547 51.238 40.1547C51.4782 40.1547 51.6747 40.9408 51.6747 41.9016ZM246.464 47.1426V49.7631H244.28H242.096V47.1426V44.5221H244.28H246.464V47.1426ZM252.578 47.1426V49.7631H250.395H248.211V47.1426V44.5221H250.395H252.578V47.1426ZM39.4458 45.8324C39.4458 46.0752 38.281 46.2691 36.8253 46.2691C35.3696 46.2691 34.2048 46.0752 34.2048 45.8324C34.2048 45.5895 35.3696 45.3956 36.8253 45.3956C38.281 45.3956 39.4458 45.5895 39.4458 45.8324ZM53.4217 45.8324C53.4217 46.1027 51.0925 46.2691 47.3072 46.2691C43.5219 46.2691 41.1928 46.1027 41.1928 45.8324C41.1928 45.562 43.5219 45.3956 47.3072 45.3956C51.0925 45.3956 53.4217 45.562 53.4217 45.8324ZM91.8554 45.8324C91.8554 46.101 89.6717 46.2691 86.1777 46.2691C82.6837 46.2691 80.5 46.101 80.5 45.8324C80.5 45.5638 82.6837 45.3956 86.1777 45.3956C89.6717 45.3956 91.8554 45.5638 91.8554 45.8324ZM99.7169 45.8324C99.7169 46.0817 98.4066 46.2691 96.6596 46.2691C94.9127 46.2691 93.6024 46.0817 93.6024 45.8324C93.6024 45.583 94.9127 45.3956 96.6596 45.3956C98.4066 45.3956 99.7169 45.583 99.7169 45.8324ZM203.663 48.0161V50.6366H201.479H199.295V48.0161V45.3956H201.479H203.663V48.0161ZM209.777 48.0161V50.6366H207.593H205.41V48.0161V45.3956H207.593H209.777V48.0161ZM57.7892 49.3263V52.3836H56.0422H54.2952V49.3263V46.2691H56.0422H57.7892V49.3263ZM63.0301 49.3263V52.3836H60.8464H58.6627V49.3263V46.2691H60.8464H63.0301V49.3263ZM68.2711 49.3263V52.3836H66.0873H63.9036V49.3263V46.2691H66.0873H68.2711V49.3263ZM73.512 49.3263V52.3836H71.7651H70.0181V49.3263V46.2691H71.7651H73.512V49.3263ZM79.6265 46.7059C79.6265 46.9461 79.43 47.1426 79.1898 47.1426C78.9469 47.1426 78.753 48.3074 78.753 49.7631V52.3836H77.006H75.259V49.3263V46.2691H77.4428C78.6438 46.2691 79.6265 46.4656 79.6265 46.7059ZM225.5 49.3263V52.3836H222.443H219.386V49.3263V46.2691H222.443H225.5V49.3263ZM232.488 49.3263V52.3836H229.431H226.373V49.3263V46.2691H229.431H232.488V49.3263ZM39.4458 47.5793C39.4458 47.8222 38.281 48.0161 36.8253 48.0161C35.3696 48.0161 34.2048 47.8222 34.2048 47.5793C34.2048 47.3365 35.3696 47.1426 36.8253 47.1426C38.281 47.1426 39.4458 47.3365 39.4458 47.5793ZM53.4217 52.8203V58.498H47.3072H41.1928V52.8203V47.1426H47.3072H53.4217V52.8203ZM91.8554 52.8203V58.498H86.1777H80.5V52.8203V47.1426H86.1777H91.8554V52.8203ZM142.191 47.796C141.835 48.1995 141.645 49.8714 141.645 52.5836V56.751H145.139H148.633V51.9468V47.1426L145.684 47.1592C143.703 47.1706 142.557 47.3793 142.191 47.796ZM165.229 51.9468V56.751H168.723H172.217V51.9468V47.1426H168.723H165.229V51.9468ZM128.542 48.4528C128.542 48.6931 128.739 48.8896 128.979 48.8896C129.219 48.8896 129.416 48.6931 129.416 48.4528C129.416 48.2126 129.219 48.0161 128.979 48.0161C128.739 48.0161 128.542 48.2126 128.542 48.4528ZM134.657 59.3715C134.657 66.6508 134.5 70.7269 134.22 70.7269C133.955 70.7269 133.783 68.8345 133.783 65.9227V61.1185H131.599H129.416V65.0492C129.416 67.3784 129.238 68.98 128.979 68.98C128.739 68.98 128.542 69.5696 128.542 70.2902V71.6004H132.036H135.53V59.8083C135.53 52.2381 135.374 48.0161 135.093 48.0161C134.813 48.0161 134.657 52.0923 134.657 59.3715ZM147.759 48.4528C147.759 48.6931 146.776 48.8896 145.575 48.8896C144.374 48.8896 143.392 49.0861 143.392 49.3263C143.392 49.5666 143.195 49.7631 142.955 49.7631C142.715 49.7631 142.518 49.37 142.518 48.8896C142.518 48.1131 142.809 48.0161 145.139 48.0161C146.594 48.0161 147.759 48.21 147.759 48.4528ZM171.343 51.9468C171.343 54.276 171.166 55.8775 170.907 55.8775C170.652 55.8775 170.47 54.4219 170.47 52.3836V48.8896H168.286C167.085 48.8896 166.102 48.6931 166.102 48.4528C166.102 48.21 167.267 48.0161 168.723 48.0161H171.343V51.9468ZM35.9518 55.4408C35.9518 59.517 35.7867 61.992 35.5151 61.992C35.2434 61.992 35.0783 59.517 35.0783 55.4408C35.0783 51.3646 35.2434 48.8896 35.5151 48.8896C35.7867 48.8896 35.9518 51.3646 35.9518 55.4408ZM39.4458 55.4408V61.992H38.1355H36.8253V55.4408V48.8896H38.1355H39.4458V55.4408ZM96.2229 55.4408V61.992H94.9127H93.6024V55.4408V48.8896H94.9127H96.2229V55.4408ZM97.9699 55.4408C97.9699 59.517 97.8048 61.992 97.5331 61.992C97.2615 61.992 97.0964 59.517 97.0964 55.4408C97.0964 51.3646 97.2615 48.8896 97.5331 48.8896C97.8048 48.8896 97.9699 51.3646 97.9699 55.4408ZM129.416 54.5673V59.3715H131.599H133.783V54.5673V49.7631H131.599H129.416V54.5673ZM143.392 51.0733C143.392 51.3135 143.195 51.5101 142.955 51.5101C142.715 51.5101 142.518 51.3135 142.518 51.0733C142.518 50.8331 142.715 50.6366 142.955 50.6366C143.195 50.6366 143.392 50.8331 143.392 51.0733ZM246.464 54.1306V56.751H244.28H242.096V54.1306V51.5101H244.28H246.464V54.1306ZM252.578 54.1306V56.751H250.395H248.211V54.1306V51.5101H250.395H252.578V54.1306ZM203.663 55.0041V57.6245H201.479H199.295V55.0041V52.3836H201.479H203.663V55.0041ZM209.777 55.0041V57.6245H207.593H205.41V55.0041V52.3836H207.593H209.777V55.0041ZM57.7892 56.3143V59.3715H56.0422H54.2952V56.3143V53.2571H56.0422H57.7892V56.3143ZM63.0301 56.3143V59.3715H60.8464H58.6627V56.3143V53.2571H60.8464H63.0301V56.3143ZM68.2711 56.3143V59.3715H66.0873H63.9036V56.9511C63.9036 54.0484 64.4622 53.2955 66.6333 53.2737L68.2711 53.2571V56.3143ZM73.512 56.3143V59.3715H71.7651H70.0181V56.3143V53.2571H71.7651H73.512V56.3143ZM78.753 56.3143V59.3715H77.006H75.259V56.3143V53.2571H77.006H78.753V56.3143ZM143.392 54.1306C143.392 54.611 143.195 55.0041 142.955 55.0041C142.715 55.0041 142.518 54.611 142.518 54.1306C142.518 53.6501 142.715 53.2571 142.955 53.2571C143.195 53.2571 143.392 53.6501 143.392 54.1306ZM225.5 57.1878V61.1185H222.443H219.386V57.1878V53.2571H222.443H225.5V57.1878ZM232.488 57.1878V61.1185H230.055C226.871 61.1185 226.373 60.5887 226.373 57.2005C226.373 53.7759 226.815 53.2946 229.977 53.2737L232.488 53.2571V57.1878ZM217.888 54.7547C218.347 55.2133 218.512 56.5514 218.512 59.8083C218.512 65.2047 218.317 65.486 214.581 65.486C210.782 65.486 210.651 65.2755 210.651 59.1842V54.1306H213.957C216.241 54.1306 217.457 54.3236 217.888 54.7547ZM241.223 59.1842C241.223 65.2755 241.091 65.486 237.292 65.486C233.493 65.486 233.361 65.2755 233.361 59.1842V54.1306H237.292H241.223V59.1842ZM166.976 55.4408C166.976 55.681 166.779 55.8775 166.539 55.8775C166.299 55.8775 166.102 55.681 166.102 55.4408C166.102 55.2006 166.299 55.0041 166.539 55.0041C166.779 55.0041 166.976 55.2006 166.976 55.4408ZM246.464 60.245V62.8655H244.28H242.096V60.245V57.6245H244.28H246.464V60.245ZM252.578 60.245V62.8655H250.395H248.211V60.245V57.6245H250.395H252.578V60.245ZM203.663 61.1185V63.739H201.479H199.295V61.1185V58.498H201.479H203.663V61.1185ZM209.777 61.1185V63.739H207.593H205.41V61.1185V58.498H207.593H209.777V61.1185ZM51.6747 61.5553C51.6747 62.2759 51.4782 62.8655 51.238 62.8655C50.9977 62.8655 50.8012 62.2759 50.8012 61.5553C50.8012 60.8346 50.9977 60.245 51.238 60.245C51.4782 60.245 51.6747 60.8346 51.6747 61.5553ZM57.7892 63.739V67.233H56.0422H54.2952V63.739V60.245H56.0422H57.7892V63.739ZM63.0301 63.739V67.233H60.8464H58.6627V63.739V60.245H60.8464H63.0301V63.739ZM68.2711 63.739V67.233H66.0873H63.9036V64.3758C63.9036 61.0124 64.3867 60.2843 66.6333 60.2616L68.2711 60.245V63.739ZM73.512 63.739V67.233H71.7651H70.0181V63.739V60.245H71.7651H73.512V63.739ZM78.753 63.739V67.233H77.006H75.259V63.739V60.245H77.006H78.753V63.739ZM47.3072 61.5553C47.3072 61.7955 47.1107 61.992 46.8705 61.992C46.6303 61.992 46.4337 61.7955 46.4337 61.5553C46.4337 61.315 46.6303 61.1185 46.8705 61.1185C47.1107 61.1185 47.3072 61.315 47.3072 61.5553ZM91.8554 61.5553C91.8554 61.7955 91.6589 61.992 91.4187 61.992C91.1785 61.992 90.9819 61.7955 90.9819 61.5553C90.9819 61.315 91.1785 61.1185 91.4187 61.1185C91.6589 61.1185 91.8554 61.315 91.8554 61.5553ZM178.331 62.8655C178.331 63.6224 178.04 63.739 176.148 63.739C174.255 63.739 173.964 63.6224 173.964 62.8655C173.964 62.1086 174.255 61.992 176.148 61.992C178.04 61.992 178.331 62.1086 178.331 62.8655ZM225.5 65.486V68.98H222.443H219.386V65.486V61.992H222.443H225.5V65.486ZM232.488 65.486V68.98H229.431H226.373V65.486V61.992H229.431H232.488V65.486ZM39.4458 63.3022C39.4458 63.5451 38.281 63.739 36.8253 63.739C35.3696 63.739 34.2048 63.5451 34.2048 63.3022C34.2048 63.0594 35.3696 62.8655 36.8253 62.8655C38.281 62.8655 39.4458 63.0594 39.4458 63.3022ZM98.8434 63.3022C98.8434 63.5451 97.6786 63.739 96.2229 63.739C94.7672 63.739 93.6024 63.5451 93.6024 63.3022C93.6024 63.0594 94.7672 62.8655 96.2229 62.8655C97.6786 62.8655 98.8434 63.0594 98.8434 63.3022ZM117.187 63.3022C117.187 63.5451 116.022 63.739 114.566 63.739C113.111 63.739 111.946 63.5451 111.946 63.3022C111.946 63.0594 113.111 62.8655 114.566 62.8655C116.022 62.8655 117.187 63.0594 117.187 63.3022ZM39.4458 65.0492C39.4458 65.2921 38.281 65.486 36.8253 65.486C35.3696 65.486 34.2048 65.2921 34.2048 65.0492C34.2048 64.8064 35.3696 64.6125 36.8253 64.6125C38.281 64.6125 39.4458 64.8064 39.4458 65.0492ZM53.4217 65.0492C53.4217 65.3196 51.0925 65.486 47.3072 65.486C43.5219 65.486 41.1928 65.3196 41.1928 65.0492C41.1928 64.7789 43.5219 64.6125 47.3072 64.6125C51.0925 64.6125 53.4217 64.7789 53.4217 65.0492ZM91.8554 65.0492C91.8554 65.3178 89.6717 65.486 86.1777 65.486C82.6837 65.486 80.5 65.3178 80.5 65.0492C80.5 64.7806 82.6837 64.6125 86.1777 64.6125C89.6717 64.6125 91.8554 64.7806 91.8554 65.0492ZM98.8434 65.0492C98.8434 65.2921 97.6786 65.486 96.2229 65.486C94.7672 65.486 93.6024 65.2921 93.6024 65.0492C93.6024 64.8064 94.7672 64.6125 96.2229 64.6125C97.6786 64.6125 98.8434 64.8064 98.8434 65.0492ZM117.187 65.0492C117.187 65.2921 116.022 65.486 114.566 65.486C113.111 65.486 111.946 65.2921 111.946 65.0492C111.946 64.8064 113.111 64.6125 114.566 64.6125C116.022 64.6125 117.187 64.8064 117.187 65.0492ZM178.331 65.0492C178.331 65.2894 177.349 65.486 176.148 65.486C174.947 65.486 173.964 65.2894 173.964 65.0492C173.964 64.809 174.947 64.6125 176.148 64.6125C177.349 64.6125 178.331 64.809 178.331 65.0492ZM203.663 67.6697V70.7269H201.479H199.295V67.6697V64.6125H201.479H203.663V67.6697ZM209.777 67.6697V70.7269H207.593H205.41V67.6697V64.6125H207.593H209.777V67.6697ZM246.464 67.233V69.8535H244.28H242.096V67.233V64.6125H244.28H246.464V67.233ZM252.578 67.233V69.8535H250.395H248.211V67.233V64.6125H250.395H252.578V67.233ZM35.9518 75.0944C35.9518 80.6267 35.7915 83.8294 35.5151 83.8294C35.2386 83.8294 35.0783 80.6267 35.0783 75.0944C35.0783 69.5621 35.2386 66.3595 35.5151 66.3595C35.7915 66.3595 35.9518 69.5621 35.9518 75.0944ZM39.4458 75.0944V83.8294H38.1355H36.8253V75.0944V66.3595H38.1355H39.4458V75.0944ZM53.4217 72.0372V77.7149H47.3072H41.1928V72.0372V66.3595H47.3072H53.4217V72.0372ZM91.8554 72.0372V77.7149H86.1777H80.5V72.0372V66.3595H86.1777H91.8554V72.0372ZM96.2229 74.2209V82.0824H94.9127H93.6024V74.2209V66.3595H94.9127H96.2229V74.2209ZM97.9699 74.2209C97.9699 79.1706 97.8083 82.0824 97.5331 82.0824C97.258 82.0824 97.0964 79.1706 97.0964 74.2209C97.0964 69.2713 97.258 66.3595 97.5331 66.3595C97.8083 66.3595 97.9699 69.2713 97.9699 74.2209ZM117.187 66.6089C117.187 67.3037 115.782 68.1065 114.566 68.1065C113.351 68.1065 111.946 67.3037 111.946 66.6089C111.946 66.4717 113.125 66.3595 114.566 66.3595C116.008 66.3595 117.187 66.4717 117.187 66.6089ZM217.639 66.7962C217.639 67.0456 216.328 67.233 214.581 67.233C212.834 67.233 211.524 67.0456 211.524 66.7962C211.524 66.5468 212.834 66.3595 214.581 66.3595C216.328 66.3595 217.639 66.5468 217.639 66.7962ZM240.349 66.7962C240.349 67.0456 239.039 67.233 237.292 67.233C235.545 67.233 234.235 67.0456 234.235 66.7962C234.235 66.5468 235.545 66.3595 237.292 66.3595C239.039 66.3595 240.349 66.5468 240.349 66.7962ZM57.7892 71.1637V74.2209H56.0422H54.2952V71.1637V68.1065H56.0422H57.7892V71.1637ZM63.0301 71.1637V74.2209H60.8464H58.6627V71.1637V68.1065H60.8464H63.0301V71.1637ZM68.2711 71.1637V74.2209H66.0873H63.9036V71.1637V68.1065H66.0873H68.2711V71.1637ZM73.512 71.1637V74.2209H71.7651H70.0181V71.1637V68.1065H71.7651H73.512V71.1637ZM78.753 71.1637V74.2209H77.006H75.259V71.1637V68.1065H77.006H78.753V71.1637ZM159.114 69.4167C159.114 69.6569 158.541 69.8535 157.84 69.8535C157.14 69.8535 156.479 70.0993 156.372 70.3994C156.265 70.6999 156.032 70.8108 155.855 70.6466C155.677 70.4819 155.798 70.0474 156.122 69.6805C156.779 68.938 159.114 68.7323 159.114 69.4167ZM130.289 70.2902C130.289 70.5304 130.093 70.7269 129.852 70.7269C129.612 70.7269 129.416 70.5304 129.416 70.2902C129.416 70.05 129.612 69.8535 129.852 69.8535C130.093 69.8535 130.289 70.05 130.289 70.2902ZM160.861 70.2902C160.861 70.5304 161.17 70.7269 161.548 70.7269C161.925 70.7269 162.547 71.0397 162.929 71.4218C163.492 71.9843 163.514 72.1844 163.045 72.4739C162.577 72.7635 162.599 72.9635 163.161 73.5261C163.544 73.9082 164.165 74.2209 164.543 74.2209C164.92 74.2209 165.229 74.4175 165.229 74.6577C165.229 74.8979 165.579 75.0944 166.006 75.0944C166.433 75.0944 167.066 75.4875 167.413 75.9679C167.759 76.4483 168.392 76.8414 168.819 76.8414C169.247 76.8414 169.596 77.0379 169.596 77.2782C169.596 77.5184 169.946 77.7149 170.373 77.7149C170.801 77.7149 171.434 78.108 171.78 78.5884C172.346 79.3728 173.964 79.8353 173.964 79.2125C173.964 78.6998 172.692 77.7149 172.03 77.7149C171.652 77.7149 171.343 77.5184 171.343 77.2782C171.343 77.0379 170.994 76.8414 170.566 76.8414C170.139 76.8414 169.506 76.4483 169.16 75.9679C168.813 75.4875 168.18 75.0944 167.753 75.0944C167.326 75.0944 166.976 74.8979 166.976 74.6577C166.976 74.4175 166.667 74.2209 166.29 74.2209C165.425 74.2209 164.14 72.9727 164.582 72.5622C164.763 72.3936 165 72.5014 165.107 72.8015C165.214 73.102 165.678 73.3474 166.139 73.3474C166.599 73.3474 166.976 73.544 166.976 73.7842C166.976 74.0244 167.326 74.2209 167.753 74.2209C168.18 74.2209 168.813 74.614 169.16 75.0944C169.506 75.5748 170.139 75.9679 170.566 75.9679C170.994 75.9679 171.343 76.1644 171.343 76.4047C171.343 76.6449 171.736 76.8414 172.217 76.8414C172.697 76.8414 173.09 77.0379 173.09 77.2782C173.09 77.5184 173.483 77.7149 173.964 77.7149C174.546 77.7149 174.837 77.4236 174.837 76.8414C174.837 75.8067 175.114 75.7456 175.96 76.592C176.467 77.0986 176.584 79.2291 176.584 87.9474V98.6788H175.274H173.964V92.1275V85.5763H168.286H162.608V92.5643V99.5522H152.563C146.157 99.5522 142.518 99.7104 142.518 99.989C142.518 100.229 141.732 100.426 140.771 100.426H139.024V88.6336V76.8414H140.334C141.234 76.8414 141.645 77.0563 141.645 77.5275C141.645 78.3696 142.683 79.4619 143.482 79.4619C143.807 79.4619 144.355 79.0688 144.702 78.5884C145.048 78.108 145.681 77.7149 146.109 77.7149C146.536 77.7149 146.886 77.5184 146.886 77.2782C146.886 77.0379 147.235 76.8414 147.663 76.8414C148.09 76.8414 148.723 76.4483 149.069 75.9679C149.416 75.4875 149.964 75.0944 150.289 75.0944C150.613 75.0944 151.191 74.7817 151.574 74.3996C152.136 73.837 152.158 73.637 151.69 73.3474C151.221 73.0579 151.243 72.8578 151.806 72.2953C152.188 71.9132 152.793 71.6004 153.151 71.6004C153.508 71.6004 153.915 71.355 154.056 71.0545C154.259 70.6178 154.361 70.6178 154.565 71.0545C154.867 71.7022 156.494 71.7939 156.494 71.1637C156.494 70.9235 157.28 70.7269 158.241 70.7269C159.202 70.7269 159.988 70.5304 159.988 70.2902C159.988 70.05 160.184 69.8535 160.425 69.8535C160.665 69.8535 160.861 70.05 160.861 70.2902ZM176.584 70.2902C176.584 70.5304 175.995 70.7269 175.274 70.7269C174.553 70.7269 173.964 70.5304 173.964 70.2902C173.964 70.05 174.553 69.8535 175.274 69.8535C175.995 69.8535 176.584 70.05 176.584 70.2902ZM159.988 70.9763C159.988 71.1139 160.269 71.507 160.612 71.8498C161.327 72.5657 162.608 72.6858 162.608 72.0372C162.608 71.797 162.215 71.6004 161.735 71.6004C161.255 71.6004 160.861 71.4039 160.861 71.1637C160.861 70.9235 160.665 70.7269 160.425 70.7269C160.184 70.7269 159.988 70.8392 159.988 70.9763ZM225.5 73.7842V76.8414H222.443H219.386V73.7842V70.7269H222.443H225.5V73.7842ZM232.488 73.7842V76.8414H229.431H226.373V73.7842V70.7269H229.431H232.488V73.7842ZM153.873 72.0372C153.873 72.2774 153.48 72.4739 153 72.4739C152.52 72.4739 152.127 72.6705 152.127 72.9107C152.127 73.5592 153.407 73.4391 154.123 72.7233C154.855 71.9918 154.92 71.6004 154.31 71.6004C154.07 71.6004 153.873 71.797 153.873 72.0372ZM176.584 72.0372C176.584 72.2774 175.995 72.4739 175.274 72.4739C174.553 72.4739 173.964 72.2774 173.964 72.0372C173.964 71.797 174.553 71.6004 175.274 71.6004C175.995 71.6004 176.584 71.797 176.584 72.0372ZM203.663 74.6577V77.7149H201.479H199.295V75.0944C199.295 72.7652 199.392 72.4739 200.169 72.4739C200.649 72.4739 201.042 72.2774 201.042 72.0372C201.042 71.797 201.632 71.6004 202.352 71.6004H203.663V74.6577ZM209.777 74.6577V77.7149H207.593H205.41V74.6577V71.6004H207.593H209.777V74.6577ZM246.464 74.2209V76.8414H244.28H242.096V74.2209V71.6004H244.28H246.464V74.2209ZM252.578 74.2209V76.8414H250.395H248.211V74.2209V71.6004H250.395H252.578V74.2209ZM217.888 73.098C218.395 73.6047 218.512 75.7351 218.512 84.4535V95.1848H214.581H210.651V84.4661C210.651 76.513 210.792 73.5872 211.197 73.1273C211.95 72.2713 217.039 72.249 217.888 73.098ZM240.599 73.098C241.518 74.0165 241.518 93.6422 240.599 94.5607C240.168 94.9917 238.952 95.1848 236.668 95.1848H233.361V83.8294V72.4739H236.668C238.952 72.4739 240.168 72.667 240.599 73.098ZM150.38 73.5968C150.38 74.0746 149.128 75.0944 148.542 75.0944C148.217 75.0944 147.669 75.4875 147.322 75.9679C146.976 76.4483 146.343 76.8414 145.916 76.8414C145.488 76.8414 145.139 77.0379 145.139 77.2782C145.139 77.5184 144.762 77.7149 144.301 77.7149C143.841 77.7149 143.377 77.9608 143.269 78.2608C143.162 78.5613 142.926 78.6688 142.744 78.5002C142.302 78.0896 143.588 76.8414 144.452 76.8414C144.83 76.8414 145.139 76.6449 145.139 76.4047C145.139 76.1644 145.488 75.9679 145.916 75.9679C146.343 75.9679 146.976 75.5748 147.322 75.0944C147.669 74.614 148.301 74.2209 148.729 74.2209C149.156 74.2209 149.506 74.0244 149.506 73.7842C149.506 73.544 149.703 73.3474 149.943 73.3474C150.183 73.3474 150.38 73.4597 150.38 73.5968ZM176.584 73.7842C176.584 74.0244 175.995 74.2209 175.274 74.2209C174.553 74.2209 173.964 74.0244 173.964 73.7842C173.964 73.544 174.553 73.3474 175.274 73.3474C175.995 73.3474 176.584 73.544 176.584 73.7842ZM116.313 74.6577C116.313 74.8979 115.92 75.0944 115.44 75.0944C114.959 75.0944 114.566 74.8979 114.566 74.6577C114.566 74.4175 114.959 74.2209 115.44 74.2209C115.92 74.2209 116.313 74.4175 116.313 74.6577ZM57.7892 79.0251V82.0824H56.0422H54.2952V79.0251V75.9679H56.0422H57.7892V79.0251ZM63.0301 79.0251V82.0824H61.4705C59.2741 82.0824 58.6627 81.2809 58.6627 78.401V75.9679H60.8464H63.0301V79.0251ZM68.2711 79.0251V82.0824H66.7115C64.5151 82.0824 63.9036 81.2809 63.9036 78.401V75.9679H66.0873H68.2711V79.0251ZM73.512 79.0251V82.0824H71.7651H70.0181V79.0251V75.9679H71.7651H73.512V79.0251ZM78.753 79.0251V82.0824H77.006H75.259V79.0251V75.9679H77.006H78.753V79.0251ZM116.313 76.4047C116.313 76.6449 115.92 76.8414 115.44 76.8414C114.959 76.8414 114.566 76.6449 114.566 76.4047C114.566 76.1644 114.959 75.9679 115.44 75.9679C115.92 75.9679 116.313 76.1644 116.313 76.4047ZM225.5 80.7721V83.8294H222.443H219.386V80.7721V77.7149H222.443H225.5V80.7721ZM232.488 80.7721V83.8294H229.431H226.373V81.4089C226.373 78.2534 226.865 77.752 229.977 77.7315L232.488 77.7149V80.7721ZM203.663 81.6456V84.7029H201.479H199.295V81.6456V78.5884H201.479H203.663V81.6456ZM209.777 81.6456V84.7029H207.593H205.41V81.6456V78.5884H207.593H209.777V81.6456ZM246.464 81.6456V84.7029H244.28H242.096V81.6456V78.5884H244.28H246.464V81.6456ZM252.578 81.6456V84.7029H250.395H248.211V81.6456V78.5884H250.395H252.578V81.6456ZM51.6747 80.7721C51.6747 81.4928 51.4782 82.0824 51.238 82.0824C50.9977 82.0824 50.8012 81.4928 50.8012 80.7721C50.8012 80.0515 50.9977 79.4619 51.238 79.4619C51.4782 79.4619 51.6747 80.0515 51.6747 80.7721ZM47.3072 80.7721C47.3072 81.0123 47.1107 81.2089 46.8705 81.2089C46.6303 81.2089 46.4337 81.0123 46.4337 80.7721C46.4337 80.5319 46.6303 80.3354 46.8705 80.3354C47.1107 80.3354 47.3072 80.5319 47.3072 80.7721ZM91.8554 80.7721C91.8554 81.0123 91.6589 81.2089 91.4187 81.2089C91.1785 81.2089 90.9819 81.0123 90.9819 80.7721C90.9819 80.5319 91.1785 80.3354 91.4187 80.3354C91.6589 80.3354 91.8554 80.5319 91.8554 80.7721ZM193.43 80.9595C194.149 81.6775 194.311 86.4498 193.617 86.4498C193.349 86.4498 193.181 88.6336 193.181 92.1275C193.181 95.6215 193.013 97.8053 192.744 97.8053C192.468 97.8053 192.307 94.748 192.307 89.5071V81.2089H184.883C180.224 81.2089 177.458 81.046 177.458 80.7721C177.458 80.4974 180.307 80.3354 185.132 80.3354C191.201 80.3354 192.937 80.466 193.43 80.9595ZM137.526 82.7065C137.87 83.0493 138.151 83.6389 138.151 84.0167C138.151 84.6303 136.073 84.7029 118.497 84.7029C105.686 84.7029 98.8434 84.5509 98.8434 84.2661C98.8434 84.0259 99.0399 83.8294 99.2801 83.8294C99.5203 83.8294 99.7169 83.4363 99.7169 82.9559C99.7169 82.0959 100.008 82.0824 118.31 82.0824C133.841 82.0824 137.005 82.185 137.526 82.7065ZM181.825 84.7029V87.3233H179.642H177.458V84.7029V82.0824H179.642H181.825V84.7029ZM187.066 84.7029V87.3233H184.883H182.699V84.7029V82.0824H184.883H187.066V84.7029ZM191.434 84.7029V87.3233H189.687H187.94V84.7029V82.0824H189.687H191.434V84.7029ZM57.7892 86.0131V89.0703H56.0422H54.2952V86.0131V82.9559H56.0422H57.7892V86.0131ZM63.0301 86.0131V89.0703H61.4705C59.2741 89.0703 58.6627 88.2689 58.6627 85.389V82.9559H60.8464H63.0301V86.0131ZM68.2711 86.0131V89.0703H66.7115C64.5151 89.0703 63.9036 88.2689 63.9036 85.389V82.9559H66.0873H68.2711V86.0131ZM73.512 86.0131V89.0703H71.7651H70.0181V86.0131V82.9559H71.7651H73.512V86.0131ZM78.753 86.0131V89.0703H77.006H75.259V86.0131V82.9559H77.006H78.753V86.0131ZM97.9699 83.642C97.9699 84.7802 96.8138 85.5763 95.162 85.5763C93.7203 85.5763 93.6024 85.4772 93.6024 84.2661C93.6024 82.9851 93.6509 82.9559 95.7861 82.9559C97.4803 82.9559 97.9699 83.1096 97.9699 83.642ZM53.4217 89.9438V96.0583H47.3072H41.1928V89.9438V83.8294H47.3072H53.4217V89.9438ZM91.8554 84.7029C91.8554 85.5314 91.5641 85.5763 86.1777 85.5763C80.7913 85.5763 80.5 85.5314 80.5 84.7029C80.5 83.8743 80.7913 83.8294 86.1777 83.8294C91.5641 83.8294 91.8554 83.8743 91.8554 84.7029ZM39.4458 86.0131C39.4458 86.2559 38.281 86.4498 36.8253 86.4498C35.3696 86.4498 34.2048 86.2559 34.2048 86.0131C34.2048 85.7703 35.3696 85.5763 36.8253 85.5763C38.281 85.5763 39.4458 85.7703 39.4458 86.0131ZM142.518 90.3806V95.1848H143.828C144.549 95.1848 145.139 95.3813 145.139 95.6215C145.139 95.8617 145.532 96.0583 146.012 96.0583C146.492 96.0583 146.886 95.8617 146.886 95.6215C146.886 95.3813 147.279 95.1848 147.759 95.1848C148.58 95.1848 148.633 94.8935 148.633 90.3806V85.5763H145.575H142.518V90.3806ZM152.672 86.2297C152.317 86.6333 152.127 88.3051 152.127 91.0173V95.1848H153.4C154.101 95.1848 154.789 95.4307 154.929 95.7307C155.133 96.1675 155.235 96.1675 155.438 95.7307C155.579 95.4302 156.463 95.1848 157.404 95.1848H159.114V91.0047C159.114 87.964 158.945 86.6542 158.49 86.2005C157.658 85.368 153.412 85.3899 152.672 86.2297ZM203.663 90.8173V96.0583H201.479H199.295V90.8173V85.5763H201.479H203.663V90.8173ZM209.777 90.1932C209.777 95.425 209.474 96.0583 206.969 96.0583H205.41V90.8173V85.5763H207.593H209.777V90.1932ZM225.5 90.3806V95.1848H222.443H219.386V90.3806V85.5763H222.443H225.5V90.3806ZM232.488 90.3806V95.1848H229.431H226.373V90.3806V85.5763H229.431H232.488V90.3806ZM246.464 90.3806V95.1848H244.28H242.096V90.3806V85.5763H244.28H246.464V90.3806ZM252.578 89.9438C252.578 94.02 252.52 94.3113 251.705 94.3113C251.224 94.3113 250.831 94.5078 250.831 94.748C250.831 94.9882 250.242 95.1848 249.521 95.1848H248.211V90.3806V85.5763H250.395H252.578V89.9438ZM87.488 88.1968V89.9438H83.994H80.5V88.1968V86.4498H83.994H87.488V88.1968ZM91.8554 88.1968V89.9438H90.1084H88.3614V88.1968V86.4498H90.1084H91.8554V88.1968ZM97.9699 94.748V103.046H95.9735C92.787 103.046 92.7289 102.886 92.7289 94.1239V86.4498H95.3494H97.9699V94.748ZM103.393 86.9958C103.596 87.4325 103.699 87.4325 103.902 86.9958C104.056 86.6678 105.014 86.4498 106.304 86.4498H108.452V88.6336V90.8173H103.648H98.8434V88.6336V86.4498H100.991C102.281 86.4498 103.24 86.6678 103.393 86.9958ZM112.819 88.6336V90.8173H111.072H109.325V88.6336V86.4498H111.072H112.819V88.6336ZM115.44 87.3233C115.44 87.9055 115.148 88.1968 114.566 88.1968C113.984 88.1968 113.693 87.9055 113.693 87.3233C113.693 86.7411 113.984 86.4498 114.566 86.4498C115.148 86.4498 115.44 86.7411 115.44 87.3233ZM117.187 87.3233C117.187 87.8038 116.99 88.1968 116.75 88.1968C116.51 88.1968 116.313 87.8038 116.313 87.3233C116.313 86.8429 116.51 86.4498 116.75 86.4498C116.99 86.4498 117.187 86.8429 117.187 87.3233ZM132.036 86.8866C132.036 87.136 133.346 87.3233 135.093 87.3233C137.859 87.3233 138.151 87.4063 138.151 88.1968C138.151 88.9974 137.859 89.0703 134.657 89.0703H131.163V91.9402C131.163 95.6482 131.573 96.0583 135.281 96.0583H138.151V98.242V100.426H134.657C132.618 100.426 131.163 100.608 131.163 100.862C131.163 101.138 128.168 101.299 123.052 101.299C114.009 101.299 113.693 101.204 113.693 98.4914V96.9318H115.877H118.06V91.6908V86.4498H125.048C129.416 86.4498 132.036 86.6136 132.036 86.8866ZM144.265 86.8866C144.265 87.1268 144.069 87.3233 143.828 87.3233C143.588 87.3233 143.392 87.1268 143.392 86.8866C143.392 86.6464 143.588 86.4498 143.828 86.4498C144.069 86.4498 144.265 86.6464 144.265 86.8866ZM153.873 86.8866C153.873 87.1268 153.677 87.3233 153.437 87.3233C153.197 87.3233 153 87.1268 153 86.8866C153 86.6464 153.197 86.4498 153.437 86.4498C153.677 86.4498 153.873 86.6464 153.873 86.8866ZM158.241 90.3806C158.241 92.7097 158.063 94.3113 157.804 94.3113C157.545 94.3113 157.367 92.7097 157.367 90.3806C157.367 88.0514 157.545 86.4498 157.804 86.4498C158.063 86.4498 158.241 88.0514 158.241 90.3806ZM164.355 87.3233C164.355 87.8038 164.159 88.1968 163.919 88.1968C163.678 88.1968 163.482 87.8038 163.482 87.3233C163.482 86.8429 163.678 86.4498 163.919 86.4498C164.159 86.4498 164.355 86.8429 164.355 87.3233ZM167.849 86.8866C167.849 87.1268 167.653 87.3233 167.413 87.3233C167.172 87.3233 166.976 87.1268 166.976 86.8866C166.976 86.6464 167.172 86.4498 167.413 86.4498C167.653 86.4498 167.849 86.6464 167.849 86.8866ZM169.596 86.8866C169.596 87.1268 169.4 87.3233 169.16 87.3233C168.919 87.3233 168.723 87.1268 168.723 86.8866C168.723 86.6464 168.919 86.4498 169.16 86.4498C169.4 86.4498 169.596 86.6464 169.596 86.8866ZM173.09 86.8866C173.09 87.1268 172.894 87.3233 172.654 87.3233C172.413 87.3233 172.217 87.1268 172.217 86.8866C172.217 86.6464 172.413 86.4498 172.654 86.4498C172.894 86.4498 173.09 86.6464 173.09 86.8866ZM35.9518 94.748C35.9518 101.881 35.9859 102.173 36.8253 102.173C37.3057 102.173 37.6988 101.976 37.6988 101.736C37.6988 101.496 37.5023 101.299 37.262 101.299C36.9891 101.299 36.8253 98.6788 36.8253 94.3113V87.3233H38.1355H39.4458V95.1848V103.046H36.8253C35.3696 103.046 34.2048 102.852 34.2048 102.609C34.2048 102.369 34.4014 102.173 34.6416 102.173C34.9154 102.173 35.0783 99.4068 35.0783 94.748C35.0783 90.0892 35.2412 87.3233 35.5151 87.3233C35.7889 87.3233 35.9518 90.0892 35.9518 94.748ZM153.873 90.3806C153.873 91.5816 153.677 92.5643 153.437 92.5643C153.197 92.5643 153 91.5816 153 90.3806C153 89.1795 153.197 88.1968 153.437 88.1968C153.677 88.1968 153.873 89.1795 153.873 90.3806ZM181.825 93.4378V98.6788H179.642H177.458V93.4378V88.1968H179.642H181.825V93.4378ZM187.066 93.4378V98.6788H184.883H182.699V93.4378V88.1968H184.883H187.066V93.4378ZM191.434 93.001V97.8053H190.123C189.403 97.8053 188.813 98.0018 188.813 98.242C188.813 98.4822 188.617 98.6788 188.377 98.6788C188.11 98.6788 187.94 96.6405 187.94 93.4378V88.1968H189.687H191.434V93.001ZM115.44 92.5643C115.44 94.486 115.328 96.0583 115.19 96.0583C113.25 96.0583 113.173 89.1852 115.112 89.0869C115.293 89.0777 115.44 90.6426 115.44 92.5643ZM117.187 92.5643C117.187 94.6026 117.005 96.0583 116.75 96.0583C116.495 96.0583 116.313 94.6026 116.313 92.5643C116.313 90.526 116.495 89.0703 116.75 89.0703C117.005 89.0703 117.187 90.526 117.187 92.5643ZM57.7892 92.5643V95.1848H56.0422H54.2952V92.5643V89.9438H56.0422H57.7892V92.5643ZM63.0301 92.5643V95.1848H61.4705C59.3802 95.1848 58.6627 94.3558 58.6627 91.9402V89.9438H60.8464H63.0301V92.5643ZM68.2711 92.5643V95.1848H66.7115C64.6212 95.1848 63.9036 94.3558 63.9036 91.9402V89.9438H66.0873H68.2711V92.5643ZM73.512 92.5643V95.1848H71.7651H70.0181V92.5643V89.9438H71.7651H73.512V92.5643ZM78.753 92.5643V95.1848H77.006H75.259V92.5643V89.9438H77.006H78.753V92.5643ZM134.657 92.5643V95.1848H133.346H132.036V92.5643V89.9438H133.346H134.657V92.5643ZM138.151 92.5643V95.1848H136.84H135.53V92.5643V89.9438H136.84H138.151V92.5643ZM87.488 96.9318V103.046H85.741H83.994V99.989C83.994 97.2231 84.077 96.9318 84.8675 96.9318C85.3479 96.9318 85.741 96.7352 85.741 96.495C85.741 96.2548 85.364 96.0583 84.9037 96.0583C84.4434 96.0583 83.952 95.8128 83.8119 95.5123C83.6083 95.0756 83.5061 95.0756 83.3026 95.5123C83.1624 95.8128 82.4745 96.0583 81.774 96.0583C80.5083 96.0583 80.5 96.0417 80.5 93.4378V90.8173H83.994H87.488V96.9318ZM91.8554 91.6908C91.8554 92.4189 91.5641 92.5643 90.1084 92.5643C88.6528 92.5643 88.3614 92.4189 88.3614 91.6908C88.3614 90.9627 88.6528 90.8173 90.1084 90.8173C91.5641 90.8173 91.8554 90.9627 91.8554 91.6908ZM108.452 93.8745V96.0583H103.648H98.8434V93.8745V91.6908H103.648H108.452V93.8745ZM112.819 93.8745V96.0583H111.072H109.325V93.8745V91.6908H111.072H112.819V93.8745ZM164.355 93.8745C164.355 95.1118 164.452 95.1848 166.102 95.1848H167.849V96.9318V98.6788H165.666H163.482V95.6215C163.482 93.8745 163.669 92.5643 163.919 92.5643C164.159 92.5643 164.355 93.1539 164.355 93.8745ZM91.8554 98.242V103.046H90.1084H88.3614V98.242V93.4378H90.1084H91.8554V98.242ZM173.09 96.9318V98.6788H170.907H168.723V96.9318V95.1848H170.907H173.09V96.9318ZM57.7892 99.989V103.92H56.0422H54.2952V99.989V96.0583H56.0422H57.7892V99.989ZM63.0301 99.989V103.92H60.8464H58.6627V99.989V96.0583H60.8464H63.0301V99.989ZM68.2711 99.989V103.92H66.7115C64.3591 103.92 63.9036 103.181 63.9036 99.3649V96.0583H66.0873H68.2711V99.989ZM73.512 99.5522V103.046H72.2018C71.4812 103.046 70.8916 103.243 70.8916 103.483C70.8916 103.723 70.695 103.92 70.4548 103.92C70.1958 103.92 70.0181 102.318 70.0181 99.989V96.0583H71.7651H73.512V99.5522ZM78.753 99.5522V103.046H77.006H75.259V99.5522V96.0583H77.006H78.753V99.5522ZM51.6747 98.6788C51.6747 99.6396 51.4782 100.426 51.238 100.426C50.9977 100.426 50.8012 99.6396 50.8012 98.6788C50.8012 97.7179 50.9977 96.9318 51.238 96.9318C51.4782 96.9318 51.6747 97.7179 51.6747 98.6788ZM83.1205 99.989V103.046H81.8102H80.5V99.989V96.9318H81.8102H83.1205V99.989ZM107.828 97.5559C108.171 97.8987 108.452 98.8814 108.452 99.7396C108.452 101.008 108.289 101.299 107.578 101.299C107.098 101.299 106.705 101.496 106.705 101.736C106.705 101.995 105.103 102.173 102.774 102.173H98.8434V99.5522V96.9318H103.023C106.064 96.9318 107.374 97.1017 107.828 97.5559ZM112.819 99.1155V101.299H111.072H109.325V99.1155V96.9318H111.072H112.819V99.1155ZM261.313 100.862C261.313 101.103 261.903 101.299 262.623 101.299C263.344 101.299 263.934 101.496 263.934 101.736C263.934 101.976 264.72 102.173 265.681 102.173C266.642 102.173 267.428 102.369 267.428 102.609C267.428 102.85 267.821 103.046 268.301 103.046C268.782 103.046 269.175 103.243 269.175 103.483C269.175 103.765 264.079 103.92 254.762 103.92C245.445 103.92 240.349 104.074 240.349 104.356C240.349 104.642 232.925 104.793 218.949 104.793C204.973 104.793 197.548 104.945 197.548 105.23C197.548 105.515 190.123 105.667 176.148 105.667C162.172 105.667 154.747 105.818 154.747 106.103C154.747 106.344 154.157 106.54 153.437 106.54C152.716 106.54 152.127 106.344 152.127 106.103C152.127 105.863 151.144 105.667 149.943 105.667C148.742 105.667 147.759 105.863 147.759 106.103C147.759 106.385 143.246 106.54 135.093 106.54C126.941 106.54 122.428 106.385 122.428 106.103C122.428 105.824 126.213 105.667 132.91 105.667C139.606 105.667 143.392 105.509 143.392 105.23C143.392 104.95 147.468 104.793 154.747 104.793C162.026 104.793 166.102 104.636 166.102 104.356C166.102 104.077 169.888 103.92 176.584 103.92C183.281 103.92 187.066 103.762 187.066 103.483C187.066 103.205 190.56 103.046 196.675 103.046C202.789 103.046 206.283 102.887 206.283 102.609C206.283 102.331 209.923 102.173 216.328 102.173C222.734 102.173 226.373 102.015 226.373 101.736C226.373 101.457 230.159 101.299 236.855 101.299C243.552 101.299 247.337 101.142 247.337 100.862C247.337 100.59 249.958 100.426 254.325 100.426C258.693 100.426 261.313 100.59 261.313 100.862ZM53.4217 102.609C53.4217 102.88 51.0925 103.046 47.3072 103.046C43.5219 103.046 41.1928 102.88 41.1928 102.609C41.1928 102.339 43.5219 102.173 47.3072 102.173C51.0925 102.173 53.4217 102.339 53.4217 102.609ZM39.4458 104.356C39.4458 104.599 38.281 104.793 36.8253 104.793C35.3696 104.793 34.2048 104.599 34.2048 104.356C34.2048 104.114 35.3696 103.92 36.8253 103.92C38.281 103.92 39.4458 104.114 39.4458 104.356ZM42.0663 104.356C42.0663 104.597 41.8697 104.793 41.6295 104.793C41.3893 104.793 41.1928 104.597 41.1928 104.356C41.1928 104.116 41.3893 103.92 41.6295 103.92C41.8697 103.92 42.0663 104.116 42.0663 104.356ZM107.578 106.977C107.578 107.217 106.596 107.414 105.395 107.414C104.194 107.414 103.211 107.217 103.211 106.977C103.211 106.737 104.194 106.54 105.395 106.54C106.596 106.54 107.578 106.737 107.578 106.977Z" fill="#333333"/>
</svg>
