<svg width="64" height="64" viewBox="0 0 64 64" fill="none" xmlns="http://www.w3.org/2000/svg">
<g clip-path="url(#clip0)">
<path d="M55.3501 12.5573H55.3379" stroke="#727272" stroke-width="17.6552" stroke-linecap="round" stroke-linejoin="round"/>
<path d="M53.0098 16.4758V16.4635" stroke="#727272" stroke-width="17.6552" stroke-linecap="round" stroke-linejoin="round"/>
<path d="M64 57.9311C64 60.9782 61.5298 63.4484 58.4828 63.4484H5.51724C4.05398 63.4484 2.65065 62.8671 1.61596 61.8324C0.581279 60.7977 0 59.3944 0 57.9311C0 54.8856 11.0345 21.5173 11.0345 21.5173H52.9655C52.9655 21.5173 64 54.8856 64 57.9311Z" fill="white"/>
<path d="M20.9657 21.5173V23.7242C20.9657 24.3336 20.4717 24.8277 19.8622 24.8277C19.2528 24.8277 18.7588 24.3336 18.7588 23.7242V21.5173H20.9657Z" fill="#BEBEBE"/>
<path d="M19.8622 38.069C19.2528 38.069 18.7588 37.5749 18.7588 36.9655V34.7586C18.7588 34.1492 19.2528 33.6552 19.8622 33.6552C20.4717 33.6552 20.9657 34.1492 20.9657 34.7586V36.9655C20.9657 37.5749 20.4717 38.069 19.8622 38.069Z" fill="#BEBEBE"/>
<path d="M19.8622 44.6897C19.2528 44.6897 18.7588 44.1956 18.7588 43.5862V41.3793C18.7588 40.7699 19.2528 40.2759 19.8622 40.2759C20.4717 40.2759 20.9657 40.7699 20.9657 41.3793V43.5862C20.9657 44.1956 20.4717 44.6897 19.8622 44.6897Z" fill="#BEBEBE"/>
<path d="M19.8622 51.3104C19.2528 51.3104 18.7588 50.8164 18.7588 50.207V48.0001C18.7588 47.3906 19.2528 46.8966 19.8622 46.8966C20.4717 46.8966 20.9657 47.3906 20.9657 48.0001V50.207C20.9657 50.8164 20.4717 51.3104 19.8622 51.3104Z" fill="#BEBEBE"/>
<path d="M20.9657 61.2415V63.4484H18.7588V61.2415C18.7588 60.6321 19.2528 60.1381 19.8622 60.1381C20.4717 60.1381 20.9657 60.6321 20.9657 61.2415Z" fill="#BEBEBE"/>
<path d="M52.9656 31.4484H50.7587C50.1493 31.4484 49.6553 30.9543 49.6553 30.3449C49.6553 29.7355 50.1493 29.2415 50.7587 29.2415H52.9656C53.575 29.2415 54.0691 29.7355 54.0691 30.3449C54.0691 30.9543 53.575 31.4484 52.9656 31.4484Z" fill="#BEBEBE"/>
<path d="M26.4822 31.4484H24.2753C23.6659 31.4484 23.1719 30.9543 23.1719 30.3449C23.1719 29.7355 23.6659 29.2415 24.2753 29.2415H26.4822C27.0916 29.2415 27.5857 29.7355 27.5857 30.3449C27.5857 30.9543 27.0916 31.4484 26.4822 31.4484Z" fill="#BEBEBE"/>
<path d="M19.8621 31.4483H17.6552C17.0458 31.4483 16.5518 30.9543 16.5518 30.3449C16.5518 29.7355 17.0458 29.2414 17.6552 29.2414H18.7587V28.138C18.7587 27.5286 19.2527 27.0345 19.8621 27.0345C20.4715 27.0345 20.9656 27.5286 20.9656 28.138V30.3449C20.9656 30.9543 20.4715 31.4483 19.8621 31.4483Z" fill="#BEBEBE"/>
<path d="M13.241 31.4484H11.0341C10.4247 31.4484 9.93066 30.9543 9.93066 30.3449C9.93066 29.7355 10.4247 29.2415 11.0341 29.2415H13.241C13.8504 29.2415 14.3445 29.7355 14.3445 30.3449C14.3445 30.9543 13.8504 31.4484 13.241 31.4484Z" fill="#BEBEBE"/>
<path d="M52.9656 55.7242H50.7587C50.1493 55.7242 49.6553 55.2302 49.6553 54.6208C49.6553 54.0114 50.1493 53.5173 50.7587 53.5173H52.9656C53.5758 53.5173 52.9656 54.0106 52.9656 54.6208C52.9656 55.231 53.5758 55.7242 52.9656 55.7242Z" fill="#BEBEBE"/>
<path d="M39.7244 55.7242H37.5175C36.9081 55.7242 36.4141 55.2302 36.4141 54.6208C36.4141 54.0114 36.9081 53.5173 37.5175 53.5173H39.7244C40.3338 53.5173 40.8279 54.0114 40.8279 54.6208C40.8279 55.2302 40.3338 55.7242 39.7244 55.7242Z" fill="#BEBEBE"/>
<path d="M33.1033 55.7242H30.8964C30.287 55.7242 29.793 55.2302 29.793 54.6208C29.793 54.0114 30.287 53.5173 30.8964 53.5173H33.1033C33.7127 53.5173 34.2068 54.0114 34.2068 54.6208C34.2068 55.2302 33.7127 55.7242 33.1033 55.7242Z" fill="#BEBEBE"/>
<path d="M26.4822 55.7242H24.2753C23.6659 55.7242 23.1719 55.2302 23.1719 54.6208C23.1719 54.0114 23.6659 53.5173 24.2753 53.5173H26.4822C27.0916 53.5173 27.5857 54.0114 27.5857 54.6208C27.5857 55.2302 27.0916 55.7242 26.4822 55.7242Z" fill="#BEBEBE"/>
<path d="M19.8621 57.9311C19.2527 57.9311 18.7587 57.4371 18.7587 56.8277V55.7242H17.6552C17.0458 55.7242 16.5518 55.2302 16.5518 54.6208C16.5518 54.0114 17.0458 53.5173 17.6552 53.5173H19.8621C20.4715 53.5173 20.9656 54.0114 20.9656 54.6208V56.8277C20.9656 57.4371 20.4715 57.9311 19.8621 57.9311Z" fill="#BEBEBE"/>
<path d="M13.2418 55.7242H11.0349C10.4247 55.7242 11.0349 55.231 11.0349 54.6208C11.0349 54.0106 10.4247 53.5173 11.0349 53.5173H13.2418C13.8512 53.5173 14.3452 54.0114 14.3452 54.6208C14.3452 55.2302 13.8512 55.7242 13.2418 55.7242Z" fill="#BEBEBE"/>
<path d="M46.3445 31.4483H44.1376C43.5282 31.4483 43.0342 30.9543 43.0342 30.3448V29.131C43.0342 28.5216 43.5282 28.0276 44.1376 28.0276C44.747 28.0276 45.2411 28.5216 45.2411 29.131V29.2414H46.3445C46.9539 29.2414 47.448 29.7354 47.448 30.3448C47.448 30.9543 46.9539 31.4483 46.3445 31.4483Z" fill="#BEBEBE"/>
<path d="M44.1376 38.069C43.5282 38.069 43.0342 37.5749 43.0342 36.9655V34.7586C43.0342 34.1492 43.5282 33.6552 44.1376 33.6552C44.747 33.6552 45.2411 34.1492 45.2411 34.7586V36.9655C45.2411 37.5749 44.747 38.069 44.1376 38.069Z" fill="#BEBEBE"/>
<path d="M44.1376 44.6897C43.5282 44.6897 43.0342 44.1956 43.0342 43.5862V41.3793C43.0342 40.7699 43.5282 40.2759 44.1376 40.2759C44.747 40.2759 45.2411 40.7699 45.2411 41.3793V43.5862C45.2411 44.1956 44.747 44.6897 44.1376 44.6897Z" fill="#BEBEBE"/>
<path d="M44.1376 51.3104C43.5282 51.3104 43.0342 50.8164 43.0342 50.207V48.0001C43.0342 47.3906 43.5282 46.8966 44.1376 46.8966C44.747 46.8966 45.2411 47.3906 45.2411 48.0001V50.207C45.2411 50.8164 44.747 51.3104 44.1376 51.3104Z" fill="#BEBEBE"/>
<path d="M44.1376 57.9311C43.5282 57.9311 43.0342 57.4371 43.0342 56.8277V54.6208C43.0342 54.0114 43.5282 53.5173 44.1376 53.5173H46.3445C46.9539 53.5173 47.448 54.0114 47.448 54.6208C47.448 55.2302 46.9539 55.7242 46.3445 55.7242H45.2411V56.8277C45.2411 57.4371 44.747 57.9311 44.1376 57.9311Z" fill="#BEBEBE"/>
<path d="M45.2411 61.2415V63.4484H43.0342V61.2415C43.0342 60.6321 43.5282 60.1381 44.1376 60.1381C44.747 60.1381 45.2411 60.6321 45.2411 61.2415Z" fill="#BEBEBE"/>
<path d="M11.0345 17.1035V57.9311C11.0345 54.884 8.56433 52.4139 5.51724 52.4139C2.47015 52.4139 0 54.884 0 57.9311V17.1035C0 14.0565 2.47015 11.5863 5.51724 11.5863C8.56433 11.5863 11.0345 14.0565 11.0345 17.1035Z" fill="#BEBEBE"/>
<path d="M64.0003 17.1035V57.9311C64.0003 54.884 61.5301 52.4139 58.4831 52.4139C55.436 52.4139 52.9658 54.884 52.9658 57.9311V11.5863L61.0541 12.2153C62.8651 13.1739 63.9986 15.0544 64.0003 17.1035Z" fill="#BEBEBE"/>
<path d="M61.1463 9.00088L53.3438 1.1984C52.482 0.336863 51.085 0.336863 50.2232 1.1984L47.1016 4.31895L50.7584 10.4828L58.0257 15.2431L61.1463 12.1214C62.0078 11.2596 62.0078 9.86267 61.1463 9.00088Z" fill="#F05540"/>
<path d="M54.9074 18.3614L39.757 33.5117C39.6125 33.6546 39.4491 33.7771 39.2715 33.8759C39.0508 33.1917 34.6481 30.8855 30.8963 30.3448C30.3556 26.5931 29.1529 23.2938 28.4688 23.0731C28.5675 22.8955 28.69 22.7321 28.8329 22.5876L43.9832 7.43726L50.7584 10.4828L54.9074 18.3614Z" fill="#FFD05C"/>
<path d="M32.3174 28.4622L48.6543 12.1253L50.2145 13.6856L33.8777 30.0224L32.3174 28.4622Z" fill="#F6B44B"/>
<path d="M39.272 33.8759C39.0834 33.9852 38.8785 34.0634 38.6651 34.1076L32.4306 35.4428C31.8237 34.5159 29.7823 34.7476 28.6899 33.6552C27.5975 32.5628 27.8292 30.5214 26.9023 29.9145L28.2375 23.68C28.2817 23.4666 28.3599 23.2617 28.4692 23.0731C29.1534 23.2938 33.3023 24.7504 33.843 28.5021C37.5948 29.0428 39.0513 33.1917 39.272 33.8759Z" fill="#FDD7AD"/>
<path d="M32.4299 35.4428L27.0561 36.6014C26.6882 36.6865 26.3025 36.576 26.0355 36.309C25.7685 36.042 25.6579 35.6562 25.743 35.2883L26.9016 29.9146C29.0872 31.3792 30.9652 33.2572 32.4299 35.4428Z" fill="#35495E"/>
<path d="M58.8004 16.0155L46.3182 3.53331C45.8874 3.10245 45.1888 3.10245 44.7579 3.53331L43.1977 5.09359C42.7668 5.52445 42.7668 6.22301 43.1977 6.65386L55.6799 19.1361C56.1107 19.5669 56.8093 19.5669 57.2402 19.1361L58.8004 17.5758C59.2313 17.1449 59.2313 16.4464 58.8004 16.0155Z" fill="#35495E"/>
</g>
<defs>
<clipPath id="clip0">
<rect width="64" height="64" fill="white"/>
</clipPath>
</defs>
</svg>
