<svg width="17" height="17" viewBox="0 0 17 17" fill="none" xmlns="http://www.w3.org/2000/svg">
<g clip-path="url(#clip0)">
<path d="M16.6694 13.5177L14.7848 12.2612L13.1094 11.1445C12.7861 10.9294 12.3516 10.9999 12.1129 11.3063L11.0762 12.639C10.8535 12.9282 10.4529 13.0113 10.1336 12.8345C9.43013 12.4432 8.5983 12.0748 6.76292 10.2371C4.92754 8.39933 4.55676 7.56986 4.16547 6.86643C3.98866 6.54708 4.07177 6.14649 4.36096 5.92383L5.69369 4.88714C6.00005 4.64848 6.07061 4.21396 5.85549 3.8906L4.77308 2.26682L3.48225 0.330567C3.26255 0.00099677 2.82275 -0.0979474 2.48308 0.105751L0.994406 0.998839C0.592088 1.23587 0.296351 1.61863 0.168454 2.06777C-0.238644 3.55203 -0.320721 6.82625 4.92664 12.0736C10.174 17.321 13.4479 17.2386 14.9322 16.8315C15.3813 16.7036 15.7641 16.4079 16.0011 16.0055L16.8942 14.5169C17.0979 14.1772 16.999 13.7374 16.6694 13.5177Z" fill="#FFD73F"/>
<path d="M9.67199 2.63795C12.4226 2.64101 14.6516 4.87004 14.6547 7.62065C14.6547 7.78252 14.7859 7.91377 14.9478 7.91377C15.1097 7.91377 15.2409 7.78255 15.2409 7.62065C15.2375 4.54645 12.7462 2.05514 9.67202 2.05176C9.51016 2.05176 9.37891 2.18298 9.37891 2.34487C9.37887 2.5067 9.51009 2.63795 9.67199 2.63795Z" fill="#FFD73F"/>
<path d="M9.67202 4.39629C11.4518 4.39838 12.894 5.84064 12.8961 7.62037C12.8961 7.78223 13.0273 7.91349 13.1892 7.91349C13.3511 7.91349 13.4823 7.78227 13.4823 7.62037C13.4799 5.51701 11.7754 3.81248 9.67202 3.81006C9.51016 3.81006 9.37891 3.94128 9.37891 4.10317C9.37891 4.26507 9.51012 4.39629 9.67202 4.39629Z" fill="#FFD73F"/>
<path d="M9.67199 6.15504C10.481 6.15601 11.1365 6.81156 11.1375 7.62055C11.1375 7.78241 11.2687 7.91366 11.4306 7.91366C11.5925 7.91366 11.7237 7.78244 11.7237 7.62055C11.7224 6.48797 10.8046 5.57014 9.67202 5.56885C9.51016 5.56885 9.37891 5.70006 9.37891 5.86196C9.37887 6.02382 9.51009 6.15504 9.67199 6.15504Z" fill="#FFD73F"/>
</g>
<defs>
<clipPath id="clip0">
<rect width="17" height="17" fill="white"/>
</clipPath>
</defs>
</svg>
