<svg width="32" height="32" viewBox="0 0 32 32" fill="none" xmlns="http://www.w3.org/2000/svg">
<path d="M24.5 6.625V14.125C24.5 14.6499 24.0876 15.0625 23.5625 15.0625H8.39994L4.6875 13.8249V5.6875H23.5625C24.0876 5.6875 24.5 6.09994 24.5 6.625Z" fill="#E4E4E4"/>
<path d="M16 18.8125H8.4375C7.91931 18.8125 7.5 19.2318 7.5 19.75V27.25C7.5 27.7682 7.91931 28.1875 8.4375 28.1875H16H23.5625L27.3125 27.1683V18.8125H16Z" fill="#E4E4E4"/>
<path d="M19.75 24.4375C20.2678 24.4375 20.6875 24.0178 20.6875 23.5C20.6875 22.9822 20.2678 22.5625 19.75 22.5625C19.2322 22.5625 18.8125 22.9822 18.8125 23.5C18.8125 24.0178 19.2322 24.4375 19.75 24.4375Z" fill="#1D1D1D"/>
<path d="M16 24.4375C16.5178 24.4375 16.9375 24.0178 16.9375 23.5C16.9375 22.9822 16.5178 22.5625 16 22.5625C15.4822 22.5625 15.0625 22.9822 15.0625 23.5C15.0625 24.0178 15.4822 24.4375 16 24.4375Z" fill="#1D1D1D"/>
<path d="M12.25 24.4375C12.7678 24.4375 13.1875 24.0178 13.1875 23.5C13.1875 22.9822 12.7678 22.5625 12.25 22.5625C11.7322 22.5625 11.3125 22.9822 11.3125 23.5C11.3125 24.0178 11.7322 24.4375 12.25 24.4375Z" fill="#1D1D1D"/>
<path d="M12.25 11.3125C12.7678 11.3125 13.1875 10.8928 13.1875 10.375C13.1875 9.85723 12.7678 9.4375 12.25 9.4375C11.7322 9.4375 11.3125 9.85723 11.3125 10.375C11.3125 10.8928 11.7322 11.3125 12.25 11.3125Z" fill="#1D1D1D"/>
<path d="M16 11.3125C16.5178 11.3125 16.9375 10.8928 16.9375 10.375C16.9375 9.85723 16.5178 9.4375 16 9.4375C15.4822 9.4375 15.0625 9.85723 15.0625 10.375C15.0625 10.8928 15.4822 11.3125 16 11.3125Z" fill="#1D1D1D"/>
<path d="M19.75 11.3125C20.2678 11.3125 20.6875 10.8928 20.6875 10.375C20.6875 9.85723 20.2678 9.4375 19.75 9.4375C19.2322 9.4375 18.8125 9.85723 18.8125 10.375C18.8125 10.8928 19.2322 11.3125 19.75 11.3125Z" fill="#1D1D1D"/>
<path d="M27.3125 22.5625C28.8658 22.5625 30.125 21.3033 30.125 19.75C30.125 18.1967 28.8658 16.9375 27.3125 16.9375C25.7592 16.9375 24.5 18.1967 24.5 19.75C24.5 21.3033 25.7592 22.5625 27.3125 22.5625Z" fill="#FFE1BA"/>
<path d="M27.3125 22.5625C24.7279 22.5625 22.625 24.6654 22.625 27.25C22.625 27.7682 23.0443 28.1875 23.5625 28.1875H27.3125H31.0625C31.5807 28.1875 32 27.7682 32 27.25C32 24.6654 29.8971 22.5625 27.3125 22.5625Z" fill="#1A56B0"/>
<path d="M16.9375 23.5C16.9375 24.0249 16.5251 24.4375 16 24.4375V22.5625C16.5251 22.5625 16.9375 22.9749 16.9375 23.5Z" fill="#1D1D1D"/>
<path d="M4.6875 9.4375C6.2408 9.4375 7.5 8.1783 7.5 6.625C7.5 5.0717 6.2408 3.8125 4.6875 3.8125C3.1342 3.8125 1.875 5.0717 1.875 6.625C1.875 8.1783 3.1342 9.4375 4.6875 9.4375Z" fill="#FFE1BA"/>
<path d="M4.6875 9.4375C2.10294 9.4375 0 11.5404 0 14.125C0 14.6432 0.419312 15.0625 0.9375 15.0625H4.6875H8.4375C8.95569 15.0625 9.375 14.6432 9.375 14.125C9.375 11.5404 7.27206 9.4375 4.6875 9.4375Z" fill="#1D1D1D"/>
<path d="M16.9375 10.375C16.9375 10.8999 16.5251 11.3125 16 11.3125V9.4375C16.5251 9.4375 16.9375 9.84994 16.9375 10.375Z" fill="#1D1D1D"/>
</svg>
