<svg width="64" height="64" viewBox="0 0 64 64" fill="none" xmlns="http://www.w3.org/2000/svg">
<g clip-path="url(#clip0)">
<path d="M60.7998 42.6665H50.4658L59.4106 37.5015C60.1479 37.0796 60.687 36.3818 60.9087 35.5615C61.1309 34.7412 61.0171 33.8667 60.5928 33.1309L53.124 20.1982C52.6987 19.4629 51.998 18.9268 51.1772 18.7085C50.3564 18.4858 49.4805 18.603 48.7471 19.0332L39.8003 24.1997L44.9639 15.2573C45.3926 14.522 45.5103 13.646 45.2915 12.8232C45.0728 12.0005 44.5347 11.2988 43.7974 10.874L30.8667 3.40527C30.1309 2.98242 29.2573 2.86963 28.4385 3.09131C27.6196 3.31299 26.9224 3.85059 26.5 4.58643L21.3335 13.5361V3.2002C21.3315 1.43359 19.8999 0.00195312 18.1333 0H3.2002C1.43359 0.00195312 0.00195312 1.43359 0 3.2002V60.7998C0.00195312 62.5664 1.43359 63.998 3.2002 64H60.7998C62.5664 63.998 63.998 62.5664 64 60.7998V45.8667C63.998 44.1001 62.5664 42.6685 60.7998 42.6665ZM3.2002 42.6665C2.83594 42.6704 2.4751 42.7368 2.1333 42.8633V32H10.6729L4.51465 42.6665H3.2002ZM46.1992 42.6665H31.6128L26.7261 34.2129L37.8096 27.813L46.3389 42.5864L46.1992 42.6665ZM36.104 26.334L23.4761 33.6265L15.0171 28.7422L21.4146 17.6616L36.187 26.1904L36.104 26.334ZM19.2002 17.2305L12.6455 28.584C12.6421 28.5894 12.6367 28.5918 12.6333 28.5977L12.6274 28.6147L11.9048 29.8667H2.1333V17.0669H19.2002V17.2305ZM13.9507 30.5898L21.3428 34.8584L7.8208 42.6665H6.97803L13.9507 30.5898ZM23.9956 35.79L24.0093 35.7822L24.8789 35.2798L29.1489 42.6665H12.0874L23.9956 35.79ZM19.2002 44.7998H32V61.8667H19.2002V44.7998ZM34.1333 44.7998H46.9331V61.8667H34.1333V44.7998ZM49.8179 20.8784C50.061 20.7349 50.3525 20.6953 50.6255 20.7686C50.9009 20.8428 51.1357 21.0225 51.2793 21.269L58.7437 34.1948C58.8857 34.4404 58.9238 34.7324 58.8491 35.0063C58.7744 35.2798 58.5938 35.5127 58.3467 35.6519L48.186 41.5186L39.6572 26.7456L49.8179 20.8784ZM28.3496 5.6499C28.4893 5.40479 28.7212 5.2251 28.9941 5.15088C29.2666 5.07666 29.5576 5.11377 29.8027 5.25439L42.7266 12.7188C42.9751 12.8618 43.1567 13.0977 43.2314 13.3745C43.3047 13.6494 43.2642 13.9419 43.1187 14.1865L37.2544 24.3428L22.4814 15.814L28.3496 5.6499ZM3.2002 2.1333H18.1333C18.7222 2.13428 19.1992 2.61133 19.2002 3.2002V14.9331H2.1333V3.2002C2.13428 2.61133 2.61133 2.13428 3.2002 2.1333ZM2.1333 60.7998V45.8667C2.13428 45.2778 2.61133 44.8008 3.2002 44.7998H17.0669V61.8667H3.2002C2.61133 61.8657 2.13428 61.3887 2.1333 60.7998ZM61.8667 60.7998C61.8657 61.3887 61.3887 61.8657 60.7998 61.8667H49.0669V44.7998H60.7998C61.3887 44.8008 61.8657 45.2778 61.8667 45.8667V60.7998Z" fill="#FFD73F"/>
<path d="M10.666 49.0669C8.30957 49.0669 6.39941 50.9771 6.39941 53.3335C6.39941 55.6899 8.30957 57.6001 10.666 57.6001C13.0225 57.6001 14.9326 55.6899 14.9326 53.3335C14.9302 50.978 13.0215 49.0693 10.666 49.0669ZM10.666 55.4668C9.48779 55.4668 8.53271 54.5117 8.53271 53.3335C8.53271 52.1553 9.48779 51.2002 10.666 51.2002C11.8442 51.2002 12.7993 52.1553 12.7993 53.3335C12.7983 54.5112 11.8437 55.4653 10.666 55.4668Z" fill="#FFD73F"/>
</g>
<defs>
<clipPath id="clip0">
<rect width="64" height="64" fill="white"/>
</clipPath>
</defs>
</svg>
