<svg width="65" height="65" viewBox="0 0 65 65" fill="none" xmlns="http://www.w3.org/2000/svg">
<path d="M57.8906 8.125C56.4511 8.12698 55.0585 8.63769 53.959 9.56691C52.8595 10.4961 52.1239 11.784 51.8819 13.2031H18.2812V8.63281C18.2802 7.69037 17.9054 6.78683 17.239 6.12042C16.5725 5.45401 15.669 5.07917 14.7266 5.07812H13.7109C12.7685 5.07917 11.865 5.45401 11.1985 6.12042C10.5321 6.78683 10.1573 7.69037 10.1562 8.63281V13.2031H2.03125C1.76189 13.2031 1.50356 13.3101 1.31309 13.5006C1.12263 13.6911 1.01563 13.9494 1.01562 14.2188V59.9219C1.01563 60.1912 1.12263 60.4496 1.31309 60.64C1.50356 60.8305 1.76189 60.9375 2.03125 60.9375H57.8906C59.5063 60.9358 61.0552 60.2932 62.1977 59.1508C63.3401 58.0084 63.9827 56.4594 63.9844 54.8438V14.2188C63.9827 12.6031 63.3401 11.0541 62.1977 9.91171C61.0552 8.76928 59.5063 8.12671 57.8906 8.125ZM12.1875 8.63281C12.1878 8.22887 12.3484 7.84158 12.6341 7.55595C12.9197 7.27032 13.307 7.10971 13.7109 7.10938H14.7266C15.1305 7.10971 15.5178 7.27032 15.8034 7.55595C16.0891 7.84158 16.2497 8.22887 16.25 8.63281V11.1719H12.1875V8.63281ZM12.1875 13.2031H13.2031V28.4375C13.2031 28.7069 13.3101 28.9652 13.5006 29.1557C13.6911 29.3461 13.9494 29.4531 14.2188 29.4531C14.4881 29.4531 14.7464 29.3461 14.9369 29.1557C15.1274 28.9652 15.2344 28.7069 15.2344 28.4375V13.2031H16.25V34.5312H12.1875V13.2031ZM12.1875 36.5625H16.25V37.394L16.1814 37.5781H12.2561L12.1875 37.394V36.5625ZM15.4197 39.6094L14.2188 42.8111L13.0178 39.6094H15.4197ZM10.221 37.9349L13.2679 46.0599C13.3405 46.2534 13.4704 46.4202 13.6403 46.5379C13.8103 46.6556 14.012 46.7187 14.2188 46.7187C14.4255 46.7187 14.6272 46.6556 14.7972 46.5379C14.9671 46.4202 15.097 46.2534 15.1696 46.0599L18.2165 37.9349C18.2595 37.8208 18.2814 37.7 18.2812 37.5781V19.2969H22.3438V25.3906C22.3438 25.66 22.4508 25.9183 22.6412 26.1088C22.8317 26.2992 23.09 26.4062 23.3594 26.4062H33.5156V35.5469H24.375C24.1056 35.5469 23.8473 35.6539 23.6568 35.8443C23.4664 36.0348 23.3594 36.2931 23.3594 36.5625V53.8281H7.10938V19.2969H10.1562V37.5781C10.1561 37.7 10.178 37.8208 10.221 37.9349ZM35.5469 35.5469V25.3906C35.5469 25.1213 35.4399 24.8629 35.2494 24.6725C35.0589 24.482 34.8006 24.375 34.5312 24.375H24.375V19.2969H41.6406V35.5469H35.5469ZM41.6406 37.5781V53.8281H25.3906V37.5781H41.6406ZM57.8906 58.9062H3.04688V15.2344H10.1562V17.2656H6.09375C5.82439 17.2656 5.56606 17.3726 5.3756 17.5631C5.18513 17.7536 5.07812 18.0119 5.07812 18.2812V54.8438C5.07812 55.1131 5.18513 55.3714 5.3756 55.5619C5.56606 55.7524 5.82439 55.8594 6.09375 55.8594H42.6562C42.9256 55.8594 43.1839 55.7524 43.3744 55.5619C43.5649 55.3714 43.6719 55.1131 43.6719 54.8438V18.2812C43.6719 18.0119 43.5649 17.7536 43.3744 17.5631C43.1839 17.3726 42.9256 17.2656 42.6562 17.2656H18.2812V15.2344H51.7969V54.8438C51.7969 55.1131 51.9039 55.3714 52.0943 55.5619C52.2848 55.7524 52.5431 55.8594 52.8125 55.8594C53.0819 55.8594 53.3402 55.7524 53.5307 55.5619C53.7211 55.3714 53.8281 55.1131 53.8281 54.8438C53.8281 54.0403 54.0664 53.2548 54.5128 52.5867C54.9592 51.9187 55.5936 51.398 56.336 51.0905C57.0783 50.783 57.8951 50.7026 58.6832 50.8593C59.4712 51.0161 60.1951 51.403 60.7632 51.9711C61.3314 52.5393 61.7183 53.2631 61.8751 54.0512C62.0318 54.8392 61.9514 55.6561 61.6439 56.3984C61.3364 57.1407 60.8157 57.7752 60.1476 58.2216C59.4796 58.668 58.6941 58.9062 57.8906 58.9062ZM61.9531 50.3064C60.8372 49.3045 59.3905 48.7502 57.8909 48.75C56.3912 48.7498 54.9443 49.3036 53.8281 50.3052V14.2188C53.8281 13.1413 54.2561 12.108 55.018 11.3461C55.7799 10.5843 56.8132 10.1562 57.8906 10.1562C58.9681 10.1562 60.0014 10.5843 60.7632 11.3461C61.5251 12.108 61.9531 13.1413 61.9531 14.2188V50.3064Z" fill="#FFD73F"/>
<path d="M13.2031 32.5C13.2031 32.7694 13.3101 33.0277 13.5006 33.2182C13.6911 33.4086 13.9494 33.5156 14.2188 33.5156C14.4881 33.5156 14.7464 33.4086 14.9369 33.2182C15.1274 33.0277 15.2344 32.7694 15.2344 32.5V31.4844C15.2344 31.215 15.1274 30.9567 14.9369 30.7662C14.7464 30.5758 14.4881 30.4688 14.2188 30.4688C13.9494 30.4688 13.6911 30.5758 13.5006 30.7662C13.3101 30.9567 13.2031 31.215 13.2031 31.4844V32.5Z" fill="#FFD73F"/>
</svg>
