<svg width="65" height="65" viewBox="0 0 65 65" fill="none" xmlns="http://www.w3.org/2000/svg">
<g clip-path="url(#clip0)">
<path d="M62.0133 32.5023L64.8649 25.0644C65.1777 24.2438 64.934 23.3135 64.2475 22.757L58.0648 17.7442L56.8136 9.8757C56.6755 9.00639 55.9931 8.328 55.1237 8.18988L47.2552 6.93872L42.2465 0.751949C41.694 0.0654337 40.7435 -0.1783 39.9432 0.134492L32.5012 2.99023L25.0633 0.138554C24.2387 -0.1783 23.3165 0.0735582 22.76 0.756012L17.7472 6.94278L9.87871 8.19394C9.01346 8.33206 8.331 9.01451 8.19289 9.87977L6.94172 17.7483L0.754959 22.7611C0.0725054 23.3135 -0.17529 24.2438 0.137501 25.0644L2.98918 32.5023L0.137501 39.9402C-0.179352 40.7608 0.0725054 41.691 0.754959 42.2435L6.94172 47.2522L8.19289 55.1208C8.331 55.9901 9.00939 56.6725 9.87871 56.8106L17.7472 58.0618L22.76 64.2445C23.3165 64.9351 24.2468 65.1788 25.0674 64.862L32.5012 62.0143L39.9392 64.866C40.1748 64.9554 40.4185 65.0001 40.6663 65.0001C41.2634 65.0001 41.8525 64.736 42.2465 64.2445L47.2552 58.0618L55.1237 56.8106C55.9931 56.6725 56.6755 55.9901 56.8136 55.1208L58.0648 47.2522L64.2475 42.2435C64.934 41.687 65.1777 40.7608 64.8649 39.9402L62.0133 32.5023Z" fill="#F44336"/>
<path d="M26.4078 28.4418C23.0483 28.4418 20.3145 25.7079 20.3145 22.3485C20.3145 18.989 23.0483 16.2551 26.4078 16.2551C29.7672 16.2551 32.5011 18.989 32.5011 22.3485C32.5011 25.7079 29.7672 28.4418 26.4078 28.4418ZM26.4078 20.3173C25.2866 20.3173 24.3767 21.2273 24.3767 22.3485C24.3767 23.4696 25.2866 24.3796 26.4078 24.3796C27.529 24.3796 28.4389 23.4696 28.4389 22.3485C28.4389 21.2273 27.529 20.3173 26.4078 20.3173Z" fill="#FAFAFA"/>
<path d="M38.5953 48.7511C35.2358 48.7511 32.502 46.0172 32.502 42.6578C32.502 39.2983 35.2358 36.5645 38.5953 36.5645C41.9547 36.5645 44.6886 39.2983 44.6886 42.6578C44.6886 46.0172 41.9547 48.7511 38.5953 48.7511ZM38.5953 40.6267C37.4782 40.6267 36.5642 41.5407 36.5642 42.6578C36.5642 43.7749 37.4782 44.6889 38.5953 44.6889C39.7124 44.6889 40.6264 43.7749 40.6264 42.6578C40.6264 41.5407 39.7124 40.6267 38.5953 40.6267Z" fill="#FAFAFA"/>
<path d="M22.3477 48.751C21.9374 48.751 21.5271 48.6291 21.1696 48.3732C20.2556 47.7192 20.0444 46.4518 20.6984 45.5378L41.0095 17.1022C41.6635 16.1882 42.9309 15.977 43.8449 16.631C44.7589 17.281 44.9661 18.5524 44.3162 19.4624L24.005 47.8979C23.6029 48.4545 22.9814 48.751 22.3477 48.751Z" fill="#FAFAFA"/>
</g>
<defs>
<clipPath id="clip0">
<rect width="65" height="65" fill="white"/>
</clipPath>
</defs>
</svg>
