<svg width="208" height="76" viewBox="0 0 208 76" fill="none" xmlns="http://www.w3.org/2000/svg">
<g clip-path="url(#clip0)">
<g clip-path="url(#clip1)">
<path d="M13.2579 67.0621V74.5884H14.502V68.2448H17.5311V67.0621H13.2579Z" fill="white"/>
<path d="M26.5704 73.5992C27.3385 72.8359 27.7171 71.9112 27.7171 70.8253C27.7171 69.7393 27.3385 68.8147 26.5704 68.062C25.8131 67.2987 24.8827 66.9224 23.7901 66.9224C22.6974 66.9224 21.767 67.2987 20.9989 68.062C20.2416 68.8147 19.863 69.7393 19.863 70.8253C19.863 71.9112 20.2416 72.8359 20.9989 73.5992C21.767 74.3519 22.6974 74.7282 23.7901 74.7282C24.8827 74.7282 25.8131 74.3519 26.5704 73.5992ZM21.8752 72.7606C21.3667 72.2445 21.1071 71.5994 21.1071 70.8253C21.1071 70.0511 21.3667 69.406 21.8752 68.9007C22.3945 68.3846 23.0328 68.1266 23.7901 68.1266C24.5474 68.1266 25.1856 68.3846 25.6941 68.9007C26.2134 69.406 26.473 70.0511 26.473 70.8253C26.473 71.5994 26.2134 72.2445 25.6941 72.7606C25.1856 73.2659 24.5474 73.524 23.7901 73.524C23.0328 73.524 22.3945 73.2659 21.8752 72.7606Z" fill="white"/>
<path d="M34.7047 74.7282C35.3971 74.7282 36.0354 74.5669 36.6088 74.2444C37.193 73.911 37.6473 73.4702 37.9611 72.9219L36.8792 72.309C36.4898 73.0509 35.6567 73.524 34.7047 73.524C33.8933 73.524 33.2442 73.2659 32.7358 72.7606C32.2381 72.2553 31.9893 71.6102 31.9893 70.8253C31.9893 70.0404 32.2381 69.3953 32.7358 68.8899C33.2442 68.3846 33.8933 68.1266 34.7047 68.1266C35.6567 68.1266 36.4789 68.5996 36.8792 69.3415L37.9611 68.7179C37.312 67.6105 36.0787 66.9224 34.7047 66.9224C33.5688 66.9224 32.6168 67.2987 31.8703 68.0513C31.1238 68.7932 30.7452 69.7178 30.7452 70.8253C30.7452 71.9327 31.1238 72.8574 31.8703 73.61C32.6168 74.3519 33.5688 74.7282 34.7047 74.7282Z" fill="white"/>
<path d="M40.6187 67.0621V68.2448H42.7607V74.5884H44.0048V68.2448H46.136V67.0621H40.6187Z" fill="white"/>
<path d="M55.1157 74.5884V67.0621H54.1421L50.572 72.1692V67.0621H49.3279V74.5884H50.3015L53.8716 69.4813V74.5884H55.1157Z" fill="white"/>
<path d="M63.3897 70.1479H60.1442V67.0621H58.9001V74.5884H60.1442V71.3306H63.3897V74.5884H64.6338V67.0621H63.3897V70.1479Z" fill="white"/>
<path d="M74.2072 74.5884V67.0621H73.2336L69.6635 72.1692V67.0621H68.4194V74.5884H69.393L72.9631 69.4813V74.5884H74.2072Z" fill="white"/>
<path d="M82.0484 70.5027C81.5508 70.75 80.9991 70.8683 80.404 70.8683C79.5818 70.8683 79.0734 70.3952 79.0734 69.6211V67.0621H77.8293V69.7501C77.8293 70.449 78.0673 71.0081 78.5325 71.4274C79.0085 71.8467 79.6251 72.051 80.3824 72.051C80.9666 72.051 81.5183 71.9327 82.0484 71.6962V74.5884H83.2926V67.0621H82.0484V70.5027Z" fill="white"/>
<path d="M91.5674 70.1479H88.3218V67.0621H87.0777V74.5884H88.3218V71.3306H91.5674V74.5884H92.8115V67.0621H91.5674V70.1479Z" fill="white"/>
<path d="M99.3882 74.5884C100.102 74.5884 100.697 74.3519 101.173 73.8788C101.66 73.395 101.898 72.8144 101.898 72.1155C101.898 71.4166 101.66 70.836 101.173 70.3629C100.697 69.8791 100.102 69.6426 99.3882 69.6426H97.8412V67.0621H96.5971V74.5884H99.3882ZM103.878 74.5884V67.0621H102.634V74.5884H103.878ZM97.8412 70.8038H99.3882C100.124 70.8038 100.654 71.3521 100.654 72.1155C100.654 72.8789 100.124 73.4272 99.3882 73.4272H97.8412V70.8038Z" fill="white"/>
<path d="M112.083 66.3095V65.2988H109.054V66.3095H112.083ZM113.457 74.5884V67.0621H112.484L108.914 72.1692V67.0621H107.669V74.5884H108.643L112.213 69.4813V74.5884H113.457Z" fill="white"/>
<path d="M124.76 70.7285L127.822 67.0621H126.34L123.462 70.4382V67.0621H122.218V74.5884H123.462V71.0081L126.448 74.5884H127.93L124.76 70.7285Z" fill="white"/>
<path d="M136.693 73.5992C137.461 72.8359 137.839 71.9112 137.839 70.8253C137.839 69.7393 137.461 68.8147 136.693 68.062C135.935 67.2987 135.005 66.9224 133.912 66.9224C132.82 66.9224 131.889 67.2987 131.121 68.062C130.364 68.8147 129.985 69.7393 129.985 70.8253C129.985 71.9112 130.364 72.8359 131.121 73.5992C131.889 74.3519 132.82 74.7282 133.912 74.7282C135.005 74.7282 135.935 74.3519 136.693 73.5992ZM131.998 72.7606C131.489 72.2445 131.229 71.5994 131.229 70.8253C131.229 70.0511 131.489 69.406 131.998 68.9007C132.517 68.3846 133.155 68.1266 133.912 68.1266C134.67 68.1266 135.308 68.3846 135.816 68.9007C136.336 69.406 136.595 70.0511 136.595 70.8253C136.595 71.5994 136.336 72.2445 135.816 72.7606C135.308 73.2659 134.67 73.524 133.912 73.524C133.155 73.524 132.517 73.2659 131.998 72.7606Z" fill="white"/>
<path d="M147.164 67.0621L144.87 70.8253L142.588 67.0621H141.246V74.5884H142.49V69.2125L144.795 73.0079H144.946L147.25 69.2232V74.5884H148.494V67.0621H147.164Z" fill="white"/>
<path d="M152.276 67.0621V74.5884H153.52V68.2448H156.604V74.5884H157.848V67.0621H152.276Z" fill="white"/>
<path d="M161.02 74.5884C161.767 74.6637 162.351 74.5239 162.87 74.0831C163.39 73.6207 163.682 72.7176 163.682 71.3951V68.2448H166.267V74.5884H167.512V67.0621H162.438V71.4166C162.438 73.0832 161.973 73.5777 161.02 73.4487V74.5884Z" fill="white"/>
<path d="M172.538 71.3736H175.567V70.2017H172.538V68.2448H175.838V67.0621H171.294V74.5884H175.892V73.4057H172.538V71.3736Z" fill="white"/>
<path d="M181.845 70.7285L184.906 67.0621H183.424L180.546 70.4382V67.0621H179.302V74.5884H180.546V71.0081L183.532 74.5884H185.014L181.845 70.7285Z" fill="white"/>
<path d="M191.029 74.7282C191.722 74.7282 192.36 74.5669 192.933 74.2444C193.517 73.911 193.972 73.4702 194.286 72.9219L193.204 72.309C192.814 73.0509 191.981 73.524 191.029 73.524C190.218 73.524 189.569 73.2659 189.06 72.7606C188.563 72.2553 188.314 71.6102 188.314 70.8253C188.314 70.0404 188.563 69.3953 189.06 68.8899C189.569 68.3846 190.218 68.1266 191.029 68.1266C191.981 68.1266 192.803 68.5996 193.204 69.3415L194.286 68.7179C193.636 67.6105 192.403 66.9224 191.029 66.9224C189.893 66.9224 188.941 67.2987 188.195 68.0513C187.448 68.7932 187.07 69.7178 187.07 70.8253C187.07 71.9327 187.448 72.8574 188.195 73.61C188.941 74.3519 189.893 74.7282 191.029 74.7282Z" fill="white"/>
<path d="M12.8436 57.8678C10.5357 57.8678 8.40084 57.3861 6.43911 56.4227C4.47737 55.4594 2.90798 54.1175 1.73094 52.3972C0.576981 50.654 0 48.6585 0 46.4106C0 44.2775 0.58852 42.3048 1.76556 40.4928C2.9426 38.6808 4.58123 37.2357 6.68144 36.1577C8.80473 35.0796 11.1819 34.5406 13.8129 34.5406C14.8976 34.5406 15.9247 34.6323 16.894 34.8158C17.8864 34.9993 18.948 35.2746 20.0789 35.6416C20.5867 35.8021 20.8752 36.1462 20.9444 36.6738C21.129 38.1417 21.2214 39.495 21.2214 40.7336C21.2444 40.9171 21.1867 41.0662 21.0483 41.1809C20.9329 41.2727 20.7944 41.3185 20.6328 41.3185C20.4713 41.3185 20.3213 41.2727 20.1828 41.1809C20.0674 41.0892 19.9866 40.9516 19.9405 40.7681C19.7097 39.9653 19.4673 39.323 19.2135 38.8413C18.9827 38.3367 18.648 37.9009 18.2095 37.5339C17.0556 36.5705 15.44 36.0889 13.3629 36.0889C11.7473 36.0889 10.3049 36.5247 9.03552 37.3963C7.78924 38.2679 6.81991 39.4262 6.12754 40.8713C5.43516 42.3163 5.08897 43.8646 5.08897 45.5161C5.08897 47.5116 5.41208 49.3351 6.0583 50.9866C6.7276 52.6151 7.69692 53.9111 8.96628 54.8745C10.2356 55.8378 11.7358 56.3195 13.4667 56.3195C15.1284 56.3195 16.5017 55.964 17.5864 55.2529C18.6711 54.5419 19.5827 53.4409 20.3213 51.95C20.4136 51.7894 20.5174 51.6632 20.6328 51.5715C20.7713 51.4797 20.9098 51.4339 21.0483 51.4339C21.1867 51.4339 21.3021 51.4797 21.3945 51.5715C21.5098 51.6632 21.5675 51.8009 21.5675 51.9844C21.5675 52.3743 21.4868 52.9248 21.3252 53.6358C21.1867 54.3469 21.0021 55.0465 20.7713 55.7346C20.6559 56.0098 20.529 56.2163 20.3905 56.3539C20.252 56.4686 20.0443 56.5833 19.7674 56.698C18.9134 57.065 17.8864 57.3517 16.6863 57.5581C15.4862 57.7645 14.2053 57.8678 12.8436 57.8678Z" fill="white"/>
<path d="M29.2178 57.5581C28.987 57.5581 28.7908 57.5122 28.6292 57.4205C28.4677 57.3287 28.3869 57.2141 28.3869 57.0764C28.3869 56.7782 28.6869 56.5603 29.287 56.4227C30.1409 56.1933 30.741 55.9296 31.0872 55.6314C31.4334 55.3103 31.6065 54.7827 31.6065 54.0487V38.4629C31.6065 37.7059 31.4449 37.1669 31.1218 36.8458C30.8218 36.5017 30.2448 36.238 29.3909 36.0545C28.7908 35.9398 28.4908 35.7104 28.4908 35.3663C28.4908 35.2058 28.56 35.0911 28.6985 35.0223C28.86 34.9305 29.0678 34.8847 29.3216 34.8847C30.014 34.8847 30.9603 34.9076 32.1604 34.9535C33.3605 34.9993 34.249 35.0223 34.826 35.0223C36.6724 35.0223 38.8649 34.9993 41.4036 34.9535C42.1191 34.9305 42.7307 34.8961 43.2384 34.8502C43.7692 34.8044 44.0808 34.7814 44.1731 34.7814C44.6578 34.7814 44.9232 34.9535 44.9693 35.2975L45.2117 36.8458C45.4194 38.0385 45.5232 38.9101 45.5232 39.4606C45.5232 39.6441 45.4771 39.7932 45.3848 39.9079C45.2925 40.0226 45.1771 40.0799 45.0386 40.0799C44.8078 40.0799 44.6232 39.9194 44.4847 39.5983C44.3 39.1166 44.1154 38.6693 43.9308 38.2564C43.7692 37.8206 43.5961 37.511 43.4115 37.3275C42.7653 36.6394 41.946 36.2953 40.9536 36.2953H37.734C37.2955 36.2953 36.9032 36.4214 36.557 36.6738C36.2339 36.9261 36.0723 37.2587 36.0723 37.6715V44.4151C36.0723 44.9426 36.3377 45.2064 36.8685 45.2064H40.0189C40.5958 45.2064 41.0113 45.0573 41.2651 44.7591C41.5421 44.4609 41.796 43.9678 42.0267 43.2797C42.1652 42.8209 42.3845 42.5916 42.6845 42.5916C42.7999 42.5916 42.9038 42.6604 42.9961 42.798C43.0884 42.9127 43.1345 43.0732 43.1345 43.2797C43.0422 44.1972 42.9961 45.0803 42.9961 45.9289C42.9961 47.0987 43.0307 48.0277 43.0999 48.7158V48.8878C43.0999 49.3007 42.9845 49.5071 42.7537 49.5071C42.5922 49.5071 42.4306 49.4269 42.2691 49.2663C42.1306 49.0828 42.0267 48.842 41.9575 48.5438C41.7729 47.8786 41.5536 47.3969 41.2997 47.0987C41.0459 46.7776 40.6997 46.617 40.2612 46.617H37.0416C36.6954 46.617 36.4416 46.6859 36.28 46.8235C36.1415 46.9382 36.0723 47.1446 36.0723 47.4428V53.9799C36.0723 54.7139 36.2223 55.23 36.5223 55.5282C36.8455 55.8263 37.3532 55.9754 38.0456 55.9754H40.8843C42.1306 55.9754 43.0653 55.7461 43.6884 55.2873C44.3116 54.8056 44.9693 53.9111 45.6617 52.6037C45.8233 52.3055 46.031 52.1564 46.2849 52.1564C46.5157 52.1793 46.6311 52.3743 46.6311 52.7413C46.6311 53.4753 46.2733 54.9089 45.5579 57.042C45.4194 57.3631 45.1886 57.5237 44.8655 57.5237L40.7112 57.4549C37.7571 57.409 35.4376 57.3861 33.7528 57.3861C33.3143 57.3861 32.5873 57.409 31.5719 57.4549C30.8102 57.5237 30.0255 57.5581 29.2178 57.5581Z" fill="white"/>
<path d="M53.0109 57.5237C52.4339 57.5237 52.1455 57.3746 52.1455 57.0764C52.1455 56.9159 52.2147 56.8012 52.3532 56.7324C52.5147 56.6406 52.7801 56.5489 53.1494 56.4571C53.7264 56.2736 54.1995 55.9525 54.5688 55.4938C54.9611 55.035 55.2035 54.4501 55.2958 53.7391C55.8958 49.5415 56.3574 44.7821 56.6805 39.4606V38.2908C56.6574 37.9468 56.5882 37.6601 56.4728 37.4307C56.3805 37.2013 56.2074 37.0063 55.9535 36.8458C55.4458 36.5017 54.7188 36.215 53.7725 35.9856C53.2186 35.871 52.9417 35.6301 52.9417 35.2631C52.9417 34.942 53.2763 34.7814 53.9456 34.7814C54.5919 34.7814 55.4342 34.8158 56.4728 34.8847C58.1345 34.9764 59.3346 35.0223 60.0732 35.0223C60.2347 35.0223 60.3847 35.0796 60.5232 35.1943C60.6848 35.309 60.7886 35.4466 60.8348 35.6072C61.0656 36.2494 61.1925 36.6394 61.2156 36.777L61.7003 38.1876L66.8931 50.7802C66.9854 50.9407 67.0893 51.021 67.2047 51.021C67.3201 51.021 67.3893 50.9637 67.4124 50.849L72.986 38.5317C73.263 37.2013 73.4937 36.215 73.6784 35.5728C73.7476 35.2746 73.8976 35.1255 74.1284 35.1255H75.5478C76.5171 35.0796 77.4172 35.0108 78.2481 34.9191C79.4943 34.8273 80.2675 34.7814 80.5675 34.7814C81.0984 34.7814 81.3638 34.9305 81.3638 35.2287C81.3638 35.4122 81.2945 35.5498 81.1561 35.6416C81.0407 35.7333 80.8329 35.8365 80.5329 35.9512C79.9559 36.1577 79.5174 36.3297 79.2174 36.4673C78.6866 36.6967 78.3058 36.9719 78.075 37.2931C77.8673 37.6142 77.7749 38.0615 77.798 38.6349C77.8673 41.0662 77.948 43.2797 78.0404 45.2752C78.1557 47.2708 78.2827 49.2434 78.4212 51.193L78.6289 54.0487C78.652 54.668 78.8712 55.1612 79.2866 55.5282C79.7251 55.8952 80.3483 56.1704 81.1561 56.3539C81.4792 56.4227 81.71 56.5145 81.8484 56.6292C82.01 56.7209 82.0908 56.8585 82.0908 57.042C82.0908 57.1796 82.01 57.2943 81.8484 57.3861C81.6869 57.4549 81.4907 57.4893 81.2599 57.4893C80.6599 57.4893 79.8059 57.4664 78.6981 57.4205C77.5903 57.3746 76.8172 57.3517 76.3786 57.3517C75.9632 57.3517 75.2708 57.3746 74.3015 57.4205C73.5399 57.4893 72.7321 57.5237 71.8782 57.5237C71.6243 57.5237 71.4166 57.4778 71.2551 57.3861C71.0935 57.3173 71.0127 57.2141 71.0127 57.0764C71.0127 56.7094 71.3243 56.4686 71.9474 56.3539C72.7552 56.2163 73.2976 55.9869 73.5745 55.6658C73.8746 55.3447 74.013 54.8056 73.99 54.0487C73.8976 50.287 73.7592 46.1239 73.5745 41.5594C73.5745 41.3988 73.5284 41.3185 73.4361 41.3185C73.3668 41.3185 73.2745 41.4103 73.1591 41.5938L66.0968 57.4205C66.0045 57.6269 65.8661 57.7301 65.6814 57.7301C65.5891 57.7301 65.4968 57.6957 65.4045 57.6269C65.3122 57.581 65.2545 57.5122 65.2314 57.4205C64.4698 55.5167 63.1196 52.3399 61.181 47.8901C59.5654 44.1742 58.6538 42.0755 58.4461 41.5938C58.3768 41.4562 58.2961 41.3874 58.2038 41.3874C58.0653 41.3874 57.973 41.5135 57.9268 41.7658C57.5806 45 57.4075 49.0255 57.4075 53.8423C57.4075 54.4845 57.6152 55.0235 58.0307 55.4594C58.4461 55.8952 59.0577 56.1933 59.8655 56.3539C60.1886 56.4227 60.4309 56.5145 60.5925 56.6292C60.7771 56.7209 60.8694 56.8585 60.8694 57.042C60.8694 57.1796 60.7771 57.2943 60.5925 57.3861C60.4309 57.4549 60.2232 57.4893 59.9693 57.4893C59.2769 57.4893 58.6076 57.4664 57.9614 57.4205C57.4075 57.3746 56.9344 57.3517 56.542 57.3517C56.4036 57.3517 55.6766 57.3861 54.3611 57.4549C53.6687 57.5008 53.2186 57.5237 53.0109 57.5237Z" fill="white"/>
<path d="M88.0144 57.5581C87.3681 57.5581 87.045 57.3861 87.045 57.042C87.045 56.8585 87.1143 56.7094 87.2528 56.5947C87.4143 56.4801 87.6566 56.3654 87.9798 56.2507C89.4107 55.8837 90.3915 55.0809 90.9223 53.8423C92.9995 49.0943 95.0535 43.9334 97.0845 38.3596C97.2922 37.7403 97.4538 37.2128 97.5692 36.777C97.7076 36.3182 97.8 36.0086 97.8461 35.848C98.677 35.6416 99.3347 35.4351 99.8194 35.2287C100.189 35.0452 100.489 34.8158 100.719 34.5406C100.973 34.2424 101.123 34.0704 101.17 34.0245C101.354 33.8869 101.493 33.9098 101.585 34.0933C101.631 34.1851 101.735 34.4718 101.897 34.9535C102.75 37.6601 103.731 40.7222 104.839 44.1398C105.97 47.5345 106.755 49.8856 107.193 51.193L107.989 53.5326C108.289 54.4042 108.682 55.0465 109.166 55.4594C109.651 55.8493 110.286 56.136 111.071 56.3195C111.694 56.4571 112.005 56.7094 112.005 57.0764C112.005 57.3517 111.74 57.4893 111.209 57.4893L108.82 57.4205C107.782 57.3517 106.801 57.3173 105.878 57.3173C105.37 57.3173 104.539 57.3402 103.385 57.3861C102.323 57.432 101.596 57.4549 101.204 57.4549C100.95 57.4549 100.743 57.4205 100.581 57.3517C100.419 57.2599 100.339 57.1338 100.339 56.9732C100.339 56.6062 100.65 56.3654 101.273 56.2507C102.058 56.1131 102.624 55.9296 102.97 55.7002C103.339 55.4479 103.524 55.1153 103.524 54.7024C103.524 54.5419 103.512 54.4272 103.489 54.3584C103.304 53.3491 102.9 51.7894 102.277 49.6792C102.231 49.4727 102.15 49.3351 102.035 49.2663C101.943 49.1975 101.781 49.1631 101.55 49.1631H95.3189C95.042 49.1631 94.8458 49.3695 94.7304 49.7824C94.038 51.8238 93.6111 53.223 93.4495 53.9799C93.4264 54.0946 93.4149 54.2551 93.4149 54.4616C93.4149 54.9433 93.5765 55.3217 93.8996 55.597C94.2458 55.8722 94.7881 56.1016 95.5266 56.2851C96.1498 56.4227 96.4614 56.6636 96.4614 57.0076C96.4614 57.1452 96.3806 57.2599 96.219 57.3517C96.0806 57.4205 95.8844 57.4549 95.6305 57.4549L93.9688 57.4205C93.1841 57.3746 92.5379 57.3517 92.0302 57.3517C91.707 57.3517 91.3262 57.3631 90.8877 57.3861C90.4723 57.432 90.1607 57.4549 89.953 57.4549C89.3068 57.5237 88.6606 57.5581 88.0144 57.5581ZM101.066 47.5804C101.25 47.5804 101.377 47.5689 101.446 47.546C101.516 47.5231 101.55 47.4657 101.55 47.374C101.55 47.351 101.527 47.2249 101.481 46.9955L99.0578 39.0478C98.9424 38.7266 98.8616 38.5661 98.8155 38.5661C98.7924 38.5661 98.7116 38.7152 98.5731 39.0134L95.6651 46.9955C95.619 47.0873 95.5959 47.179 95.5959 47.2708C95.5959 47.4772 95.8151 47.5804 96.2537 47.5804H101.066Z" fill="white"/>
<path d="M117.064 57.5237C116.856 57.5237 116.672 57.4778 116.51 57.3861C116.348 57.3173 116.268 57.2141 116.268 57.0764C116.268 56.7324 116.556 56.4915 117.133 56.3539C118.01 56.1704 118.622 55.9181 118.968 55.597C119.314 55.2759 119.487 54.7368 119.487 53.9799V38.394C119.487 37.6371 119.337 37.1096 119.037 36.8114C118.737 36.4903 118.172 36.238 117.341 36.0545C116.741 35.9398 116.441 35.6989 116.441 35.3319C116.441 35.1943 116.522 35.0911 116.683 35.0223C116.845 34.9305 117.029 34.8847 117.237 34.8847C117.745 34.8847 118.529 34.9076 119.591 34.9535C120.56 34.9993 121.299 35.0223 121.807 35.0223C122.245 35.0223 122.926 34.9993 123.849 34.9535C124.865 34.9076 125.672 34.8847 126.273 34.8847C126.503 34.8847 126.688 34.9305 126.826 35.0223C126.965 35.0911 127.034 35.2058 127.034 35.3663C127.034 35.5498 126.953 35.6989 126.792 35.8136C126.653 35.9054 126.434 35.9856 126.134 36.0545C125.326 36.238 124.772 36.4903 124.472 36.8114C124.172 37.1096 124.022 37.6027 124.022 38.2908V54.496C124.022 54.84 124.115 55.1268 124.299 55.3561C124.507 55.5855 124.784 55.7002 125.13 55.7002H130.219C130.75 55.7002 131.096 55.5855 131.258 55.3561C131.442 55.1268 131.535 54.8056 131.535 54.3928V38.3252C131.535 37.5912 131.396 37.0752 131.119 36.777C130.842 36.4788 130.288 36.238 129.457 36.0545C129.157 35.9856 128.938 35.9054 128.8 35.8136C128.661 35.6989 128.592 35.5498 128.592 35.3663C128.592 35.0452 128.834 34.8847 129.319 34.8847C129.896 34.8847 130.715 34.9076 131.777 34.9535C132.746 34.9993 133.462 35.0223 133.923 35.0223C134.385 35.0223 135.054 34.9993 135.931 34.9535C136.854 34.9076 137.604 34.8847 138.181 34.8847C138.389 34.8847 138.562 34.9305 138.701 35.0223C138.862 35.0911 138.943 35.1943 138.943 35.3319C138.943 35.7219 138.655 35.9627 138.078 36.0545C137.293 36.238 136.751 36.4788 136.45 36.777C136.174 37.0752 136.035 37.5683 136.035 38.2564V54.5992C136.035 55.3332 136.439 55.7002 137.247 55.7002H142.336C142.705 55.7002 142.993 55.574 143.201 55.3217C143.432 55.0465 143.547 54.7368 143.547 54.3928V38.2908C143.547 37.6257 143.409 37.144 143.132 36.8458C142.855 36.5247 142.301 36.2609 141.47 36.0545C141.17 35.9856 140.951 35.9054 140.812 35.8136C140.674 35.6989 140.605 35.5498 140.605 35.3663C140.605 35.0452 140.847 34.8847 141.332 34.8847C141.909 34.8847 142.728 34.9076 143.79 34.9535C144.759 34.9993 145.474 35.0223 145.936 35.0223C146.375 35.0223 147.078 34.9993 148.048 34.9535C149.063 34.9076 149.836 34.8847 150.367 34.8847C150.575 34.8847 150.76 34.9305 150.921 35.0223C151.083 35.0911 151.163 35.1943 151.163 35.3319C151.163 35.7219 150.875 35.9627 150.298 36.0545C149.467 36.238 148.879 36.4903 148.532 36.8114C148.209 37.1325 148.048 37.6486 148.048 38.3596V53.9455C148.048 54.7024 148.221 55.2529 148.567 55.597C148.936 55.9181 149.548 56.1704 150.402 56.3539C151.002 56.4915 151.302 56.7324 151.302 57.0764C151.302 57.2141 151.221 57.3173 151.06 57.3861C150.898 57.4778 150.713 57.5237 150.506 57.5237C149.652 57.5237 148.844 57.4893 148.082 57.4205C147.113 57.3746 146.398 57.3517 145.936 57.3517L133.819 57.3173C131.881 57.3173 129.919 57.3173 127.934 57.3173C125.949 57.3173 123.907 57.3287 121.807 57.3517C121.299 57.3517 120.537 57.3746 119.522 57.4205C118.737 57.4893 117.918 57.5237 117.064 57.5237Z" fill="white"/>
<path d="M176.19 58.0054C174.898 58.0054 173.859 57.7645 173.075 57.2829C172.29 56.8012 171.586 55.964 170.963 54.7712L167.812 48.6126C167.189 47.3969 166.543 46.6973 165.874 46.5138C165.597 46.445 165.204 46.4106 164.697 46.4106C164.512 46.4106 164.42 46.5941 164.42 46.9611L164.489 53.8423C164.512 54.5763 164.662 55.1268 164.939 55.4938C165.239 55.8608 165.805 56.1475 166.635 56.3539C166.959 56.4227 167.201 56.5145 167.362 56.6292C167.547 56.7209 167.639 56.8585 167.639 57.042C167.639 57.1796 167.535 57.2943 167.328 57.3861C167.143 57.4778 166.912 57.5237 166.635 57.5237C165.828 57.5237 164.962 57.4778 164.039 57.3861C163.485 57.3173 162.931 57.2829 162.377 57.2829C161.939 57.2829 161.304 57.3287 160.473 57.4205C159.273 57.5352 158.373 57.5925 157.773 57.5925C157.519 57.5925 157.288 57.5352 157.081 57.4205C156.873 57.3287 156.769 57.2141 156.769 57.0764C156.769 56.7324 157.104 56.4915 157.773 56.3539C158.627 56.1933 159.204 55.9525 159.504 55.6314C159.804 55.3103 159.954 54.7598 159.954 53.9799V38.4285C159.954 37.6715 159.792 37.1325 159.469 36.8114C159.169 36.4903 158.569 36.238 157.669 36.0545C157.069 35.9398 156.769 35.6989 156.769 35.3319C156.769 35.1943 156.85 35.0911 157.011 35.0223C157.173 34.9305 157.358 34.8847 157.565 34.8847C158.188 34.8847 159.031 34.9076 160.092 34.9535C161.062 34.9993 161.777 35.0223 162.239 35.0223C162.631 35.0223 163.289 34.9993 164.212 34.9535C165.228 34.9076 166.035 34.8847 166.635 34.8847C166.866 34.8847 167.051 34.9305 167.189 35.0223C167.328 35.0911 167.397 35.2058 167.397 35.3663C167.397 35.5498 167.328 35.6989 167.189 35.8136C167.051 35.9054 166.832 35.9856 166.532 36.0545C165.655 36.2609 165.078 36.5361 164.801 36.8802C164.547 37.2013 164.42 37.7289 164.42 38.4629V44.4839C164.42 44.8738 164.524 45.0688 164.731 45.0688H165.666C166.543 45.0688 167.328 44.7591 168.02 44.1398C168.713 43.4976 169.278 42.6374 169.716 41.5594L170.963 38.4629C171.471 37.1784 172.059 36.2035 172.728 35.5384C173.421 34.8732 174.402 34.5406 175.671 34.5406C176.502 34.5406 177.113 34.747 177.506 35.1599C177.898 35.5498 178.094 36.0659 178.094 36.7082C178.094 37.2587 177.933 37.7403 177.61 38.1532C177.31 38.5431 176.929 38.7381 176.467 38.7381C176.167 38.7381 175.74 38.6234 175.186 38.394C174.725 38.1876 174.367 38.0844 174.113 38.0844C173.675 38.0844 173.282 38.222 172.936 38.4973C172.59 38.7496 172.29 39.1969 172.036 39.8391L170.997 42.4539C170.651 43.3256 170.132 44.0481 169.44 44.6215C169.347 44.7133 169.301 44.805 169.301 44.8968C169.301 44.9885 169.359 45.0917 169.474 45.2064C170.051 45.367 170.524 45.6307 170.894 45.9977C171.263 46.3647 171.713 47.007 172.244 47.9245L175.048 52.9477C175.579 53.9111 176.063 54.6221 176.502 55.0809C176.963 55.5167 177.413 55.8034 177.852 55.941C178.313 56.0557 178.925 56.1131 179.687 56.1131C179.825 56.1131 179.941 56.1704 180.033 56.2851C180.148 56.3998 180.206 56.5145 180.206 56.6292C180.206 56.7438 180.148 56.8585 180.033 56.9732C179.941 57.065 179.883 57.1223 179.86 57.1452C179.56 57.3517 179.052 57.5466 178.337 57.7301C177.644 57.9136 176.929 58.0054 176.19 58.0054Z" fill="white"/>
<path d="M195.694 57.8678C193.594 57.8678 191.632 57.3975 189.809 56.4571C188.009 55.4938 186.566 54.1519 185.482 52.4316C184.397 50.7113 183.854 48.7502 183.854 46.5482C183.854 44.438 184.328 42.4654 185.274 40.6304C186.22 38.7955 187.605 37.3275 189.428 36.2265C191.274 35.1026 193.467 34.5406 196.006 34.5406C198.106 34.5406 200.056 35.0223 201.856 35.9856C203.68 36.9261 205.134 38.2564 206.218 39.9767C207.303 41.697 207.845 43.6581 207.845 45.8601C207.845 47.9703 207.372 49.9429 206.426 51.7779C205.48 53.6129 204.083 55.0924 202.237 56.2163C200.414 57.3173 198.233 57.8678 195.694 57.8678ZM196.283 56.3539C198.429 56.3539 200.068 55.574 201.199 54.0143C202.329 52.4316 202.895 50.2985 202.895 47.6148C202.895 45.5734 202.606 43.6811 202.029 41.9379C201.475 40.1717 200.633 38.761 199.502 37.7059C198.371 36.6279 196.998 36.0889 195.383 36.0889C193.259 36.0889 191.632 36.8802 190.501 38.4629C189.37 40.0226 188.805 42.1328 188.805 44.7935C188.805 46.835 189.082 48.7387 189.636 50.5049C190.19 52.2481 191.021 53.6588 192.128 54.7368C193.259 55.8149 194.644 56.3539 196.283 56.3539Z" fill="white"/>
</g>
<path d="M68.1158 8.07309C68.3576 7.4841 69.1535 7.4841 69.3953 8.07309L71.3337 12.796C71.4345 13.0417 71.6552 13.2099 71.9091 13.2346L76.7891 13.7095C77.3977 13.7687 77.6436 14.563 77.1845 14.9862L73.5025 18.38C73.311 18.5566 73.2267 18.8288 73.2827 19.0898L74.3603 24.1062C74.4946 24.7318 73.8507 25.2226 73.3252 24.8952L69.1112 22.2698C68.8919 22.1332 68.6191 22.1332 68.3999 22.2698L64.1859 24.8952C63.6604 25.2226 63.0165 24.7318 63.1508 24.1062L64.2284 19.0898C64.2844 18.8288 64.2001 18.5566 64.0086 18.38L60.3266 14.9862C59.8675 14.563 60.1134 13.7687 60.722 13.7095L65.602 13.2346C65.8558 13.2099 66.0766 13.0417 66.1774 12.796L68.1158 8.07309Z" fill="white"/>
<path d="M137.449 8.07309C137.691 7.4841 138.487 7.4841 138.729 8.07309L140.667 12.796C140.768 13.0417 140.989 13.2099 141.242 13.2346L146.122 13.7095C146.731 13.7687 146.977 14.563 146.518 14.9862L142.836 18.38C142.644 18.5566 142.56 18.8288 142.616 19.0898L143.694 24.1062C143.828 24.7318 143.184 25.2226 142.659 24.8952L138.444 22.2698C138.225 22.1332 137.952 22.1332 137.733 22.2698L133.519 24.8952C132.994 25.2226 132.35 24.7318 132.484 24.1062L133.562 19.0898C133.618 18.8288 133.533 18.5566 133.342 18.38L129.66 14.9862C129.201 14.563 129.447 13.7687 130.055 13.7095L134.935 13.2346C135.189 13.2099 135.41 13.0417 135.511 12.796L137.449 8.07309Z" fill="white"/>
<path d="M102.725 0.534112C103.018 -0.178038 103.982 -0.178037 104.275 0.534112L106.624 6.24454C106.746 6.54159 107.013 6.74501 107.321 6.77488L113.233 7.34907C113.97 7.42067 114.268 8.38098 113.712 8.89272L109.251 12.9961C109.019 13.2096 108.917 13.5387 108.985 13.8542L110.29 19.9195C110.453 20.676 109.673 21.2695 109.036 20.8736L103.931 17.6992C103.665 17.5341 103.335 17.5341 103.069 17.6992L97.9637 20.8736C97.327 21.2695 96.5469 20.676 96.7097 19.9195L98.0152 13.8542C98.0831 13.5387 97.9809 13.2096 97.7489 12.9961L93.2881 8.89272C92.7317 8.38098 93.0297 7.42067 93.767 7.34907L99.6794 6.77488C99.9869 6.74501 100.254 6.54159 100.376 6.24454L102.725 0.534112Z" fill="white"/>
</g>
<defs>
<clipPath id="clip0">
<rect width="208" height="76" fill="white"/>
</clipPath>
<clipPath id="clip1">
<rect width="209.156" height="41.6842" fill="white" transform="translate(0 34)"/>
</clipPath>
</defs>
</svg>
