<svg width="20" height="22" viewBox="0 0 20 22" fill="none" xmlns="http://www.w3.org/2000/svg">
<mask id="path-1-outside-1" maskUnits="userSpaceOnUse" x="3" y="0" width="14" height="22" fill="black">
<rect fill="white" x="3" width="14" height="22"/>
<path fill-rule="evenodd" clip-rule="evenodd" d="M5.75781 1.01953C5.75781 1.03027 5.71387 1.03906 5.66016 1.03906C5.60645 1.03906 5.5625 1.04785 5.5625 1.05859C5.5625 1.06934 5.52734 1.07812 5.48438 1.07812C5.44141 1.07812 5.40625 1.08691 5.40625 1.09766C5.40625 1.1084 5.37988 1.11719 5.34766 1.11719C5.31543 1.11719 5.28906 1.12598 5.28906 1.13672C5.28906 1.14746 5.27148 1.15625 5.25 1.15625C5.22852 1.15625 5.21094 1.16504 5.21094 1.17578C5.21094 1.18652 5.19336 1.19531 5.17188 1.19531C5.15039 1.19531 5.13281 1.2041 5.13281 1.21484C5.13281 1.22559 5.11523 1.23438 5.09375 1.23438C5.07227 1.23438 5.05469 1.24316 5.05469 1.25391C5.05469 1.26465 5.03711 1.27344 5.01562 1.27344C4.99414 1.27344 4.97656 1.28223 4.97656 1.29297C4.97656 1.30371 4.9627 1.3125 4.94574 1.3125C4.92877 1.3125 4.88113 1.34766 4.83984 1.39062C4.79855 1.43359 4.75512 1.46875 4.7433 1.46875C4.71529 1.46875 4.50781 1.67623 4.50781 1.70424C4.50781 1.71605 4.47266 1.75949 4.42969 1.80078C4.38672 1.84207 4.35156 1.88971 4.35156 1.90668C4.35156 1.92363 4.34277 1.9375 4.33203 1.9375C4.32129 1.9375 4.3125 1.95314 4.3125 1.97225C4.3125 1.99137 4.29492 2.01967 4.27344 2.03516C4.25195 2.05064 4.23438 2.07895 4.23438 2.09807C4.23438 2.11717 4.22559 2.13281 4.21484 2.13281C4.2041 2.13281 4.19531 2.15039 4.19531 2.17188C4.19531 2.19336 4.18652 2.21094 4.17578 2.21094C4.16504 2.21094 4.15625 2.2373 4.15625 2.26953C4.15625 2.30176 4.14746 2.32812 4.13672 2.32812C4.12598 2.32812 4.11719 2.35449 4.11719 2.38672C4.11719 2.41895 4.1084 2.44531 4.09766 2.44531C4.08691 2.44531 4.07812 2.48047 4.07812 2.52344C4.07812 2.56641 4.06934 2.60156 4.05859 2.60156C4.04721 2.60156 4.03906 2.66666 4.03906 2.75781C4.03906 2.84896 4.03092 2.91406 4.01953 2.91406C4.00654 2.91406 4 5.6224 4 11C4 16.3776 4.00654 19.0859 4.01953 19.0859C4.03092 19.0859 4.03906 19.151 4.03906 19.2422C4.03906 19.3333 4.04721 19.3984 4.05859 19.3984C4.06934 19.3984 4.07812 19.4336 4.07812 19.4766C4.07812 19.5195 4.08691 19.5547 4.09766 19.5547C4.1084 19.5547 4.11719 19.5811 4.11719 19.6133C4.11719 19.6455 4.12598 19.6719 4.13672 19.6719C4.14746 19.6719 4.15625 19.6982 4.15625 19.7305C4.15625 19.7627 4.16504 19.7891 4.17578 19.7891C4.18652 19.7891 4.19531 19.8066 4.19531 19.8281C4.19531 19.8496 4.2041 19.8672 4.21484 19.8672C4.22559 19.8672 4.23438 19.8828 4.23438 19.9019C4.23438 19.9211 4.25195 19.9494 4.27344 19.9648C4.29492 19.9803 4.3125 20.0086 4.3125 20.0278C4.3125 20.0469 4.32129 20.0625 4.33203 20.0625C4.34277 20.0625 4.35156 20.0764 4.35156 20.0933C4.35156 20.1103 4.38672 20.1579 4.42969 20.1992C4.47266 20.2405 4.50781 20.2839 4.50781 20.2958C4.50781 20.3238 4.71529 20.5312 4.7433 20.5312C4.75512 20.5312 4.79855 20.5664 4.83984 20.6094C4.88113 20.6523 4.92877 20.6875 4.94574 20.6875C4.9627 20.6875 4.97656 20.6963 4.97656 20.707C4.97656 20.7178 4.99414 20.7266 5.01562 20.7266C5.03711 20.7266 5.05469 20.7354 5.05469 20.7461C5.05469 20.7568 5.07227 20.7656 5.09375 20.7656C5.11523 20.7656 5.13281 20.7744 5.13281 20.7852C5.13281 20.7959 5.15039 20.8047 5.17188 20.8047C5.19336 20.8047 5.21094 20.8135 5.21094 20.8242C5.21094 20.835 5.22852 20.8438 5.25 20.8438C5.27148 20.8438 5.28906 20.8525 5.28906 20.8633C5.28906 20.874 5.31543 20.8828 5.34766 20.8828C5.37988 20.8828 5.40625 20.8916 5.40625 20.9023C5.40625 20.9131 5.44141 20.9219 5.48438 20.9219C5.52734 20.9219 5.5625 20.9307 5.5625 20.9414C5.5625 20.9521 5.60645 20.9609 5.66016 20.9609C5.71387 20.9609 5.75781 20.9697 5.75781 20.9805C5.75781 20.9934 7.1901 21 10.0156 21C12.8412 21 14.2734 20.9934 14.2734 20.9805C14.2734 20.9696 14.3255 20.9609 14.3906 20.9609C14.4557 20.9609 14.5078 20.9523 14.5078 20.9414C14.5078 20.9307 14.5342 20.9219 14.5664 20.9219C14.5986 20.9219 14.625 20.9131 14.625 20.9023C14.625 20.8916 14.6514 20.8828 14.6836 20.8828C14.7158 20.8828 14.7422 20.874 14.7422 20.8633C14.7422 20.8525 14.7598 20.8438 14.7812 20.8438C14.8027 20.8438 14.8203 20.835 14.8203 20.8242C14.8203 20.8135 14.8379 20.8047 14.8594 20.8047C14.8809 20.8047 14.8984 20.7959 14.8984 20.7852C14.8984 20.7744 14.916 20.7656 14.9375 20.7656C14.959 20.7656 14.9766 20.7568 14.9766 20.7461C14.9766 20.7354 14.9941 20.7266 15.0156 20.7266C15.0371 20.7266 15.0547 20.7178 15.0547 20.707C15.0547 20.6963 15.0686 20.6875 15.0855 20.6875C15.1025 20.6875 15.1501 20.6523 15.1914 20.6094C15.2327 20.5664 15.2761 20.5312 15.2879 20.5312C15.316 20.5312 15.5234 20.3238 15.5234 20.2958C15.5234 20.2839 15.5586 20.2405 15.6016 20.1992C15.6445 20.1579 15.6797 20.1103 15.6797 20.0933C15.6797 20.0764 15.6885 20.0625 15.6992 20.0625C15.71 20.0625 15.7188 20.0469 15.7188 20.0278C15.7188 20.0086 15.7363 19.9803 15.7578 19.9648C15.7793 19.9494 15.7969 19.9211 15.7969 19.9019C15.7969 19.8828 15.8057 19.8672 15.8164 19.8672C15.8271 19.8672 15.8359 19.8496 15.8359 19.8281C15.8359 19.8066 15.8447 19.7891 15.8555 19.7891C15.8662 19.7891 15.875 19.7627 15.875 19.7305C15.875 19.6982 15.8838 19.6719 15.8945 19.6719C15.9053 19.6719 15.9141 19.6455 15.9141 19.6133C15.9141 19.5811 15.9229 19.5547 15.9336 19.5547C15.9443 19.5547 15.9531 19.5195 15.9531 19.4766C15.9531 19.4336 15.9619 19.3984 15.9727 19.3984C15.984 19.3984 15.9922 19.3333 15.9922 19.2422C15.9922 19.151 16.0003 19.0859 16.0117 19.0859C16.0247 19.0859 16.0312 16.3776 16.0312 11C16.0312 5.6224 16.0247 2.91406 16.0117 2.91406C16.0003 2.91406 15.9922 2.84896 15.9922 2.75781C15.9922 2.66666 15.984 2.60156 15.9727 2.60156C15.9619 2.60156 15.9531 2.56641 15.9531 2.52344C15.9531 2.48047 15.9443 2.44531 15.9336 2.44531C15.9229 2.44531 15.9141 2.41895 15.9141 2.38672C15.9141 2.35449 15.9053 2.32812 15.8945 2.32812C15.8838 2.32812 15.875 2.30176 15.875 2.26953C15.875 2.2373 15.8662 2.21094 15.8555 2.21094C15.8447 2.21094 15.8359 2.19336 15.8359 2.17188C15.8359 2.15039 15.8271 2.13281 15.8164 2.13281C15.8057 2.13281 15.7969 2.11717 15.7969 2.09807C15.7969 2.07895 15.7793 2.05064 15.7578 2.03516C15.7363 2.01967 15.7188 1.99137 15.7188 1.97225C15.7188 1.95314 15.71 1.9375 15.6992 1.9375C15.6885 1.9375 15.6797 1.92363 15.6797 1.90668C15.6797 1.88971 15.6445 1.84207 15.6016 1.80078C15.5586 1.75949 15.5234 1.71605 15.5234 1.70424C15.5234 1.67623 15.316 1.46875 15.2879 1.46875C15.2761 1.46875 15.2327 1.43359 15.1914 1.39062C15.1501 1.34766 15.1025 1.3125 15.0855 1.3125C15.0686 1.3125 15.0547 1.30371 15.0547 1.29297C15.0547 1.28223 15.0371 1.27344 15.0156 1.27344C14.9941 1.27344 14.9766 1.26465 14.9766 1.25391C14.9766 1.24316 14.959 1.23438 14.9375 1.23438C14.916 1.23438 14.8984 1.22559 14.8984 1.21484C14.8984 1.2041 14.8809 1.19531 14.8594 1.19531C14.8379 1.19531 14.8203 1.18652 14.8203 1.17578C14.8203 1.16504 14.8027 1.15625 14.7812 1.15625C14.7598 1.15625 14.7422 1.14746 14.7422 1.13672C14.7422 1.12598 14.7158 1.11719 14.6836 1.11719C14.6514 1.11719 14.625 1.1084 14.625 1.09766C14.625 1.08691 14.5986 1.07812 14.5664 1.07812C14.5342 1.07812 14.5078 1.06934 14.5078 1.05859C14.5078 1.04773 14.4557 1.03906 14.3906 1.03906C14.3255 1.03906 14.2734 1.03039 14.2734 1.01953C14.2734 1.00656 12.8412 1 10.0156 1C7.1901 1 5.75781 1.00656 5.75781 1.01953ZM14.0391 1.80078C14.0391 1.81193 14.0977 1.82031 14.1758 1.82031C14.2539 1.82031 14.3125 1.82869 14.3125 1.83984C14.3125 1.85059 14.3389 1.85938 14.3711 1.85938C14.4033 1.85938 14.4297 1.86816 14.4297 1.87891C14.4297 1.88965 14.4473 1.89844 14.4688 1.89844C14.4902 1.89844 14.5078 1.90723 14.5078 1.91797C14.5078 1.92871 14.5254 1.9375 14.5469 1.9375C14.5684 1.9375 14.5859 1.94629 14.5859 1.95703C14.5859 1.96777 14.6035 1.97656 14.625 1.97656C14.6465 1.97656 14.6641 1.98535 14.6641 1.99609C14.6641 2.00684 14.6774 2.01562 14.6937 2.01562C14.7298 2.01562 14.9766 2.25861 14.9766 2.29416C14.9766 2.30809 14.9941 2.33217 15.0156 2.34766C15.0371 2.36314 15.0547 2.39145 15.0547 2.41057C15.0547 2.42967 15.0635 2.44531 15.0742 2.44531C15.085 2.44531 15.0938 2.46289 15.0938 2.48438C15.0938 2.50586 15.1025 2.52344 15.1133 2.52344C15.124 2.52344 15.1328 2.5498 15.1328 2.58203C15.1328 2.61426 15.1416 2.64062 15.1523 2.64062C15.1631 2.64062 15.1719 2.66699 15.1719 2.69922C15.1719 2.73145 15.1807 2.75781 15.1914 2.75781C15.2041 2.75781 15.2109 3.01172 15.2109 3.48047V4.20312H10.0156H4.82031V3.48047C4.82031 3.01172 4.82717 2.75781 4.83984 2.75781C4.85059 2.75781 4.85938 2.73145 4.85938 2.69922C4.85938 2.66699 4.86816 2.64062 4.87891 2.64062C4.88965 2.64062 4.89844 2.61426 4.89844 2.58203C4.89844 2.5498 4.90723 2.52344 4.91797 2.52344C4.92871 2.52344 4.9375 2.50586 4.9375 2.48438C4.9375 2.46289 4.94629 2.44531 4.95703 2.44531C4.96777 2.44531 4.97656 2.42967 4.97656 2.41057C4.97656 2.39145 4.99414 2.36314 5.01562 2.34766C5.03711 2.33217 5.05469 2.30807 5.05469 2.2941C5.05469 2.261 5.261 2.05469 5.2941 2.05469C5.30807 2.05469 5.33217 2.03711 5.34766 2.01562C5.36314 1.99414 5.39145 1.97656 5.41057 1.97656C5.42967 1.97656 5.44531 1.96777 5.44531 1.95703C5.44531 1.94629 5.46289 1.9375 5.48438 1.9375C5.50586 1.9375 5.52344 1.92871 5.52344 1.91797C5.52344 1.90723 5.54102 1.89844 5.5625 1.89844C5.58398 1.89844 5.60156 1.88965 5.60156 1.87891C5.60156 1.86816 5.62793 1.85938 5.66016 1.85938C5.69238 1.85938 5.71875 1.85059 5.71875 1.83984C5.71875 1.82869 5.77734 1.82031 5.85547 1.82031C5.93359 1.82031 5.99219 1.81193 5.99219 1.80078C5.99219 1.78783 7.34635 1.78125 10.0156 1.78125C12.6849 1.78125 14.0391 1.78783 14.0391 1.80078ZM9.11719 2.62109C9.11719 2.63184 9.09492 2.64062 9.06772 2.64062C9.0127 2.64062 8.88281 2.75678 8.88281 2.806C8.88281 2.82246 8.87402 2.83594 8.86328 2.83594C8.85254 2.83594 8.84375 2.8623 8.84375 2.89453C8.84375 2.92676 8.83496 2.95312 8.82422 2.95312C8.81348 2.95312 8.80469 2.9707 8.80469 2.99219C8.80469 3.01367 8.81348 3.03125 8.82422 3.03125C8.83496 3.03125 8.84375 3.06447 8.84375 3.10506C8.84375 3.15646 8.85561 3.18742 8.88281 3.20703C8.9043 3.22252 8.92188 3.25082 8.92188 3.26994C8.92188 3.29023 8.93633 3.30469 8.95662 3.30469C8.97574 3.30469 9.00404 3.32227 9.01953 3.34375C9.04703 3.38191 9.0701 3.38281 10.0156 3.38281C10.9612 3.38281 10.9842 3.38191 11.0117 3.34375C11.0272 3.32227 11.0555 3.30469 11.0746 3.30469C11.0949 3.30469 11.1094 3.29023 11.1094 3.26994C11.1094 3.25082 11.127 3.22252 11.1484 3.20703C11.1756 3.18742 11.1875 3.15646 11.1875 3.10506C11.1875 3.06447 11.1963 3.03125 11.207 3.03125C11.2178 3.03125 11.2266 3.01367 11.2266 2.99219C11.2266 2.9707 11.2178 2.95312 11.207 2.95312C11.1963 2.95312 11.1875 2.92676 11.1875 2.89453C11.1875 2.8623 11.1787 2.83594 11.168 2.83594C11.1572 2.83594 11.1484 2.82246 11.1484 2.806C11.1484 2.75678 11.0186 2.64062 10.9635 2.64062C10.9363 2.64062 10.9141 2.63184 10.9141 2.62109C10.9141 2.60836 10.6016 2.60156 10.0156 2.60156C9.42969 2.60156 9.11719 2.60836 9.11719 2.62109ZM15.2109 11V17.0156H10.0156H4.82031V11V4.98438H10.0156H15.2109V11ZM15.2109 18.5195C15.2109 18.9883 15.2041 19.2422 15.1914 19.2422C15.1807 19.2422 15.1719 19.2686 15.1719 19.3008C15.1719 19.333 15.1631 19.3594 15.1523 19.3594C15.1416 19.3594 15.1328 19.3857 15.1328 19.418C15.1328 19.4502 15.124 19.4766 15.1133 19.4766C15.1025 19.4766 15.0938 19.4941 15.0938 19.5156C15.0938 19.5371 15.085 19.5547 15.0742 19.5547C15.0635 19.5547 15.0547 19.5703 15.0547 19.5894C15.0547 19.6086 15.0371 19.6369 15.0156 19.6523C14.9941 19.6678 14.9766 19.6919 14.9766 19.7058C14.9766 19.7414 14.7298 19.9844 14.6937 19.9844C14.6774 19.9844 14.6641 19.9932 14.6641 20.0039C14.6641 20.0146 14.6465 20.0234 14.625 20.0234C14.6035 20.0234 14.5859 20.0322 14.5859 20.043C14.5859 20.0537 14.5684 20.0625 14.5469 20.0625C14.5254 20.0625 14.5078 20.0713 14.5078 20.082C14.5078 20.0928 14.4902 20.1016 14.4688 20.1016C14.4473 20.1016 14.4297 20.1104 14.4297 20.1211C14.4297 20.1318 14.4033 20.1406 14.3711 20.1406C14.3389 20.1406 14.3125 20.1494 14.3125 20.1602C14.3125 20.1713 14.2539 20.1797 14.1758 20.1797C14.0977 20.1797 14.0391 20.1881 14.0391 20.1992C14.0391 20.2122 12.6849 20.2188 10.0156 20.2188C7.34635 20.2188 5.99219 20.2122 5.99219 20.1992C5.99219 20.1881 5.93359 20.1797 5.85547 20.1797C5.77734 20.1797 5.71875 20.1713 5.71875 20.1602C5.71875 20.1494 5.69238 20.1406 5.66016 20.1406C5.62793 20.1406 5.60156 20.1318 5.60156 20.1211C5.60156 20.1104 5.58398 20.1016 5.5625 20.1016C5.54102 20.1016 5.52344 20.0928 5.52344 20.082C5.52344 20.0713 5.50586 20.0625 5.48438 20.0625C5.46289 20.0625 5.44531 20.0537 5.44531 20.043C5.44531 20.0322 5.42773 20.0234 5.40625 20.0234C5.38477 20.0234 5.36719 20.0146 5.36719 20.0039C5.36719 19.9932 5.35385 19.9844 5.33752 19.9844C5.30145 19.9844 5.05469 19.7414 5.05469 19.7058C5.05469 19.6919 5.03711 19.6678 5.01562 19.6523C4.99414 19.6369 4.97656 19.6086 4.97656 19.5894C4.97656 19.5703 4.96777 19.5547 4.95703 19.5547C4.94629 19.5547 4.9375 19.5371 4.9375 19.5156C4.9375 19.4941 4.92871 19.4766 4.91797 19.4766C4.90723 19.4766 4.89844 19.4502 4.89844 19.418C4.89844 19.3857 4.88965 19.3594 4.87891 19.3594C4.86816 19.3594 4.85938 19.333 4.85938 19.3008C4.85938 19.2686 4.85059 19.2422 4.83984 19.2422C4.82717 19.2422 4.82031 18.9883 4.82031 18.5195V17.7969H10.0156H15.2109V18.5195ZM9.85938 18.6367C9.85938 18.6475 9.8459 18.6562 9.82943 18.6562C9.79055 18.6562 9.66406 18.7827 9.66406 18.8216C9.66406 18.8381 9.65527 18.8516 9.64453 18.8516C9.63338 18.8516 9.625 18.9102 9.625 18.9883C9.625 19.0664 9.63338 19.125 9.64453 19.125C9.65527 19.125 9.66406 19.1426 9.66406 19.1641C9.66406 19.1855 9.67285 19.2031 9.68359 19.2031C9.69434 19.2031 9.70312 19.2169 9.70312 19.2338C9.70312 19.2733 9.75016 19.3203 9.78963 19.3203C9.8065 19.3203 9.82031 19.3291 9.82031 19.3398C9.82031 19.3506 9.83789 19.3594 9.85938 19.3594C9.88086 19.3594 9.89844 19.3682 9.89844 19.3789C9.89844 19.3898 9.95053 19.3984 10.0156 19.3984C10.0807 19.3984 10.1328 19.3898 10.1328 19.3789C10.1328 19.3682 10.1504 19.3594 10.1719 19.3594C10.1934 19.3594 10.2109 19.3506 10.2109 19.3398C10.2109 19.3291 10.2247 19.3203 10.2416 19.3203C10.2811 19.3203 10.3281 19.2733 10.3281 19.2338C10.3281 19.2169 10.3369 19.2031 10.3477 19.2031C10.3584 19.2031 10.3672 19.1855 10.3672 19.1641C10.3672 19.1426 10.376 19.125 10.3867 19.125C10.3979 19.125 10.4062 19.0664 10.4062 18.9883C10.4062 18.9102 10.3979 18.8516 10.3867 18.8516C10.376 18.8516 10.3672 18.8381 10.3672 18.8216C10.3672 18.7827 10.2407 18.6562 10.2018 18.6562C10.1854 18.6562 10.1719 18.6475 10.1719 18.6367C10.1719 18.6253 10.1068 18.6172 10.0156 18.6172C9.92447 18.6172 9.85938 18.6253 9.85938 18.6367Z"/>
</mask>
<path fill-rule="evenodd" clip-rule="evenodd" d="M5.75781 1.01953C5.75781 1.03027 5.71387 1.03906 5.66016 1.03906C5.60645 1.03906 5.5625 1.04785 5.5625 1.05859C5.5625 1.06934 5.52734 1.07812 5.48438 1.07812C5.44141 1.07812 5.40625 1.08691 5.40625 1.09766C5.40625 1.1084 5.37988 1.11719 5.34766 1.11719C5.31543 1.11719 5.28906 1.12598 5.28906 1.13672C5.28906 1.14746 5.27148 1.15625 5.25 1.15625C5.22852 1.15625 5.21094 1.16504 5.21094 1.17578C5.21094 1.18652 5.19336 1.19531 5.17188 1.19531C5.15039 1.19531 5.13281 1.2041 5.13281 1.21484C5.13281 1.22559 5.11523 1.23438 5.09375 1.23438C5.07227 1.23438 5.05469 1.24316 5.05469 1.25391C5.05469 1.26465 5.03711 1.27344 5.01562 1.27344C4.99414 1.27344 4.97656 1.28223 4.97656 1.29297C4.97656 1.30371 4.9627 1.3125 4.94574 1.3125C4.92877 1.3125 4.88113 1.34766 4.83984 1.39062C4.79855 1.43359 4.75512 1.46875 4.7433 1.46875C4.71529 1.46875 4.50781 1.67623 4.50781 1.70424C4.50781 1.71605 4.47266 1.75949 4.42969 1.80078C4.38672 1.84207 4.35156 1.88971 4.35156 1.90668C4.35156 1.92363 4.34277 1.9375 4.33203 1.9375C4.32129 1.9375 4.3125 1.95314 4.3125 1.97225C4.3125 1.99137 4.29492 2.01967 4.27344 2.03516C4.25195 2.05064 4.23438 2.07895 4.23438 2.09807C4.23438 2.11717 4.22559 2.13281 4.21484 2.13281C4.2041 2.13281 4.19531 2.15039 4.19531 2.17188C4.19531 2.19336 4.18652 2.21094 4.17578 2.21094C4.16504 2.21094 4.15625 2.2373 4.15625 2.26953C4.15625 2.30176 4.14746 2.32812 4.13672 2.32812C4.12598 2.32812 4.11719 2.35449 4.11719 2.38672C4.11719 2.41895 4.1084 2.44531 4.09766 2.44531C4.08691 2.44531 4.07812 2.48047 4.07812 2.52344C4.07812 2.56641 4.06934 2.60156 4.05859 2.60156C4.04721 2.60156 4.03906 2.66666 4.03906 2.75781C4.03906 2.84896 4.03092 2.91406 4.01953 2.91406C4.00654 2.91406 4 5.6224 4 11C4 16.3776 4.00654 19.0859 4.01953 19.0859C4.03092 19.0859 4.03906 19.151 4.03906 19.2422C4.03906 19.3333 4.04721 19.3984 4.05859 19.3984C4.06934 19.3984 4.07812 19.4336 4.07812 19.4766C4.07812 19.5195 4.08691 19.5547 4.09766 19.5547C4.1084 19.5547 4.11719 19.5811 4.11719 19.6133C4.11719 19.6455 4.12598 19.6719 4.13672 19.6719C4.14746 19.6719 4.15625 19.6982 4.15625 19.7305C4.15625 19.7627 4.16504 19.7891 4.17578 19.7891C4.18652 19.7891 4.19531 19.8066 4.19531 19.8281C4.19531 19.8496 4.2041 19.8672 4.21484 19.8672C4.22559 19.8672 4.23438 19.8828 4.23438 19.9019C4.23438 19.9211 4.25195 19.9494 4.27344 19.9648C4.29492 19.9803 4.3125 20.0086 4.3125 20.0278C4.3125 20.0469 4.32129 20.0625 4.33203 20.0625C4.34277 20.0625 4.35156 20.0764 4.35156 20.0933C4.35156 20.1103 4.38672 20.1579 4.42969 20.1992C4.47266 20.2405 4.50781 20.2839 4.50781 20.2958C4.50781 20.3238 4.71529 20.5312 4.7433 20.5312C4.75512 20.5312 4.79855 20.5664 4.83984 20.6094C4.88113 20.6523 4.92877 20.6875 4.94574 20.6875C4.9627 20.6875 4.97656 20.6963 4.97656 20.707C4.97656 20.7178 4.99414 20.7266 5.01562 20.7266C5.03711 20.7266 5.05469 20.7354 5.05469 20.7461C5.05469 20.7568 5.07227 20.7656 5.09375 20.7656C5.11523 20.7656 5.13281 20.7744 5.13281 20.7852C5.13281 20.7959 5.15039 20.8047 5.17188 20.8047C5.19336 20.8047 5.21094 20.8135 5.21094 20.8242C5.21094 20.835 5.22852 20.8438 5.25 20.8438C5.27148 20.8438 5.28906 20.8525 5.28906 20.8633C5.28906 20.874 5.31543 20.8828 5.34766 20.8828C5.37988 20.8828 5.40625 20.8916 5.40625 20.9023C5.40625 20.9131 5.44141 20.9219 5.48438 20.9219C5.52734 20.9219 5.5625 20.9307 5.5625 20.9414C5.5625 20.9521 5.60645 20.9609 5.66016 20.9609C5.71387 20.9609 5.75781 20.9697 5.75781 20.9805C5.75781 20.9934 7.1901 21 10.0156 21C12.8412 21 14.2734 20.9934 14.2734 20.9805C14.2734 20.9696 14.3255 20.9609 14.3906 20.9609C14.4557 20.9609 14.5078 20.9523 14.5078 20.9414C14.5078 20.9307 14.5342 20.9219 14.5664 20.9219C14.5986 20.9219 14.625 20.9131 14.625 20.9023C14.625 20.8916 14.6514 20.8828 14.6836 20.8828C14.7158 20.8828 14.7422 20.874 14.7422 20.8633C14.7422 20.8525 14.7598 20.8438 14.7812 20.8438C14.8027 20.8438 14.8203 20.835 14.8203 20.8242C14.8203 20.8135 14.8379 20.8047 14.8594 20.8047C14.8809 20.8047 14.8984 20.7959 14.8984 20.7852C14.8984 20.7744 14.916 20.7656 14.9375 20.7656C14.959 20.7656 14.9766 20.7568 14.9766 20.7461C14.9766 20.7354 14.9941 20.7266 15.0156 20.7266C15.0371 20.7266 15.0547 20.7178 15.0547 20.707C15.0547 20.6963 15.0686 20.6875 15.0855 20.6875C15.1025 20.6875 15.1501 20.6523 15.1914 20.6094C15.2327 20.5664 15.2761 20.5312 15.2879 20.5312C15.316 20.5312 15.5234 20.3238 15.5234 20.2958C15.5234 20.2839 15.5586 20.2405 15.6016 20.1992C15.6445 20.1579 15.6797 20.1103 15.6797 20.0933C15.6797 20.0764 15.6885 20.0625 15.6992 20.0625C15.71 20.0625 15.7188 20.0469 15.7188 20.0278C15.7188 20.0086 15.7363 19.9803 15.7578 19.9648C15.7793 19.9494 15.7969 19.9211 15.7969 19.9019C15.7969 19.8828 15.8057 19.8672 15.8164 19.8672C15.8271 19.8672 15.8359 19.8496 15.8359 19.8281C15.8359 19.8066 15.8447 19.7891 15.8555 19.7891C15.8662 19.7891 15.875 19.7627 15.875 19.7305C15.875 19.6982 15.8838 19.6719 15.8945 19.6719C15.9053 19.6719 15.9141 19.6455 15.9141 19.6133C15.9141 19.5811 15.9229 19.5547 15.9336 19.5547C15.9443 19.5547 15.9531 19.5195 15.9531 19.4766C15.9531 19.4336 15.9619 19.3984 15.9727 19.3984C15.984 19.3984 15.9922 19.3333 15.9922 19.2422C15.9922 19.151 16.0003 19.0859 16.0117 19.0859C16.0247 19.0859 16.0312 16.3776 16.0312 11C16.0312 5.6224 16.0247 2.91406 16.0117 2.91406C16.0003 2.91406 15.9922 2.84896 15.9922 2.75781C15.9922 2.66666 15.984 2.60156 15.9727 2.60156C15.9619 2.60156 15.9531 2.56641 15.9531 2.52344C15.9531 2.48047 15.9443 2.44531 15.9336 2.44531C15.9229 2.44531 15.9141 2.41895 15.9141 2.38672C15.9141 2.35449 15.9053 2.32812 15.8945 2.32812C15.8838 2.32812 15.875 2.30176 15.875 2.26953C15.875 2.2373 15.8662 2.21094 15.8555 2.21094C15.8447 2.21094 15.8359 2.19336 15.8359 2.17188C15.8359 2.15039 15.8271 2.13281 15.8164 2.13281C15.8057 2.13281 15.7969 2.11717 15.7969 2.09807C15.7969 2.07895 15.7793 2.05064 15.7578 2.03516C15.7363 2.01967 15.7188 1.99137 15.7188 1.97225C15.7188 1.95314 15.71 1.9375 15.6992 1.9375C15.6885 1.9375 15.6797 1.92363 15.6797 1.90668C15.6797 1.88971 15.6445 1.84207 15.6016 1.80078C15.5586 1.75949 15.5234 1.71605 15.5234 1.70424C15.5234 1.67623 15.316 1.46875 15.2879 1.46875C15.2761 1.46875 15.2327 1.43359 15.1914 1.39062C15.1501 1.34766 15.1025 1.3125 15.0855 1.3125C15.0686 1.3125 15.0547 1.30371 15.0547 1.29297C15.0547 1.28223 15.0371 1.27344 15.0156 1.27344C14.9941 1.27344 14.9766 1.26465 14.9766 1.25391C14.9766 1.24316 14.959 1.23438 14.9375 1.23438C14.916 1.23438 14.8984 1.22559 14.8984 1.21484C14.8984 1.2041 14.8809 1.19531 14.8594 1.19531C14.8379 1.19531 14.8203 1.18652 14.8203 1.17578C14.8203 1.16504 14.8027 1.15625 14.7812 1.15625C14.7598 1.15625 14.7422 1.14746 14.7422 1.13672C14.7422 1.12598 14.7158 1.11719 14.6836 1.11719C14.6514 1.11719 14.625 1.1084 14.625 1.09766C14.625 1.08691 14.5986 1.07812 14.5664 1.07812C14.5342 1.07812 14.5078 1.06934 14.5078 1.05859C14.5078 1.04773 14.4557 1.03906 14.3906 1.03906C14.3255 1.03906 14.2734 1.03039 14.2734 1.01953C14.2734 1.00656 12.8412 1 10.0156 1C7.1901 1 5.75781 1.00656 5.75781 1.01953ZM14.0391 1.80078C14.0391 1.81193 14.0977 1.82031 14.1758 1.82031C14.2539 1.82031 14.3125 1.82869 14.3125 1.83984C14.3125 1.85059 14.3389 1.85938 14.3711 1.85938C14.4033 1.85938 14.4297 1.86816 14.4297 1.87891C14.4297 1.88965 14.4473 1.89844 14.4688 1.89844C14.4902 1.89844 14.5078 1.90723 14.5078 1.91797C14.5078 1.92871 14.5254 1.9375 14.5469 1.9375C14.5684 1.9375 14.5859 1.94629 14.5859 1.95703C14.5859 1.96777 14.6035 1.97656 14.625 1.97656C14.6465 1.97656 14.6641 1.98535 14.6641 1.99609C14.6641 2.00684 14.6774 2.01562 14.6937 2.01562C14.7298 2.01562 14.9766 2.25861 14.9766 2.29416C14.9766 2.30809 14.9941 2.33217 15.0156 2.34766C15.0371 2.36314 15.0547 2.39145 15.0547 2.41057C15.0547 2.42967 15.0635 2.44531 15.0742 2.44531C15.085 2.44531 15.0938 2.46289 15.0938 2.48438C15.0938 2.50586 15.1025 2.52344 15.1133 2.52344C15.124 2.52344 15.1328 2.5498 15.1328 2.58203C15.1328 2.61426 15.1416 2.64062 15.1523 2.64062C15.1631 2.64062 15.1719 2.66699 15.1719 2.69922C15.1719 2.73145 15.1807 2.75781 15.1914 2.75781C15.2041 2.75781 15.2109 3.01172 15.2109 3.48047V4.20312H10.0156H4.82031V3.48047C4.82031 3.01172 4.82717 2.75781 4.83984 2.75781C4.85059 2.75781 4.85938 2.73145 4.85938 2.69922C4.85938 2.66699 4.86816 2.64062 4.87891 2.64062C4.88965 2.64062 4.89844 2.61426 4.89844 2.58203C4.89844 2.5498 4.90723 2.52344 4.91797 2.52344C4.92871 2.52344 4.9375 2.50586 4.9375 2.48438C4.9375 2.46289 4.94629 2.44531 4.95703 2.44531C4.96777 2.44531 4.97656 2.42967 4.97656 2.41057C4.97656 2.39145 4.99414 2.36314 5.01562 2.34766C5.03711 2.33217 5.05469 2.30807 5.05469 2.2941C5.05469 2.261 5.261 2.05469 5.2941 2.05469C5.30807 2.05469 5.33217 2.03711 5.34766 2.01562C5.36314 1.99414 5.39145 1.97656 5.41057 1.97656C5.42967 1.97656 5.44531 1.96777 5.44531 1.95703C5.44531 1.94629 5.46289 1.9375 5.48438 1.9375C5.50586 1.9375 5.52344 1.92871 5.52344 1.91797C5.52344 1.90723 5.54102 1.89844 5.5625 1.89844C5.58398 1.89844 5.60156 1.88965 5.60156 1.87891C5.60156 1.86816 5.62793 1.85938 5.66016 1.85938C5.69238 1.85938 5.71875 1.85059 5.71875 1.83984C5.71875 1.82869 5.77734 1.82031 5.85547 1.82031C5.93359 1.82031 5.99219 1.81193 5.99219 1.80078C5.99219 1.78783 7.34635 1.78125 10.0156 1.78125C12.6849 1.78125 14.0391 1.78783 14.0391 1.80078ZM9.11719 2.62109C9.11719 2.63184 9.09492 2.64062 9.06772 2.64062C9.0127 2.64062 8.88281 2.75678 8.88281 2.806C8.88281 2.82246 8.87402 2.83594 8.86328 2.83594C8.85254 2.83594 8.84375 2.8623 8.84375 2.89453C8.84375 2.92676 8.83496 2.95312 8.82422 2.95312C8.81348 2.95312 8.80469 2.9707 8.80469 2.99219C8.80469 3.01367 8.81348 3.03125 8.82422 3.03125C8.83496 3.03125 8.84375 3.06447 8.84375 3.10506C8.84375 3.15646 8.85561 3.18742 8.88281 3.20703C8.9043 3.22252 8.92188 3.25082 8.92188 3.26994C8.92188 3.29023 8.93633 3.30469 8.95662 3.30469C8.97574 3.30469 9.00404 3.32227 9.01953 3.34375C9.04703 3.38191 9.0701 3.38281 10.0156 3.38281C10.9612 3.38281 10.9842 3.38191 11.0117 3.34375C11.0272 3.32227 11.0555 3.30469 11.0746 3.30469C11.0949 3.30469 11.1094 3.29023 11.1094 3.26994C11.1094 3.25082 11.127 3.22252 11.1484 3.20703C11.1756 3.18742 11.1875 3.15646 11.1875 3.10506C11.1875 3.06447 11.1963 3.03125 11.207 3.03125C11.2178 3.03125 11.2266 3.01367 11.2266 2.99219C11.2266 2.9707 11.2178 2.95312 11.207 2.95312C11.1963 2.95312 11.1875 2.92676 11.1875 2.89453C11.1875 2.8623 11.1787 2.83594 11.168 2.83594C11.1572 2.83594 11.1484 2.82246 11.1484 2.806C11.1484 2.75678 11.0186 2.64062 10.9635 2.64062C10.9363 2.64062 10.9141 2.63184 10.9141 2.62109C10.9141 2.60836 10.6016 2.60156 10.0156 2.60156C9.42969 2.60156 9.11719 2.60836 9.11719 2.62109ZM15.2109 11V17.0156H10.0156H4.82031V11V4.98438H10.0156H15.2109V11ZM15.2109 18.5195C15.2109 18.9883 15.2041 19.2422 15.1914 19.2422C15.1807 19.2422 15.1719 19.2686 15.1719 19.3008C15.1719 19.333 15.1631 19.3594 15.1523 19.3594C15.1416 19.3594 15.1328 19.3857 15.1328 19.418C15.1328 19.4502 15.124 19.4766 15.1133 19.4766C15.1025 19.4766 15.0938 19.4941 15.0938 19.5156C15.0938 19.5371 15.085 19.5547 15.0742 19.5547C15.0635 19.5547 15.0547 19.5703 15.0547 19.5894C15.0547 19.6086 15.0371 19.6369 15.0156 19.6523C14.9941 19.6678 14.9766 19.6919 14.9766 19.7058C14.9766 19.7414 14.7298 19.9844 14.6937 19.9844C14.6774 19.9844 14.6641 19.9932 14.6641 20.0039C14.6641 20.0146 14.6465 20.0234 14.625 20.0234C14.6035 20.0234 14.5859 20.0322 14.5859 20.043C14.5859 20.0537 14.5684 20.0625 14.5469 20.0625C14.5254 20.0625 14.5078 20.0713 14.5078 20.082C14.5078 20.0928 14.4902 20.1016 14.4688 20.1016C14.4473 20.1016 14.4297 20.1104 14.4297 20.1211C14.4297 20.1318 14.4033 20.1406 14.3711 20.1406C14.3389 20.1406 14.3125 20.1494 14.3125 20.1602C14.3125 20.1713 14.2539 20.1797 14.1758 20.1797C14.0977 20.1797 14.0391 20.1881 14.0391 20.1992C14.0391 20.2122 12.6849 20.2188 10.0156 20.2188C7.34635 20.2188 5.99219 20.2122 5.99219 20.1992C5.99219 20.1881 5.93359 20.1797 5.85547 20.1797C5.77734 20.1797 5.71875 20.1713 5.71875 20.1602C5.71875 20.1494 5.69238 20.1406 5.66016 20.1406C5.62793 20.1406 5.60156 20.1318 5.60156 20.1211C5.60156 20.1104 5.58398 20.1016 5.5625 20.1016C5.54102 20.1016 5.52344 20.0928 5.52344 20.082C5.52344 20.0713 5.50586 20.0625 5.48438 20.0625C5.46289 20.0625 5.44531 20.0537 5.44531 20.043C5.44531 20.0322 5.42773 20.0234 5.40625 20.0234C5.38477 20.0234 5.36719 20.0146 5.36719 20.0039C5.36719 19.9932 5.35385 19.9844 5.33752 19.9844C5.30145 19.9844 5.05469 19.7414 5.05469 19.7058C5.05469 19.6919 5.03711 19.6678 5.01562 19.6523C4.99414 19.6369 4.97656 19.6086 4.97656 19.5894C4.97656 19.5703 4.96777 19.5547 4.95703 19.5547C4.94629 19.5547 4.9375 19.5371 4.9375 19.5156C4.9375 19.4941 4.92871 19.4766 4.91797 19.4766C4.90723 19.4766 4.89844 19.4502 4.89844 19.418C4.89844 19.3857 4.88965 19.3594 4.87891 19.3594C4.86816 19.3594 4.85938 19.333 4.85938 19.3008C4.85938 19.2686 4.85059 19.2422 4.83984 19.2422C4.82717 19.2422 4.82031 18.9883 4.82031 18.5195V17.7969H10.0156H15.2109V18.5195ZM9.85938 18.6367C9.85938 18.6475 9.8459 18.6562 9.82943 18.6562C9.79055 18.6562 9.66406 18.7827 9.66406 18.8216C9.66406 18.8381 9.65527 18.8516 9.64453 18.8516C9.63338 18.8516 9.625 18.9102 9.625 18.9883C9.625 19.0664 9.63338 19.125 9.64453 19.125C9.65527 19.125 9.66406 19.1426 9.66406 19.1641C9.66406 19.1855 9.67285 19.2031 9.68359 19.2031C9.69434 19.2031 9.70312 19.2169 9.70312 19.2338C9.70312 19.2733 9.75016 19.3203 9.78963 19.3203C9.8065 19.3203 9.82031 19.3291 9.82031 19.3398C9.82031 19.3506 9.83789 19.3594 9.85938 19.3594C9.88086 19.3594 9.89844 19.3682 9.89844 19.3789C9.89844 19.3898 9.95053 19.3984 10.0156 19.3984C10.0807 19.3984 10.1328 19.3898 10.1328 19.3789C10.1328 19.3682 10.1504 19.3594 10.1719 19.3594C10.1934 19.3594 10.2109 19.3506 10.2109 19.3398C10.2109 19.3291 10.2247 19.3203 10.2416 19.3203C10.2811 19.3203 10.3281 19.2733 10.3281 19.2338C10.3281 19.2169 10.3369 19.2031 10.3477 19.2031C10.3584 19.2031 10.3672 19.1855 10.3672 19.1641C10.3672 19.1426 10.376 19.125 10.3867 19.125C10.3979 19.125 10.4062 19.0664 10.4062 18.9883C10.4062 18.9102 10.3979 18.8516 10.3867 18.8516C10.376 18.8516 10.3672 18.8381 10.3672 18.8216C10.3672 18.7827 10.2407 18.6562 10.2018 18.6562C10.1854 18.6562 10.1719 18.6475 10.1719 18.6367C10.1719 18.6253 10.1068 18.6172 10.0156 18.6172C9.92447 18.6172 9.85938 18.6253 9.85938 18.6367Z" fill="#333333"/>
<path fill-rule="evenodd" clip-rule="evenodd" d="M5.75781 1.01953C5.75781 1.03027 5.71387 1.03906 5.66016 1.03906C5.60645 1.03906 5.5625 1.04785 5.5625 1.05859C5.5625 1.06934 5.52734 1.07812 5.48438 1.07812C5.44141 1.07812 5.40625 1.08691 5.40625 1.09766C5.40625 1.1084 5.37988 1.11719 5.34766 1.11719C5.31543 1.11719 5.28906 1.12598 5.28906 1.13672C5.28906 1.14746 5.27148 1.15625 5.25 1.15625C5.22852 1.15625 5.21094 1.16504 5.21094 1.17578C5.21094 1.18652 5.19336 1.19531 5.17188 1.19531C5.15039 1.19531 5.13281 1.2041 5.13281 1.21484C5.13281 1.22559 5.11523 1.23438 5.09375 1.23438C5.07227 1.23438 5.05469 1.24316 5.05469 1.25391C5.05469 1.26465 5.03711 1.27344 5.01562 1.27344C4.99414 1.27344 4.97656 1.28223 4.97656 1.29297C4.97656 1.30371 4.9627 1.3125 4.94574 1.3125C4.92877 1.3125 4.88113 1.34766 4.83984 1.39062C4.79855 1.43359 4.75512 1.46875 4.7433 1.46875C4.71529 1.46875 4.50781 1.67623 4.50781 1.70424C4.50781 1.71605 4.47266 1.75949 4.42969 1.80078C4.38672 1.84207 4.35156 1.88971 4.35156 1.90668C4.35156 1.92363 4.34277 1.9375 4.33203 1.9375C4.32129 1.9375 4.3125 1.95314 4.3125 1.97225C4.3125 1.99137 4.29492 2.01967 4.27344 2.03516C4.25195 2.05064 4.23438 2.07895 4.23438 2.09807C4.23438 2.11717 4.22559 2.13281 4.21484 2.13281C4.2041 2.13281 4.19531 2.15039 4.19531 2.17188C4.19531 2.19336 4.18652 2.21094 4.17578 2.21094C4.16504 2.21094 4.15625 2.2373 4.15625 2.26953C4.15625 2.30176 4.14746 2.32812 4.13672 2.32812C4.12598 2.32812 4.11719 2.35449 4.11719 2.38672C4.11719 2.41895 4.1084 2.44531 4.09766 2.44531C4.08691 2.44531 4.07812 2.48047 4.07812 2.52344C4.07812 2.56641 4.06934 2.60156 4.05859 2.60156C4.04721 2.60156 4.03906 2.66666 4.03906 2.75781C4.03906 2.84896 4.03092 2.91406 4.01953 2.91406C4.00654 2.91406 4 5.6224 4 11C4 16.3776 4.00654 19.0859 4.01953 19.0859C4.03092 19.0859 4.03906 19.151 4.03906 19.2422C4.03906 19.3333 4.04721 19.3984 4.05859 19.3984C4.06934 19.3984 4.07812 19.4336 4.07812 19.4766C4.07812 19.5195 4.08691 19.5547 4.09766 19.5547C4.1084 19.5547 4.11719 19.5811 4.11719 19.6133C4.11719 19.6455 4.12598 19.6719 4.13672 19.6719C4.14746 19.6719 4.15625 19.6982 4.15625 19.7305C4.15625 19.7627 4.16504 19.7891 4.17578 19.7891C4.18652 19.7891 4.19531 19.8066 4.19531 19.8281C4.19531 19.8496 4.2041 19.8672 4.21484 19.8672C4.22559 19.8672 4.23438 19.8828 4.23438 19.9019C4.23438 19.9211 4.25195 19.9494 4.27344 19.9648C4.29492 19.9803 4.3125 20.0086 4.3125 20.0278C4.3125 20.0469 4.32129 20.0625 4.33203 20.0625C4.34277 20.0625 4.35156 20.0764 4.35156 20.0933C4.35156 20.1103 4.38672 20.1579 4.42969 20.1992C4.47266 20.2405 4.50781 20.2839 4.50781 20.2958C4.50781 20.3238 4.71529 20.5312 4.7433 20.5312C4.75512 20.5312 4.79855 20.5664 4.83984 20.6094C4.88113 20.6523 4.92877 20.6875 4.94574 20.6875C4.9627 20.6875 4.97656 20.6963 4.97656 20.707C4.97656 20.7178 4.99414 20.7266 5.01562 20.7266C5.03711 20.7266 5.05469 20.7354 5.05469 20.7461C5.05469 20.7568 5.07227 20.7656 5.09375 20.7656C5.11523 20.7656 5.13281 20.7744 5.13281 20.7852C5.13281 20.7959 5.15039 20.8047 5.17188 20.8047C5.19336 20.8047 5.21094 20.8135 5.21094 20.8242C5.21094 20.835 5.22852 20.8438 5.25 20.8438C5.27148 20.8438 5.28906 20.8525 5.28906 20.8633C5.28906 20.874 5.31543 20.8828 5.34766 20.8828C5.37988 20.8828 5.40625 20.8916 5.40625 20.9023C5.40625 20.9131 5.44141 20.9219 5.48438 20.9219C5.52734 20.9219 5.5625 20.9307 5.5625 20.9414C5.5625 20.9521 5.60645 20.9609 5.66016 20.9609C5.71387 20.9609 5.75781 20.9697 5.75781 20.9805C5.75781 20.9934 7.1901 21 10.0156 21C12.8412 21 14.2734 20.9934 14.2734 20.9805C14.2734 20.9696 14.3255 20.9609 14.3906 20.9609C14.4557 20.9609 14.5078 20.9523 14.5078 20.9414C14.5078 20.9307 14.5342 20.9219 14.5664 20.9219C14.5986 20.9219 14.625 20.9131 14.625 20.9023C14.625 20.8916 14.6514 20.8828 14.6836 20.8828C14.7158 20.8828 14.7422 20.874 14.7422 20.8633C14.7422 20.8525 14.7598 20.8438 14.7812 20.8438C14.8027 20.8438 14.8203 20.835 14.8203 20.8242C14.8203 20.8135 14.8379 20.8047 14.8594 20.8047C14.8809 20.8047 14.8984 20.7959 14.8984 20.7852C14.8984 20.7744 14.916 20.7656 14.9375 20.7656C14.959 20.7656 14.9766 20.7568 14.9766 20.7461C14.9766 20.7354 14.9941 20.7266 15.0156 20.7266C15.0371 20.7266 15.0547 20.7178 15.0547 20.707C15.0547 20.6963 15.0686 20.6875 15.0855 20.6875C15.1025 20.6875 15.1501 20.6523 15.1914 20.6094C15.2327 20.5664 15.2761 20.5312 15.2879 20.5312C15.316 20.5312 15.5234 20.3238 15.5234 20.2958C15.5234 20.2839 15.5586 20.2405 15.6016 20.1992C15.6445 20.1579 15.6797 20.1103 15.6797 20.0933C15.6797 20.0764 15.6885 20.0625 15.6992 20.0625C15.71 20.0625 15.7188 20.0469 15.7188 20.0278C15.7188 20.0086 15.7363 19.9803 15.7578 19.9648C15.7793 19.9494 15.7969 19.9211 15.7969 19.9019C15.7969 19.8828 15.8057 19.8672 15.8164 19.8672C15.8271 19.8672 15.8359 19.8496 15.8359 19.8281C15.8359 19.8066 15.8447 19.7891 15.8555 19.7891C15.8662 19.7891 15.875 19.7627 15.875 19.7305C15.875 19.6982 15.8838 19.6719 15.8945 19.6719C15.9053 19.6719 15.9141 19.6455 15.9141 19.6133C15.9141 19.5811 15.9229 19.5547 15.9336 19.5547C15.9443 19.5547 15.9531 19.5195 15.9531 19.4766C15.9531 19.4336 15.9619 19.3984 15.9727 19.3984C15.984 19.3984 15.9922 19.3333 15.9922 19.2422C15.9922 19.151 16.0003 19.0859 16.0117 19.0859C16.0247 19.0859 16.0312 16.3776 16.0312 11C16.0312 5.6224 16.0247 2.91406 16.0117 2.91406C16.0003 2.91406 15.9922 2.84896 15.9922 2.75781C15.9922 2.66666 15.984 2.60156 15.9727 2.60156C15.9619 2.60156 15.9531 2.56641 15.9531 2.52344C15.9531 2.48047 15.9443 2.44531 15.9336 2.44531C15.9229 2.44531 15.9141 2.41895 15.9141 2.38672C15.9141 2.35449 15.9053 2.32812 15.8945 2.32812C15.8838 2.32812 15.875 2.30176 15.875 2.26953C15.875 2.2373 15.8662 2.21094 15.8555 2.21094C15.8447 2.21094 15.8359 2.19336 15.8359 2.17188C15.8359 2.15039 15.8271 2.13281 15.8164 2.13281C15.8057 2.13281 15.7969 2.11717 15.7969 2.09807C15.7969 2.07895 15.7793 2.05064 15.7578 2.03516C15.7363 2.01967 15.7188 1.99137 15.7188 1.97225C15.7188 1.95314 15.71 1.9375 15.6992 1.9375C15.6885 1.9375 15.6797 1.92363 15.6797 1.90668C15.6797 1.88971 15.6445 1.84207 15.6016 1.80078C15.5586 1.75949 15.5234 1.71605 15.5234 1.70424C15.5234 1.67623 15.316 1.46875 15.2879 1.46875C15.2761 1.46875 15.2327 1.43359 15.1914 1.39062C15.1501 1.34766 15.1025 1.3125 15.0855 1.3125C15.0686 1.3125 15.0547 1.30371 15.0547 1.29297C15.0547 1.28223 15.0371 1.27344 15.0156 1.27344C14.9941 1.27344 14.9766 1.26465 14.9766 1.25391C14.9766 1.24316 14.959 1.23438 14.9375 1.23438C14.916 1.23438 14.8984 1.22559 14.8984 1.21484C14.8984 1.2041 14.8809 1.19531 14.8594 1.19531C14.8379 1.19531 14.8203 1.18652 14.8203 1.17578C14.8203 1.16504 14.8027 1.15625 14.7812 1.15625C14.7598 1.15625 14.7422 1.14746 14.7422 1.13672C14.7422 1.12598 14.7158 1.11719 14.6836 1.11719C14.6514 1.11719 14.625 1.1084 14.625 1.09766C14.625 1.08691 14.5986 1.07812 14.5664 1.07812C14.5342 1.07812 14.5078 1.06934 14.5078 1.05859C14.5078 1.04773 14.4557 1.03906 14.3906 1.03906C14.3255 1.03906 14.2734 1.03039 14.2734 1.01953C14.2734 1.00656 12.8412 1 10.0156 1C7.1901 1 5.75781 1.00656 5.75781 1.01953ZM14.0391 1.80078C14.0391 1.81193 14.0977 1.82031 14.1758 1.82031C14.2539 1.82031 14.3125 1.82869 14.3125 1.83984C14.3125 1.85059 14.3389 1.85938 14.3711 1.85938C14.4033 1.85938 14.4297 1.86816 14.4297 1.87891C14.4297 1.88965 14.4473 1.89844 14.4688 1.89844C14.4902 1.89844 14.5078 1.90723 14.5078 1.91797C14.5078 1.92871 14.5254 1.9375 14.5469 1.9375C14.5684 1.9375 14.5859 1.94629 14.5859 1.95703C14.5859 1.96777 14.6035 1.97656 14.625 1.97656C14.6465 1.97656 14.6641 1.98535 14.6641 1.99609C14.6641 2.00684 14.6774 2.01562 14.6937 2.01562C14.7298 2.01562 14.9766 2.25861 14.9766 2.29416C14.9766 2.30809 14.9941 2.33217 15.0156 2.34766C15.0371 2.36314 15.0547 2.39145 15.0547 2.41057C15.0547 2.42967 15.0635 2.44531 15.0742 2.44531C15.085 2.44531 15.0938 2.46289 15.0938 2.48438C15.0938 2.50586 15.1025 2.52344 15.1133 2.52344C15.124 2.52344 15.1328 2.5498 15.1328 2.58203C15.1328 2.61426 15.1416 2.64062 15.1523 2.64062C15.1631 2.64062 15.1719 2.66699 15.1719 2.69922C15.1719 2.73145 15.1807 2.75781 15.1914 2.75781C15.2041 2.75781 15.2109 3.01172 15.2109 3.48047V4.20312H10.0156H4.82031V3.48047C4.82031 3.01172 4.82717 2.75781 4.83984 2.75781C4.85059 2.75781 4.85938 2.73145 4.85938 2.69922C4.85938 2.66699 4.86816 2.64062 4.87891 2.64062C4.88965 2.64062 4.89844 2.61426 4.89844 2.58203C4.89844 2.5498 4.90723 2.52344 4.91797 2.52344C4.92871 2.52344 4.9375 2.50586 4.9375 2.48438C4.9375 2.46289 4.94629 2.44531 4.95703 2.44531C4.96777 2.44531 4.97656 2.42967 4.97656 2.41057C4.97656 2.39145 4.99414 2.36314 5.01562 2.34766C5.03711 2.33217 5.05469 2.30807 5.05469 2.2941C5.05469 2.261 5.261 2.05469 5.2941 2.05469C5.30807 2.05469 5.33217 2.03711 5.34766 2.01562C5.36314 1.99414 5.39145 1.97656 5.41057 1.97656C5.42967 1.97656 5.44531 1.96777 5.44531 1.95703C5.44531 1.94629 5.46289 1.9375 5.48438 1.9375C5.50586 1.9375 5.52344 1.92871 5.52344 1.91797C5.52344 1.90723 5.54102 1.89844 5.5625 1.89844C5.58398 1.89844 5.60156 1.88965 5.60156 1.87891C5.60156 1.86816 5.62793 1.85938 5.66016 1.85938C5.69238 1.85938 5.71875 1.85059 5.71875 1.83984C5.71875 1.82869 5.77734 1.82031 5.85547 1.82031C5.93359 1.82031 5.99219 1.81193 5.99219 1.80078C5.99219 1.78783 7.34635 1.78125 10.0156 1.78125C12.6849 1.78125 14.0391 1.78783 14.0391 1.80078ZM9.11719 2.62109C9.11719 2.63184 9.09492 2.64062 9.06772 2.64062C9.0127 2.64062 8.88281 2.75678 8.88281 2.806C8.88281 2.82246 8.87402 2.83594 8.86328 2.83594C8.85254 2.83594 8.84375 2.8623 8.84375 2.89453C8.84375 2.92676 8.83496 2.95312 8.82422 2.95312C8.81348 2.95312 8.80469 2.9707 8.80469 2.99219C8.80469 3.01367 8.81348 3.03125 8.82422 3.03125C8.83496 3.03125 8.84375 3.06447 8.84375 3.10506C8.84375 3.15646 8.85561 3.18742 8.88281 3.20703C8.9043 3.22252 8.92188 3.25082 8.92188 3.26994C8.92188 3.29023 8.93633 3.30469 8.95662 3.30469C8.97574 3.30469 9.00404 3.32227 9.01953 3.34375C9.04703 3.38191 9.0701 3.38281 10.0156 3.38281C10.9612 3.38281 10.9842 3.38191 11.0117 3.34375C11.0272 3.32227 11.0555 3.30469 11.0746 3.30469C11.0949 3.30469 11.1094 3.29023 11.1094 3.26994C11.1094 3.25082 11.127 3.22252 11.1484 3.20703C11.1756 3.18742 11.1875 3.15646 11.1875 3.10506C11.1875 3.06447 11.1963 3.03125 11.207 3.03125C11.2178 3.03125 11.2266 3.01367 11.2266 2.99219C11.2266 2.9707 11.2178 2.95312 11.207 2.95312C11.1963 2.95312 11.1875 2.92676 11.1875 2.89453C11.1875 2.8623 11.1787 2.83594 11.168 2.83594C11.1572 2.83594 11.1484 2.82246 11.1484 2.806C11.1484 2.75678 11.0186 2.64062 10.9635 2.64062C10.9363 2.64062 10.9141 2.63184 10.9141 2.62109C10.9141 2.60836 10.6016 2.60156 10.0156 2.60156C9.42969 2.60156 9.11719 2.60836 9.11719 2.62109ZM15.2109 11V17.0156H10.0156H4.82031V11V4.98438H10.0156H15.2109V11ZM15.2109 18.5195C15.2109 18.9883 15.2041 19.2422 15.1914 19.2422C15.1807 19.2422 15.1719 19.2686 15.1719 19.3008C15.1719 19.333 15.1631 19.3594 15.1523 19.3594C15.1416 19.3594 15.1328 19.3857 15.1328 19.418C15.1328 19.4502 15.124 19.4766 15.1133 19.4766C15.1025 19.4766 15.0938 19.4941 15.0938 19.5156C15.0938 19.5371 15.085 19.5547 15.0742 19.5547C15.0635 19.5547 15.0547 19.5703 15.0547 19.5894C15.0547 19.6086 15.0371 19.6369 15.0156 19.6523C14.9941 19.6678 14.9766 19.6919 14.9766 19.7058C14.9766 19.7414 14.7298 19.9844 14.6937 19.9844C14.6774 19.9844 14.6641 19.9932 14.6641 20.0039C14.6641 20.0146 14.6465 20.0234 14.625 20.0234C14.6035 20.0234 14.5859 20.0322 14.5859 20.043C14.5859 20.0537 14.5684 20.0625 14.5469 20.0625C14.5254 20.0625 14.5078 20.0713 14.5078 20.082C14.5078 20.0928 14.4902 20.1016 14.4688 20.1016C14.4473 20.1016 14.4297 20.1104 14.4297 20.1211C14.4297 20.1318 14.4033 20.1406 14.3711 20.1406C14.3389 20.1406 14.3125 20.1494 14.3125 20.1602C14.3125 20.1713 14.2539 20.1797 14.1758 20.1797C14.0977 20.1797 14.0391 20.1881 14.0391 20.1992C14.0391 20.2122 12.6849 20.2188 10.0156 20.2188C7.34635 20.2188 5.99219 20.2122 5.99219 20.1992C5.99219 20.1881 5.93359 20.1797 5.85547 20.1797C5.77734 20.1797 5.71875 20.1713 5.71875 20.1602C5.71875 20.1494 5.69238 20.1406 5.66016 20.1406C5.62793 20.1406 5.60156 20.1318 5.60156 20.1211C5.60156 20.1104 5.58398 20.1016 5.5625 20.1016C5.54102 20.1016 5.52344 20.0928 5.52344 20.082C5.52344 20.0713 5.50586 20.0625 5.48438 20.0625C5.46289 20.0625 5.44531 20.0537 5.44531 20.043C5.44531 20.0322 5.42773 20.0234 5.40625 20.0234C5.38477 20.0234 5.36719 20.0146 5.36719 20.0039C5.36719 19.9932 5.35385 19.9844 5.33752 19.9844C5.30145 19.9844 5.05469 19.7414 5.05469 19.7058C5.05469 19.6919 5.03711 19.6678 5.01562 19.6523C4.99414 19.6369 4.97656 19.6086 4.97656 19.5894C4.97656 19.5703 4.96777 19.5547 4.95703 19.5547C4.94629 19.5547 4.9375 19.5371 4.9375 19.5156C4.9375 19.4941 4.92871 19.4766 4.91797 19.4766C4.90723 19.4766 4.89844 19.4502 4.89844 19.418C4.89844 19.3857 4.88965 19.3594 4.87891 19.3594C4.86816 19.3594 4.85938 19.333 4.85938 19.3008C4.85938 19.2686 4.85059 19.2422 4.83984 19.2422C4.82717 19.2422 4.82031 18.9883 4.82031 18.5195V17.7969H10.0156H15.2109V18.5195ZM9.85938 18.6367C9.85938 18.6475 9.8459 18.6562 9.82943 18.6562C9.79055 18.6562 9.66406 18.7827 9.66406 18.8216C9.66406 18.8381 9.65527 18.8516 9.64453 18.8516C9.63338 18.8516 9.625 18.9102 9.625 18.9883C9.625 19.0664 9.63338 19.125 9.64453 19.125C9.65527 19.125 9.66406 19.1426 9.66406 19.1641C9.66406 19.1855 9.67285 19.2031 9.68359 19.2031C9.69434 19.2031 9.70312 19.2169 9.70312 19.2338C9.70312 19.2733 9.75016 19.3203 9.78963 19.3203C9.8065 19.3203 9.82031 19.3291 9.82031 19.3398C9.82031 19.3506 9.83789 19.3594 9.85938 19.3594C9.88086 19.3594 9.89844 19.3682 9.89844 19.3789C9.89844 19.3898 9.95053 19.3984 10.0156 19.3984C10.0807 19.3984 10.1328 19.3898 10.1328 19.3789C10.1328 19.3682 10.1504 19.3594 10.1719 19.3594C10.1934 19.3594 10.2109 19.3506 10.2109 19.3398C10.2109 19.3291 10.2247 19.3203 10.2416 19.3203C10.2811 19.3203 10.3281 19.2733 10.3281 19.2338C10.3281 19.2169 10.3369 19.2031 10.3477 19.2031C10.3584 19.2031 10.3672 19.1855 10.3672 19.1641C10.3672 19.1426 10.376 19.125 10.3867 19.125C10.3979 19.125 10.4062 19.0664 10.4062 18.9883C10.4062 18.9102 10.3979 18.8516 10.3867 18.8516C10.376 18.8516 10.3672 18.8381 10.3672 18.8216C10.3672 18.7827 10.2407 18.6562 10.2018 18.6562C10.1854 18.6562 10.1719 18.6475 10.1719 18.6367C10.1719 18.6253 10.1068 18.6172 10.0156 18.6172C9.92447 18.6172 9.85938 18.6253 9.85938 18.6367Z" stroke="#333333" stroke-width="0.4" mask="url(#path-1-outside-1)"/>
</svg>
