<svg width="30" height="30" viewBox="0 0 30 30" fill="none" xmlns="http://www.w3.org/2000/svg">
<g clip-path="url(#clip0)">
<path d="M29.3752 14.375C29.7252 14.375 30.0002 14.65 30.0002 15C30.0002 15.35 29.7252 15.625 29.3752 15.625H28.7502V14.375H29.3752Z" fill="#FFD73F"/>
<path d="M15.6252 14.375H28.7502V15.625H15.6252V14.375Z" fill="#FFD73F"/>
<path d="M26.875 30H15C15.35 30 15.625 29.725 15.625 29.375V28.75H26.875C27.9125 28.75 28.75 27.9125 28.75 26.875V15.625H29.375C29.725 15.625 30 15.35 30 15V26.875C30 28.6 28.6 30 26.875 30Z" fill="#FFD73F"/>
<path d="M30 3.125V15C30 14.65 29.725 14.375 29.375 14.375H28.75V3.125C28.75 2.0875 27.9125 1.25 26.875 1.25H15.625V0.625C15.625 0.275 15.35 0 15 0H26.875C28.6 0 30 1.4 30 3.125Z" fill="#FFD73F"/>
<path d="M25.0002 7.5C25.3502 7.5 25.6252 7.775 25.6252 8.125C25.6252 8.47501 25.3502 8.75001 25.0002 8.75001H20.0002C19.6502 8.75001 19.3752 8.47501 19.3752 8.125C19.3752 7.775 19.6502 7.5 20.0002 7.5H25.0002Z" fill="#FFD73F"/>
<path d="M25.0002 20C25.3502 20 25.6252 20.275 25.6252 20.625C25.6252 20.975 25.3502 21.25 25.0002 21.25H20.0002C19.6502 21.25 19.3752 20.975 19.3752 20.625C19.3752 20.275 19.6502 20 20.0002 20H25.0002Z" fill="#FFD73F"/>
<path d="M25.0002 23.75C25.3502 23.75 25.6252 24.025 25.6252 24.375C25.6252 24.725 25.3502 25 25.0002 25H20.0002C19.6502 25 19.3752 24.725 19.3752 24.375C19.3752 24.025 19.6502 23.75 20.0002 23.75H25.0002Z" fill="#FFD73F"/>
<path d="M15.6248 28.75V29.375C15.6248 29.725 15.3498 30 14.9998 30C14.6498 30 14.3748 29.725 14.3748 29.375V28.75H15.6248Z" fill="#FFD73F"/>
<path d="M14.3748 15.625H15.6248V28.75H14.3748V15.625Z" fill="#FFD73F"/>
<path d="M14.3748 14.375H15.6248V15.625H14.3748V14.375Z" fill="#FFD73F"/>
<path d="M14.3748 1.25H15.6248V14.375H14.3748V1.25Z" fill="#FFD73F"/>
<path d="M15.6248 0.625V1.25H14.3748V0.625C14.3748 0.275 14.6498 0 14.9998 0C15.3498 0 15.6248 0.275 15.6248 0.625Z" fill="#FFD73F"/>
<path d="M1.24982 14.375H14.3748V15.625H1.24982V14.375Z" fill="#FFD73F"/>
<path d="M10.0002 7.5C10.3502 7.5 10.6252 7.775 10.6252 8.125C10.6252 8.47501 10.3502 8.75001 10.0002 8.75001H8.12518V7.5H10.0002Z" fill="#FFD73F"/>
<path d="M9.81251 23.9375C10.0625 24.175 10.0625 24.575 9.81251 24.8125C9.70001 24.9375 9.53751 25 9.37501 25C9.21251 25 9.05001 24.9375 8.93751 24.8125L7.5 23.375L8.375 22.5L9.81251 23.9375Z" fill="#FFD73F"/>
<path d="M8.93751 20.1875C9.17501 19.9375 9.57501 19.9375 9.81251 20.1875C10.0625 20.425 10.0625 20.825 9.81251 21.0625L8.375 22.5L7.5 21.625L8.93751 20.1875Z" fill="#FFD73F"/>
<path d="M6.62164 22.4985L7.49669 21.6235L8.37174 22.4985L7.49669 23.3736L6.62164 22.4985Z" fill="#FFD73F"/>
<path d="M8.12482 8.75V10.625C8.12482 10.975 7.84982 11.25 7.49982 11.25C7.14982 11.25 6.87482 10.975 6.87482 10.625V8.75H8.12482Z" fill="#FFD73F"/>
<path d="M6.87482 7.5H8.12482V8.75001H6.87482V7.5Z" fill="#FFD73F"/>
<path d="M8.12482 5.625V7.49999H6.87482V5.625C6.87482 5.275 7.14982 5 7.49982 5C7.84982 5 8.12482 5.275 8.12482 5.625Z" fill="#FFD73F"/>
<path d="M7.49983 21.625L6.62482 22.5L5.18732 21.0625C4.93732 20.825 4.93732 20.425 5.18732 20.1875C5.42482 19.9375 5.82482 19.9375 6.06232 20.1875L7.49983 21.625Z" fill="#FFD73F"/>
<path d="M6.87518 7.5V8.75001H5.00018C4.65018 8.75001 4.37518 8.47501 4.37518 8.125C4.37518 7.775 4.65018 7.5 5.00018 7.5H6.87518Z" fill="#FFD73F"/>
<path d="M6.06232 24.8125C5.94982 24.9375 5.78732 25 5.62482 25C5.46232 25 5.29982 24.9375 5.18732 24.8125C4.93732 24.575 4.93732 24.175 5.18732 23.9375L6.62482 22.5L7.49983 23.375L6.06232 24.8125Z" fill="#FFD73F"/>
<path d="M1.25 14.375V15.625H0.625C0.275 15.625 0 15.35 0 15C0 14.65 0.275 14.375 0.625 14.375H1.25Z" fill="#FFD73F"/>
<path d="M0 3.125C0 1.4 1.4 0 3.125 0H15C14.65 0 14.375 0.275 14.375 0.625V1.25H3.125C2.0875 1.25 1.25 2.0875 1.25 3.125V14.375H0.625C0.275 14.375 0 14.65 0 15V3.125Z" fill="#FFD73F"/>
<path d="M1.25 26.875C1.25 27.9125 2.0875 28.75 3.125 28.75H14.375V29.375C14.375 29.725 14.65 30 15 30H3.125C1.4 30 0 28.6 0 26.875V15C0 15.35 0.275 15.625 0.625 15.625H1.25V26.875Z" fill="#FFD73F"/>
</g>
<defs>
<clipPath id="clip0">
<rect width="30" height="30" fill="white"/>
</clipPath>
</defs>
</svg>
