<svg width="28" height="28" viewBox="0 0 28 28" fill="none" xmlns="http://www.w3.org/2000/svg">
<path d="M14 15.1667C15.933 15.1667 17.5 13.5997 17.5 11.6667C17.5 9.73366 15.933 8.16666 14 8.16666C12.067 8.16666 10.5 9.73366 10.5 11.6667C10.5 13.5997 12.067 15.1667 14 15.1667Z" stroke="white" stroke-width="2.33333" stroke-linecap="round" stroke-linejoin="round"/>
<path d="M14 25.3167C20.1833 19.8333 23.3333 15.1667 23.3333 11.6667C23.3333 9.19132 22.35 6.81735 20.5997 5.06701C18.8493 3.31667 16.4754 2.33334 14 2.33334C11.5247 2.33334 9.15069 3.31667 7.40035 5.06701C5.65001 6.81735 4.66668 9.19132 4.66668 11.6667C4.66668 15.1667 7.81668 19.7167 14 25.3167Z" stroke="white" stroke-width="2.33333" stroke-linecap="round" stroke-linejoin="round"/>
</svg>
