<svg width="164" height="60" viewBox="0 0 164 60" fill="none" xmlns="http://www.w3.org/2000/svg">
<g clip-path="url(#clip0)">
<path d="M10.3956 53.2204V59.1386H11.3711V54.1504H13.7463V53.2204H10.3956Z" fill="#333333"/>
<path d="M20.834 58.3608C21.4363 57.7605 21.7332 57.0334 21.7332 56.1795C21.7332 55.3256 21.4363 54.5985 20.834 54.0067C20.2402 53.4064 19.5107 53.1105 18.6539 53.1105C17.7972 53.1105 17.0676 53.4064 16.4654 54.0067C15.8716 54.5985 15.5747 55.3256 15.5747 56.1795C15.5747 57.0334 15.8716 57.7605 16.4654 58.3608C17.0676 58.9526 17.7972 59.2485 18.6539 59.2485C19.5107 59.2485 20.2402 58.9526 20.834 58.3608ZM17.1525 57.7013C16.7538 57.2955 16.5502 56.7883 16.5502 56.1795C16.5502 55.5708 16.7538 55.0635 17.1525 54.6662C17.5596 54.2603 18.0601 54.0574 18.6539 54.0574C19.2477 54.0574 19.7482 54.2603 20.1469 54.6662C20.5541 55.0635 20.7576 55.5708 20.7576 56.1795C20.7576 56.7883 20.5541 57.2955 20.1469 57.7013C19.7482 58.0987 19.2477 58.3016 18.6539 58.3016C18.0601 58.3016 17.5596 58.0987 17.1525 57.7013Z" fill="#333333"/>
<path d="M27.2122 59.2485C27.7551 59.2485 28.2555 59.1217 28.7051 58.8681C29.1632 58.606 29.5195 58.2593 29.7655 57.8282L28.9172 57.3463C28.6118 57.9296 27.9586 58.3016 27.2122 58.3016C26.576 58.3016 26.067 58.0987 25.6683 57.7013C25.2781 57.304 25.083 56.7967 25.083 56.1795C25.083 55.5623 25.2781 55.0551 25.6683 54.6577C26.067 54.2603 26.576 54.0574 27.2122 54.0574C27.9586 54.0574 28.6033 54.4294 28.9172 55.0128L29.7655 54.5224C29.2565 53.6516 28.2895 53.1105 27.2122 53.1105C26.3215 53.1105 25.575 53.4064 24.9897 53.9983C24.4044 54.5816 24.1075 55.3087 24.1075 56.1795C24.1075 57.0503 24.4044 57.7774 24.9897 58.3693C25.575 58.9526 26.3215 59.2485 27.2122 59.2485Z" fill="#333333"/>
<path d="M31.8493 53.2204V54.1504H33.5289V59.1386H34.5044V54.1504H36.1755V53.2204H31.8493Z" fill="#333333"/>
<path d="M43.2165 59.1386V53.2204H42.4531L39.6538 57.2363V53.2204H38.6783V59.1386H39.4417L42.241 55.1227V59.1386H43.2165Z" fill="#333333"/>
<path d="M49.7042 55.6469H47.1594V53.2204H46.1839V59.1386H47.1594V56.5769H49.7042V59.1386H50.6797V53.2204H49.7042V55.6469Z" fill="#333333"/>
<path d="M58.1863 59.1386V53.2204H57.4228L54.6235 57.2363V53.2204H53.648V59.1386H54.4115L57.2108 55.1227V59.1386H58.1863Z" fill="#333333"/>
<path d="M64.3346 55.9259C63.9444 56.1203 63.5118 56.2133 63.0453 56.2133C62.4006 56.2133 62.0019 55.8413 62.0019 55.2326V53.2204H61.0264V55.3341C61.0264 55.8836 61.213 56.3233 61.5777 56.653C61.951 56.9827 62.4345 57.1433 63.0283 57.1433C63.4864 57.1433 63.919 57.0503 64.3346 56.8643V59.1386H65.3102V53.2204H64.3346V55.9259Z" fill="#333333"/>
<path d="M71.7985 55.6469H69.2536V53.2204H68.2781V59.1386H69.2536V56.5769H71.7985V59.1386H72.774V53.2204H71.7985V55.6469Z" fill="#333333"/>
<path d="M77.9308 59.1386C78.4907 59.1386 78.9573 58.9526 79.3305 58.5806C79.7122 58.2002 79.8988 57.7436 79.8988 57.1941C79.8988 56.6445 79.7122 56.188 79.3305 55.816C78.9573 55.4355 78.4907 55.2495 77.9308 55.2495H76.7178V53.2204H75.7423V59.1386H77.9308ZM81.4512 59.1386V53.2204H80.4757V59.1386H81.4512ZM76.7178 56.1626H77.9308C78.5077 56.1626 78.9233 56.5938 78.9233 57.1941C78.9233 57.7943 78.5077 58.2255 77.9308 58.2255H76.7178V56.1626Z" fill="#333333"/>
<path d="M87.8852 52.6286V51.8339H85.51V52.6286H87.8852ZM88.9625 59.1386V53.2204H88.199L85.3997 57.2363V53.2204H84.4242V59.1386H85.1876L87.987 55.1227V59.1386H88.9625Z" fill="#333333"/>
<path d="M97.8253 56.1034L100.226 53.2204H99.0638L96.8074 55.8752V53.2204H95.8319V59.1386H96.8074V56.3233L99.1486 59.1386H100.311L97.8253 56.1034Z" fill="#333333"/>
<path d="M107.182 58.3608C107.784 57.7605 108.081 57.0334 108.081 56.1795C108.081 55.3256 107.784 54.5985 107.182 54.0067C106.588 53.4064 105.858 53.1105 105.001 53.1105C104.145 53.1105 103.415 53.4064 102.813 54.0067C102.219 54.5985 101.922 55.3256 101.922 56.1795C101.922 57.0334 102.219 57.7605 102.813 58.3608C103.415 58.9526 104.145 59.2485 105.001 59.2485C105.858 59.2485 106.588 58.9526 107.182 58.3608ZM103.5 57.7013C103.101 57.2955 102.898 56.7883 102.898 56.1795C102.898 55.5708 103.101 55.0635 103.5 54.6662C103.907 54.2603 104.408 54.0574 105.001 54.0574C105.595 54.0574 106.096 54.2603 106.494 54.6662C106.902 55.0635 107.105 55.5708 107.105 56.1795C107.105 56.7883 106.902 57.2955 106.494 57.7013C106.096 58.0987 105.595 58.3016 105.001 58.3016C104.408 58.3016 103.907 58.0987 103.5 57.7013Z" fill="#333333"/>
<path d="M115.392 53.2204L113.594 56.1795L111.804 53.2204H110.752V59.1386H111.727V54.9113L113.534 57.8958H113.653L115.46 54.9198V59.1386H116.435V53.2204H115.392Z" fill="#333333"/>
<path d="M119.401 53.2204V59.1386H120.376V54.1504H122.794V59.1386H123.769V53.2204H119.401Z" fill="#333333"/>
<path d="M126.257 59.1386C126.842 59.1978 127.3 59.0879 127.708 58.7413C128.115 58.3777 128.344 57.6675 128.344 56.6276V54.1504H130.371V59.1386H131.347V53.2204H127.368V56.6445C127.368 57.955 127.004 58.3439 126.257 58.2424V59.1386Z" fill="#333333"/>
<path d="M135.288 56.6107H137.663V55.6892H135.288V54.1504H137.875V53.2204H134.312V59.1386H137.918V58.2086H135.288V56.6107Z" fill="#333333"/>
<path d="M142.585 56.1034L144.986 53.2204H143.824L141.567 55.8752V53.2204H140.592V59.1386H141.567V56.3233L143.909 59.1386H145.071L142.585 56.1034Z" fill="#333333"/>
<path d="M149.787 59.2485C150.33 59.2485 150.83 59.1217 151.28 58.8681C151.738 58.606 152.094 58.2593 152.34 57.8282L151.492 57.3463C151.187 57.9296 150.534 58.3016 149.787 58.3016C149.151 58.3016 148.642 58.0987 148.243 57.7013C147.853 57.304 147.658 56.7967 147.658 56.1795C147.658 55.5623 147.853 55.0551 148.243 54.6577C148.642 54.2603 149.151 54.0574 149.787 54.0574C150.534 54.0574 151.178 54.4294 151.492 55.0128L152.34 54.5224C151.831 53.6516 150.864 53.1105 149.787 53.1105C148.896 53.1105 148.15 53.4064 147.565 53.9983C146.979 54.5816 146.682 55.3087 146.682 56.1795C146.682 57.0503 146.979 57.7774 147.565 58.3693C148.15 58.9526 148.896 59.2485 149.787 59.2485Z" fill="#333333"/>
<path d="M10.0707 45.9901C8.26109 45.9901 6.58716 45.6113 5.04895 44.8538C3.51075 44.0963 2.28018 43.0411 1.35726 41.6884C0.452429 40.3177 1.52588e-05 38.7485 1.52588e-05 36.9809C1.52588e-05 35.3035 0.461477 33.7524 1.3844 32.3275C2.30733 30.9027 3.59218 29.7664 5.23897 28.9187C6.90385 28.071 8.76779 27.6471 10.8308 27.6471C11.6813 27.6471 12.4866 27.7193 13.2467 27.8635C14.0248 28.0078 14.8573 28.2243 15.744 28.5129C16.1421 28.6391 16.3683 28.9097 16.4226 29.3245C16.5674 30.4788 16.6398 31.543 16.6398 32.5169C16.6579 32.6612 16.6126 32.7785 16.5041 32.8686C16.4136 32.9408 16.305 32.9769 16.1783 32.9769C16.0517 32.9769 15.934 32.9408 15.8255 32.8686C15.735 32.7965 15.6716 32.6883 15.6354 32.544C15.4545 31.9127 15.2645 31.4077 15.0654 31.0289C14.8844 30.6321 14.622 30.2894 14.2782 30.0009C13.3734 29.2433 12.1066 28.8646 10.4779 28.8646C9.21116 28.8646 8.08013 29.2073 7.08482 29.8926C6.1076 30.578 5.34755 31.4889 4.80465 32.6251C4.26175 33.7614 3.99031 34.9789 3.99031 36.2775C3.99031 37.8467 4.24366 39.2806 4.75036 40.5792C5.27516 41.8598 6.03522 42.8788 7.03053 43.6363C8.02584 44.3939 9.20211 44.7726 10.5594 44.7726C11.8623 44.7726 12.9391 44.4931 13.7896 43.9339C14.6401 43.3748 15.3549 42.5091 15.934 41.3367C16.0064 41.2105 16.0879 41.1113 16.1783 41.0391C16.2869 40.967 16.3955 40.9309 16.5041 40.9309C16.6126 40.9309 16.7031 40.967 16.7755 41.0391C16.866 41.1113 16.9112 41.2195 16.9112 41.3638C16.9112 41.6704 16.8479 42.1033 16.7212 42.6624C16.6126 43.2215 16.4679 43.7716 16.2869 44.3127C16.1964 44.5291 16.0969 44.6915 15.9883 44.7997C15.8797 44.8899 15.7169 44.9801 15.4997 45.0702C14.8301 45.3588 14.0248 45.5843 13.0838 45.7466C12.1428 45.9089 11.1384 45.9901 10.0707 45.9901Z" fill="#333333"/>
<path d="M22.9098 45.7466C22.7289 45.7466 22.575 45.7105 22.4484 45.6384C22.3217 45.5662 22.2584 45.4761 22.2584 45.3678C22.2584 45.1334 22.4936 44.962 22.9641 44.8538C23.6337 44.6734 24.1042 44.466 24.3756 44.2315C24.6471 43.979 24.7828 43.5642 24.7828 42.987V30.7313C24.7828 30.1361 24.6561 29.7123 24.4028 29.4598C24.1675 29.1892 23.7151 28.9818 23.0456 28.8375C22.575 28.7473 22.3398 28.567 22.3398 28.2964C22.3398 28.1702 22.3941 28.08 22.5027 28.0259C22.6293 27.9537 22.7922 27.9177 22.9913 27.9177C23.5342 27.9177 24.2761 27.9357 25.2171 27.9718C26.1582 28.0078 26.8549 28.0259 27.3073 28.0259C28.755 28.0259 30.4742 28.0078 32.4648 27.9718C33.0258 27.9537 33.5054 27.9267 33.9035 27.8906C34.3197 27.8545 34.564 27.8365 34.6364 27.8365C35.0164 27.8365 35.2245 27.9718 35.2607 28.2423L35.4507 29.4598C35.6136 30.3977 35.695 31.083 35.695 31.5159C35.695 31.6602 35.6588 31.7774 35.5865 31.8676C35.5141 31.9578 35.4236 32.0029 35.315 32.0029C35.134 32.0029 34.9893 31.8766 34.8807 31.6241C34.7359 31.2454 34.5912 30.8937 34.4464 30.569C34.3197 30.2263 34.184 29.9828 34.0392 29.8385C33.5325 29.2974 32.8901 29.0269 32.1119 29.0269H29.5875C29.2436 29.0269 28.936 29.1261 28.6645 29.3245C28.4112 29.5229 28.2845 29.7844 28.2845 30.1091V35.4118C28.2845 35.8266 28.4926 36.034 28.9088 36.034H31.379C31.8314 36.034 32.1572 35.9168 32.3562 35.6823C32.5734 35.4478 32.7724 35.0601 32.9534 34.519C33.062 34.1582 33.2339 33.9779 33.4692 33.9779C33.5597 33.9779 33.6411 34.032 33.7135 34.1402C33.7859 34.2304 33.822 34.3566 33.822 34.519C33.7497 35.2404 33.7135 35.9348 33.7135 36.6022C33.7135 37.522 33.7406 38.2525 33.7949 38.7936V38.9289C33.7949 39.2535 33.7044 39.4158 33.5235 39.4158C33.3968 39.4158 33.2701 39.3527 33.1434 39.2265C33.0348 39.0822 32.9534 38.8928 32.8991 38.6583C32.7544 38.1353 32.5824 37.7565 32.3834 37.522C32.1843 37.2695 31.9129 37.1433 31.569 37.1433H29.0446C28.7731 37.1433 28.574 37.1974 28.4474 37.3056C28.3388 37.3958 28.2845 37.5581 28.2845 37.7926V42.9329C28.2845 43.5101 28.4021 43.9159 28.6374 44.1504C28.8907 44.3849 29.2889 44.5021 29.8318 44.5021H32.0576C33.0348 44.5021 33.7678 44.3217 34.2564 43.961C34.745 43.5822 35.2607 42.8788 35.8036 41.8507C35.9303 41.6163 36.0932 41.499 36.2922 41.499C36.4732 41.5171 36.5637 41.6704 36.5637 41.959C36.5637 42.5361 36.2832 43.6634 35.7222 45.3408C35.6136 45.5933 35.4326 45.7195 35.1793 45.7195L31.9219 45.6654C29.6056 45.6294 27.7868 45.6113 26.4658 45.6113C26.122 45.6113 25.5519 45.6294 24.7557 45.6654C24.1585 45.7195 23.5432 45.7466 22.9098 45.7466Z" fill="#333333"/>
<path d="M41.5662 45.7195C41.1138 45.7195 40.8875 45.6023 40.8875 45.3678C40.8875 45.2416 40.9418 45.1514 41.0504 45.0973C41.1771 45.0251 41.3852 44.953 41.6747 44.8809C42.1272 44.7366 42.4981 44.4841 42.7877 44.1233C43.0953 43.7626 43.2853 43.3027 43.3577 42.7435C43.8282 39.4429 44.1902 35.7003 44.4435 31.5159V30.5961C44.4254 30.3255 44.3711 30.1001 44.2807 29.9197C44.2083 29.7393 44.0725 29.586 43.8735 29.4598C43.4754 29.1892 42.9053 28.9638 42.1634 28.7834C41.729 28.6932 41.5119 28.5038 41.5119 28.2153C41.5119 27.9627 41.7743 27.8365 42.2991 27.8365C42.8058 27.8365 43.4663 27.8635 44.2807 27.9177C45.5836 27.9898 46.5246 28.0259 47.1037 28.0259C47.2304 28.0259 47.348 28.071 47.4566 28.1611C47.5833 28.2513 47.6647 28.3595 47.7009 28.4858C47.8819 28.9908 47.9814 29.2974 47.9995 29.4057L48.3795 30.5149L52.4512 40.4169C52.5236 40.5431 52.6051 40.6062 52.6956 40.6062C52.786 40.6062 52.8403 40.5611 52.8584 40.471L57.2287 30.7854C57.4459 29.7393 57.6269 28.9638 57.7716 28.4587C57.8259 28.2243 57.9436 28.107 58.1245 28.107H59.2375C59.9975 28.071 60.7033 28.0169 61.3547 27.9447C62.332 27.8726 62.9382 27.8365 63.1735 27.8365C63.5897 27.8365 63.7978 27.9537 63.7978 28.1882C63.7978 28.3325 63.7435 28.4407 63.6349 28.5129C63.5444 28.585 63.3816 28.6662 63.1463 28.7563C62.6939 28.9187 62.3501 29.0539 62.1148 29.1622C61.6986 29.3425 61.4 29.559 61.219 29.8115C61.0562 30.064 60.9838 30.4157 61.0019 30.8666C61.0562 32.7785 61.1195 34.519 61.1919 36.0881C61.2824 37.6573 61.3819 39.2084 61.4905 40.7415L61.6533 42.987C61.6714 43.474 61.8434 43.8618 62.1691 44.1504C62.5129 44.439 63.0015 44.6554 63.6349 44.7997C63.8883 44.8538 64.0692 44.9259 64.1778 45.0161C64.3045 45.0883 64.3678 45.1965 64.3678 45.3408C64.3678 45.449 64.3045 45.5392 64.1778 45.6113C64.0511 45.6654 63.8973 45.6925 63.7164 45.6925C63.2458 45.6925 62.5763 45.6745 61.7076 45.6384C60.839 45.6023 60.2328 45.5843 59.8889 45.5843C59.5632 45.5843 59.0203 45.6023 58.2602 45.6384C57.6631 45.6925 57.0297 45.7195 56.3601 45.7195C56.161 45.7195 55.9982 45.6835 55.8715 45.6113C55.7448 45.5572 55.6815 45.4761 55.6815 45.3678C55.6815 45.0793 55.9258 44.8899 56.4144 44.7997C57.0478 44.6915 57.473 44.5111 57.6902 44.2586C57.9255 44.0061 58.034 43.5822 58.0159 42.987C57.9436 40.0291 57.835 36.7555 57.6902 33.1662C57.6902 33.04 57.654 32.9769 57.5816 32.9769C57.5273 32.9769 57.4549 33.049 57.3645 33.1933L51.8269 45.6384C51.7545 45.8007 51.6459 45.8819 51.5012 45.8819C51.4288 45.8819 51.3564 45.8548 51.284 45.8007C51.2116 45.7646 51.1664 45.7105 51.1483 45.6384C50.5511 44.1414 49.4925 41.6433 47.9723 38.1443C46.7056 35.2224 45.9908 33.5721 45.8279 33.1933C45.7736 33.0851 45.7103 33.031 45.6379 33.031C45.5293 33.031 45.4569 33.1302 45.4207 33.3286C45.1493 35.8717 45.0136 39.0371 45.0136 42.8247C45.0136 43.3297 45.1764 43.7536 45.5022 44.0963C45.8279 44.439 46.3075 44.6734 46.9408 44.7997C47.1942 44.8538 47.3842 44.9259 47.5109 45.0161C47.6557 45.0883 47.728 45.1965 47.728 45.3408C47.728 45.449 47.6557 45.5392 47.5109 45.6113C47.3842 45.6654 47.2213 45.6925 47.0223 45.6925C46.4794 45.6925 45.9546 45.6745 45.4479 45.6384C45.0136 45.6023 44.6426 45.5843 44.3349 45.5843C44.2264 45.5843 43.6563 45.6113 42.6248 45.6654C42.0819 45.7015 41.729 45.7195 41.5662 45.7195Z" fill="#333333"/>
<path d="M69.0126 45.7466C68.5059 45.7466 68.2525 45.6113 68.2525 45.3408C68.2525 45.1965 68.3068 45.0793 68.4154 44.9891C68.542 44.8989 68.7321 44.8087 68.9854 44.7185C70.1074 44.4299 70.8765 43.7987 71.2927 42.8247C72.9214 39.0912 74.532 35.033 76.1245 30.6502C76.2874 30.1632 76.414 29.7483 76.5045 29.4057C76.6131 29.0449 76.6855 28.8014 76.7217 28.6752C77.3732 28.5129 77.8889 28.3505 78.2689 28.1882C78.5585 28.0439 78.7937 27.8635 78.9747 27.6471C79.1738 27.4126 79.2914 27.2774 79.3276 27.2413C79.4724 27.1331 79.5809 27.1511 79.6533 27.2954C79.6895 27.3675 79.771 27.593 79.8976 27.9718C80.5672 30.1001 81.3363 32.5079 82.2049 35.1953C83.0917 37.8647 83.707 39.7134 84.0508 40.7415L84.6751 42.5812C84.9104 43.2666 85.218 43.7716 85.598 44.0963C85.9781 44.4029 86.4757 44.6283 87.091 44.7726C87.5796 44.8809 87.8239 45.0793 87.8239 45.3678C87.8239 45.5843 87.6158 45.6925 87.1996 45.6925L85.3266 45.6384C84.5123 45.5843 83.7431 45.5572 83.0193 45.5572C82.6212 45.5572 81.9697 45.5753 81.0649 45.6113C80.2324 45.6474 79.6624 45.6654 79.3547 45.6654C79.1557 45.6654 78.9928 45.6384 78.8661 45.5843C78.7395 45.5121 78.6761 45.4129 78.6761 45.2867C78.6761 44.9981 78.9204 44.8087 79.409 44.7185C80.0243 44.6103 80.4677 44.466 80.7391 44.2857C81.0287 44.0873 81.1734 43.8257 81.1734 43.5011C81.1734 43.3748 81.1644 43.2846 81.1463 43.2305C81.0015 42.4369 80.6848 41.2105 80.1962 39.5511C80.16 39.3888 80.0967 39.2806 80.0062 39.2265C79.9338 39.1723 79.8072 39.1453 79.6262 39.1453H74.7401C74.523 39.1453 74.3691 39.3076 74.2787 39.6323C73.7358 41.2375 73.401 42.3377 73.2743 42.9329C73.2562 43.0231 73.2471 43.1494 73.2471 43.3117C73.2471 43.6905 73.3738 43.9881 73.6272 44.2045C73.8986 44.4209 74.3239 44.6013 74.903 44.7456C75.3916 44.8538 75.6359 45.0432 75.6359 45.3137C75.6359 45.4219 75.5726 45.5121 75.4459 45.5843C75.3373 45.6384 75.1835 45.6654 74.9844 45.6654L73.6815 45.6384C73.0662 45.6023 72.5595 45.5843 72.1614 45.5843C71.908 45.5843 71.6094 45.5933 71.2656 45.6113C70.9398 45.6474 70.6955 45.6654 70.5327 45.6654C70.026 45.7195 69.5193 45.7466 69.0126 45.7466ZM79.2462 37.9008C79.3909 37.9008 79.4905 37.8918 79.5447 37.8737C79.599 37.8557 79.6262 37.8106 79.6262 37.7385C79.6262 37.7204 79.6081 37.6212 79.5719 37.4409L77.6718 31.1913C77.5813 30.9387 77.5179 30.8125 77.4817 30.8125C77.4636 30.8125 77.4003 30.9297 77.2917 31.1642L75.0116 37.4409C74.9754 37.513 74.9573 37.5851 74.9573 37.6573C74.9573 37.8196 75.1292 37.9008 75.473 37.9008H79.2462Z" fill="#333333"/>
<path d="M91.7905 45.7195C91.6276 45.7195 91.4828 45.6835 91.3561 45.6113C91.2295 45.5572 91.1661 45.4761 91.1661 45.3678C91.1661 45.0973 91.3923 44.9079 91.8448 44.7997C92.5324 44.6554 93.012 44.457 93.2834 44.2045C93.5549 43.952 93.6906 43.5281 93.6906 42.9329V30.6772C93.6906 30.082 93.573 29.6672 93.3377 29.4327C93.1025 29.1802 92.6591 28.9818 92.0076 28.8375C91.5371 28.7473 91.3019 28.5579 91.3019 28.2694C91.3019 28.1611 91.3652 28.08 91.4919 28.0259C91.6185 27.9537 91.7633 27.9177 91.9262 27.9177C92.3243 27.9177 92.9396 27.9357 93.772 27.9718C94.5321 28.0078 95.1112 28.0259 95.5093 28.0259C95.8531 28.0259 96.387 28.0078 97.1109 27.9718C97.9071 27.9357 98.5405 27.9177 99.011 27.9177C99.192 27.9177 99.3367 27.9537 99.4453 28.0259C99.5539 28.08 99.6082 28.1702 99.6082 28.2964C99.6082 28.4407 99.5448 28.5579 99.4182 28.6481C99.3096 28.7203 99.1377 28.7834 98.9024 28.8375C98.269 28.9818 97.8347 29.1802 97.5995 29.4327C97.3642 29.6672 97.2466 30.055 97.2466 30.5961V43.3387C97.2466 43.6093 97.319 43.8347 97.4637 44.0151C97.6266 44.1955 97.8438 44.2857 98.1152 44.2857H102.105C102.522 44.2857 102.793 44.1955 102.92 44.0151C103.065 43.8347 103.137 43.5822 103.137 43.2576V30.6231C103.137 30.0459 103.028 29.6401 102.811 29.4057C102.594 29.1712 102.16 28.9818 101.508 28.8375C101.273 28.7834 101.101 28.7203 100.993 28.6481C100.884 28.5579 100.83 28.4407 100.83 28.2964C100.83 28.0439 101.02 27.9177 101.4 27.9177C101.852 27.9177 102.495 27.9357 103.327 27.9718C104.087 28.0078 104.648 28.0259 105.01 28.0259C105.372 28.0259 105.897 28.0078 106.584 27.9718C107.308 27.9357 107.896 27.9177 108.349 27.9177C108.512 27.9177 108.647 27.9537 108.756 28.0259C108.883 28.08 108.946 28.1611 108.946 28.2694C108.946 28.576 108.72 28.7654 108.267 28.8375C107.652 28.9818 107.227 29.1712 106.992 29.4057C106.774 29.6401 106.666 30.0279 106.666 30.569V43.4199C106.666 43.9971 106.983 44.2857 107.616 44.2857H111.606C111.896 44.2857 112.122 44.1865 112.285 43.9881C112.466 43.7716 112.556 43.5281 112.556 43.2576V30.5961C112.556 30.073 112.448 29.6942 112.231 29.4598C112.013 29.2073 111.579 28.9998 110.928 28.8375C110.692 28.7834 110.52 28.7203 110.412 28.6481C110.303 28.5579 110.249 28.4407 110.249 28.2964C110.249 28.0439 110.439 27.9177 110.819 27.9177C111.271 27.9177 111.914 27.9357 112.746 27.9718C113.506 28.0078 114.067 28.0259 114.429 28.0259C114.773 28.0259 115.325 28.0078 116.085 27.9718C116.881 27.9357 117.488 27.9177 117.904 27.9177C118.067 27.9177 118.211 27.9537 118.338 28.0259C118.465 28.08 118.528 28.1611 118.528 28.2694C118.528 28.576 118.302 28.7654 117.85 28.8375C117.198 28.9818 116.737 29.1802 116.465 29.4327C116.212 29.6852 116.085 30.091 116.085 30.6502V42.9059C116.085 43.5011 116.221 43.9339 116.492 44.2045C116.782 44.457 117.261 44.6554 117.931 44.7997C118.401 44.9079 118.637 45.0973 118.637 45.3678C118.637 45.4761 118.573 45.5572 118.447 45.6113C118.32 45.6835 118.175 45.7195 118.012 45.7195C117.343 45.7195 116.709 45.6925 116.112 45.6384C115.352 45.6023 114.791 45.5843 114.429 45.5843L104.929 45.5572C103.408 45.5572 101.87 45.5572 100.314 45.5572C98.7576 45.5572 97.1561 45.5662 95.5093 45.5843C95.1112 45.5843 94.514 45.6023 93.7178 45.6384C93.1025 45.6925 92.46 45.7195 91.7905 45.7195Z" fill="#333333"/>
<path d="M138.152 46.0983C137.138 46.0983 136.324 45.9089 135.709 45.5302C135.093 45.1514 134.541 44.4931 134.053 43.5552L131.583 38.7124C131.094 37.7565 130.587 37.2064 130.063 37.0621C129.845 37.008 129.538 36.9809 129.14 36.9809C128.995 36.9809 128.922 37.1252 128.922 37.4138L128.977 42.8247C128.995 43.4019 129.112 43.8347 129.33 44.1233C129.565 44.4119 130.008 44.6374 130.66 44.7997C130.913 44.8538 131.103 44.9259 131.23 45.0161C131.375 45.0883 131.447 45.1965 131.447 45.3408C131.447 45.449 131.365 45.5392 131.203 45.6113C131.058 45.6835 130.877 45.7195 130.66 45.7195C130.026 45.7195 129.348 45.6835 128.624 45.6113C128.19 45.5572 127.755 45.5302 127.321 45.5302C126.977 45.5302 126.479 45.5662 125.828 45.6384C124.887 45.7286 124.181 45.7737 123.711 45.7737C123.512 45.7737 123.331 45.7286 123.168 45.6384C123.005 45.5662 122.923 45.4761 122.923 45.3678C122.923 45.0973 123.186 44.9079 123.711 44.7997C124.38 44.6734 124.833 44.4841 125.068 44.2315C125.303 43.979 125.421 43.5462 125.421 42.9329V30.7043C125.421 30.1091 125.294 29.6852 125.041 29.4327C124.806 29.1802 124.335 28.9818 123.629 28.8375C123.159 28.7473 122.923 28.5579 122.923 28.2694C122.923 28.1611 122.987 28.08 123.113 28.0259C123.24 27.9537 123.385 27.9177 123.548 27.9177C124.036 27.9177 124.697 27.9357 125.529 27.9718C126.289 28.0078 126.85 28.0259 127.212 28.0259C127.52 28.0259 128.036 28.0078 128.76 27.9718C129.556 27.9357 130.189 27.9177 130.66 27.9177C130.841 27.9177 130.985 27.9537 131.094 28.0259C131.203 28.08 131.257 28.1702 131.257 28.2964C131.257 28.4407 131.203 28.5579 131.094 28.6481C130.985 28.7203 130.814 28.7834 130.578 28.8375C129.891 28.9998 129.438 29.2163 129.221 29.4868C129.022 29.7393 128.922 30.1542 128.922 30.7313V35.4659C128.922 35.7725 129.004 35.9258 129.167 35.9258H129.9C130.587 35.9258 131.203 35.6823 131.746 35.1953C132.288 34.6903 132.732 34.0139 133.076 33.1662L134.053 30.7313C134.451 29.7213 134.912 28.9547 135.437 28.4317C135.98 27.9086 136.749 27.6471 137.745 27.6471C138.396 27.6471 138.876 27.8094 139.183 28.1341C139.491 28.4407 139.645 28.8465 139.645 29.3515C139.645 29.7844 139.518 30.1632 139.265 30.4878C139.029 30.7945 138.731 30.9478 138.369 30.9478C138.134 30.9478 137.799 30.8576 137.365 30.6772C137.003 30.5149 136.722 30.4337 136.523 30.4337C136.179 30.4337 135.872 30.5419 135.6 30.7584C135.329 30.9568 135.093 31.3085 134.894 31.8135L134.08 33.8697C133.809 34.555 133.401 35.1232 132.858 35.5741C132.786 35.6462 132.75 35.7184 132.75 35.7905C132.75 35.8627 132.795 35.9438 132.886 36.034C133.338 36.1603 133.709 36.3677 133.999 36.6563C134.288 36.9449 134.641 37.4499 135.057 38.1713L137.256 42.1213C137.672 42.8788 138.052 43.4379 138.396 43.7987C138.758 44.1414 139.111 44.3668 139.455 44.475C139.817 44.5652 140.296 44.6103 140.893 44.6103C141.002 44.6103 141.092 44.6554 141.165 44.7456C141.255 44.8358 141.301 44.9259 141.301 45.0161C141.301 45.1063 141.255 45.1965 141.165 45.2867C141.092 45.3588 141.047 45.4039 141.029 45.4219C140.794 45.5843 140.396 45.7376 139.835 45.8819C139.292 46.0262 138.731 46.0983 138.152 46.0983Z" fill="#333333"/>
<path d="M153.445 45.9901C151.798 45.9901 150.26 45.6203 148.83 44.8809C147.419 44.1233 146.288 43.0682 145.437 41.7155C144.587 40.3627 144.161 38.8206 144.161 37.0891C144.161 35.4298 144.532 33.8787 145.274 32.4358C146.016 30.9929 147.102 29.8385 148.532 28.9728C149.979 28.089 151.699 27.6471 153.689 27.6471C155.336 27.6471 156.865 28.0259 158.277 28.7834C159.706 29.5229 160.846 30.569 161.697 31.9217C162.547 33.2745 162.973 34.8166 162.973 36.5481C162.973 38.2074 162.602 39.7585 161.86 41.2014C161.118 42.6443 160.023 43.8077 158.575 44.6915C157.146 45.5572 155.435 45.9901 153.445 45.9901ZM153.906 44.7997C155.589 44.7997 156.874 44.1865 157.761 42.96C158.648 41.7155 159.091 40.0381 159.091 37.9278C159.091 36.3226 158.865 34.8346 158.412 33.4638C157.978 32.075 157.318 30.9658 156.431 30.1361C155.544 29.2884 154.467 28.8646 153.201 28.8646C151.536 28.8646 150.26 29.4868 149.373 30.7313C148.486 31.9578 148.043 33.6171 148.043 35.7094C148.043 37.3146 148.26 38.8116 148.695 40.2004C149.129 41.5712 149.78 42.6804 150.649 43.5281C151.536 44.3758 152.621 44.7997 153.906 44.7997Z" fill="#333333"/>
<path d="M53.5691 7.50754C53.7654 7.05327 54.4116 7.05327 54.6079 7.50754L56.1818 11.1501C56.2637 11.3396 56.4429 11.4694 56.649 11.4884L60.6113 11.8547C61.1054 11.9004 61.3051 12.5129 60.9323 12.8394L57.9427 15.4569C57.7872 15.5931 57.7188 15.803 57.7643 16.0043L58.6392 19.8732C58.7483 20.3557 58.2255 20.7343 57.7988 20.4818L54.3773 18.4569C54.1993 18.3516 53.9778 18.3516 53.7998 18.4569L50.3783 20.4818C49.9516 20.7343 49.4288 20.3557 49.5379 19.8732L50.4128 16.0043C50.4583 15.803 50.3898 15.5931 50.2343 15.4569L47.2448 12.8394C46.872 12.5129 47.0717 11.9004 47.5658 11.8547L51.5281 11.4884C51.7342 11.4694 51.9134 11.3396 51.9952 11.1501L53.5691 7.50754Z" fill="#F1912C"/>
<path d="M80.6807 1.3407C80.877 0.886432 81.5232 0.886433 81.7195 1.3407L83.7431 6.02413C83.825 6.21361 84.0042 6.34337 84.2103 6.36243L89.3047 6.83335C89.7988 6.87902 89.9985 7.49159 89.6257 7.81802L85.782 11.1835C85.6265 11.3196 85.558 11.5296 85.6035 11.7308L86.7284 16.7053C86.8375 17.1878 86.3147 17.5664 85.888 17.3139L81.4888 14.7104C81.3108 14.6051 81.0893 14.6051 80.9114 14.7104L76.5122 17.3139C76.0855 17.5664 75.5627 17.1878 75.6718 16.7053L76.7967 11.7308C76.8422 11.5296 76.7737 11.3196 76.6182 11.1835L72.7745 7.81802C72.4016 7.49159 72.6013 6.87902 73.0955 6.83335L78.1899 6.36243C78.396 6.34337 78.5752 6.21361 78.6571 6.02413L80.6807 1.3407Z" fill="#F1912C"/>
<path d="M107.792 7.50754C107.989 7.05327 108.635 7.05327 108.831 7.50754L110.405 11.1501C110.487 11.3396 110.666 11.4694 110.872 11.4884L114.834 11.8547C115.328 11.9004 115.528 12.5129 115.155 12.8394L112.166 15.4569C112.01 15.5931 111.942 15.803 111.987 16.0043L112.862 19.8732C112.971 20.3557 112.449 20.7343 112.022 20.4818L108.6 18.4569C108.422 18.3516 108.201 18.3516 108.023 18.4569L104.601 20.4818C104.175 20.7343 103.652 20.3557 103.761 19.8732L104.636 16.0043C104.681 15.803 104.613 15.5931 104.457 15.4569L101.468 12.8394C101.095 12.5129 101.295 11.9004 101.789 11.8547L105.751 11.4884C105.957 11.4694 106.136 11.3396 106.218 11.1501L107.792 7.50754Z" fill="#F1912C"/>
</g>
<defs>
<clipPath id="clip0">
<rect width="164" height="60" fill="white"/>
</clipPath>
</defs>
</svg>
