<svg width="50" height="30" viewBox="0 0 50 30" fill="none" xmlns="http://www.w3.org/2000/svg">
<rect width="50" height="30" rx="4" fill="#F3F3F5"/>
<g clip-path="url(#clip0)">
<path fill-rule="evenodd" clip-rule="evenodd" d="M39.6363 18.9587C39.574 19.4317 39.491 19.8842 39.4079 20.316C38.9925 20.1926 38.5356 19.9664 37.871 20.0075C37.4764 20.0281 36.9987 20.1926 36.9987 20.5423C36.9987 20.933 37.6425 21.1592 37.9956 21.3443C38.6394 21.6528 39.3456 22.0641 39.4079 22.9073C39.4494 23.5448 39.1379 24.1207 38.8056 24.4291C37.8918 25.2929 35.8564 25.3752 34.4857 24.8199C34.5687 24.3674 34.6518 23.8944 34.7141 23.4214C35.2541 23.6477 35.981 23.9561 36.791 23.8533C37.1648 23.8122 37.601 23.586 37.601 23.2158C37.5802 22.7633 36.7287 22.496 36.2925 22.2492C35.7941 21.9818 35.2126 21.5088 35.1918 20.8302C35.171 20.3572 35.3579 19.9253 35.5864 19.6374C36.2925 18.7736 38.1202 18.4651 39.6363 18.9587Z" fill="#26337A"/>
<path fill-rule="evenodd" clip-rule="evenodd" d="M23.2081 10.0747H25.0566L23.9143 17.1698H22.0659L23.2081 10.0747Z" fill="#26337A"/>
<path fill-rule="evenodd" clip-rule="evenodd" d="M16.8113 10.0747H19.6359C21.4428 10.0747 21.8997 11.103 21.7128 12.3164C21.5466 13.3446 20.799 14.0233 19.8436 14.2701L21.6297 17.1698H19.3036L17.9536 14.3729L17.4967 17.1698H15.669L16.8113 10.0747ZM18.4313 11.4937L18.1405 13.2829H18.6805C19.1997 13.2829 19.6982 12.8922 19.7813 12.3986C19.8644 11.905 19.5113 11.5143 18.9921 11.5143H18.4313V11.4937Z" fill="#26337A"/>
<path fill-rule="evenodd" clip-rule="evenodd" d="M31.6403 10.0747H33.4887L32.3672 17.1698H30.5188L31.6403 10.0747Z" fill="#26337A"/>
<path fill-rule="evenodd" clip-rule="evenodd" d="M34.901 10.0747H38.9509L38.7017 11.6171H36.5002L36.3133 12.8305H38.411L38.1617 14.3729H36.0641L35.8564 15.6274H38.0579L37.8087 17.1698H33.7587L34.901 10.0747Z" fill="#26337A"/>
<path fill-rule="evenodd" clip-rule="evenodd" d="M11.6606 10.0747H15.7106L15.4613 11.6171H13.2598L13.0729 12.8305H15.1706L14.9213 14.3729H12.8237L12.616 15.6274H14.8175L14.5683 17.1698H10.5183L11.6606 10.0747Z" fill="#26337A"/>
<path fill-rule="evenodd" clip-rule="evenodd" d="M26.4481 10.0747H30.5603L30.3111 11.6171H28.0473L27.8604 12.8305H29.9165L29.6673 14.3729H27.6111L27.175 17.1698H25.3266L26.4481 10.0747Z" fill="#26337A"/>
<path fill-rule="evenodd" clip-rule="evenodd" d="M40.0309 10.0747H42.4401C45.3062 10.0747 45.9709 12.2135 45.7424 13.6325C45.4309 15.6274 43.624 17.1698 41.3186 17.1698H38.9094L40.0309 10.0747ZM41.6302 11.6171C41.7548 11.6171 41.9001 11.6171 42.004 11.6171C43.4163 11.6171 43.977 12.6043 43.8109 13.5503C43.6032 14.8253 42.6894 15.6274 41.464 15.6274C41.2978 15.6274 41.1525 15.6274 40.9655 15.6274L41.6302 11.6171Z" fill="#26337A"/>
<path fill-rule="evenodd" clip-rule="evenodd" d="M3 9.10797H6.42687L6.84224 14.2699C9.08529 10.383 11.3906 6.66067 13.696 3H14.8175C12.3668 7.68895 9.93681 12.3985 7.58993 17.1697H5.09766L4.47459 11.4936C4.32921 10.0746 4.03844 9.47815 3 9.33419V9.10797Z" fill="#26337A"/>
<path fill-rule="evenodd" clip-rule="evenodd" d="M4.28766 6.18765L7.21607 7.40101L7.4653 10.6092H7.67299L10.3106 6.18765V5.96143H4.28766V6.18765Z" fill="#EC982D"/>
<path fill-rule="evenodd" clip-rule="evenodd" d="M17.7667 22.2493C18.2028 22.2493 18.5144 22.6401 18.4313 23.1542C18.369 23.6478 17.9536 24.0385 17.4967 24.0385C17.0605 24.0385 16.749 23.6478 16.8321 23.1542C16.8944 22.6606 17.3305 22.2493 17.7667 22.2493ZM16.2713 18.8354H17.4759L17.0813 21.6324C17.4136 21.3033 17.8498 21.0977 18.3067 21.0977C19.262 21.0977 19.8851 22.0231 19.719 23.1336C19.5528 24.2648 18.639 25.1696 17.6836 25.1696C17.2059 25.1696 16.8736 24.964 16.6452 24.5938L16.5829 25.0462H15.3783L16.2713 18.8354Z" fill="#26337A"/>
<path fill-rule="evenodd" clip-rule="evenodd" d="M19.802 21.2007H21.2351L21.8789 23.1955L23.1251 21.2007H24.5166L20.882 27.0002H19.4905L21.0274 24.5529L19.802 21.2007Z" fill="#26337A"/>
<path fill-rule="evenodd" clip-rule="evenodd" d="M31.6403 25.0874L32.6995 18.8354H34.4233L33.3641 25.0874H31.6403Z" fill="#26337A"/>
<path fill-rule="evenodd" clip-rule="evenodd" d="M30.2072 18.8354C29.6049 20.2133 29.1065 21.6941 28.5042 23.0514L28.3173 22.2288L28.338 22.3727C28.2134 21.9408 27.985 21.5295 27.6942 21.1594L27.6734 21.1388C27.6319 21.0771 27.5696 21.0154 27.5073 20.9537C27.4657 20.9126 27.445 20.8714 27.4034 20.8303C26.9881 20.3779 26.4896 19.9871 25.9496 19.6786L27.4865 25.0668H29.3349C30.2072 22.9691 31.1418 20.9331 32.0141 18.8354C31.4118 18.8354 30.8095 18.8354 30.2072 18.8354Z" fill="#26337A"/>
<path fill-rule="evenodd" clip-rule="evenodd" d="M26.9673 18.8354H24.1635V18.9794C25.7835 19.2879 27.8188 20.6452 28.3588 22.3727L27.7565 19.4524C27.6734 19 27.3411 18.8354 26.9673 18.8354Z" fill="#EC982D"/>
<path fill-rule="evenodd" clip-rule="evenodd" d="M46.1476 25.2725C45.6284 25.2725 45.0884 25.2725 44.5692 25.2725C44.4653 24.9846 44.4445 24.6144 44.3407 24.3059C43.6346 24.3059 42.9076 24.3059 42.2015 24.3059L41.8069 25.2725C41.2046 25.2725 40.6023 25.2725 40 25.2725L42.3469 19.9254C42.4507 19.6992 42.6376 19.3702 42.7207 19.2262C42.8453 19.0206 43.3023 19 43.4892 19H44.7976L46.1476 25.2725ZM43.5307 20.7275L42.6584 23.0514H44.0707L43.5307 20.7275Z" fill="#26337A"/>
</g>
<defs>
<clipPath id="clip0">
<rect width="43" height="24" fill="white" transform="translate(3 3)"/>
</clipPath>
</defs>
</svg>
