<svg width="50" height="30" viewBox="0 0 50 30" fill="none" xmlns="http://www.w3.org/2000/svg">
<rect width="50" height="30" rx="4" fill="#F3F3F5"/>
<path fill-rule="evenodd" clip-rule="evenodd" d="M28.0643 15.2425C28.0643 20.6316 23.696 24.9998 18.307 24.9998C12.9179 24.9998 8.54929 20.6316 8.54929 15.2425C8.54929 9.8535 12.9179 5.48486 18.307 5.48486C23.696 5.48486 28.0643 9.8535 28.0643 15.2425Z" fill="#CC0000"/>
<path fill-rule="evenodd" clip-rule="evenodd" d="M31.4071 5.48486C28.8853 5.48486 26.5883 6.44136 24.8564 8.0105C24.504 8.33031 24.1751 8.67572 23.8715 9.04349H25.8429C26.1122 9.37131 26.3603 9.71595 26.5868 10.0769H23.1275C22.9205 10.4086 22.7324 10.7533 22.5653 11.1104H27.1487C27.3054 11.4448 27.4432 11.7893 27.562 12.1434H22.152C22.0394 12.4798 21.9445 12.8246 21.8686 13.1762H27.8451C27.9882 13.8423 28.0643 14.5335 28.0643 15.2425C28.0643 16.3257 27.8878 17.3684 27.562 18.3422H22.152C22.2707 18.6959 22.4086 19.0409 22.565 19.3758H27.1487C26.9812 19.732 26.794 20.0769 26.5859 20.4091H23.1275C23.3531 20.769 23.6016 21.1141 23.8715 21.4415H25.8423C25.5393 21.8095 25.2101 22.1549 24.8567 22.4747C26.5885 24.0439 28.8853 24.9998 31.4071 24.9998C36.7959 24.9998 41.1644 20.6316 41.1644 15.2425C41.1644 9.85396 36.7959 5.48486 31.4071 5.48486Z" fill="#FF9900"/>
<path fill-rule="evenodd" clip-rule="evenodd" d="M16.0284 16.3112C15.9173 16.2986 15.8682 16.2946 15.7919 16.2946C15.1914 16.2946 14.8878 16.5006 14.8878 16.9075C14.8878 17.1581 15.036 17.3174 15.2673 17.3174C15.6989 17.3174 16.0099 16.9066 16.0284 16.3112ZM16.799 18.1047C16.6577 18.1047 15.921 18.1047 15.921 18.1047L15.9412 17.6876C15.6735 18.017 15.3162 18.1743 14.8309 18.1743C14.257 18.1743 13.8633 17.7262 13.8633 17.075C13.8633 16.0947 14.5478 15.5231 15.723 15.5231C15.8434 15.5231 15.9973 15.5342 16.1549 15.5541C16.1876 15.4212 16.1962 15.3647 16.1962 15.293C16.1962 15.0266 16.0118 14.9267 15.517 14.9267C14.9987 14.9214 14.5712 15.0505 14.3956 15.1082C14.4067 15.0412 14.5426 14.2029 14.5426 14.2029C15.0702 14.0477 15.4184 13.9897 15.8102 13.9897C16.72 13.9897 17.2019 14.3981 17.2008 15.17C17.2027 15.3771 17.1683 15.6317 17.1151 15.9675C17.0232 16.5504 16.8258 17.8005 16.799 18.1047Z" fill="#000066"/>
<path fill-rule="evenodd" clip-rule="evenodd" d="M13.42 18.1046H12.3604L12.9677 14.3002L11.6124 18.1046H10.8906L10.8013 14.3215L10.1636 18.1046H9.17206L10.0003 13.1553H11.5236L11.6157 15.9256L12.545 13.1553H14.2392L13.42 18.1046Z" fill="#000066"/>
<path fill-rule="evenodd" clip-rule="evenodd" d="M32.7158 16.3112C32.6046 16.2986 32.5562 16.2946 32.48 16.2946C31.8791 16.2946 31.5758 16.5006 31.5758 16.9075C31.5758 17.1581 31.7234 17.3174 31.9553 17.3174C32.3866 17.3174 32.6978 16.9066 32.7158 16.3112ZM33.4869 18.1047C33.3453 18.1047 32.6092 18.1047 32.6092 18.1047L32.629 17.6876C32.3614 18.017 32.0042 18.1743 31.5193 18.1743C30.9446 18.1743 30.5514 17.7262 30.5514 17.075C30.5514 16.0947 31.2362 15.5231 32.411 15.5231C32.5313 15.5231 32.6849 15.5342 32.8426 15.5541C32.8755 15.4212 32.8839 15.3647 32.8839 15.293C32.8839 15.0266 32.6995 14.9267 32.2047 14.9267C31.6864 14.9214 31.2591 15.0505 31.0829 15.1082C31.0946 15.0412 31.2308 14.2029 31.2308 14.2029C31.7581 14.0477 32.1066 13.9897 32.4978 13.9897C33.4082 13.9897 33.8895 14.3981 33.8886 15.17C33.8904 15.3771 33.8563 15.6317 33.8028 15.9675C33.7112 16.5504 33.5134 17.8005 33.4869 18.1047Z" fill="#000066"/>
<path fill-rule="evenodd" clip-rule="evenodd" d="M21.5066 18.0433C21.2166 18.1346 20.9907 18.1741 20.7455 18.1741C20.2041 18.1741 19.9085 17.8629 19.9085 17.2897C19.901 17.1118 19.9864 16.6438 20.0536 16.217C20.115 15.8409 20.5131 13.4702 20.5131 13.4702H21.5659L21.443 14.0795H22.079L21.9355 15.0469H21.2972C21.175 15.8122 21.0006 16.7658 20.9986 16.8922C20.9986 17.0998 21.1093 17.1904 21.3614 17.1904C21.4821 17.1904 21.5756 17.1781 21.647 17.1525L21.5066 18.0433Z" fill="#000066"/>
<path fill-rule="evenodd" clip-rule="evenodd" d="M24.735 18.011C24.3733 18.1215 24.0246 18.1755 23.6547 18.1743C22.4758 18.1727 21.8614 17.5575 21.8614 16.3786C21.8614 15.0028 22.643 13.9897 23.7044 13.9897C24.5723 13.9897 25.127 14.5569 25.127 15.446C25.127 15.7416 25.0891 16.0297 24.997 16.4361H22.9002C22.8294 17.0201 23.2029 17.2633 23.8158 17.2633C24.1922 17.2633 24.5324 17.1855 24.9104 17.0102L24.735 18.011ZM24.1432 15.6249C24.1493 15.5409 24.2547 14.9063 23.6529 14.9063C23.318 14.9063 23.0779 15.162 22.9806 15.6249H24.1432Z" fill="#000066"/>
<path fill-rule="evenodd" clip-rule="evenodd" d="M17.4342 15.3523C17.4342 15.861 17.681 16.2121 18.2407 16.4759C18.6695 16.6778 18.7363 16.7374 18.7363 16.9202C18.7363 17.1707 18.547 17.2845 18.128 17.2845C17.8117 17.2845 17.5178 17.2349 17.1787 17.1252C17.1787 17.1252 17.0398 18.0128 17.0332 18.0552C17.2739 18.1073 17.4885 18.1559 18.1355 18.1743C19.2532 18.1743 19.7694 17.7487 19.7694 16.8289C19.7694 16.2759 19.5536 15.9513 19.0228 15.7071C18.5789 15.5034 18.5275 15.4577 18.5275 15.2699C18.5275 15.0523 18.7038 14.9412 19.0459 14.9412C19.254 14.9412 19.5378 14.9634 19.8072 15.0015L19.9579 14.0679C19.6837 14.0243 19.2677 13.9897 19.0256 13.9897C17.8407 13.9897 17.4304 14.6085 17.4342 15.3523Z" fill="#000066"/>
<path fill-rule="evenodd" clip-rule="evenodd" d="M29.887 14.096C30.1812 14.096 30.456 14.1725 30.8336 14.3632L31.0071 13.2891C30.8513 13.228 30.3053 12.8701 29.8427 12.8701C29.134 12.8701 28.5342 13.2223 28.113 13.8023C27.4981 13.5987 27.2451 14.0101 26.9354 14.4203L26.6602 14.4844C26.681 14.3495 26.7 14.2155 26.6939 14.0797H25.7206C25.588 15.3257 25.3526 16.5874 25.1683 17.834L25.12 18.1047H26.1798C26.3567 16.9553 26.4534 16.2196 26.5123 15.7213L26.9114 15.5001C26.9713 15.2779 27.1575 15.2033 27.5319 15.2124C27.483 15.4749 27.4565 15.7513 27.4565 16.0374C27.4565 17.3544 28.1679 18.1743 29.3078 18.1743C29.6015 18.1743 29.8538 18.1357 30.2444 18.0293L30.43 16.9015C30.0788 17.0741 29.7912 17.1553 29.5304 17.1553C28.9146 17.1553 28.5419 16.7006 28.5419 15.9495C28.5419 14.8594 29.0958 14.096 29.887 14.096Z" fill="#000066"/>
<path fill-rule="evenodd" clip-rule="evenodd" d="M38.8555 13.1553L38.62 14.5852C38.3309 14.2041 38.0197 13.9281 37.6089 13.9281C37.0745 13.9281 36.588 14.3334 36.2694 14.9301C35.8258 14.8381 35.3673 14.6815 35.3673 14.6815L35.367 14.6854C35.4023 14.3519 35.4173 14.1489 35.4137 14.0795H34.4406C34.3084 15.3256 34.0727 16.5873 33.8885 17.8338L33.8398 18.1046H34.8999C35.043 17.1757 35.1524 16.4035 35.233 15.7919C35.5954 15.4644 35.7767 15.1796 36.142 15.1981C35.98 15.5901 35.8854 16.0413 35.8854 16.5042C35.8854 17.51 36.394 18.1742 37.1644 18.1742C37.5526 18.1742 37.8505 18.0402 38.1411 17.7299L38.0911 18.1043H39.0934L39.9003 13.1553H38.8555ZM37.5308 17.1748C37.1703 17.1748 36.9877 16.9074 36.9877 16.3813C36.9877 15.5901 37.3289 15.0293 37.8093 15.0293C38.1733 15.0293 38.3707 15.3062 38.3707 15.8175C38.3707 16.6155 38.0237 17.1748 37.5308 17.1748Z" fill="#000066"/>
<path fill-rule="evenodd" clip-rule="evenodd" d="M13.7247 17.8107H12.6655L13.2726 14.0063L11.9176 17.8107H11.1955L11.1064 14.0283L10.4684 17.8107H9.47693L10.3051 12.8618H11.8285L11.871 15.9255L12.8989 12.8618H14.5441L13.7247 17.8107Z" fill="white"/>
<path fill-rule="evenodd" clip-rule="evenodd" d="M16.3333 16.0179C16.2222 16.0049 16.1732 16.0014 16.0969 16.0014C15.4964 16.0014 15.1926 16.2071 15.1926 16.6137C15.1926 16.864 15.341 17.0242 15.5724 17.0242C16.0039 17.0242 16.3149 16.6134 16.3333 16.0179ZM17.1037 17.8108C16.9626 17.8108 16.2261 17.8108 16.2261 17.8108L16.2461 17.394C15.9785 17.7232 15.6212 17.8806 15.1359 17.8806C14.5618 17.8806 14.1683 17.4319 14.1683 16.7809C14.1683 15.8005 14.853 15.2296 16.0281 15.2296C16.1482 15.2296 16.3021 15.2406 16.4599 15.2609C16.4926 15.1277 16.5012 15.0711 16.5012 14.9991C16.5012 14.7328 16.3168 14.6336 15.8219 14.6336C15.3035 14.6275 14.8762 14.7565 14.7004 14.8141C14.7117 14.7474 14.8474 13.9091 14.8474 13.9091C15.3752 13.7542 15.7234 13.6958 16.1152 13.6958C17.0249 13.6958 17.5066 14.1046 17.5058 14.8762C17.5075 15.083 17.4734 15.3388 17.4201 15.6737C17.328 16.2561 17.1306 17.507 17.1037 17.8108Z" fill="white"/>
<path fill-rule="evenodd" clip-rule="evenodd" d="M31.3118 12.9953L31.1383 14.0693C30.76 13.8792 30.486 13.8023 30.1921 13.8023C29.4012 13.8023 28.8464 14.5666 28.8464 15.6568C28.8464 16.4079 29.2193 16.8617 29.8352 16.8617C30.0961 16.8617 30.3843 16.7811 30.7348 16.6079L30.5486 17.7357C30.1587 17.842 29.9062 17.8808 29.6126 17.8808C28.472 17.8808 27.7616 17.0608 27.7616 15.7441C27.7616 13.9748 28.7437 12.7383 30.1476 12.7383C30.6102 12.7383 31.1565 12.9343 31.3118 12.9953Z" fill="white"/>
<path fill-rule="evenodd" clip-rule="evenodd" d="M33.0205 16.0179C32.9101 16.0049 32.8609 16.0014 32.7847 16.0014C32.1846 16.0014 31.8807 16.2071 31.8807 16.6137C31.8807 16.864 32.0289 17.0242 32.2602 17.0242C32.6914 17.0242 33.0028 16.6134 33.0205 16.0179ZM33.7916 17.8108C33.6507 17.8108 32.9141 17.8108 32.9141 17.8108L32.9339 17.394C32.6663 17.7232 32.309 17.8806 31.8242 17.8806C31.2495 17.8806 30.8564 17.4319 30.8564 16.7809C30.8564 15.8005 31.5404 15.2296 32.7159 15.2296C32.836 15.2296 32.9896 15.2406 33.1472 15.2609C33.1801 15.1277 33.1887 15.0711 33.1887 14.9991C33.1887 14.7328 33.0047 14.6336 32.5096 14.6336C31.9916 14.6275 31.5645 14.7565 31.3884 14.8141C31.3995 14.7474 31.5354 13.9091 31.5354 13.9091C32.0632 13.7542 32.4111 13.6958 32.8029 13.6958C33.7125 13.6958 34.1947 14.1046 34.1935 14.8762C34.1956 15.083 34.1612 15.3388 34.1079 15.6737C34.0161 16.2561 33.8187 17.507 33.7916 17.8108Z" fill="white"/>
<path fill-rule="evenodd" clip-rule="evenodd" d="M21.8114 17.7496C21.5216 17.8408 21.2954 17.8805 21.0506 17.8805C20.509 17.8805 20.2132 17.5691 20.2132 16.9966C20.2058 16.818 20.2914 16.3508 20.3588 15.9235C20.4197 15.5471 20.818 13.1768 20.818 13.1768H21.8711L21.7478 13.7858H22.2885L22.1444 14.753H21.6021C21.4798 15.5191 21.3054 16.472 21.3033 16.5985C21.3033 16.8066 21.4145 16.8967 21.6663 16.8967C21.787 16.8967 21.8803 16.8848 21.952 16.8586L21.8114 17.7496Z" fill="white"/>
<path fill-rule="evenodd" clip-rule="evenodd" d="M25.0404 17.7178C24.6784 17.8287 24.329 17.8809 23.9596 17.8806C22.7806 17.8799 22.1665 17.2638 22.1665 16.0851C22.1665 14.7089 22.948 13.6958 24.0086 13.6958C24.8775 13.6958 25.4319 14.2629 25.4319 15.1531C25.4319 15.4481 25.3933 15.736 25.3023 16.1426H23.2052C23.1341 16.7266 23.5081 16.9702 24.1204 16.9702C24.4971 16.9702 24.8371 16.8922 25.2155 16.7164L25.0404 17.7178ZM24.4484 15.3309C24.4541 15.2467 24.5601 14.6125 23.9584 14.6125C23.6231 14.6125 23.3831 14.8686 23.2855 15.3309H24.4484Z" fill="white"/>
<path fill-rule="evenodd" clip-rule="evenodd" d="M17.7389 15.0583C17.7389 15.5679 17.986 15.9183 18.5459 16.1824C18.9747 16.3841 19.0411 16.4438 19.0411 16.6267C19.0411 16.8776 18.8519 16.9907 18.4327 16.9907C18.1167 16.9907 17.8227 16.9417 17.4834 16.8324C17.4834 16.8324 17.3446 17.7193 17.3382 17.7611C17.5787 17.8139 17.7935 17.862 18.4402 17.8806C19.5582 17.8806 20.0744 17.4552 20.0744 16.5354C20.0744 15.9821 19.8583 15.6577 19.3277 15.414C18.8836 15.2097 18.8325 15.1646 18.8325 14.9764C18.8325 14.7589 19.0086 14.6469 19.3511 14.6469C19.5586 14.6469 19.8428 14.67 20.1121 14.708L20.2629 13.7746C19.9886 13.7313 19.5728 13.6958 19.3306 13.6958C18.1454 13.6958 17.7354 14.3148 17.7389 15.0583Z" fill="white"/>
<path fill-rule="evenodd" clip-rule="evenodd" d="M39.3983 17.8107H38.3963L38.446 17.4362C38.1553 17.7466 37.8575 17.8806 37.4693 17.8806C36.6995 17.8806 36.1902 17.2172 36.1902 16.2103C36.1902 14.8715 36.9798 13.7431 37.9138 13.7431C38.3246 13.7431 38.6356 13.9108 38.9254 14.292L39.1604 12.8618H40.2051L39.3983 17.8107ZM37.8355 16.8807C38.3291 16.8807 38.6754 16.3217 38.6754 15.5245C38.6754 15.013 38.4782 14.7352 38.1142 14.7352C37.6337 14.7352 37.2926 15.2962 37.2926 16.0877C37.2926 16.6144 37.4753 16.8807 37.8355 16.8807Z" fill="white"/>
<path fill-rule="evenodd" clip-rule="evenodd" d="M34.7458 13.7859C34.6134 15.0317 34.3777 16.2933 34.1935 17.54L34.1452 17.8107H35.2047C35.5837 15.3493 35.6749 14.869 36.2695 14.929C36.364 14.4252 36.5402 13.984 36.6715 13.7617C36.2278 13.6692 35.98 13.9199 35.6553 14.3964C35.6812 14.1902 35.7279 13.9902 35.7191 13.7859H34.7458Z" fill="white"/>
<path fill-rule="evenodd" clip-rule="evenodd" d="M26.026 13.7859C25.8929 15.0317 25.657 16.2933 25.473 17.54L25.4249 17.8107H26.4847C26.8639 15.3493 26.9547 14.869 27.5484 14.929C27.6435 14.4252 27.8201 13.984 27.951 13.7617C27.5078 13.6692 27.2596 13.9199 26.9354 14.3964C26.961 14.1902 27.0081 13.9902 26.9988 13.7859H26.026Z" fill="white"/>
</svg>
