<svg width="50" height="30" viewBox="0 0 50 30" fill="none" xmlns="http://www.w3.org/2000/svg">
<rect width="50" height="30" rx="4" fill="#F3F3F5"/>
<g clip-path="url(#clip0)">
<path fill-rule="evenodd" clip-rule="evenodd" d="M42.855 13.4906C42.855 13.0531 43.18 12.7031 43.5917 12.7031C44.0034 12.7031 44.3284 13.0531 44.3284 13.4906C44.3284 13.9281 44.0034 14.2781 43.5917 14.2781C43.2017 14.2781 42.855 13.9281 42.855 13.4906ZM43.5917 14.0812C43.895 14.0812 44.155 13.8188 44.155 13.4906C44.155 13.1625 43.895 12.9 43.5917 12.9C43.2884 12.9 43.0284 13.1625 43.0284 13.4906C43.05 13.8188 43.2884 14.0812 43.5917 14.0812ZM43.505 13.8406V13.5781H43.6134L43.7217 13.8406H43.895L43.7867 13.5344C43.8517 13.5125 43.895 13.4469 43.895 13.3594C43.895 13.2938 43.8734 13.2281 43.8084 13.1844C43.765 13.1406 43.7 13.1406 43.635 13.1406H43.3534V13.8188H43.505V13.8406ZM43.505 13.4469H43.5917C43.6134 13.4469 43.6567 13.4469 43.6784 13.425C43.7 13.4031 43.7217 13.3812 43.7217 13.3375C43.7217 13.3156 43.7 13.2719 43.6784 13.2719C43.6567 13.25 43.6134 13.25 43.5917 13.25H43.505V13.4469Z" fill="#CC0000"/>
<path fill-rule="evenodd" clip-rule="evenodd" d="M32.3683 8.32822L32.1733 9.64072C31.74 9.4001 31.415 9.3126 31.0683 9.3126C30.1583 9.3126 29.5083 10.2532 29.5083 11.5876C29.5083 12.5063 29.9416 13.0751 30.6566 13.0751C30.96 13.0751 31.285 12.9876 31.6966 12.7688L31.48 14.1688C31.025 14.3001 30.7433 14.3438 30.3966 14.3438C29.075 14.3438 28.2516 13.3376 28.2516 11.7188C28.2516 9.53135 29.4 8.02197 31.025 8.02197C31.2416 8.02197 31.415 8.04385 31.5666 8.0876L32.065 8.21885C32.2166 8.2626 32.26 8.2626 32.3683 8.32822Z" fill="#CC0000"/>
<path fill-rule="evenodd" clip-rule="evenodd" d="M28.295 9.225C28.2517 9.225 28.2083 9.20312 28.165 9.20312C27.7533 9.20312 27.5367 9.42187 27.1467 10.0125L27.255 9.26875H26.15L25.3917 14.2125H26.6267C27.06 11.1938 27.19 10.6688 27.775 10.6688C27.8183 10.6688 27.8183 10.6688 27.8617 10.6688C27.97 10.0781 28.1217 9.64062 28.3167 9.225H28.295Z" fill="#CC0000"/>
<path fill-rule="evenodd" clip-rule="evenodd" d="M20.9283 14.1473C20.6033 14.2566 20.3217 14.3004 20.04 14.3004C19.4117 14.3004 19.065 13.9066 19.065 13.2066C19.065 13.0754 19.065 12.9223 19.1083 12.7691L19.195 12.2879L19.26 11.8941L19.8017 8.52539H21.015L20.885 9.26914H21.5133L21.34 10.4723H20.7117L20.3867 12.5285C20.365 12.616 20.365 12.6816 20.365 12.7254C20.365 12.9879 20.495 13.0973 20.7767 13.0973C20.9283 13.0973 21.015 13.0754 21.1017 13.0535L20.9283 14.1473Z" fill="#CC0000"/>
<path fill-rule="evenodd" clip-rule="evenodd" d="M16.0967 10.8217C16.0967 11.4561 16.3783 11.8717 17.0283 12.1998C17.5267 12.4404 17.5917 12.5279 17.5917 12.7467C17.5917 13.0529 17.375 13.2061 16.8983 13.2061C16.53 13.2061 16.1833 13.1404 15.7933 13.0092L15.62 14.1467L15.685 14.1686L15.9017 14.2123C15.9667 14.2342 16.075 14.2342 16.2267 14.2561C16.53 14.2779 16.7467 14.2998 16.8983 14.2998C18.1767 14.2998 18.7833 13.7748 18.7833 12.6373C18.7833 11.9592 18.545 11.5654 17.9167 11.2592C17.3967 11.0186 17.3533 10.9529 17.3533 10.7342C17.3533 10.4717 17.5483 10.3186 17.96 10.3186C18.1983 10.3186 18.5233 10.3404 18.8483 10.3842L19 9.24668C18.675 9.18105 18.1983 9.15918 17.9167 9.15918C16.5733 9.15918 16.0967 9.9248 16.0967 10.8217Z" fill="#CC0000"/>
<path fill-rule="evenodd" clip-rule="evenodd" d="M42.1617 14.2125H40.9917L41.0567 13.7313C40.71 14.125 40.3633 14.2781 39.93 14.2781C39.0417 14.2781 38.435 13.4688 38.435 12.2219C38.435 10.5812 39.345 9.18125 40.4283 9.18125C40.905 9.18125 41.2733 9.4 41.5983 9.85938L41.8583 8.10938H43.0717L42.1617 14.2125ZM40.3417 13.0531C40.905 13.0531 41.3167 12.375 41.3167 11.3906C41.3167 10.7562 41.0783 10.4281 40.6667 10.4281C40.1033 10.4281 39.7133 11.1281 39.7133 12.0906C39.7133 12.725 39.93 13.0531 40.3417 13.0531Z" fill="#CC0000"/>
<path fill-rule="evenodd" clip-rule="evenodd" d="M24.8284 14.1033C24.4167 14.2346 24.005 14.3002 23.5717 14.3002C22.2067 14.3002 21.4917 13.5346 21.4917 12.0908C21.4917 10.3846 22.4017 9.1377 23.6367 9.1377C24.655 9.1377 25.305 9.8377 25.305 10.9314C25.305 11.3033 25.2617 11.6533 25.1534 12.1564H22.6834C22.6834 12.2221 22.6617 12.2658 22.6617 12.3096C22.6617 12.8783 23.03 13.1846 23.745 13.1846C24.1784 13.1846 24.5684 13.0971 25.0234 12.8783L24.8284 14.1033ZM24.135 11.1721C24.135 11.0627 24.135 10.9752 24.135 10.9314C24.135 10.5377 23.9184 10.2971 23.55 10.2971C23.16 10.2971 22.8784 10.6033 22.77 11.1939L24.135 11.1721Z" fill="#CC0000"/>
<path fill-rule="evenodd" clip-rule="evenodd" d="M11.1567 14.2126H9.94334L10.6367 9.53135L9.07668 14.2126H8.23168L8.12334 9.55322L7.38668 14.2126H6.23834L7.19168 8.13135H8.96834L9.01168 11.8938L10.2033 8.13135H12.11L11.1567 14.2126Z" fill="#CC0000"/>
<path fill-rule="evenodd" clip-rule="evenodd" d="M14.32 12.0032C14.19 11.9813 14.125 11.9813 14.0384 11.9813C13.345 11.9813 12.9984 12.2438 12.9984 12.747C12.9984 13.0532 13.1717 13.2501 13.4317 13.2501C13.9517 13.2501 14.2984 12.747 14.32 12.0032ZM15.23 14.2126H14.2117L14.2334 13.7095C13.93 14.1251 13.5184 14.3001 12.955 14.3001C12.2834 14.3001 11.8284 13.7532 11.8284 12.9438C11.8284 11.7407 12.63 11.0407 13.995 11.0407C14.125 11.0407 14.32 11.0407 14.4934 11.0845C14.5367 10.9313 14.5367 10.8438 14.5367 10.7563C14.5367 10.4282 14.32 10.297 13.7567 10.297C13.41 10.297 13.02 10.3407 12.7384 10.4282L12.565 10.472L12.4567 10.4938L12.63 9.37822C13.2367 9.18135 13.6484 9.11572 14.1034 9.11572C15.165 9.11572 15.7284 9.61885 15.7284 10.5595C15.7284 10.8001 15.7067 10.997 15.62 11.5438L15.36 13.2938L15.3167 13.6001L15.2517 13.9063L15.23 14.0813V14.2126Z" fill="#CC0000"/>
<path fill-rule="evenodd" clip-rule="evenodd" d="M34.4917 12.0032C34.3617 11.9813 34.2967 11.9813 34.21 11.9813C33.5167 11.9813 33.1483 12.2438 33.1483 12.747C33.1483 13.0532 33.3217 13.2501 33.5817 13.2501C34.1017 13.2501 34.47 12.747 34.4917 12.0032ZM35.38 14.2126H34.3617L34.3833 13.7095C34.08 14.1251 33.6683 14.3001 33.105 14.3001C32.4333 14.3001 31.9783 13.7532 31.9783 12.9438C31.9783 11.7407 32.78 11.0407 34.145 11.0407C34.275 11.0407 34.47 11.0407 34.6433 11.0845C34.6867 10.9313 34.6867 10.8438 34.6867 10.7563C34.6867 10.4282 34.47 10.297 33.9067 10.297C33.56 10.297 33.17 10.3407 32.8883 10.4282L32.715 10.472L32.6067 10.4938L32.78 9.37822C33.3867 9.18135 33.7983 9.11572 34.2533 9.11572C35.315 9.11572 35.8783 9.61885 35.8783 10.5595C35.8783 10.8001 35.8567 10.997 35.77 11.5438L35.51 13.2938L35.4667 13.6001L35.4233 13.8626L35.4017 14.0376L35.38 14.2126Z" fill="#CC0000"/>
<path fill-rule="evenodd" clip-rule="evenodd" d="M38.8034 9.225C38.76 9.225 38.7167 9.20312 38.6734 9.20312C38.2617 9.20312 38.045 9.42187 37.655 10.0125L37.7634 9.26875H36.6584L35.9 14.2125H37.135C37.5684 11.1938 37.6984 10.6688 38.2834 10.6688C38.3267 10.6688 38.3267 10.6688 38.37 10.6688C38.4784 10.0781 38.63 9.64062 38.8467 9.225H38.8034Z" fill="#CC0000"/>
<path fill-rule="evenodd" clip-rule="evenodd" d="M33.6467 19.0254C33.6467 20.141 33.3 20.8191 32.7584 20.8191C32.3684 20.841 32.13 20.3816 32.13 19.7254C32.13 18.9379 32.4767 18.041 33.04 18.041C33.495 18.0191 33.6467 18.5004 33.6467 19.0254ZM34.86 19.0473C34.86 17.8004 34.2534 16.8379 33.105 16.8379C31.7834 16.8379 30.9384 18.0191 30.9384 19.7473C30.9384 20.9941 31.4367 22.0004 32.6934 22.0004C33.95 22.0004 34.86 21.1035 34.86 19.0473Z" fill="#FF9900"/>
<path fill-rule="evenodd" clip-rule="evenodd" d="M31.3283 15.9409L31.1333 17.2534C30.7217 17.0128 30.4183 16.9253 30.115 16.9253C29.2483 16.9253 28.6633 17.8659 28.6633 19.2003C28.6633 20.119 29.075 20.6878 29.725 20.6878C30.0067 20.6878 30.3317 20.6003 30.7 20.3815L30.505 21.7597C30.0717 21.8909 29.8117 21.9347 29.4867 21.9347C28.2517 21.9347 27.4717 20.9284 27.4717 19.3097C27.4717 17.1222 28.5333 15.6128 30.05 15.6128C30.245 15.6128 30.4183 15.6347 30.57 15.6784L31.0467 15.8097C31.1983 15.8753 31.22 15.8972 31.3283 15.9409Z" fill="#FF9900"/>
<path fill-rule="evenodd" clip-rule="evenodd" d="M23.7233 16.8598C23.68 16.8598 23.6583 16.8379 23.615 16.8379C23.2467 16.8379 23.03 17.0566 22.6833 17.6473L22.7917 16.9035H21.7517L21.0583 21.8473H22.2067C22.5967 18.8066 22.705 18.2816 23.2467 18.2816C23.2683 18.2816 23.29 18.2816 23.3333 18.2816C23.4417 17.691 23.5717 17.2535 23.7667 16.8379L23.7233 16.8598Z" fill="#FF9900"/>
<path fill-rule="evenodd" clip-rule="evenodd" d="M38.7167 21.7813H37.6333L37.6983 21.3001C37.3733 21.672 37.0483 21.847 36.6367 21.847C35.7917 21.847 35.25 21.0376 35.25 19.7907C35.25 18.1501 36.1167 16.7501 37.1133 16.7501C37.5683 16.7501 37.8933 16.9688 38.2183 17.4282L38.4783 15.6782H39.605L38.7167 21.7813ZM37.005 20.622C37.5467 20.622 37.915 19.9438 37.915 18.9595C37.915 18.3251 37.6983 17.997 37.3083 17.997C36.7883 17.997 36.42 18.6751 36.42 19.6595C36.42 20.2938 36.6367 20.622 37.005 20.622Z" fill="#FF9900"/>
<path fill-rule="evenodd" clip-rule="evenodd" d="M12.9767 21.7601C12.5867 21.8913 12.1967 21.9569 11.8067 21.9569C10.5284 21.9569 9.85669 21.1913 9.85669 19.7476C9.85669 18.0413 10.7017 16.7944 11.8717 16.7944C12.825 16.7944 13.41 17.4944 13.41 18.5882C13.41 18.9601 13.3667 19.3101 13.28 19.8132H10.9834C10.9834 19.8788 10.9834 19.9226 10.9834 19.9663C10.9834 20.5351 11.33 20.8413 12.0017 20.8413C12.4134 20.8413 12.7817 20.7538 13.1934 20.5351L12.9767 21.7601ZM12.3267 18.8288C12.3267 18.7194 12.3267 18.6319 12.3267 18.5663C12.3267 18.1726 12.1317 17.9319 11.785 17.9319C11.4167 17.9319 11.1567 18.2601 11.0484 18.8288H12.3267Z" fill="#FF9900"/>
<path fill-rule="evenodd" clip-rule="evenodd" d="M26.6267 21.7601C26.2367 21.8913 25.8467 21.9569 25.4567 21.9569C24.1783 21.9569 23.5067 21.1913 23.5067 19.7476C23.5067 18.0413 24.3517 16.7944 25.5217 16.7944C26.475 16.7944 27.0817 17.4944 27.0817 18.5882C27.0817 18.9601 27.0383 19.3101 26.93 19.8132H24.6117C24.6117 19.8788 24.59 19.9226 24.59 19.9663C24.59 20.5351 24.9367 20.8413 25.5867 20.8413C25.9983 20.8413 26.3667 20.7538 26.7783 20.5351L26.6267 21.7601ZM25.9767 18.8288C25.9767 18.7194 25.9983 18.6319 25.9983 18.5663C25.9983 18.1726 25.8033 17.9319 25.4567 17.9319C25.0883 17.9319 24.8283 18.2601 24.72 18.8288H25.9767Z" fill="#FF9900"/>
<path fill-rule="evenodd" clip-rule="evenodd" d="M42.6167 21.7601C42.2267 21.8913 41.8367 21.9569 41.4467 21.9569C40.1684 21.9569 39.4967 21.1913 39.4967 19.7476C39.4967 18.0413 40.3417 16.7944 41.5117 16.7944C42.465 16.7944 43.05 17.4944 43.05 18.5882C43.05 18.9601 43.0067 19.3101 42.8984 19.8132H40.6234C40.6234 19.8788 40.6234 19.9226 40.6234 19.9663C40.6234 20.5351 40.97 20.8413 41.6417 20.8413C42.0534 20.8413 42.4217 20.7538 42.8334 20.5351L42.6167 21.7601ZM41.9884 18.8288C41.9884 18.7194 41.9884 18.6319 41.9884 18.5663C41.9884 18.1726 41.7934 17.9319 41.4467 17.9319C41.0784 17.9319 40.8184 18.2601 40.71 18.8288H41.9884Z" fill="#FF9900"/>
<path fill-rule="evenodd" clip-rule="evenodd" d="M9.575 17.0785C9.35833 16.9254 9.055 16.7941 8.62167 16.7941C8.16667 16.7941 7.77667 16.8816 7.77667 17.3848C7.77667 18.2598 9.46667 17.9316 9.46667 19.8129C9.46667 21.5191 8.34 21.9785 7.34333 21.9785C6.88833 21.9785 6.36833 21.8254 6 21.6504L6.28167 20.3816C6.52 20.6004 6.975 20.7316 7.365 20.7316C7.73333 20.7316 8.29667 20.6223 8.29667 19.9879C8.29667 18.9816 6.60667 19.3535 6.60667 17.6035C6.60667 16.0066 7.60333 15.5254 8.55667 15.5254C9.09833 15.5254 9.59667 15.6129 9.9 15.8098L9.575 17.0785Z" fill="#FF9900"/>
<path fill-rule="evenodd" clip-rule="evenodd" d="M16.335 21.7597C16.0967 21.869 15.7933 21.9565 15.3167 21.9565C14.32 21.9565 13.6917 20.9503 13.6917 19.7034C13.6917 18.0847 14.6017 16.8159 15.9233 16.8159C16.205 16.8159 16.66 16.9472 17.0066 17.144L16.7466 18.3253C16.4866 18.1722 16.2267 18.0628 15.9667 18.0628C15.36 18.0628 14.905 18.6315 14.905 19.6378C14.905 20.2284 15.23 20.7097 15.7283 20.7097C16.0317 20.7097 16.2267 20.644 16.4867 20.4909L16.335 21.7597Z" fill="#FF9900"/>
<path fill-rule="evenodd" clip-rule="evenodd" d="M20.625 20.5351C20.56 20.9507 20.5167 21.3663 20.4733 21.8257H19.3683L19.455 21.0163H19.4333C19.0867 21.5632 18.74 21.9351 18.1117 21.9351C17.4183 21.9351 17.05 21.1913 17.05 20.2288C17.05 19.9007 17.0717 19.7038 17.1367 19.2007L17.44 16.9038H18.675L18.35 19.2007C18.3067 19.4413 18.2633 19.6819 18.2633 19.9444C18.2633 20.2288 18.3933 20.5351 18.7183 20.5132C19.2167 20.5132 19.52 19.9007 19.6067 19.1569L19.9533 16.9038H21.1667L20.625 20.5351Z" fill="#FF9900"/>
<path fill-rule="evenodd" clip-rule="evenodd" d="M43.765 21.7597H43.5917V20.9284H43.31V20.7534H44.0467V20.9284H43.765V21.7597Z" fill="#FF9900"/>
<path fill-rule="evenodd" clip-rule="evenodd" d="M45 21.7597H44.8267V20.9065L44.6534 21.7597H44.48L44.3067 20.9065V21.7597H44.1334V20.7534H44.415L44.5667 21.5409L44.74 20.7534H45V21.7597Z" fill="#FF9900"/>
</g>
<defs>
<clipPath id="clip0">
<rect width="39" height="14" fill="white" transform="translate(6 8)"/>
</clipPath>
</defs>
</svg>
