<svg width="64" height="64" viewBox="0 0 64 64" fill="none" xmlns="http://www.w3.org/2000/svg">
<path d="M9.06375 52.3512C9.13526 52.5418 9.2632 52.706 9.4305 52.8219C9.5978 52.9378 9.79648 52.9999 10 52.9999C10.2035 52.9999 10.4022 52.9378 10.5695 52.8219C10.7368 52.706 10.8647 52.5418 10.9363 52.3512L13.9363 44.3512C13.9786 44.239 14.0002 44.12 14 44V15.5C13.999 14.5721 13.6299 13.6824 12.9737 13.0263C12.3176 12.3701 11.4279 12.001 10.5 12H9.5C8.57206 12.001 7.68241 12.3701 7.02626 13.0263C6.3701 13.6824 6.00103 14.5721 6 15.5V44C5.99984 44.12 6.02144 44.239 6.06375 44.3512L9.06375 52.3512ZM10 49.1525L8.8175 46H11.1825L10 49.1525ZM8 15.5C8.00033 15.1023 8.15847 14.7209 8.43971 14.4397C8.72094 14.1585 9.10228 14.0003 9.5 14H10.5C10.8977 14.0003 11.2791 14.1585 11.5603 14.4397C11.8415 14.7209 11.9997 15.1023 12 15.5V18H8V15.5ZM8 20H9V35C9 35.2652 9.10536 35.5196 9.29289 35.7071C9.48043 35.8946 9.73478 36 10 36C10.2652 36 10.5196 35.8946 10.7071 35.7071C10.8946 35.5196 11 35.2652 11 35V20H12V41H8V20ZM8 43H12V43.8187L11.9325 44H8.0675L8 43.8187V43Z" fill="#FFD73F"/>
<path d="M57 4C55.5826 4.00195 54.2115 4.50481 53.1289 5.41973C52.0463 6.33465 51.3219 7.60275 51.0838 9H26V3C26 2.73478 25.8946 2.48043 25.7071 2.29289C25.5196 2.10536 25.2652 2 25 2H17C16.7348 2 16.4804 2.10536 16.2929 2.29289C16.1054 2.48043 16 2.73478 16 3V9H2C1.73478 9 1.48043 9.10536 1.29289 9.29289C1.10536 9.48043 1 9.73478 1 10V55C1 55.2652 1.10536 55.5196 1.29289 55.7071C1.48043 55.8946 1.73478 56 2 56H16V61C16 61.2652 16.1054 61.5196 16.2929 61.7071C16.4804 61.8946 16.7348 62 17 62H25C25.2652 62 25.5196 61.8946 25.7071 61.7071C25.8946 61.5196 26 61.2652 26 61V56H57C58.5908 55.9983 60.1159 55.3656 61.2408 54.2408C62.3656 53.1159 62.9983 51.5908 63 50V10C62.9983 8.40922 62.3656 6.88408 61.2408 5.75922C60.1159 4.63437 58.5908 4.00169 57 4ZM16 54H3V11H16V54ZM24 6H21C20.7348 6 20.4804 6.10536 20.2929 6.29289C20.1054 6.48043 20 6.73478 20 7C20 7.26522 20.1054 7.51957 20.2929 7.70711C20.4804 7.89464 20.7348 8 21 8H24V11H21C20.7348 11 20.4804 11.1054 20.2929 11.2929C20.1054 11.4804 20 11.7348 20 12C20 12.2652 20.1054 12.5196 20.2929 12.7071C20.4804 12.8946 20.7348 13 21 13H24V16H21C20.7348 16 20.4804 16.1054 20.2929 16.2929C20.1054 16.4804 20 16.7348 20 17C20 17.2652 20.1054 17.5196 20.2929 17.7071C20.4804 17.8946 20.7348 18 21 18H24V21H21C20.7348 21 20.4804 21.1054 20.2929 21.2929C20.1054 21.4804 20 21.7348 20 22C20 22.2652 20.1054 22.5196 20.2929 22.7071C20.4804 22.8946 20.7348 23 21 23H24V26H21C20.7348 26 20.4804 26.1054 20.2929 26.2929C20.1054 26.4804 20 26.7348 20 27C20 27.2652 20.1054 27.5196 20.2929 27.7071C20.4804 27.8946 20.7348 28 21 28H24V31H21C20.7348 31 20.4804 31.1054 20.2929 31.2929C20.1054 31.4804 20 31.7348 20 32C20 32.2652 20.1054 32.5196 20.2929 32.7071C20.4804 32.8946 20.7348 33 21 33H24V36H21C20.7348 36 20.4804 36.1054 20.2929 36.2929C20.1054 36.4804 20 36.7348 20 37C20 37.2652 20.1054 37.5196 20.2929 37.7071C20.4804 37.8946 20.7348 38 21 38H24V41H21C20.7348 41 20.4804 41.1054 20.2929 41.2929C20.1054 41.4804 20 41.7348 20 42C20 42.2652 20.1054 42.5196 20.2929 42.7071C20.4804 42.8946 20.7348 43 21 43H24V46H21C20.7348 46 20.4804 46.1054 20.2929 46.2929C20.1054 46.4804 20 46.7348 20 47C20 47.2652 20.1054 47.5196 20.2929 47.7071C20.4804 47.8946 20.7348 48 21 48H24V51H21C20.7348 51 20.4804 51.1054 20.2929 51.2929C20.1054 51.4804 20 51.7348 20 52C20 52.2652 20.1054 52.5196 20.2929 52.7071C20.4804 52.8946 20.7348 53 21 53H24V56H21C20.7348 56 20.4804 56.1054 20.2929 56.2929C20.1054 56.4804 20 56.7348 20 57C20 57.2652 20.1054 57.5196 20.2929 57.7071C20.4804 57.8946 20.7348 58 21 58H24V60H18V4H24V6ZM57 54H26V11H51V50C51 50.2652 51.1054 50.5196 51.2929 50.7071C51.4804 50.8946 51.7348 51 52 51C52.2652 51 52.5196 50.8946 52.7071 50.7071C52.8946 50.5196 53 50.2652 53 50C53 49.2089 53.2346 48.4355 53.6741 47.7777C54.1136 47.1199 54.7384 46.6072 55.4693 46.3045C56.2002 46.0017 57.0044 45.9225 57.7804 46.0769C58.5563 46.2312 59.269 46.6122 59.8284 47.1716C60.3878 47.731 60.7688 48.4437 60.9231 49.2196C61.0775 49.9956 60.9983 50.7998 60.6955 51.5307C60.3928 52.2616 59.8801 52.8864 59.2223 53.3259C58.5645 53.7654 57.7911 54 57 54ZM61 45.5325C59.9013 44.546 58.4768 44.0002 57.0002 44C55.5236 43.9998 54.099 44.5451 53 45.5312V10C53 8.93913 53.4214 7.92172 54.1716 7.17157C54.9217 6.42143 55.9391 6 57 6C58.0609 6 59.0783 6.42143 59.8284 7.17157C60.5786 7.92172 61 8.93913 61 10V45.5325Z" fill="#FFD73F"/>
<path d="M10 37C9.73478 37 9.48043 37.1054 9.29289 37.2929C9.10536 37.4804 9 37.7348 9 38V39C9 39.2652 9.10536 39.5196 9.29289 39.7071C9.48043 39.8946 9.73478 40 10 40C10.2652 40 10.5196 39.8946 10.7071 39.7071C10.8946 39.5196 11 39.2652 11 39V38C11 37.7348 10.8946 37.4804 10.7071 37.2929C10.5196 37.1054 10.2652 37 10 37Z" fill="#FFD73F"/>
</svg>
