<svg width="16" height="16" viewBox="0 0 16 16" fill="none" xmlns="http://www.w3.org/2000/svg">
<path d="M8.00017 1.96362C3.58189 1.96362 0 5.57951 0 10.04C0 12.4586 1.04376 14.0359 1.04376 14.0359L14.9532 14.0366C14.9532 14.0366 16 12.3127 16 10.0398C16 5.57951 12.4181 1.96362 8.00017 1.96362ZM14.3665 13.0527L1.65918 13.0472C1.65918 13.0472 0.982062 11.7649 0.982062 10.0145C0.982062 6.10507 4.13613 2.93562 8.02699 2.93562C11.9177 2.93562 15.0719 6.1049 15.0719 10.0145C15.0721 11.7846 14.3665 13.0527 14.3665 13.0527Z" fill="#F05540"/>
<path d="M10.261 4.1079L10.1606 4.10773L8.02662 8.28925L5.81589 4.07202L2.78907 11.6906H2.00684V12.3024H6.29217V11.6906H5.44187L6.29217 9.30952L8.02662 12.3024L9.69317 9.30952L10.5433 11.6906H9.69317V12.3024H13.9443V11.6906H13.2078L10.261 4.1079Z" fill="#F05540"/>
</svg>
