<svg width="30" height="30" viewBox="0 0 30 30" fill="none" xmlns="http://www.w3.org/2000/svg">
<g clip-path="url(#clip0)">
<path d="M28.4999 19.9999H23.6559L27.8487 17.5788C28.1944 17.3811 28.447 17.054 28.5509 16.6695C28.6551 16.2849 28.6018 15.875 28.4029 15.5301L24.9019 9.46793C24.7025 9.12323 24.3741 8.87192 23.9893 8.76961C23.6046 8.66524 23.194 8.72017 22.8502 8.92181L18.6564 11.3436L21.0768 7.15187C21.2778 6.80717 21.3329 6.39656 21.2304 6.01089C21.1279 5.62523 20.8756 5.29633 20.53 5.0972L14.4688 1.59622C14.1238 1.39801 13.7144 1.34514 13.3305 1.44905C12.9467 1.55296 12.6199 1.80496 12.4219 2.14989L10.0001 6.34506V1.50009C9.99916 0.671997 9.32808 0.000915527 8.49998 0H1.50009C0.671997 0.000915527 0.000915527 0.671997 0 1.50009V28.4999C0.000915527 29.328 0.671997 29.9991 1.50009 30H28.4999C29.328 29.9991 29.9991 29.328 30 28.4999V21.5C29.9991 20.6719 29.328 20.0008 28.4999 19.9999ZM1.50009 19.9999C1.32935 20.0018 1.1602 20.0329 0.999985 20.0922V15H5.0029L2.11624 19.9999H1.50009ZM21.6559 19.9999H14.8185L12.5278 16.0373L17.7232 13.0373L21.7213 19.9624L21.6559 19.9999ZM16.9238 12.3441L11.0044 15.7624L7.03926 13.4729L10.0381 8.27888L16.9627 12.2768L16.9238 12.3441ZM9.00009 8.07678L5.92758 13.3987C5.92598 13.4013 5.92346 13.4024 5.92186 13.4052L5.91911 13.4132L5.58037 14H0.999985V8.00011H9.00009V8.07678ZM6.53938 14.339L10.0044 16.3399L3.666 19.9999H3.27095L6.53938 14.339ZM11.2479 16.7766L11.2543 16.7729L11.662 16.5374L13.6636 19.9999H5.66597L11.2479 16.7766ZM9.00009 20.9999H15V29H9.00009V20.9999ZM16 20.9999H21.9999V29H16V20.9999ZM23.3521 9.78676C23.4661 9.71947 23.6028 9.70093 23.7307 9.73526C23.8598 9.77005 23.9699 9.85428 24.0372 9.96986L27.5361 16.0288C27.6027 16.144 27.6205 16.2808 27.5855 16.4092C27.5505 16.5374 27.4658 16.6466 27.35 16.7118L22.5872 19.4618L18.5893 12.537L23.3521 9.78676ZM13.2889 2.64839C13.3543 2.53349 13.4631 2.44926 13.591 2.41447C13.7187 2.37968 13.8551 2.39708 13.97 2.463L20.0281 5.96191C20.1446 6.02898 20.2297 6.13953 20.2647 6.2693C20.2991 6.39816 20.2801 6.53526 20.2119 6.64993L17.463 11.4107L10.5382 7.4128L13.2889 2.64839ZM1.50009 0.999985H8.49998C8.77602 1.00044 8.99963 1.22406 9.00009 1.50009V6.99989H0.999985V1.50009C1.00044 1.22406 1.22406 1.00044 1.50009 0.999985ZM0.999985 28.4999V21.5C1.00044 21.224 1.22406 21.0004 1.50009 20.9999H8.00011V29H1.50009C1.22406 28.9996 1.00044 28.7759 0.999985 28.4999ZM29 28.4999C28.9996 28.7759 28.7759 28.9996 28.4999 29H23.0001V20.9999H28.4999C28.7759 21.0004 28.9996 21.224 29 21.5V28.4999Z" fill="#FFD73F"/>
<path d="M4.99979 23C3.8952 23 2.99982 23.8954 2.99982 25C2.99982 26.1046 3.8952 26.9999 4.99979 26.9999C6.10437 26.9999 6.99976 26.1046 6.99976 25C6.99861 23.8958 6.10391 23.0011 4.99979 23ZM4.99979 26C4.44749 26 3.9998 25.5523 3.9998 25C3.9998 24.4477 4.44749 24 4.99979 24C5.55208 24 5.99977 24.4477 5.99977 25C5.99931 25.552 5.55185 25.9993 4.99979 26Z" fill="#FFD73F"/>
</g>
<defs>
<clipPath id="clip0">
<rect width="30" height="30" fill="white"/>
</clipPath>
</defs>
</svg>
