<svg width="18" height="18" viewBox="0 0 18 18" fill="none" xmlns="http://www.w3.org/2000/svg">
<g clip-path="url(#clip0)">
<path d="M16.4744 1.88567C14.5016 -0.0446168 11.3477 -0.0441969 9.3754 1.88663L1.10337 10.1587C-0.392373 11.6897 -0.363788 14.1433 1.16722 15.6391C2.67305 17.1103 5.07795 17.1103 6.58378 15.6391L14.0742 8.14864C15.048 7.17487 15.048 5.59604 14.0742 4.62227C13.1005 3.6485 11.5216 3.6485 10.5479 4.62227L3.38306 11.787C3.13316 12.0458 3.14034 12.4581 3.39909 12.708C3.65151 12.9518 4.05167 12.9518 4.30409 12.708L11.4688 5.54326C11.944 5.0881 12.6981 5.10433 13.1532 5.57944C13.5946 6.0402 13.5946 6.76689 13.1532 7.22765L5.66279 14.7181C4.65089 15.7156 3.02191 15.7039 2.0244 14.692C1.03697 13.6903 1.03697 12.0814 2.0244 11.0797L10.2964 2.80762C11.7699 1.33362 14.1592 1.3332 15.6332 2.80662C17.1072 4.28005 17.1076 6.66942 15.6342 8.14341L7.36214 16.4155C7.08892 16.6495 7.05709 17.0607 7.29108 17.3339C7.52507 17.6071 7.93625 17.6389 8.20947 17.4049C8.23497 17.3831 8.25871 17.3594 8.28054 17.3339L16.5526 9.06181C18.5126 7.05858 18.4776 3.84569 16.4744 1.88567Z" fill="white"/>
</g>
<defs>
<clipPath id="clip0">
<rect width="18" height="18" fill="white"/>
</clipPath>
</defs>
</svg>
