<svg width="20" height="16" viewBox="0 0 20 16" fill="none" xmlns="http://www.w3.org/2000/svg">
<path fill-rule="evenodd" clip-rule="evenodd" d="M1.47332 4.12723C1.47588 4.13646 1.42858 4.15617 1.36296 4.1732C1.29734 4.19023 1.25005 4.20994 1.2526 4.21917C1.25507 4.22807 1.22755 4.24301 1.19146 4.25238C1.15537 4.26174 1.12785 4.27668 1.13032 4.28558C1.13278 4.29448 1.11264 4.3075 1.08558 4.31453C1.05851 4.32155 1.03837 4.33458 1.04084 4.34347C1.0433 4.35237 1.03055 4.36348 1.0125 4.36816C0.994457 4.37285 0.981706 4.38396 0.984168 4.39285C0.986629 4.40175 0.973879 4.41286 0.955833 4.41754C0.937788 4.42223 0.925037 4.43334 0.927499 4.44223C0.929961 4.45113 0.91721 4.46224 0.899165 4.46692C0.881119 4.4716 0.868369 4.48271 0.87083 4.49161C0.873292 4.50051 0.862166 4.5112 0.846121 4.51536C0.830061 4.51953 0.810318 4.54025 0.802232 4.56142C0.794146 4.58259 0.777619 4.60248 0.765479 4.60563C0.753356 4.60878 0.717558 4.65708 0.685917 4.71297C0.654276 4.76885 0.616853 4.81757 0.602729 4.82124C0.588604 4.8249 0.580206 4.83929 0.584059 4.85321C0.587913 4.86714 0.563958 4.92355 0.530835 4.97859C0.497711 5.03363 0.473757 5.09004 0.477611 5.10397C0.481464 5.11789 0.477233 5.1312 0.46821 5.13354C0.459187 5.13588 0.45539 5.15075 0.459767 5.16657C0.464149 5.18241 0.455869 5.20968 0.441373 5.22719C0.426877 5.2447 0.418597 5.27197 0.422979 5.2878C0.427356 5.30362 0.423559 5.3185 0.414536 5.32084C0.405514 5.32318 0.404173 5.34693 0.411558 5.37362C0.418943 5.40031 0.417603 5.42406 0.40858 5.42641C0.399557 5.42875 0.396203 5.44522 0.401126 5.46301C0.406049 5.48081 0.402695 5.49728 0.393673 5.49962C0.38465 5.50196 0.385324 5.533 0.39517 5.56858C0.405016 5.60417 0.40569 5.6352 0.396668 5.63754C0.387645 5.63988 0.390333 5.6782 0.402641 5.72268C0.414949 5.76716 0.417637 5.80547 0.408614 5.80781C0.397721 5.81064 0.798001 7.27868 1.60063 10.1795C2.40326 13.0804 2.81456 14.5456 2.82545 14.5427C2.83447 14.5404 2.85193 14.5749 2.86424 14.6194C2.87654 14.6638 2.894 14.6983 2.90302 14.696C2.91204 14.6936 2.92748 14.7208 2.93733 14.7564C2.94717 14.792 2.96261 14.8192 2.97163 14.8169C2.98066 14.8145 2.99207 14.8272 2.99699 14.845C3.00191 14.8628 3.01332 14.8754 3.02235 14.8731C3.03137 14.8707 3.04479 14.8906 3.05218 14.9173C3.05956 14.944 3.07299 14.964 3.08201 14.9616C3.09103 14.9593 3.102 14.9703 3.10638 14.9861C3.11076 15.002 3.13201 15.0216 3.1536 15.0297C3.1752 15.0379 3.19645 15.0575 3.20083 15.0733C3.20521 15.0891 3.21617 15.1002 3.2252 15.0978C3.23422 15.0955 3.24475 15.105 3.24861 15.1189C3.25246 15.1328 3.30233 15.1701 3.35943 15.2017C3.41653 15.2333 3.4664 15.2706 3.47026 15.2845C3.47411 15.2984 3.48881 15.3068 3.50293 15.3032C3.51706 15.2995 3.57462 15.3236 3.63088 15.3566C3.68714 15.3897 3.74307 15.4142 3.7552 15.4111C3.76734 15.4079 3.79192 15.4171 3.80985 15.4316C3.82779 15.446 3.85558 15.4544 3.87165 15.4502C3.88769 15.446 3.90284 15.4499 3.9053 15.4588C3.90777 15.4677 3.92455 15.4711 3.94259 15.4665C3.96064 15.4618 3.97741 15.4652 3.97988 15.4741C3.98234 15.483 3.99912 15.4865 4.01716 15.4818C4.03521 15.4771 4.05199 15.4805 4.05445 15.4894C4.05691 15.4983 4.07369 15.5018 4.09173 15.4971C4.10978 15.4924 4.12656 15.4959 4.12902 15.5048C4.13148 15.5137 4.15564 15.5152 4.18271 15.5082C4.20978 15.5012 4.23394 15.5027 4.2364 15.5116C4.23886 15.5205 4.2704 15.5201 4.3065 15.5107C4.34259 15.5014 4.37413 15.501 4.37659 15.5099C4.37915 15.5191 4.43028 15.5133 4.4959 15.4963C4.56152 15.4792 4.61266 15.4734 4.61521 15.4826C4.61819 15.4934 6.9492 14.8943 11.5754 13.6939C16.2016 12.4934 18.5296 11.8835 18.5266 11.8728C18.5241 11.8636 18.5714 11.8438 18.637 11.8268C18.7026 11.8098 18.7499 11.7901 18.7474 11.7808C18.7449 11.7719 18.7724 11.757 18.8085 11.7476C18.8446 11.7383 18.8721 11.7233 18.8697 11.7144C18.8672 11.7055 18.8873 11.6925 18.9144 11.6855C18.9415 11.6785 18.9616 11.6654 18.9591 11.6565C18.9567 11.6476 18.9694 11.6365 18.9875 11.6318C19.0055 11.6272 19.0183 11.6161 19.0158 11.6072C19.0133 11.5983 19.0261 11.5872 19.0441 11.5825C19.0622 11.5778 19.0749 11.5667 19.0725 11.5578C19.07 11.5489 19.0828 11.5378 19.1008 11.5331C19.1188 11.5284 19.1316 11.5173 19.1291 11.5084C19.1267 11.4995 19.1378 11.4888 19.1538 11.4847C19.1699 11.4805 19.1897 11.4598 19.1977 11.4386C19.2058 11.4174 19.2224 11.3975 19.2347 11.3943C19.247 11.3911 19.2773 11.3521 19.3021 11.3075C19.327 11.2629 19.3558 11.2242 19.3661 11.2215C19.3905 11.2152 19.4206 11.1637 19.4139 11.1396C19.4111 11.1294 19.4306 11.0854 19.4572 11.0419C19.4838 10.9983 19.5029 10.9528 19.4995 10.9407C19.4962 10.9286 19.5053 10.9044 19.5198 10.8869C19.5343 10.8694 19.543 10.8437 19.5392 10.8299C19.5354 10.816 19.5441 10.7903 19.5586 10.7728C19.5741 10.7541 19.5798 10.7224 19.5725 10.696C19.5657 10.6713 19.5675 10.6492 19.5765 10.6468C19.5855 10.6445 19.5889 10.628 19.5839 10.6102C19.579 10.5924 19.5824 10.5759 19.5914 10.5736C19.6004 10.5713 19.6038 10.5548 19.5988 10.537C19.5939 10.5192 19.5973 10.5027 19.6063 10.5004C19.6153 10.498 19.6146 10.467 19.6048 10.4314C19.595 10.3958 19.5943 10.3648 19.6033 10.3625C19.6123 10.3601 19.6096 10.3218 19.5973 10.2773C19.585 10.2329 19.5823 10.1945 19.5914 10.1922C19.6022 10.1894 19.202 8.72133 18.3993 5.82048C17.5967 2.91962 17.1854 1.45444 17.1745 1.45727C17.1655 1.45961 17.148 1.42513 17.1357 1.38065C17.1234 1.33617 17.106 1.30169 17.097 1.30403C17.0879 1.30637 17.0725 1.27917 17.0626 1.24358C17.0528 1.20799 17.0374 1.18079 17.0283 1.18313C17.0193 1.18548 17.0079 1.17283 17.003 1.15504C16.9981 1.13725 16.9866 1.1246 16.9776 1.12694C16.9686 1.12929 16.9552 1.10936 16.9478 1.08267C16.9404 1.05598 16.927 1.03606 16.918 1.0384C16.9089 1.04074 16.898 1.0297 16.8936 1.01388C16.8892 0.998048 16.868 0.97844 16.8464 0.970295C16.8248 0.962151 16.8035 0.942543 16.7991 0.926707C16.7948 0.910887 16.7838 0.899846 16.7748 0.902187C16.7657 0.904528 16.7552 0.895056 16.7514 0.881129C16.7475 0.867202 16.6976 0.829951 16.6405 0.798322C16.5834 0.766694 16.5344 0.732549 16.5316 0.722439C16.525 0.698612 16.4723 0.66861 16.448 0.674906C16.4377 0.677597 16.3927 0.658045 16.3482 0.631458C16.3037 0.60487 16.2572 0.585715 16.245 0.588894C16.2327 0.592074 16.208 0.582876 16.1901 0.568458C16.1722 0.55404 16.1444 0.54565 16.1283 0.549818C16.1123 0.553981 16.0971 0.550112 16.0947 0.541215C16.0922 0.532318 16.0754 0.52887 16.0574 0.533553C16.0393 0.538236 16.0226 0.534788 16.0201 0.525891C16.0176 0.516994 16.0009 0.513546 15.9828 0.518229C15.9648 0.522912 15.948 0.519464 15.9455 0.510567C15.9431 0.50167 15.9263 0.498223 15.9082 0.502905C15.8902 0.507587 15.8734 0.504139 15.8709 0.495243C15.8685 0.486346 15.8443 0.484814 15.8173 0.491838C15.7902 0.498862 15.766 0.497329 15.7636 0.488433C15.7611 0.479536 15.7296 0.47992 15.6935 0.489284C15.6574 0.49865 15.6258 0.499033 15.6234 0.490137C15.6208 0.4809 15.5697 0.486731 15.5041 0.503759C15.4384 0.520786 15.3873 0.526618 15.3848 0.517381C15.3818 0.506624 13.0508 1.10568 8.42456 2.30613C3.79836 3.50657 1.47035 4.11647 1.47332 4.12723ZM15.6205 1.49644C15.6229 1.50534 15.6545 1.50496 15.6906 1.49559C15.7267 1.48623 15.7582 1.48584 15.7607 1.49474C15.7631 1.50364 15.7799 1.50708 15.798 1.5024C15.816 1.49772 15.8328 1.50117 15.8352 1.51006C15.8377 1.51896 15.851 1.52331 15.8648 1.51974C15.8973 1.51129 16.0746 1.61247 16.0835 1.64458C16.0872 1.65815 16.0977 1.66735 16.1067 1.66501C16.1157 1.66267 16.1271 1.67531 16.132 1.6931C16.137 1.7109 16.1484 1.72354 16.1574 1.7212C16.1664 1.71886 16.1799 1.73878 16.1872 1.76547C16.1946 1.79216 16.208 1.81208 16.2171 1.80974C16.2275 1.80704 16.2678 1.9295 16.3275 2.14517L16.4215 2.48487L9.00639 4.40898L1.59134 6.3331L1.49735 5.9934C1.43768 5.77773 1.40935 5.65216 1.41977 5.64946C1.42879 5.64711 1.43013 5.62336 1.42275 5.59667C1.41536 5.56998 1.4167 5.54623 1.42572 5.54389C1.43475 5.54155 1.4381 5.52507 1.43318 5.50728C1.42825 5.48949 1.43161 5.47301 1.44063 5.47067C1.44965 5.46833 1.45396 5.4553 1.45021 5.44173C1.44132 5.40962 1.54259 5.23617 1.57515 5.22772C1.58892 5.22415 1.59817 5.21394 1.59571 5.20505C1.59325 5.19615 1.606 5.18504 1.62405 5.18036C1.64209 5.17567 1.65484 5.16456 1.65238 5.15567C1.64992 5.14677 1.67743 5.13183 1.71353 5.12246C1.74962 5.1131 1.77713 5.09816 1.77467 5.08926C1.77169 5.0785 4.08876 4.47144 8.6931 3.27668C13.2974 2.08191 15.6175 1.48569 15.6205 1.49644ZM16.8422 4.00539L16.9943 4.55537L9.57927 6.47948L2.16422 8.4036L2.01205 7.85362L1.85988 7.30364L9.27493 5.37953L16.69 3.45541L16.8422 4.00539ZM17.9297 7.93611C18.3713 9.53212 18.5911 10.3477 18.5802 10.3506C18.5712 10.3529 18.5698 10.3767 18.5772 10.4033C18.5846 10.43 18.5833 10.4538 18.5742 10.4561C18.5652 10.4585 18.5619 10.4749 18.5668 10.4927C18.5717 10.5105 18.5684 10.527 18.5593 10.5293C18.5503 10.5317 18.546 10.5447 18.5498 10.5583C18.5535 10.5719 18.5326 10.6241 18.5032 10.6744C18.4739 10.7247 18.4386 10.7687 18.4248 10.7723C18.4111 10.7759 18.4018 10.7861 18.4043 10.795C18.4067 10.8039 18.394 10.815 18.3759 10.8197C18.3579 10.8243 18.3451 10.8355 18.3476 10.8443C18.35 10.8532 18.3225 10.8682 18.2864 10.8775C18.2504 10.8869 18.2228 10.9019 18.2253 10.9108C18.2283 10.9215 15.9112 11.5286 11.3069 12.7233C6.70253 13.9181 4.38246 14.5143 4.37948 14.5036C4.37702 14.4947 4.34548 14.4951 4.30939 14.5044C4.2733 14.5138 4.24175 14.5142 4.23929 14.5053C4.23683 14.4964 4.22005 14.4929 4.20201 14.4976C4.18396 14.5023 4.16718 14.4988 4.16472 14.4899C4.16226 14.4811 4.14898 14.4767 4.13521 14.4803C4.10265 14.4887 3.92539 14.3875 3.91651 14.3554C3.91275 14.3419 3.9023 14.3327 3.89327 14.335C3.88425 14.3373 3.87284 14.3247 3.86792 14.3069C3.86299 14.2891 3.85158 14.2765 3.84256 14.2788C3.83354 14.2812 3.82213 14.2685 3.81721 14.2507C3.81228 14.2329 3.80087 14.2203 3.79185 14.2226C3.78099 14.2254 3.54868 13.4073 3.1041 11.8005L2.43276 9.37414L9.84781 7.45003L17.2629 5.52591L17.9297 7.93611ZM13.6673 7.65518C13.6698 7.66418 13.628 7.68271 13.5733 7.6969C13.5187 7.71109 13.4769 7.72962 13.4794 7.73862C13.4819 7.74752 13.4617 7.76054 13.4347 7.76756C13.4076 7.77459 13.3874 7.78761 13.3899 7.79651C13.3924 7.80541 13.3722 7.81843 13.3452 7.82546C13.3181 7.83248 13.298 7.84551 13.3004 7.8544C13.3029 7.8633 13.2901 7.87441 13.2721 7.87909C13.2541 7.88378 13.2413 7.89489 13.2438 7.90378C13.2462 7.91268 13.2335 7.92379 13.2154 7.92847C13.1974 7.93316 13.1846 7.94427 13.1871 7.95316C13.1896 7.96206 13.1768 7.97317 13.1588 7.97785C13.1407 7.98253 13.128 7.99365 13.1304 8.00254C13.1329 8.01144 13.1218 8.02213 13.1057 8.02629C13.0897 8.03046 13.0699 8.05118 13.0618 8.07235C13.0537 8.09352 13.0376 8.11331 13.026 8.11634C13.0143 8.11936 12.9485 8.21827 12.8797 8.33613C12.8108 8.454 12.7571 8.55984 12.7603 8.57133C12.7635 8.58281 12.7542 8.60653 12.7397 8.62404C12.7252 8.64155 12.717 8.66882 12.7213 8.68465C12.7257 8.70047 12.7219 8.71534 12.7129 8.71769C12.7039 8.72003 12.7005 8.7365 12.7054 8.75429C12.7104 8.77209 12.707 8.78856 12.698 8.7909C12.689 8.79324 12.6856 8.80972 12.6905 8.82751C12.6955 8.8453 12.6921 8.86178 12.6831 8.86412C12.6741 8.86646 12.6707 8.88293 12.6756 8.90073C12.6806 8.91852 12.6772 8.935 12.6682 8.93734C12.6592 8.93968 12.6578 8.96343 12.6652 8.99012C12.6726 9.01681 12.6712 9.04056 12.6622 9.0429C12.6532 9.04525 12.6539 9.07628 12.6637 9.11187C12.6736 9.14745 12.6742 9.17848 12.6652 9.18083C12.6558 9.18326 12.6622 9.23361 12.6801 9.29831C12.698 9.36302 12.7044 9.41337 12.6951 9.4158C12.6857 9.41823 12.6921 9.46858 12.71 9.53329C12.7279 9.59799 12.7484 9.64469 12.7577 9.64226C12.7671 9.63983 12.7876 9.68653 12.8055 9.75124C12.8234 9.81594 12.8438 9.86264 12.8532 9.86021C12.8622 9.85787 12.8756 9.87779 12.883 9.90448C12.8904 9.93117 12.9038 9.95109 12.9129 9.94875C12.9219 9.94641 12.9353 9.96633 12.9427 9.99302C12.9501 10.0197 12.9635 10.0396 12.9725 10.0373C12.9815 10.0349 12.995 10.0549 13.0024 10.0816C13.0097 10.1083 13.0232 10.1282 13.0322 10.1258C13.0412 10.1235 13.0526 10.1361 13.0575 10.1539C13.0625 10.1717 13.0739 10.1844 13.0829 10.182C13.0919 10.1797 13.1029 10.1907 13.1073 10.2065C13.1116 10.2224 13.1329 10.242 13.1545 10.2501C13.1761 10.2583 13.1965 10.275 13.1999 10.2872C13.2033 10.2995 13.2339 10.3242 13.2678 10.3421C13.3018 10.36 13.3318 10.3828 13.3346 10.3927C13.3411 10.4163 13.6047 10.5667 13.6286 10.5605C13.6387 10.5579 13.6737 10.5722 13.7063 10.5924C13.739 10.6125 13.7775 10.6259 13.792 10.6222C13.8064 10.6184 13.8202 10.6226 13.8227 10.6315C13.8251 10.6404 13.8419 10.6439 13.86 10.6392C13.878 10.6345 13.8948 10.638 13.8972 10.6469C13.8997 10.6558 13.9165 10.6592 13.9345 10.6545C13.9526 10.6498 13.9693 10.6533 13.9718 10.6622C13.9743 10.6711 13.9911 10.6745 14.0091 10.6698C14.0271 10.6652 14.0439 10.6686 14.0464 10.6775C14.0488 10.6864 14.0656 10.6898 14.0837 10.6852C14.1017 10.6805 14.1185 10.6839 14.121 10.6928C14.1234 10.7017 14.1476 10.7033 14.1746 10.6962C14.2017 10.6892 14.2259 10.6907 14.2283 10.6996C14.2308 10.7085 14.2623 10.7082 14.2984 10.6988C14.3345 10.6894 14.3661 10.689 14.3685 10.6979C14.3715 10.7085 14.6628 10.6389 15.2097 10.497C15.7565 10.3551 16.0448 10.2743 16.0418 10.2637C16.0394 10.2548 16.0669 10.2399 16.103 10.2305C16.1391 10.2212 16.1666 10.2062 16.1641 10.1973C16.1617 10.1884 16.1818 10.1754 16.2089 10.1684C16.2359 10.1614 16.2561 10.1483 16.2536 10.1394C16.2511 10.1305 16.2639 10.1194 16.2819 10.1147C16.3 10.1101 16.3127 10.099 16.3103 10.0901C16.3078 10.0812 16.3263 10.0686 16.3514 10.062C16.3782 10.0551 16.403 10.0343 16.4117 10.0117C16.4198 9.99056 16.4395 9.96983 16.4556 9.96567C16.4716 9.9615 16.4827 9.95081 16.4803 9.94192C16.4778 9.93302 16.4876 9.92268 16.502 9.91893C16.5165 9.91519 16.5429 9.88492 16.5608 9.85167C16.5787 9.81842 16.6016 9.78908 16.6116 9.78647C16.6373 9.77982 16.8098 9.4805 16.8027 9.45494C16.7995 9.44341 16.8088 9.41966 16.8233 9.40215C16.8377 9.38464 16.8465 9.35897 16.8426 9.34511C16.8388 9.33125 16.8475 9.30558 16.862 9.28807C16.8765 9.27056 16.8848 9.24329 16.8804 9.22746C16.876 9.21164 16.8798 9.19676 16.8889 9.19442C16.8979 9.19208 16.9012 9.17561 16.8963 9.15781C16.8914 9.14002 16.8947 9.12355 16.9038 9.1212C16.9128 9.11886 16.9141 9.09511 16.9067 9.06842C16.8994 9.04173 16.9007 9.01798 16.9097 9.01564C16.9187 9.01329 16.9221 8.99682 16.9172 8.97903C16.9122 8.96123 16.9156 8.94476 16.9246 8.94242C16.9336 8.94008 16.933 8.90905 16.9231 8.87346C16.9133 8.83787 16.9126 8.80684 16.9216 8.8045C16.9308 8.80213 16.9261 8.7571 16.9112 8.70319C16.8963 8.64927 16.8916 8.60424 16.9007 8.60188C16.9105 8.59935 16.9007 8.5383 16.8769 8.45204C16.853 8.36577 16.8299 8.30819 16.8202 8.31071C16.811 8.31308 16.7918 8.27183 16.7769 8.21791C16.762 8.164 16.7428 8.12275 16.7337 8.12512C16.7246 8.12746 16.7092 8.10026 16.6993 8.06467C16.6895 8.02908 16.6741 8.00188 16.665 8.00422C16.656 8.00656 16.6426 7.98664 16.6352 7.95995C16.6278 7.93326 16.6144 7.91334 16.6054 7.91568C16.5964 7.91802 16.5849 7.90538 16.58 7.88759C16.5751 7.86979 16.5637 7.85715 16.5547 7.85949C16.5456 7.86183 16.5342 7.84919 16.5293 7.8314C16.5244 7.8136 16.513 7.80096 16.5039 7.8033C16.4949 7.80564 16.4835 7.793 16.4786 7.77521C16.4737 7.75741 16.4623 7.74477 16.4532 7.74711C16.4442 7.74946 16.4332 7.73841 16.4289 7.72259C16.4245 7.70676 16.4032 7.68715 16.3816 7.67901C16.36 7.67086 16.3398 7.65481 16.3366 7.64333C16.3291 7.61607 15.8993 7.37074 15.8716 7.37792C15.86 7.38094 15.8358 7.37161 15.8179 7.3572C15.7999 7.34278 15.7721 7.33439 15.7561 7.33856C15.74 7.34272 15.7249 7.33885 15.7224 7.32995C15.72 7.32106 15.7032 7.31761 15.6851 7.32229C15.6671 7.32697 15.6503 7.32353 15.6478 7.31463C15.6454 7.30573 15.6286 7.30228 15.6106 7.30697C15.5925 7.31165 15.5757 7.3082 15.5733 7.2993C15.5708 7.29041 15.554 7.28696 15.536 7.29164C15.5179 7.29633 15.5012 7.29288 15.4987 7.28398C15.4962 7.27508 15.4721 7.27355 15.445 7.28058C15.4179 7.2876 15.3938 7.28607 15.3913 7.27717C15.3889 7.26827 15.3647 7.26674 15.3376 7.27377C15.3106 7.28079 15.2864 7.27926 15.2839 7.27036C15.2815 7.26137 15.2357 7.26554 15.181 7.27973C15.1264 7.29391 15.0806 7.29808 15.0781 7.28909C15.0752 7.27856 14.8276 7.33677 14.3682 7.45596C13.9089 7.57515 13.6644 7.64465 13.6673 7.65518ZM15.281 8.27667C15.2835 8.28556 15.3077 8.2871 15.3347 8.28007C15.3618 8.27305 15.386 8.27458 15.3884 8.28348C15.3909 8.29237 15.4077 8.29582 15.4257 8.29114C15.4438 8.28646 15.4605 8.2899 15.463 8.2988C15.4655 8.3077 15.4787 8.31205 15.4925 8.30848C15.5251 8.30003 15.7023 8.40121 15.7112 8.43332C15.715 8.44689 15.7254 8.45609 15.7344 8.45375C15.7435 8.45141 15.7549 8.46405 15.7598 8.48184C15.7647 8.49963 15.7761 8.51228 15.7852 8.50994C15.7942 8.50759 15.8096 8.53479 15.8195 8.57038C15.8293 8.60597 15.8448 8.63317 15.8538 8.63083C15.8628 8.62849 15.8802 8.66297 15.8926 8.70745C15.9049 8.75193 15.9076 8.79024 15.8985 8.79259C15.8895 8.79493 15.8902 8.82596 15.9 8.86155C15.9099 8.89713 15.9105 8.92816 15.9015 8.93051C15.8925 8.93285 15.8887 8.94772 15.8931 8.96354C15.8975 8.97938 15.8892 9.00665 15.8747 9.02416C15.8602 9.04167 15.851 9.06581 15.8544 9.07783C15.8622 9.10599 15.8327 9.1564 15.8042 9.16381C15.792 9.16698 15.7754 9.18688 15.7673 9.20805C15.7592 9.22922 15.7395 9.24995 15.7234 9.25411C15.7074 9.25828 15.6963 9.26897 15.6987 9.27786C15.7012 9.28676 15.6884 9.29787 15.6704 9.30255C15.6523 9.30723 15.6396 9.31834 15.6421 9.32724C15.645 9.33777 15.4005 9.40727 14.9411 9.52646C14.4818 9.64566 14.2341 9.70386 14.2312 9.69333C14.2288 9.68444 14.212 9.68099 14.1939 9.68567C14.1759 9.69035 14.1591 9.68691 14.1567 9.67801C14.1542 9.66911 14.141 9.66474 14.1273 9.6683C14.0839 9.67956 13.8331 9.52529 13.8204 9.47953C13.8142 9.45711 13.8018 9.4407 13.7927 9.44304C13.7837 9.44538 13.7703 9.42546 13.7629 9.39877C13.7555 9.37208 13.7421 9.35215 13.7331 9.3545C13.724 9.35684 13.7066 9.32236 13.6943 9.27787C13.682 9.23339 13.6793 9.19508 13.6883 9.19274C13.6973 9.1904 13.6967 9.15936 13.6868 9.12378C13.677 9.08819 13.6763 9.05716 13.6853 9.05482C13.6943 9.05248 13.6977 9.036 13.6928 9.01821C13.6879 9.00042 13.6912 8.98394 13.7002 8.9816C13.7093 8.97926 13.7136 8.96623 13.7098 8.95266C13.706 8.93907 13.727 8.88683 13.7563 8.83656C13.7857 8.78628 13.821 8.74222 13.8348 8.73865C13.8485 8.73508 13.8578 8.72487 13.8553 8.71598C13.8528 8.70708 13.8656 8.69597 13.8836 8.69129C13.9017 8.6866 13.9144 8.67549 13.912 8.6666C13.9095 8.6577 13.9296 8.64467 13.9567 8.63765C13.9838 8.63063 14.0039 8.6176 14.0015 8.6087C13.9985 8.59819 14.2212 8.53435 14.6368 8.42651C15.0524 8.31867 15.2781 8.26615 15.281 8.27667Z" fill="#F1912C"/>
</svg>
