<svg width="64" height="64" viewBox="0 0 64 64" fill="none" xmlns="http://www.w3.org/2000/svg">
<g clip-path="url(#clip0)">
<path d="M0 0.0484619V63.9477H63.8992L0 0.0484619ZM9.94016 24.0485L39.8992 54.0075H9.94016V24.0485Z" fill="white"/>
<path d="M49.3477 41.9275L57.2973 33.9779L63.9996 40.6677L56.05 48.6173L49.3477 41.9275Z" fill="#F05540"/>
<path d="M46.8535 39.433L54.8031 31.4834L57.3102 33.9653L49.348 41.9275L46.8535 39.433Z" fill="#E7E7E7"/>
<path d="M17.0334 5.22832L15.4082 0.0755615L20.5736 1.68816L17.0334 5.22832Z" fill="#334A5E"/>
<path d="M19.0491 11.6536L16.7183 4.28349L15.3955 0.050415L19.6286 1.37325L26.9861 3.67876L27.0491 3.74175C27.2254 4.48506 27.0743 5.25357 26.5451 5.7827C25.9782 6.34963 25.1089 6.48821 24.3026 6.23624C24.5546 7.04254 24.416 7.91183 23.8491 8.47876C23.2821 9.04569 22.4128 9.18427 21.6065 8.93231C21.8585 9.73861 21.7325 10.6079 21.153 11.1748C20.6239 11.704 19.8176 11.8551 19.0491 11.6536Z" fill="#FFE6A9"/>
<path d="M26.5448 5.78262C25.9779 6.34955 25.1212 6.48813 24.3023 6.23616C24.5542 7.05506 24.4157 7.91175 23.8487 8.47868C23.2818 9.04561 22.4251 9.18419 21.6062 8.93222C21.8582 9.75112 21.7196 10.6078 21.1527 11.1747C20.6109 11.7165 19.8046 11.8677 19.0361 11.6661L46.8409 39.433L54.7905 31.4834L27.0613 3.75427C27.2251 4.49758 27.0613 5.25348 26.5448 5.78262Z" fill="#36F499"/>
<path d="M16.7183 4.28349L15.3955 0.050415L19.6286 1.37325L16.7183 4.28349Z" fill="#8A8A8A"/>
<path d="M7.81132 59.3135H6.3877V63.9497H7.81132V59.3135Z" fill="#ABB2B9"/>
<path d="M14.9168 59.3135H13.4932V63.9497H14.9168V59.3135Z" fill="#ABB2B9"/>
<path d="M22.0096 59.3135H20.5859V63.9497H22.0096V59.3135Z" fill="#ABB2B9"/>
<path d="M29.115 59.3135H27.6914V63.9497H29.115V59.3135Z" fill="#ABB2B9"/>
<path d="M36.2078 59.3135H34.7842V63.9497H36.2078V59.3135Z" fill="#ABB2B9"/>
<path d="M43.3133 59.3135H41.8896V63.9497H43.3133V59.3135Z" fill="#ABB2B9"/>
<path d="M50.406 59.3135H48.9824V63.9497H50.406V59.3135Z" fill="#ABB2B9"/>
<path d="M57.5115 59.3135H56.0879V63.9497H57.5115V59.3135Z" fill="#ABB2B9"/>
<path d="M4.63622 6.43787H0V7.86149H4.63622V6.43787Z" fill="#ABB2B9"/>
<path d="M4.63622 13.5433H0V14.967H4.63622V13.5433Z" fill="#ABB2B9"/>
<path d="M4.63622 20.6364H0V22.06H4.63622V20.6364Z" fill="#ABB2B9"/>
<path d="M4.63622 27.7418H0V29.1655H4.63622V27.7418Z" fill="#ABB2B9"/>
<path d="M4.63622 34.8347H0V36.2583H4.63622V34.8347Z" fill="#ABB2B9"/>
<path d="M4.63622 41.9402H0V43.3638H4.63622V41.9402Z" fill="#ABB2B9"/>
<path d="M4.63622 49.0458H0V50.4694H4.63622V49.0458Z" fill="#ABB2B9"/>
<path d="M4.63622 56.1387H0V57.5623H4.63622V56.1387Z" fill="#ABB2B9"/>
</g>
<defs>
<clipPath id="clip0">
<rect width="64" height="64" fill="white"/>
</clipPath>
</defs>
</svg>
