<svg width="64" height="64" viewBox="0 0 64 64" fill="none" xmlns="http://www.w3.org/2000/svg">
<g clip-path="url(#clip0)">
<path d="M13.1659 41.8464L21.9434 50.6239L46.105 26.4622L37.3276 17.6847L13.1659 41.8464Z" fill="#E8E8E8"/>
<path d="M63.1846 9.97471L55.8432 17.3161L46.4997 7.97253L53.8411 0.631185C49.0358 -0.837034 43.5633 0.230751 39.6923 4.10158C34.2197 9.57415 34.2197 18.5172 39.6923 24.1233C45.1649 29.5959 54.108 29.5959 59.7141 24.1233C63.4515 20.2525 64.6528 14.7799 63.1846 9.97471Z" fill="white"/>
<path d="M21.2721 42.5434C16.4669 37.7381 8.59175 37.7381 3.78653 42.5434C-1.01869 47.3486 -1.01869 55.2238 3.78653 60.029C8.59175 64.8342 16.4669 64.8342 21.2721 60.029C26.0774 55.2238 26.0774 47.3486 21.2721 42.5434ZM14.1977 57.6265L7.92427 55.8912L6.18902 49.6178L10.7273 45.0795L17.0008 46.8148L18.736 53.0882L14.1977 57.6265Z" fill="white"/>
<path d="M6.05539 3.56775L3.38574 6.23727L7.2567 12.1103L9.65931 13.8455L35.5541 39.7403L39.5584 35.6025L13.6637 9.84119L11.9284 7.43858L6.05539 3.56775Z" fill="white"/>
<path d="M61.7159 61.8977C58.9129 64.7008 54.3746 64.7008 51.7051 61.8977L34.0859 44.4121L44.0968 34.4012L61.7159 52.0204C64.519 54.6899 64.519 59.0947 61.7159 61.8977Z" fill="#36F499"/>
<path d="M46.7655 35.0685L34.886 46.948C33.9516 47.8824 32.3499 47.8824 31.4156 46.948C30.4812 46.0137 30.4812 44.4119 31.4156 43.4776L43.2952 31.5981C44.2295 30.6637 45.8313 30.6637 46.7655 31.5981C47.6999 32.5324 47.6999 34.1341 46.7655 35.0685Z" fill="#18C974"/>
<path d="M59.6234 54.2536L46.8818 41.5121L45.2774 43.1166L58.0189 55.8581L59.6234 54.2536Z" fill="#18C974"/>
<path d="M55.6087 58.1236L42.8672 45.3821L41.2627 46.9866L54.0042 59.7281L55.6087 58.1236Z" fill="#18C974"/>
</g>
<defs>
<clipPath id="clip0">
<rect width="64" height="64" fill="white"/>
</clipPath>
</defs>
</svg>
