<svg width="149" height="102" viewBox="0 0 149 102" fill="none" xmlns="http://www.w3.org/2000/svg">
<path d="M101.583 51.4583C101.583 52.8949 101.012 54.2727 99.9967 55.2885C98.9808 56.3043 97.6031 56.875 96.1665 56.875H52.8332C51.3966 56.875 50.0188 56.3043 49.003 55.2885C47.9872 54.2727 47.4165 52.8949 47.4165 51.4583V21.6667C47.4165 18.6875 49.854 16.25 52.8332 16.25H60.9582L66.3748 8.125H82.6248L88.0415 16.25H96.1665C97.6031 16.25 98.9808 16.8207 99.9967 17.8365C101.012 18.8523 101.583 20.2301 101.583 21.6667V51.4583Z" stroke="white" stroke-width="4.625" stroke-linecap="round" stroke-linejoin="round"/>
<path d="M74.4998 46.0417C80.4829 46.0417 85.3332 41.1914 85.3332 35.2083C85.3332 29.2252 80.4829 24.375 74.4998 24.375C68.5168 24.375 63.6665 29.2252 63.6665 35.2083C63.6665 41.1914 68.5168 46.0417 74.4998 46.0417Z" stroke="white" stroke-width="4.625" stroke-linecap="round" stroke-linejoin="round"/>
<path d="M1.45316 83.4H10.7232V96H8.65316V85.38H3.52316V96H1.45316V83.4ZM20.8861 94.866C19.9741 95.778 18.8521 96.234 17.5201 96.234C16.1881 96.234 15.0661 95.778 14.1541 94.866C13.2301 93.942 12.7681 92.82 12.7681 91.5C12.7681 90.18 13.2301 89.058 14.1541 88.134C15.0661 87.222 16.1881 86.766 17.5201 86.766C18.8521 86.766 19.9741 87.222 20.8861 88.134C21.8101 89.058 22.2721 90.18 22.2721 91.5C22.2721 92.82 21.8101 93.942 20.8861 94.866ZM14.7121 91.5C14.7121 92.316 14.9821 92.994 15.5221 93.534C16.0621 94.074 16.7281 94.344 17.5201 94.344C18.3121 94.344 18.9781 94.074 19.5181 93.534C20.0581 92.994 20.3281 92.316 20.3281 91.5C20.3281 90.684 20.0581 90.006 19.5181 89.466C18.9781 88.926 18.3121 88.656 17.5201 88.656C16.7281 88.656 16.0621 88.926 15.5221 89.466C14.9821 90.006 14.7121 90.684 14.7121 91.5ZM28.4279 96.234C27.0719 96.234 25.9379 95.778 25.0259 94.866C24.1259 93.942 23.6759 92.82 23.6759 91.5C23.6759 90.156 24.1259 89.034 25.0259 88.134C25.9379 87.222 27.0719 86.766 28.4279 86.766C29.3039 86.766 30.1019 86.976 30.8219 87.396C31.5419 87.816 32.0819 88.38 32.4419 89.088L30.7679 90.06C30.5639 89.628 30.2519 89.292 29.8319 89.052C29.4239 88.8 28.9499 88.674 28.4099 88.674C27.6179 88.674 26.9519 88.944 26.4119 89.484C25.8839 90.036 25.6199 90.708 25.6199 91.5C25.6199 92.292 25.8839 92.964 26.4119 93.516C26.9519 94.056 27.6179 94.326 28.4099 94.326C28.9379 94.326 29.4119 94.206 29.8319 93.966C30.2639 93.714 30.5879 93.372 30.8039 92.94L32.4779 93.894C32.0939 94.614 31.5359 95.184 30.8039 95.604C30.0839 96.024 29.2919 96.234 28.4279 96.234ZM41.2858 87H43.2658V96H41.3758V90.078L38.7838 94.2H38.5498L35.9758 90.096V96H34.0858V87H36.0658L38.6758 91.158L41.2858 87ZM53.2755 94.866C52.3635 95.778 51.2415 96.234 49.9095 96.234C48.5775 96.234 47.4555 95.778 46.5435 94.866C45.6195 93.942 45.1575 92.82 45.1575 91.5C45.1575 90.18 45.6195 89.058 46.5435 88.134C47.4555 87.222 48.5775 86.766 49.9095 86.766C51.2415 86.766 52.3635 87.222 53.2755 88.134C54.1995 89.058 54.6615 90.18 54.6615 91.5C54.6615 92.82 54.1995 93.942 53.2755 94.866ZM47.1015 91.5C47.1015 92.316 47.3715 92.994 47.9115 93.534C48.4515 94.074 49.1175 94.344 49.9095 94.344C50.7015 94.344 51.3675 94.074 51.9075 93.534C52.4475 92.994 52.7175 92.316 52.7175 91.5C52.7175 90.684 52.4475 90.006 51.9075 89.466C51.3675 88.926 50.7015 88.656 49.9095 88.656C49.1175 88.656 48.4515 88.926 47.9115 89.466C47.3715 90.006 47.1015 90.684 47.1015 91.5ZM55.2638 87H63.0938V88.872H60.1598V96H58.2158V88.872H55.2638V87ZM69.6532 86.766C70.8772 86.766 71.9332 87.228 72.8212 88.152C73.6972 89.064 74.1352 90.18 74.1352 91.5C74.1352 92.832 73.6972 93.954 72.8212 94.866C71.9452 95.778 70.8892 96.234 69.6532 96.234C68.2972 96.234 67.2472 95.73 66.5032 94.722V99.6H64.5592V87H66.5032V88.296C67.2352 87.276 68.2852 86.766 69.6532 86.766ZM67.3132 93.57C67.8532 94.11 68.5312 94.38 69.3472 94.38C70.1632 94.38 70.8412 94.11 71.3812 93.57C71.9212 93.018 72.1912 92.328 72.1912 91.5C72.1912 90.672 71.9212 89.988 71.3812 89.448C70.8412 88.896 70.1632 88.62 69.3472 88.62C68.5312 88.62 67.8532 88.896 67.3132 89.448C66.7732 89.988 66.5032 90.672 66.5032 91.5C66.5032 92.316 66.7732 93.006 67.3132 93.57ZM84.7411 92.328H77.5771C77.7211 93 78.0451 93.522 78.5491 93.894C79.0651 94.266 79.7011 94.452 80.4571 94.452C81.4771 94.452 82.2511 94.08 82.7791 93.336L84.3811 94.272C83.5051 95.58 82.1911 96.234 80.4391 96.234C78.9871 96.234 77.8051 95.79 76.8931 94.902C75.9931 94.002 75.5431 92.868 75.5431 91.5C75.5431 90.168 75.9871 89.046 76.8751 88.134C77.7511 87.222 78.8911 86.766 80.2951 86.766C81.6031 86.766 82.6831 87.228 83.5351 88.152C84.3871 89.076 84.8131 90.198 84.8131 91.518C84.8131 91.758 84.7891 92.028 84.7411 92.328ZM77.5591 90.744H82.8511C82.7191 90.036 82.4191 89.49 81.9511 89.106C81.4951 88.722 80.9371 88.53 80.2771 88.53C79.5571 88.53 78.9571 88.728 78.4771 89.124C77.9971 89.52 77.6911 90.06 77.5591 90.744ZM85.3681 87H93.1981V88.872H90.2641V96H88.3201V88.872H85.3681V87ZM96.6075 90.06H98.5875C99.5595 90.06 100.345 90.336 100.945 90.888C101.557 91.428 101.863 92.142 101.863 93.03C101.863 93.906 101.557 94.62 100.945 95.172C100.345 95.724 99.5595 96 98.5875 96H94.6635V87H96.6075V90.06ZM96.6075 94.254H98.6055C98.9895 94.254 99.3075 94.14 99.5595 93.912C99.8235 93.684 99.9555 93.39 99.9555 93.03C99.9555 92.67 99.8295 92.376 99.5775 92.148C99.3255 91.92 99.0015 91.806 98.6055 91.806H96.6075V94.254ZM114.193 96.162V99.6H112.285V96.162C110.893 95.982 109.789 95.466 108.973 94.614C108.157 93.762 107.749 92.724 107.749 91.5C107.749 90.276 108.157 89.238 108.973 88.386C109.789 87.534 110.893 87.018 112.285 86.838V83.4H114.193V86.838C115.585 87.018 116.689 87.534 117.505 88.386C118.321 89.238 118.729 90.276 118.729 91.5C118.729 92.724 118.321 93.762 117.505 94.614C116.689 95.466 115.585 95.982 114.193 96.162ZM114.193 88.692V94.308C115.021 94.152 115.663 93.828 116.119 93.336C116.575 92.832 116.803 92.22 116.803 91.5C116.803 90.78 116.575 90.174 116.119 89.682C115.663 89.178 115.021 88.848 114.193 88.692ZM112.285 94.308V88.692C111.469 88.848 110.827 89.178 110.359 89.682C109.903 90.174 109.675 90.78 109.675 91.5C109.675 92.22 109.903 92.832 110.359 93.336C110.827 93.828 111.469 94.152 112.285 94.308ZM128.251 94.866C127.339 95.778 126.217 96.234 124.885 96.234C123.553 96.234 122.431 95.778 121.519 94.866C120.595 93.942 120.133 92.82 120.133 91.5C120.133 90.18 120.595 89.058 121.519 88.134C122.431 87.222 123.553 86.766 124.885 86.766C126.217 86.766 127.339 87.222 128.251 88.134C129.175 89.058 129.637 90.18 129.637 91.5C129.637 92.82 129.175 93.942 128.251 94.866ZM122.077 91.5C122.077 92.316 122.347 92.994 122.887 93.534C123.427 94.074 124.093 94.344 124.885 94.344C125.677 94.344 126.343 94.074 126.883 93.534C127.423 92.994 127.693 92.316 127.693 91.5C127.693 90.684 127.423 90.006 126.883 89.466C126.343 88.926 125.677 88.656 124.885 88.656C124.093 88.656 123.427 88.926 122.887 89.466C122.347 90.006 122.077 90.684 122.077 91.5ZM130.239 87H138.069V88.872H135.135V96H133.191V88.872H130.239V87ZM146.797 94.866C145.885 95.778 144.763 96.234 143.431 96.234C142.099 96.234 140.977 95.778 140.065 94.866C139.141 93.942 138.679 92.82 138.679 91.5C138.679 90.18 139.141 89.058 140.065 88.134C140.977 87.222 142.099 86.766 143.431 86.766C144.763 86.766 145.885 87.222 146.797 88.134C147.721 89.058 148.183 90.18 148.183 91.5C148.183 92.82 147.721 93.942 146.797 94.866ZM140.623 91.5C140.623 92.316 140.893 92.994 141.433 93.534C141.973 94.074 142.639 94.344 143.431 94.344C144.223 94.344 144.889 94.074 145.429 93.534C145.969 92.994 146.239 92.316 146.239 91.5C146.239 90.684 145.969 90.006 145.429 89.466C144.889 88.926 144.223 88.656 143.431 88.656C142.639 88.656 141.973 88.926 141.433 89.466C140.893 90.006 140.623 90.684 140.623 91.5Z" fill="white"/>
</svg>
