<svg width="18" height="18" viewBox="0 0 18 18" fill="none" xmlns="http://www.w3.org/2000/svg">
<g clip-path="url(#clip0)">
<path d="M17.3666 10.4199C17.9036 5.89964 17.1086 3.04589 15.6746 1.75514L15.6753 1.75439C13.3608 -0.449859 5.5443 -0.77611 2.7753 1.85339C1.5318 3.13964 1.0938 5.02739 1.0458 7.36439C0.997804 9.70214 0.940804 14.0814 5.02155 15.2694H5.0253L5.02155 17.0836C5.02155 17.0836 4.9938 17.8186 5.4633 17.9664C6.0003 18.1404 6.2433 17.7991 7.91355 15.8041C10.7066 16.0464 12.8516 15.4914 13.0953 15.4104C13.6593 15.2214 16.8506 14.7991 17.3666 10.4199ZM8.1888 14.5276C8.1888 14.5276 6.42105 16.7319 5.8713 17.3041C5.6913 17.4901 5.49405 17.4729 5.49705 17.1039C5.49705 16.8616 5.51055 14.0919 5.51055 14.0919C2.0508 13.1004 2.2548 9.37139 2.2923 7.42064C2.3298 5.46914 2.6868 3.87089 3.7398 2.79464C6.16905 0.516891 13.0218 1.02614 14.7678 2.66714C16.9023 4.55939 16.1426 9.90539 16.1471 10.0876C15.7083 13.7431 13.1223 13.9749 12.6468 14.1331C12.4436 14.2006 10.5573 14.6859 8.1888 14.5276Z" fill="#8E24AA"/>
<path d="M9.16676 3.22266C8.87801 3.22266 8.87801 3.67266 9.16676 3.67641C11.407 3.69366 13.252 5.25516 13.2723 8.11941C13.2723 8.42166 13.7148 8.41791 13.711 8.11566H13.7103C13.6863 5.02941 11.6718 3.23991 9.16676 3.22266Z" fill="#8E24AA"/>
<path d="M12.1137 7.64478C12.107 7.94328 12.5487 7.95753 12.5525 7.65528C12.5892 5.95353 11.54 4.55178 9.56819 4.40403C9.27944 4.38303 9.24944 4.83678 9.53744 4.85778C11.2475 4.98753 12.1482 6.15453 12.1137 7.64478Z" fill="#8E24AA"/>
<path d="M11.6407 9.58058C11.2702 9.36608 10.8929 9.49958 10.7369 9.71033L10.4107 10.1326C10.2449 10.3471 9.93518 10.3186 9.93518 10.3186C7.67467 9.72083 7.07017 7.35533 7.07017 7.35533C7.07017 7.35533 7.04242 7.03508 7.24942 6.86333L7.65742 6.52583C7.86142 6.36383 7.99042 5.97383 7.78267 5.59058C7.22767 4.58783 6.85492 4.24208 6.66517 3.97658C6.46567 3.72683 6.16567 3.67058 5.85367 3.83933H5.84692C5.19817 4.21883 4.48792 4.92908 4.71517 5.66033C5.10292 6.43133 5.81542 8.88908 8.08642 10.7461C9.15367 11.6243 10.8427 12.5243 11.5597 12.7321L11.5664 12.7426C12.2729 12.9781 12.9599 12.2401 13.3267 11.5718V11.5666C13.4894 11.2433 13.4354 10.9373 13.1977 10.7371C12.7762 10.3261 12.1402 9.87233 11.6407 9.58058Z" fill="#8E24AA"/>
<path d="M9.877 6.07826C10.5977 6.12026 10.9472 6.49676 10.9847 7.27001C10.9982 7.57226 11.437 7.55126 11.4235 7.24901C11.3755 6.23951 10.849 5.677 9.901 5.6245C9.61226 5.60725 9.58526 6.061 9.877 6.07826Z" fill="#8E24AA"/>
</g>
<defs>
<clipPath id="clip0">
<rect width="18" height="18" fill="white"/>
</clipPath>
</defs>
</svg>
