<svg width="147" height="101" viewBox="0 0 147 101" fill="none" xmlns="http://www.w3.org/2000/svg">
<path d="M39.3678 73.234C37.4718 73.234 35.8998 72.61 34.6518 71.362C33.4038 70.09 32.7798 68.536 32.7798 66.7C32.7798 64.852 33.4038 63.304 34.6518 62.056C35.8878 60.796 37.4598 60.166 39.3678 60.166C40.5078 60.166 41.5578 60.436 42.5178 60.976C43.4898 61.516 44.2458 62.248 44.7858 63.172L42.9858 64.216C42.6498 63.592 42.1578 63.1 41.5098 62.74C40.8738 62.368 40.1598 62.182 39.3678 62.182C38.0358 62.182 36.9438 62.608 36.0918 63.46C35.2638 64.3 34.8498 65.38 34.8498 66.7C34.8498 68.02 35.2638 69.1 36.0918 69.94C36.9438 70.792 38.0358 71.218 39.3678 71.218C40.1598 71.218 40.8798 71.038 41.5278 70.678C42.1758 70.306 42.6618 69.808 42.9858 69.184L44.7858 70.21C44.2698 71.122 43.5198 71.86 42.5358 72.424C41.5878 72.964 40.5318 73.234 39.3678 73.234ZM53.8174 64H55.7974V73H53.9074V67.078L51.3154 71.2H51.0814L48.5074 67.096V73H46.6174V64H48.5974L51.2074 68.158L53.8174 64ZM65.8072 71.866C64.8952 72.778 63.7732 73.234 62.4412 73.234C61.1092 73.234 59.9872 72.778 59.0752 71.866C58.1512 70.942 57.6892 69.82 57.6892 68.5C57.6892 67.18 58.1512 66.058 59.0752 65.134C59.9872 64.222 61.1092 63.766 62.4412 63.766C63.7732 63.766 64.8952 64.222 65.8072 65.134C66.7312 66.058 67.1932 67.18 67.1932 68.5C67.1932 69.82 66.7312 70.942 65.8072 71.866ZM59.6332 68.5C59.6332 69.316 59.9032 69.994 60.4432 70.534C60.9832 71.074 61.6492 71.344 62.4412 71.344C63.2332 71.344 63.8992 71.074 64.4392 70.534C64.9792 69.994 65.2492 69.316 65.2492 68.5C65.2492 67.684 64.9792 67.006 64.4392 66.466C63.8992 65.926 63.2332 65.656 62.4412 65.656C61.6492 65.656 60.9832 65.926 60.4432 66.466C59.9032 67.006 59.6332 67.684 59.6332 68.5ZM67.7954 64H75.6254V65.872H72.6914V73H70.7474V65.872H67.7954V64ZM82.1848 63.766C83.4088 63.766 84.4648 64.228 85.3528 65.152C86.2288 66.064 86.6668 67.18 86.6668 68.5C86.6668 69.832 86.2288 70.954 85.3528 71.866C84.4768 72.778 83.4208 73.234 82.1848 73.234C80.8288 73.234 79.7788 72.73 79.0348 71.722V76.6H77.0908V64H79.0348V65.296C79.7668 64.276 80.8168 63.766 82.1848 63.766ZM79.8448 70.57C80.3848 71.11 81.0628 71.38 81.8788 71.38C82.6948 71.38 83.3728 71.11 83.9128 70.57C84.4528 70.018 84.7228 69.328 84.7228 68.5C84.7228 67.672 84.4528 66.988 83.9128 66.448C83.3728 65.896 82.6948 65.62 81.8788 65.62C81.0628 65.62 80.3848 65.896 79.8448 66.448C79.3048 66.988 79.0348 67.672 79.0348 68.5C79.0348 69.316 79.3048 70.006 79.8448 70.57ZM97.2727 69.328H90.1087C90.2527 70 90.5767 70.522 91.0807 70.894C91.5967 71.266 92.2327 71.452 92.9887 71.452C94.0087 71.452 94.7827 71.08 95.3107 70.336L96.9127 71.272C96.0367 72.58 94.7227 73.234 92.9707 73.234C91.5187 73.234 90.3367 72.79 89.4247 71.902C88.5247 71.002 88.0747 69.868 88.0747 68.5C88.0747 67.168 88.5187 66.046 89.4067 65.134C90.2827 64.222 91.4227 63.766 92.8267 63.766C94.1347 63.766 95.2147 64.228 96.0667 65.152C96.9187 66.076 97.3447 67.198 97.3447 68.518C97.3447 68.758 97.3207 69.028 97.2727 69.328ZM90.0907 67.744H95.3827C95.2507 67.036 94.9507 66.49 94.4827 66.106C94.0267 65.722 93.4687 65.53 92.8087 65.53C92.0887 65.53 91.4887 65.728 91.0087 66.124C90.5287 66.52 90.2227 67.06 90.0907 67.744ZM97.8997 64H105.73V65.872H102.796V73H100.852V65.872H97.8997V64ZM109.139 67.06H111.119C112.091 67.06 112.877 67.336 113.477 67.888C114.089 68.428 114.395 69.142 114.395 70.03C114.395 70.906 114.089 71.62 113.477 72.172C112.877 72.724 112.091 73 111.119 73H107.195V64H109.139V67.06ZM109.139 71.254H111.137C111.521 71.254 111.839 71.14 112.091 70.912C112.355 70.684 112.487 70.39 112.487 70.03C112.487 69.67 112.361 69.376 112.109 69.148C111.857 68.92 111.533 68.806 111.137 68.806H109.139V71.254ZM7.74168 90.374C8.62968 90.794 9.07368 91.484 9.07368 92.444C9.07368 93.212 8.80968 93.83 8.28168 94.298C7.76568 94.766 7.04568 95 6.12168 95H1.51368V86H5.76168C6.67368 86 7.38768 86.228 7.90368 86.684C8.41968 87.14 8.67768 87.74 8.67768 88.484C8.67768 89.336 8.36568 89.966 7.74168 90.374ZM5.61768 87.656H3.36768V89.654H5.61768C6.40968 89.654 6.80568 89.318 6.80568 88.646C6.80568 87.986 6.40968 87.656 5.61768 87.656ZM3.36768 93.308H5.94168C6.75768 93.308 7.16568 92.954 7.16568 92.246C7.16568 91.934 7.05768 91.694 6.84168 91.526C6.62568 91.346 6.32568 91.256 5.94168 91.256H3.36768V93.308ZM12.7123 91.706L17.3203 86H18.8143V95H16.9063V89.276L12.2983 95H10.8043V86H12.7123V91.706ZM26.3139 85.766C27.5379 85.766 28.5939 86.228 29.4819 87.152C30.3579 88.064 30.7959 89.18 30.7959 90.5C30.7959 91.832 30.3579 92.954 29.4819 93.866C28.6059 94.778 27.5499 95.234 26.3139 95.234C24.9579 95.234 23.9079 94.73 23.1639 93.722V98.6H21.2199V86H23.1639V87.296C23.8959 86.276 24.9459 85.766 26.3139 85.766ZM23.9739 92.57C24.5139 93.11 25.1919 93.38 26.0079 93.38C26.8239 93.38 27.5019 93.11 28.0419 92.57C28.5819 92.018 28.8519 91.328 28.8519 90.5C28.8519 89.672 28.5819 88.988 28.0419 88.448C27.5019 87.896 26.8239 87.62 26.0079 87.62C25.1919 87.62 24.5139 87.896 23.9739 88.448C23.4339 88.988 23.1639 89.672 23.1639 90.5C23.1639 91.316 23.4339 92.006 23.9739 92.57ZM31.4023 86H39.2323V87.872H36.2983V95H34.3543V87.872H31.4023V86ZM44.5476 92.552L46.8516 86H48.9216L45.4656 95.288C45.0456 96.428 44.4576 97.28 43.7016 97.844C42.9456 98.408 42.0696 98.66 41.0736 98.6V96.782C42.2256 96.854 43.0236 96.278 43.4676 95.054L43.5216 94.928L39.7416 86H41.8116L44.5476 92.552ZM57.0636 87.278V86H59.0076V95H57.0636V93.704C56.3316 94.724 55.2816 95.234 53.9136 95.234C52.6776 95.234 51.6216 94.778 50.7456 93.866C49.8696 92.954 49.4316 91.832 49.4316 90.5C49.4316 89.168 49.8696 88.046 50.7456 87.134C51.6216 86.222 52.6776 85.766 53.9136 85.766C55.2816 85.766 56.3316 86.27 57.0636 87.278ZM52.1856 92.57C52.7256 93.11 53.4036 93.38 54.2196 93.38C55.0356 93.38 55.7136 93.11 56.2536 92.57C56.7936 92.018 57.0636 91.328 57.0636 90.5C57.0636 89.672 56.7936 88.988 56.2536 88.448C55.7136 87.896 55.0356 87.62 54.2196 87.62C53.4036 87.62 52.7256 87.896 52.1856 88.448C51.6456 88.988 51.3756 89.672 51.3756 90.5C51.3756 91.316 51.6456 92.006 52.1856 92.57ZM62.1255 86H69.0195V95H67.0755V87.872H64.0695V91.22C64.0695 92.624 63.7635 93.632 63.1515 94.244C62.5395 94.856 61.6455 95.108 60.4695 95V93.182C61.0215 93.278 61.4355 93.164 61.7115 92.84C61.9875 92.504 62.1255 91.934 62.1255 91.13V86ZM73.3788 89.06H75.3588C76.3308 89.06 77.1168 89.336 77.7168 89.888C78.3288 90.428 78.6348 91.142 78.6348 92.03C78.6348 92.906 78.3288 93.62 77.7168 94.172C77.1168 94.724 76.3308 95 75.3588 95H71.4348V86H73.3788V89.06ZM73.3788 93.254H75.3768C75.7608 93.254 76.0788 93.14 76.3308 92.912C76.5948 92.684 76.7268 92.39 76.7268 92.03C76.7268 91.67 76.6008 91.376 76.3488 91.148C76.0968 90.92 75.7728 90.806 75.3768 90.806H73.3788V93.254ZM86.4398 89.582V86H88.3838V95H86.4398V91.418H82.3178V95H80.3738V86H82.3178V89.582H86.4398ZM92.7335 89.06H94.7135C95.6855 89.06 96.4715 89.336 97.0715 89.888C97.6835 90.428 97.9895 91.142 97.9895 92.03C97.9895 92.906 97.6835 93.62 97.0715 94.172C96.4715 94.724 95.6855 95 94.7135 95H90.7895V86H92.7335V89.06ZM99.0695 95V86H101.013V95H99.0695ZM92.7335 93.254H94.7315C95.1155 93.254 95.4335 93.14 95.6855 92.912C95.9495 92.684 96.0815 92.39 96.0815 92.03C96.0815 91.67 95.9555 91.376 95.7035 91.148C95.4515 90.92 95.1275 90.806 94.7315 90.806H92.7335V93.254ZM109.936 84.74H104.896V83.048H109.936V84.74ZM105.328 91.706L109.936 86H111.43V95H109.522V89.276L104.914 95H103.42V86H105.328V91.706ZM117.532 86H125.362V87.872H122.428V95H120.484V87.872H117.532V86ZM130.677 92.552L132.981 86H135.051L131.595 95.288C131.175 96.428 130.587 97.28 129.831 97.844C129.075 98.408 128.199 98.66 127.203 98.6V96.782C128.355 96.854 129.153 96.278 129.597 95.054L129.651 94.928L125.871 86H127.941L130.677 92.552ZM141.51 85.766C142.734 85.766 143.79 86.228 144.678 87.152C145.554 88.064 145.992 89.18 145.992 90.5C145.992 91.832 145.554 92.954 144.678 93.866C143.802 94.778 142.746 95.234 141.51 95.234C140.154 95.234 139.104 94.73 138.36 93.722V98.6H136.416V86H138.36V87.296C139.092 86.276 140.142 85.766 141.51 85.766ZM139.17 92.57C139.71 93.11 140.388 93.38 141.204 93.38C142.02 93.38 142.698 93.11 143.238 92.57C143.778 92.018 144.048 91.328 144.048 90.5C144.048 89.672 143.778 88.988 143.238 88.448C142.698 87.896 142.02 87.62 141.204 87.62C140.388 87.62 139.71 87.896 139.17 88.448C138.63 88.988 138.36 89.672 138.36 90.5C138.36 91.316 138.63 92.006 139.17 92.57Z" fill="white"/>
<path fill-rule="evenodd" clip-rule="evenodd" d="M63.2927 0.0623472C63.2927 0.0966381 63.2071 0.124694 63.1024 0.124694C62.9978 0.124694 62.9122 0.152751 62.9122 0.187042C62.9122 0.221333 62.8688 0.249389 62.8157 0.249389C62.6901 0.249389 62.0244 0.903909 62.0244 1.02736C62.0244 1.07954 61.9959 1.12225 61.961 1.12225C61.9261 1.12225 61.8976 1.17836 61.8976 1.24694C61.8976 1.31553 61.869 1.37164 61.8341 1.37164C61.7993 1.37164 61.7707 1.42775 61.7707 1.49633C61.7707 1.56491 61.7422 1.62103 61.7073 1.62103C61.6724 1.62103 61.6439 1.67714 61.6439 1.74572C61.6439 1.8143 61.6154 1.87042 61.5805 1.87042C61.5456 1.87042 61.5171 1.92653 61.5171 1.99511C61.5171 2.06369 61.4885 2.1198 61.4537 2.1198C61.4188 2.1198 61.3902 2.17592 61.3902 2.2445C61.3902 2.31308 61.3617 2.36919 61.3268 2.36919C61.292 2.36919 61.2634 2.42531 61.2634 2.49389C61.2634 2.56247 61.2349 2.61858 61.2 2.61858C61.1651 2.61858 61.1366 2.67469 61.1366 2.74328C61.1366 2.81186 61.108 2.86797 61.0732 2.86797C61.0383 2.86797 61.0098 2.92408 61.0098 2.99267C61.0098 3.06125 60.9812 3.11736 60.9463 3.11736C60.9115 3.11736 60.8829 3.17347 60.8829 3.24205C60.8829 3.31064 60.8544 3.36675 60.8195 3.36675C60.7846 3.36675 60.7561 3.42286 60.7561 3.49144C60.7561 3.56002 60.7276 3.61614 60.6927 3.61614C60.6578 3.61614 60.6293 3.67225 60.6293 3.74083C60.6293 3.80941 60.6007 3.86553 60.5659 3.86553C60.531 3.86553 60.5024 3.90961 60.5024 3.96347C60.5024 4.24029 60.5112 4.23961 56.924 4.23961C54.7015 4.23961 53.5268 4.26118 53.5268 4.30196C53.5268 4.33625 53.4127 4.3643 53.2732 4.3643C53.1337 4.3643 53.0195 4.39236 53.0195 4.42665C53.0195 4.46094 52.9687 4.489 52.9067 4.489C52.8446 4.489 52.7527 4.54511 52.7024 4.61369C52.6522 4.68227 52.5732 4.73839 52.527 4.73839C52.4182 4.73839 52.1317 5.02001 52.1317 5.12706C52.1317 5.17245 52.0746 5.25007 52.0049 5.29951C51.9304 5.35232 51.878 5.46093 51.878 5.56268C51.878 5.65794 51.8495 5.73594 51.8146 5.73594C51.7798 5.73594 51.7512 5.87622 51.7512 6.04768C51.7512 6.21913 51.7227 6.35941 51.6878 6.35941C51.646 6.35941 51.6244 8.47922 51.6244 12.5941C51.6244 18.7873 51.6236 18.8289 51.4976 18.8289C51.4278 18.8289 51.3707 18.8569 51.3707 18.8912C51.3707 18.9255 51.3199 18.9535 51.2579 18.9535C51.1958 18.9535 51.1039 19.0097 51.0537 19.0782C51.0034 19.1468 50.9115 19.2029 50.8494 19.2029C50.7874 19.2029 50.7366 19.231 50.7366 19.2653C50.7366 19.2996 50.6795 19.3276 50.6098 19.3276C50.54 19.3276 50.4829 19.3557 50.4829 19.39C50.4829 19.4243 50.4321 19.4523 50.3701 19.4523C50.308 19.4523 50.2161 19.5084 50.1659 19.577C50.1156 19.6456 50.03 19.7017 49.9756 19.7017C49.9213 19.7017 49.8357 19.7578 49.7854 19.8264C49.7351 19.895 49.6495 19.9511 49.5951 19.9511C49.5408 19.9511 49.4552 20.0072 49.4049 20.0758C49.3546 20.1444 49.269 20.2005 49.2146 20.2005C49.1603 20.2005 49.0747 20.2566 49.0244 20.3252C48.9741 20.3938 48.8936 20.4499 48.8456 20.4499C48.7976 20.4499 48.6782 20.534 48.5805 20.6369C48.4828 20.7398 48.3692 20.824 48.3281 20.824C48.2871 20.824 48.1438 20.9362 48.0098 21.0733C47.8757 21.2105 47.735 21.3227 47.6972 21.3227C47.6064 21.3227 45.5366 23.3589 45.5366 23.4482C45.5366 23.4862 45.451 23.5959 45.3463 23.6919C45.2417 23.788 45.1561 23.9002 45.1561 23.9413C45.1561 23.9824 45.0705 24.0946 44.9659 24.1907C44.8612 24.2868 44.7756 24.4041 44.7756 24.4513C44.7756 24.4986 44.7185 24.5777 44.6488 24.6271C44.579 24.6766 44.522 24.7669 44.522 24.828C44.522 24.8889 44.4934 24.9389 44.4585 24.9389C44.4237 24.9389 44.3951 24.995 44.3951 25.0636C44.3951 25.1322 44.3666 25.1883 44.3317 25.1883C44.2968 25.1883 44.2683 25.2444 44.2683 25.313C44.2683 25.3815 44.2398 25.4377 44.2049 25.4377C44.17 25.4377 44.1415 25.4938 44.1415 25.5623C44.1415 25.6309 44.1129 25.687 44.078 25.687C44.0432 25.687 44.0146 25.7432 44.0146 25.8117C44.0146 25.8803 43.9861 25.9364 43.9512 25.9364C43.9163 25.9364 43.8878 25.9925 43.8878 26.0611C43.8878 26.1297 43.8593 26.1858 43.8244 26.1858C43.7895 26.1858 43.761 26.2419 43.761 26.3105C43.761 26.3791 43.7324 26.4352 43.6976 26.4352C43.6627 26.4352 43.6341 26.5194 43.6341 26.6222C43.6341 26.7251 43.6056 26.8093 43.5707 26.8093C43.5359 26.8093 43.5073 26.8935 43.5073 26.9963C43.5073 27.0992 43.4788 27.1834 43.4439 27.1834C43.409 27.1834 43.3805 27.2675 43.3805 27.3704C43.3805 27.4733 43.352 27.5575 43.3171 27.5575C43.2822 27.5575 43.2537 27.6977 43.2537 27.8692C43.2537 28.0406 43.2251 28.1809 43.1902 28.1809C43.155 28.1809 43.1268 28.3472 43.1268 28.555C43.1268 28.7628 43.0987 28.9291 43.0634 28.9291C43.0242 28.9291 43 29.2616 43 29.802C43 30.3423 43.0242 30.6748 43.0634 30.6748C43.0987 30.6748 43.1268 30.8411 43.1268 31.0489C43.1268 31.2567 43.155 31.423 43.1902 31.423C43.2251 31.423 43.2537 31.5633 43.2537 31.7347C43.2537 31.9062 43.2822 32.0465 43.3171 32.0465C43.352 32.0465 43.3805 32.1306 43.3805 32.2335C43.3805 32.3364 43.409 32.4205 43.4439 32.4205C43.4788 32.4205 43.5073 32.5328 43.5073 32.6699C43.5073 32.8071 43.5359 32.9193 43.5707 32.9193C43.6056 32.9193 43.6341 32.9754 43.6341 33.044C43.6341 33.1126 43.6627 33.1687 43.6976 33.1687C43.7324 33.1687 43.761 33.2529 43.761 33.3557C43.761 33.4586 43.7895 33.5428 43.8244 33.5428C43.8593 33.5428 43.8878 33.5989 43.8878 33.6675C43.8878 33.7361 43.9163 33.7922 43.9512 33.7922C43.9861 33.7922 44.0146 33.8483 44.0146 33.9169C44.0146 33.9855 44.0432 34.0416 44.078 34.0416C44.1129 34.0416 44.1415 34.0977 44.1415 34.1663C44.1415 34.2348 44.17 34.291 44.2049 34.291C44.2398 34.291 44.2683 34.3409 44.2683 34.4019C44.2683 34.4629 44.3254 34.5532 44.3951 34.6027C44.4649 34.6521 44.522 34.7363 44.522 34.7897C44.522 34.8432 44.579 34.9273 44.6488 34.9768C44.7185 35.0262 44.7756 35.1104 44.7756 35.1638C44.7756 35.2172 44.8327 35.3014 44.9024 35.3509C44.9722 35.4003 45.0293 35.4794 45.0293 35.5267C45.0293 35.5739 45.1149 35.6912 45.2195 35.7873C45.3241 35.8834 45.4098 35.9947 45.4098 36.0346C45.4098 36.0745 45.5524 36.2437 45.7268 36.4108C45.9012 36.5778 46.0439 36.7448 46.0439 36.7818C46.0439 36.8694 46.972 37.7824 47.061 37.7824C47.0984 37.7824 47.297 37.9507 47.5024 38.1565C47.7078 38.3622 47.9089 38.5306 47.9491 38.5306C47.9893 38.5306 48.1023 38.6147 48.2 38.7176C48.2977 38.8205 48.4119 38.9046 48.4537 38.9046C48.4954 38.9046 48.6096 38.9888 48.7073 39.0917C48.805 39.1946 48.9244 39.2787 48.9724 39.2787C49.0205 39.2787 49.1009 39.3348 49.1512 39.4034C49.2015 39.472 49.2871 39.5281 49.3415 39.5281C49.3958 39.5281 49.4814 39.5842 49.5317 39.6528C49.582 39.7214 49.6676 39.7775 49.722 39.7775C49.7763 39.7775 49.8619 39.8336 49.9122 39.9022C49.9625 39.9708 50.0481 40.0269 50.1024 40.0269C50.1568 40.0269 50.2424 40.083 50.2927 40.1516C50.343 40.2202 50.4349 40.2763 50.4969 40.2763C50.559 40.2763 50.6098 40.3043 50.6098 40.3386C50.6098 40.3729 50.6668 40.401 50.7366 40.401C50.8063 40.401 50.8634 40.429 50.8634 40.4633C50.8634 40.4976 50.9205 40.5257 50.9902 40.5257C51.06 40.5257 51.1171 40.5537 51.1171 40.588C51.1171 40.6223 51.1741 40.6504 51.2439 40.6504C51.3137 40.6504 51.3707 40.6784 51.3707 40.7127C51.3707 40.747 51.4215 40.7751 51.4835 40.7751C51.5456 40.7751 51.6375 40.8312 51.6878 40.8998C51.7381 40.9683 51.83 41.0244 51.8921 41.0244C51.9541 41.0244 52.0049 41.0525 52.0049 41.0868C52.0049 41.1211 52.062 41.1491 52.1317 41.1491C52.2015 41.1491 52.2585 41.1772 52.2585 41.2115C52.2585 41.2458 52.3156 41.2738 52.3854 41.2738C52.4551 41.2738 52.5122 41.3019 52.5122 41.3362C52.5122 41.3705 52.5693 41.3985 52.639 41.3985C52.7088 41.3985 52.7659 41.4266 52.7659 41.4609C52.7659 41.4952 52.8515 41.5232 52.9561 41.5232C53.0607 41.5232 53.1463 41.5513 53.1463 41.5856C53.1463 41.6199 53.2034 41.6479 53.2732 41.6479C53.3429 41.6479 53.4 41.676 53.4 41.7103C53.4 41.7446 53.4571 41.7726 53.5268 41.7726C53.5966 41.7726 53.6537 41.8007 53.6537 41.835C53.6537 41.8693 53.7393 41.8973 53.8439 41.8973C53.9485 41.8973 54.0341 41.9254 54.0341 41.9597C54.0341 41.9939 54.0912 42.022 54.161 42.022C54.2307 42.022 54.2878 42.0501 54.2878 42.0844C54.2878 42.1186 54.3734 42.1467 54.478 42.1467C54.5827 42.1467 54.6683 42.1748 54.6683 42.209C54.6683 42.2433 54.7254 42.2714 54.7951 42.2714C54.8649 42.2714 54.922 42.2994 54.922 42.3337C54.922 42.368 55.0076 42.3961 55.1122 42.3961C55.2168 42.3961 55.3024 42.4241 55.3024 42.4584C55.3024 42.4927 55.388 42.5208 55.4927 42.5208C55.5973 42.5208 55.6829 42.5488 55.6829 42.5831C55.6829 42.6174 55.7685 42.6455 55.8732 42.6455C55.9778 42.6455 56.0634 42.6735 56.0634 42.7078C56.0634 42.7421 56.149 42.7702 56.2537 42.7702C56.3583 42.7702 56.4439 42.7982 56.4439 42.8325C56.4439 42.8668 56.5295 42.8949 56.6341 42.8949C56.7388 42.8949 56.8244 42.9229 56.8244 42.9572C56.8244 42.9915 56.91 43.0196 57.0146 43.0196C57.1193 43.0196 57.2049 43.0476 57.2049 43.0819C57.2049 43.1162 57.319 43.1443 57.4585 43.1443C57.598 43.1443 57.7122 43.1723 57.7122 43.2066C57.7122 43.2409 57.7978 43.2689 57.9024 43.2689C58.0071 43.2689 58.0927 43.297 58.0927 43.3313C58.0927 43.3656 58.2068 43.3936 58.3463 43.3936C58.4859 43.3936 58.6 43.4217 58.6 43.456C58.6 43.4903 58.7141 43.5183 58.8537 43.5183C58.9932 43.5183 59.1073 43.5464 59.1073 43.5807C59.1073 43.615 59.2215 43.643 59.361 43.643C59.5005 43.643 59.6146 43.6711 59.6146 43.7054C59.6146 43.7397 59.7573 43.7677 59.9317 43.7677C60.1061 43.7677 60.2488 43.7958 60.2488 43.8301C60.2488 43.8644 60.3915 43.8924 60.5659 43.8924C60.7402 43.8924 60.8829 43.9205 60.8829 43.9548C60.8829 43.9891 61.0256 44.0171 61.2 44.0171C61.3744 44.0171 61.5171 44.0452 61.5171 44.0795C61.5171 44.1151 61.7073 44.1418 61.961 44.1418C62.2146 44.1418 62.4049 44.1686 62.4049 44.2042C62.4049 44.2398 62.5951 44.2665 62.8488 44.2665C63.1024 44.2665 63.2927 44.2933 63.2927 44.3288C63.2927 44.3652 63.504 44.3912 63.8 44.3912C64.096 44.3912 64.3073 44.4172 64.3073 44.4535C64.3073 44.4913 64.5821 44.5159 65.0049 44.5159C65.4277 44.5159 65.7024 44.5405 65.7024 44.5782C65.7024 44.6175 66.1252 44.6406 66.8439 44.6406C67.8209 44.6406 67.9854 44.6542 67.9854 44.735C67.9854 44.7869 67.2432 45.5583 66.336 46.4493L64.6866 48.0691L66.1771 49.5346C66.9969 50.3406 67.6964 51 67.7315 51C67.8353 51 75.2146 43.7144 75.2146 43.612C75.2146 43.5605 75.2432 43.5183 75.278 43.5183C75.3129 43.5183 75.3415 43.4342 75.3415 43.3313C75.3415 43.2284 75.37 43.1443 75.4049 43.1443C75.4425 43.1443 75.4683 42.9156 75.4683 42.5831C75.4683 42.2506 75.4425 42.022 75.4049 42.022C75.37 42.022 75.3415 41.9378 75.3415 41.835C75.3415 41.7321 75.3129 41.6479 75.278 41.6479C75.2432 41.6479 75.2146 41.6058 75.2146 41.5543C75.2146 41.4518 67.8353 34.1663 67.7315 34.1663C67.6964 34.1663 66.9969 34.8257 66.1771 35.6317L64.6866 37.0971L66.336 38.717C67.2432 39.6079 67.9854 40.3513 67.9854 40.3689C67.9854 40.3866 67.5573 40.401 67.0341 40.401C66.4423 40.401 66.0829 40.3774 66.0829 40.3386C66.0829 40.3008 65.8082 40.2763 65.3854 40.2763C64.9626 40.2763 64.6878 40.2517 64.6878 40.2139C64.6878 40.177 64.4553 40.1516 64.1171 40.1516C63.7789 40.1516 63.5463 40.1262 63.5463 40.0892C63.5463 40.0536 63.3561 40.0269 63.1024 40.0269C62.8488 40.0269 62.6585 40.0001 62.6585 39.9645C62.6585 39.9303 62.5159 39.9022 62.3415 39.9022C62.1671 39.9022 62.0244 39.8741 62.0244 39.8399C62.0244 39.8056 61.8817 39.7775 61.7073 39.7775C61.5329 39.7775 61.3902 39.7495 61.3902 39.7152C61.3902 39.6809 61.2476 39.6528 61.0732 39.6528C60.8988 39.6528 60.7561 39.6248 60.7561 39.5905C60.7561 39.5562 60.6134 39.5281 60.439 39.5281C60.2646 39.5281 60.122 39.5001 60.122 39.4658C60.122 39.4315 60.0078 39.4034 59.8683 39.4034C59.7288 39.4034 59.6146 39.3754 59.6146 39.3411C59.6146 39.3068 59.5005 39.2787 59.361 39.2787C59.2215 39.2787 59.1073 39.2507 59.1073 39.2164C59.1073 39.1821 59.0217 39.154 58.9171 39.154C58.8124 39.154 58.7268 39.126 58.7268 39.0917C58.7268 39.0574 58.6127 39.0293 58.4732 39.0293C58.3337 39.0293 58.2195 39.0013 58.2195 38.967C58.2195 38.9327 58.1339 38.9046 58.0293 38.9046C57.9246 38.9046 57.839 38.8766 57.839 38.8423C57.839 38.808 57.7534 38.78 57.6488 38.78C57.5441 38.78 57.4585 38.7519 57.4585 38.7176C57.4585 38.6833 57.3729 38.6553 57.2683 38.6553C57.1637 38.6553 57.078 38.6272 57.078 38.5929C57.078 38.5586 56.9924 38.5306 56.8878 38.5306C56.7832 38.5306 56.6976 38.5025 56.6976 38.4682C56.6976 38.4339 56.6405 38.4059 56.5707 38.4059C56.501 38.4059 56.4439 38.3778 56.4439 38.3435C56.4439 38.3092 56.3583 38.2812 56.2537 38.2812C56.149 38.2812 56.0634 38.2531 56.0634 38.2188C56.0634 38.1845 56.0063 38.1565 55.9366 38.1565C55.8668 38.1565 55.8098 38.1284 55.8098 38.0941C55.8098 38.0598 55.7241 38.0318 55.6195 38.0318C55.5149 38.0318 55.4293 38.0037 55.4293 37.9694C55.4293 37.9351 55.3722 37.9071 55.3024 37.9071C55.2327 37.9071 55.1756 37.879 55.1756 37.8447C55.1756 37.8105 55.09 37.7824 54.9854 37.7824C54.8807 37.7824 54.7951 37.7543 54.7951 37.7201C54.7951 37.6858 54.738 37.6577 54.6683 37.6577C54.5985 37.6577 54.5415 37.6296 54.5415 37.5954C54.5415 37.5611 54.4844 37.533 54.4146 37.533C54.3449 37.533 54.2878 37.505 54.2878 37.4707C54.2878 37.4364 54.2307 37.4083 54.161 37.4083C54.0912 37.4083 54.0341 37.3803 54.0341 37.346C54.0341 37.3117 53.9771 37.2836 53.9073 37.2836C53.8376 37.2836 53.7805 37.2556 53.7805 37.2213C53.7805 37.187 53.7234 37.1589 53.6537 37.1589C53.5839 37.1589 53.5268 37.1309 53.5268 37.0966C53.5268 37.0623 53.476 37.0342 53.414 37.0342C53.3519 37.0342 53.26 36.9781 53.2098 36.9095C53.1595 36.841 53.0676 36.7848 53.0055 36.7848C52.9435 36.7848 52.8927 36.7568 52.8927 36.7225C52.8927 36.6882 52.8356 36.6601 52.7659 36.6601C52.6961 36.6601 52.639 36.6321 52.639 36.5978C52.639 36.5635 52.5882 36.5355 52.5262 36.5355C52.4641 36.5355 52.3722 36.4793 52.322 36.4108C52.2717 36.3422 52.1861 36.2861 52.1317 36.2861C52.0774 36.2861 51.9918 36.2299 51.9415 36.1614C51.8912 36.0928 51.8056 36.0367 51.7512 36.0367C51.6969 36.0367 51.6113 35.9806 51.561 35.912C51.5107 35.8434 51.4308 35.7873 51.3835 35.7873C51.3361 35.7873 51.1877 35.6751 51.0537 35.5379C50.9196 35.4007 50.7773 35.2885 50.7374 35.2885C50.6976 35.2885 50.526 35.1482 50.3561 34.9768C50.1862 34.8053 50.0161 34.665 49.9781 34.665C49.888 34.665 49.3415 34.1277 49.3415 34.0391C49.3415 34.0017 49.1988 33.8345 49.0244 33.6675C48.85 33.5005 48.7073 33.3312 48.7073 33.2913C48.7073 33.2514 48.6217 33.1401 48.5171 33.044C48.4124 32.9479 48.3268 32.8244 48.3268 32.7696C48.3268 32.7148 48.2983 32.6699 48.2634 32.6699C48.2285 32.6699 48.2 32.6138 48.2 32.5452C48.2 32.4767 48.1715 32.4205 48.1366 32.4205C48.1017 32.4205 48.0732 32.3644 48.0732 32.2958C48.0732 32.2273 48.0446 32.1712 48.0098 32.1712C47.9749 32.1712 47.9463 32.115 47.9463 32.0465C47.9463 31.9779 47.9178 31.9218 47.8829 31.9218C47.848 31.9218 47.8195 31.8656 47.8195 31.7971C47.8195 31.7285 47.791 31.6724 47.7561 31.6724C47.7212 31.6724 47.6927 31.6163 47.6927 31.5477C47.6927 31.4791 47.6641 31.423 47.6293 31.423C47.5944 31.423 47.5659 31.3108 47.5659 31.1736C47.5659 31.0364 47.5373 30.9242 47.5024 30.9242C47.4672 30.9242 47.439 30.7579 47.439 30.5501C47.439 30.3423 47.4109 30.176 47.3756 30.176C47.3404 30.176 47.3122 30.0098 47.3122 29.802C47.3122 29.5942 47.3404 29.4279 47.3756 29.4279C47.4109 29.4279 47.439 29.2616 47.439 29.0538C47.439 28.846 47.4672 28.6797 47.5024 28.6797C47.5373 28.6797 47.5659 28.5955 47.5659 28.4927C47.5659 28.3898 47.5944 28.3056 47.6293 28.3056C47.6641 28.3056 47.6927 28.2215 47.6927 28.1186C47.6927 28.0157 47.7212 27.9315 47.7561 27.9315C47.791 27.9315 47.8195 27.8754 47.8195 27.8068C47.8195 27.7383 47.848 27.6822 47.8829 27.6822C47.9178 27.6822 47.9463 27.626 47.9463 27.5575C47.9463 27.4889 47.9749 27.4328 48.0098 27.4328C48.0446 27.4328 48.0732 27.3766 48.0732 27.3081C48.0732 27.2395 48.1017 27.1834 48.1366 27.1834C48.1715 27.1834 48.2 27.1334 48.2 27.0725C48.2 27.0114 48.2571 26.9211 48.3268 26.8716C48.3966 26.8222 48.4537 26.7431 48.4537 26.6958C48.4537 26.6486 48.5393 26.5313 48.6439 26.4352C48.7485 26.3391 48.8341 26.2294 48.8341 26.1914C48.8341 26.102 50.5233 24.4401 50.6141 24.4401C50.6521 24.4401 50.7928 24.3279 50.9268 24.1907C51.0609 24.0535 51.2093 23.9413 51.2566 23.9413C51.304 23.9413 51.3839 23.8852 51.4341 23.8166C51.4844 23.748 51.5478 23.6919 51.575 23.6919C51.6021 23.6919 51.6244 24.6178 51.6244 25.7494C51.6244 27.0794 51.6468 27.8068 51.6878 27.8068C51.7227 27.8068 51.7512 27.9471 51.7512 28.1186C51.7512 28.29 51.7798 28.4303 51.8146 28.4303C51.8495 28.4303 51.878 28.4864 51.878 28.555C51.878 28.6236 51.9066 28.6797 51.9415 28.6797C51.9763 28.6797 52.0049 28.7224 52.0049 28.7746C52.0049 28.898 52.6706 29.5526 52.7962 29.5526C52.8492 29.5526 52.8927 29.5806 52.8927 29.6149C52.8927 29.6492 52.9783 29.6773 53.0829 29.6773C53.1876 29.6773 53.2732 29.7053 53.2732 29.7396C53.2732 29.781 58.5577 29.802 69 29.802C79.4423 29.802 84.7268 29.781 84.7268 29.7396C84.7268 29.7053 84.8062 29.6773 84.9031 29.6773C85.0065 29.6773 85.117 29.6258 85.1707 29.5526C85.221 29.484 85.2994 29.4279 85.3449 29.4279C85.4604 29.4279 85.9951 28.8909 85.9951 28.7748C85.9951 28.7225 86.0237 28.6797 86.0585 28.6797C86.0934 28.6797 86.122 28.6236 86.122 28.555C86.122 28.4864 86.1505 28.4303 86.1854 28.4303C86.2202 28.4303 86.2488 28.29 86.2488 28.1186C86.2488 27.9471 86.2773 27.8068 86.3122 27.8068C86.3532 27.8068 86.3756 27.0794 86.3756 25.7494C86.3756 24.6178 86.3979 23.6919 86.425 23.6919C86.4522 23.6919 86.5156 23.748 86.5659 23.8166C86.6161 23.8852 86.696 23.9413 86.7434 23.9413C86.7907 23.9413 86.9391 24.0535 87.0732 24.1907C87.2072 24.3279 87.3479 24.4401 87.3859 24.4401C87.4767 24.4401 89.1659 26.102 89.1659 26.1914C89.1659 26.2294 89.2515 26.3391 89.3561 26.4352C89.4607 26.5313 89.5463 26.6486 89.5463 26.6958C89.5463 26.7431 89.6034 26.8222 89.6732 26.8716C89.7429 26.9211 89.8 27.0114 89.8 27.0725C89.8 27.1334 89.8285 27.1834 89.8634 27.1834C89.8983 27.1834 89.9268 27.2395 89.9268 27.3081C89.9268 27.3766 89.9554 27.4328 89.9902 27.4328C90.0251 27.4328 90.0537 27.4889 90.0537 27.5575C90.0537 27.626 90.0822 27.6822 90.1171 27.6822C90.152 27.6822 90.1805 27.7383 90.1805 27.8068C90.1805 27.8754 90.209 27.9315 90.2439 27.9315C90.2788 27.9315 90.3073 28.0157 90.3073 28.1186C90.3073 28.2215 90.3359 28.3056 90.3707 28.3056C90.4056 28.3056 90.4341 28.3898 90.4341 28.4927C90.4341 28.5955 90.4627 28.6797 90.4976 28.6797C90.5328 28.6797 90.561 28.846 90.561 29.0538C90.561 29.2616 90.5891 29.4279 90.6244 29.4279C90.6596 29.4279 90.6878 29.5942 90.6878 29.802C90.6878 30.0098 90.6596 30.176 90.6244 30.176C90.5891 30.176 90.561 30.3423 90.561 30.5501C90.561 30.7579 90.5328 30.9242 90.4976 30.9242C90.4627 30.9242 90.4341 31.0364 90.4341 31.1736C90.4341 31.3108 90.4056 31.423 90.3707 31.423C90.3359 31.423 90.3073 31.4791 90.3073 31.5477C90.3073 31.6163 90.2788 31.6724 90.2439 31.6724C90.209 31.6724 90.1805 31.7285 90.1805 31.7971C90.1805 31.8656 90.152 31.9218 90.1171 31.9218C90.0822 31.9218 90.0537 31.9779 90.0537 32.0465C90.0537 32.115 90.0251 32.1712 89.9902 32.1712C89.9554 32.1712 89.9268 32.2273 89.9268 32.2958C89.9268 32.3644 89.8983 32.4205 89.8634 32.4205C89.8285 32.4205 89.8 32.4767 89.8 32.5452C89.8 32.6138 89.7715 32.6699 89.7366 32.6699C89.7017 32.6699 89.6732 32.7148 89.6732 32.7696C89.6732 32.8244 89.5876 32.9479 89.4829 33.044C89.3783 33.1401 89.2927 33.2511 89.2927 33.2907C89.2927 33.3302 89.1215 33.5279 88.9122 33.7298C88.7029 33.9318 88.5317 34.1279 88.5317 34.1656C88.5317 34.2545 88.2413 34.5403 88.151 34.5403C88.1129 34.5403 87.8847 34.7367 87.6439 34.9768C87.4031 35.2168 87.1734 35.4132 87.1334 35.4132C87.0934 35.4132 86.9806 35.4974 86.8829 35.6002C86.7852 35.7031 86.6659 35.7873 86.6179 35.7873C86.5698 35.7873 86.4893 35.8434 86.439 35.912C86.3887 35.9806 86.3031 36.0367 86.2488 36.0367C86.1944 36.0367 86.1088 36.0928 86.0585 36.1614C86.0082 36.2299 85.9226 36.2861 85.8683 36.2861C85.8139 36.2861 85.7283 36.3422 85.678 36.4108C85.6278 36.4793 85.5359 36.5355 85.4738 36.5355C85.4118 36.5355 85.361 36.5635 85.361 36.5978C85.361 36.6321 85.3039 36.6601 85.2341 36.6601C85.1644 36.6601 85.1073 36.6882 85.1073 36.7225C85.1073 36.7568 85.0565 36.7848 84.9945 36.7848C84.9324 36.7848 84.8405 36.841 84.7902 36.9095C84.74 36.9781 84.6481 37.0342 84.586 37.0342C84.524 37.0342 84.4732 37.0623 84.4732 37.0966C84.4732 37.1309 84.4161 37.1589 84.3463 37.1589C84.2766 37.1589 84.2195 37.187 84.2195 37.2213C84.2195 37.2556 84.1624 37.2836 84.0927 37.2836C84.0229 37.2836 83.9659 37.3117 83.9659 37.346C83.9659 37.3803 83.9088 37.4083 83.839 37.4083C83.7693 37.4083 83.7122 37.4364 83.7122 37.4707C83.7122 37.505 83.6551 37.533 83.5854 37.533C83.5156 37.533 83.4585 37.5611 83.4585 37.5954C83.4585 37.6296 83.4015 37.6577 83.3317 37.6577C83.262 37.6577 83.2049 37.6858 83.2049 37.7201C83.2049 37.7543 83.1193 37.7824 83.0146 37.7824C82.91 37.7824 82.8244 37.8105 82.8244 37.8447C82.8244 37.879 82.7673 37.9071 82.6976 37.9071C82.6278 37.9071 82.5707 37.9351 82.5707 37.9694C82.5707 38.0037 82.5137 38.0318 82.4439 38.0318C82.3741 38.0318 82.3171 38.0598 82.3171 38.0941C82.3171 38.1284 82.2315 38.1565 82.1268 38.1565C82.0222 38.1565 81.9366 38.1845 81.9366 38.2188C81.9366 38.2531 81.8795 38.2812 81.8098 38.2812C81.74 38.2812 81.6829 38.3092 81.6829 38.3435C81.6829 38.3778 81.5973 38.4059 81.4927 38.4059C81.3881 38.4059 81.3024 38.4339 81.3024 38.4682C81.3024 38.5025 81.2168 38.5306 81.1122 38.5306C81.0076 38.5306 80.922 38.5586 80.922 38.5929C80.922 38.6272 80.8363 38.6553 80.7317 38.6553C80.6271 38.6553 80.5415 38.6833 80.5415 38.7176C80.5415 38.7519 80.4559 38.78 80.3512 38.78C80.2466 38.78 80.161 38.808 80.161 38.8423C80.161 38.8766 80.1161 38.9046 80.0614 38.9046C79.7896 38.9046 79.7805 38.9786 79.7805 41.1759V43.2689H80.0341C80.1737 43.2689 80.2878 43.2409 80.2878 43.2066C80.2878 43.1723 80.402 43.1443 80.5415 43.1443C80.681 43.1443 80.7951 43.1162 80.7951 43.0819C80.7951 43.0476 80.8807 43.0196 80.9854 43.0196C81.09 43.0196 81.1756 42.9915 81.1756 42.9572C81.1756 42.9229 81.2612 42.8949 81.3659 42.8949C81.4705 42.8949 81.5561 42.8668 81.5561 42.8325C81.5561 42.7982 81.6417 42.7702 81.7463 42.7702C81.851 42.7702 81.9366 42.7421 81.9366 42.7078C81.9366 42.6735 82.0222 42.6455 82.1268 42.6455C82.2315 42.6455 82.3171 42.6174 82.3171 42.5831C82.3171 42.5488 82.4027 42.5208 82.5073 42.5208C82.6119 42.5208 82.6976 42.4927 82.6976 42.4584C82.6976 42.4241 82.7832 42.3961 82.8878 42.3961C82.9924 42.3961 83.078 42.368 83.078 42.3337C83.078 42.2994 83.1351 42.2714 83.2049 42.2714C83.2746 42.2714 83.3317 42.2433 83.3317 42.209C83.3317 42.1748 83.4173 42.1467 83.5219 42.1467C83.6266 42.1467 83.7122 42.1186 83.7122 42.0844C83.7122 42.0501 83.7693 42.022 83.839 42.022C83.9088 42.022 83.9659 41.9939 83.9659 41.9597C83.9659 41.9254 84.0515 41.8973 84.1561 41.8973C84.2607 41.8973 84.3463 41.8693 84.3463 41.835C84.3463 41.8007 84.4034 41.7726 84.4732 41.7726C84.5429 41.7726 84.6 41.7446 84.6 41.7103C84.6 41.676 84.6571 41.6479 84.7268 41.6479C84.7966 41.6479 84.8537 41.6199 84.8537 41.5856C84.8537 41.5513 84.9107 41.5232 84.9805 41.5232C85.0502 41.5232 85.1073 41.4952 85.1073 41.4609C85.1073 41.4266 85.1929 41.3985 85.2976 41.3985C85.4022 41.3985 85.4878 41.3705 85.4878 41.3362C85.4878 41.3019 85.5449 41.2738 85.6146 41.2738C85.6844 41.2738 85.7415 41.2458 85.7415 41.2115C85.7415 41.1772 85.7985 41.1491 85.8683 41.1491C85.938 41.1491 85.9951 41.1211 85.9951 41.0868C85.9951 41.0525 86.0522 41.0244 86.122 41.0244C86.1917 41.0244 86.2488 40.9964 86.2488 40.9621C86.2488 40.9278 86.2996 40.8998 86.3616 40.8998C86.4237 40.8998 86.5156 40.8436 86.5659 40.7751C86.6161 40.7065 86.708 40.6504 86.7701 40.6504C86.8321 40.6504 86.8829 40.6223 86.8829 40.588C86.8829 40.5537 86.94 40.5257 87.0098 40.5257C87.0795 40.5257 87.1366 40.4976 87.1366 40.4633C87.1366 40.429 87.1874 40.401 87.2494 40.401C87.3115 40.401 87.4034 40.3449 87.4537 40.2763C87.5039 40.2077 87.5958 40.1516 87.6579 40.1516C87.7199 40.1516 87.7707 40.1235 87.7707 40.0892C87.7707 40.055 87.8215 40.0269 87.8835 40.0269C87.9456 40.0269 88.0375 39.9708 88.0878 39.9022C88.1381 39.8336 88.2237 39.7775 88.278 39.7775C88.3324 39.7775 88.418 39.7214 88.4683 39.6528C88.5186 39.5842 88.6042 39.5281 88.6585 39.5281C88.7129 39.5281 88.7985 39.472 88.8488 39.4034C88.8991 39.3348 88.9795 39.2787 89.0276 39.2787C89.0756 39.2787 89.195 39.1946 89.2927 39.0917C89.3904 38.9888 89.5046 38.9046 89.5463 38.9046C89.5881 38.9046 89.7023 38.8205 89.8 38.7176C89.8977 38.6147 90.0107 38.5306 90.0509 38.5306C90.0911 38.5306 90.2922 38.3622 90.4976 38.1565C90.703 37.9507 90.9016 37.7824 90.939 37.7824C91.028 37.7824 91.9561 36.8694 91.9561 36.7818C91.9561 36.7448 92.0988 36.5778 92.2732 36.4108C92.4476 36.2437 92.5902 36.0745 92.5902 36.0346C92.5902 35.9947 92.6759 35.8834 92.7805 35.7873C92.8851 35.6912 92.9707 35.579 92.9707 35.5379C92.9707 35.4968 93.0563 35.3846 93.161 35.2885C93.2656 35.1924 93.3512 35.0689 93.3512 35.0141C93.3512 34.9593 93.3798 34.9144 93.4146 34.9144C93.4495 34.9144 93.478 34.8645 93.478 34.8035C93.478 34.7425 93.5351 34.6521 93.6049 34.6027C93.6746 34.5532 93.7317 34.4629 93.7317 34.4019C93.7317 34.3409 93.7602 34.291 93.7951 34.291C93.83 34.291 93.8585 34.2348 93.8585 34.1663C93.8585 34.0977 93.8871 34.0416 93.922 34.0416C93.9568 34.0416 93.9854 33.9855 93.9854 33.9169C93.9854 33.8483 94.0139 33.7922 94.0488 33.7922C94.0837 33.7922 94.1122 33.7361 94.1122 33.6675C94.1122 33.5989 94.1407 33.5428 94.1756 33.5428C94.2105 33.5428 94.239 33.4586 94.239 33.3557C94.239 33.2529 94.2676 33.1687 94.3024 33.1687C94.3373 33.1687 94.3659 33.0845 94.3659 32.9817C94.3659 32.8788 94.3944 32.7946 94.4293 32.7946C94.4641 32.7946 94.4927 32.7105 94.4927 32.6076C94.4927 32.5047 94.5212 32.4205 94.5561 32.4205C94.591 32.4205 94.6195 32.3364 94.6195 32.2335C94.6195 32.1306 94.648 32.0465 94.6829 32.0465C94.7178 32.0465 94.7463 31.9342 94.7463 31.7971C94.7463 31.6599 94.7749 31.5477 94.8098 31.5477C94.8467 31.5477 94.8732 31.3399 94.8732 31.0489C94.8732 30.7579 94.8996 30.5501 94.9366 30.5501C94.9753 30.5501 95 30.2591 95 29.802C95 29.3448 94.9753 29.0538 94.9366 29.0538C94.9004 29.0538 94.8732 28.8667 94.8732 28.6174C94.8732 28.368 94.846 28.1809 94.8098 28.1809C94.7749 28.1809 94.7463 28.0406 94.7463 27.8692C94.7463 27.6977 94.7178 27.5575 94.6829 27.5575C94.648 27.5575 94.6195 27.4733 94.6195 27.3704C94.6195 27.2675 94.591 27.1834 94.5561 27.1834C94.5212 27.1834 94.4927 27.0992 94.4927 26.9963C94.4927 26.8935 94.4641 26.8093 94.4293 26.8093C94.3944 26.8093 94.3659 26.7251 94.3659 26.6222C94.3659 26.5194 94.3373 26.4352 94.3024 26.4352C94.2676 26.4352 94.239 26.3791 94.239 26.3105C94.239 26.2419 94.2105 26.1858 94.1756 26.1858C94.1407 26.1858 94.1122 26.1297 94.1122 26.0611C94.1122 25.9925 94.0837 25.9364 94.0488 25.9364C94.0139 25.9364 93.9854 25.8803 93.9854 25.8117C93.9854 25.7432 93.9568 25.687 93.922 25.687C93.8871 25.687 93.8585 25.6309 93.8585 25.5623C93.8585 25.4938 93.83 25.4377 93.7951 25.4377C93.7602 25.4377 93.7317 25.3815 93.7317 25.313C93.7317 25.2444 93.7032 25.1883 93.6683 25.1883C93.6334 25.1883 93.6049 25.1322 93.6049 25.0636C93.6049 24.995 93.5763 24.9389 93.5415 24.9389C93.5066 24.9389 93.478 24.8889 93.478 24.828C93.478 24.7669 93.421 24.6766 93.3512 24.6271C93.2815 24.5777 93.2244 24.4986 93.2244 24.4513C93.2244 24.4041 93.1388 24.2868 93.0341 24.1907C92.9295 24.0946 92.8439 23.9824 92.8439 23.9413C92.8439 23.9002 92.7583 23.788 92.6537 23.6919C92.549 23.5959 92.4634 23.4862 92.4634 23.4482C92.4634 23.3589 90.3936 21.3227 90.3028 21.3227C90.265 21.3227 90.1243 21.2105 89.9902 21.0733C89.8562 20.9362 89.7129 20.824 89.6719 20.824C89.6308 20.824 89.5172 20.7398 89.4195 20.6369C89.3218 20.534 89.2024 20.4499 89.1544 20.4499C89.1064 20.4499 89.0259 20.3938 88.9756 20.3252C88.9253 20.2566 88.8397 20.2005 88.7854 20.2005C88.731 20.2005 88.6454 20.1444 88.5951 20.0758C88.5448 20.0072 88.4592 19.9511 88.4049 19.9511C88.3505 19.9511 88.2649 19.895 88.2146 19.8264C88.1643 19.7578 88.0787 19.7017 88.0244 19.7017C87.97 19.7017 87.8844 19.6456 87.8341 19.577C87.7839 19.5084 87.692 19.4523 87.6299 19.4523C87.5679 19.4523 87.5171 19.4243 87.5171 19.39C87.5171 19.3557 87.46 19.3276 87.3902 19.3276C87.3205 19.3276 87.2634 19.2996 87.2634 19.2653C87.2634 19.231 87.2126 19.2029 87.1506 19.2029C87.0885 19.2029 86.9966 19.1468 86.9463 19.0782C86.8961 19.0097 86.8042 18.9535 86.7421 18.9535C86.6801 18.9535 86.6293 18.9255 86.6293 18.8912C86.6293 18.8569 86.5722 18.8289 86.5024 18.8289C86.3764 18.8289 86.3756 18.7873 86.3756 12.5941C86.3756 8.47922 86.354 6.35941 86.3122 6.35941C86.2773 6.35941 86.2488 6.21913 86.2488 6.04768C86.2488 5.87622 86.2202 5.73594 86.1854 5.73594C86.1505 5.73594 86.122 5.65794 86.122 5.56268C86.122 5.46093 86.0696 5.35232 85.9951 5.29951C85.9254 5.25007 85.8683 5.17245 85.8683 5.12706C85.8683 5.02001 85.5818 4.73839 85.473 4.73839C85.4268 4.73839 85.3478 4.68227 85.2976 4.61369C85.2473 4.54511 85.1554 4.489 85.0933 4.489C85.0313 4.489 84.9805 4.46094 84.9805 4.42665C84.9805 4.39236 84.8663 4.3643 84.7268 4.3643C84.5873 4.3643 84.4732 4.33625 84.4732 4.30196C84.4732 4.26118 83.2985 4.23961 81.076 4.23961C77.4888 4.23961 77.4976 4.24029 77.4976 3.96347C77.4976 3.90961 77.469 3.86553 77.4341 3.86553C77.3993 3.86553 77.3707 3.80941 77.3707 3.74083C77.3707 3.67225 77.3422 3.61614 77.3073 3.61614C77.2724 3.61614 77.2439 3.56002 77.2439 3.49144C77.2439 3.42286 77.2154 3.36675 77.1805 3.36675C77.1456 3.36675 77.1171 3.31064 77.1171 3.24205C77.1171 3.17347 77.0885 3.11736 77.0537 3.11736C77.0188 3.11736 76.9902 3.06125 76.9902 2.99267C76.9902 2.92408 76.9617 2.86797 76.9268 2.86797C76.892 2.86797 76.8634 2.81186 76.8634 2.74328C76.8634 2.67469 76.8349 2.61858 76.8 2.61858C76.7651 2.61858 76.7366 2.56247 76.7366 2.49389C76.7366 2.42531 76.708 2.36919 76.6732 2.36919C76.6383 2.36919 76.6098 2.31308 76.6098 2.2445C76.6098 2.17592 76.5812 2.1198 76.5463 2.1198C76.5115 2.1198 76.4829 2.06369 76.4829 1.99511C76.4829 1.92653 76.4544 1.87042 76.4195 1.87042C76.3846 1.87042 76.3561 1.8143 76.3561 1.74572C76.3561 1.67714 76.3276 1.62103 76.2927 1.62103C76.2578 1.62103 76.2293 1.56491 76.2293 1.49633C76.2293 1.42775 76.2007 1.37164 76.1659 1.37164C76.131 1.37164 76.1024 1.31553 76.1024 1.24694C76.1024 1.17836 76.0739 1.12225 76.039 1.12225C76.0041 1.12225 75.9756 1.07954 75.9756 1.02736C75.9756 0.903909 75.3099 0.249389 75.1843 0.249389C75.1312 0.249389 75.0878 0.221333 75.0878 0.187042C75.0878 0.152751 75.0022 0.124694 74.8976 0.124694C74.7929 0.124694 74.7073 0.0966381 74.7073 0.0623472C74.7073 0.0212604 72.7626 0 69 0C65.2374 0 63.2927 0.0212604 63.2927 0.0623472ZM72.8411 4.3287C72.8909 4.37765 72.9317 4.46181 72.9317 4.51574C72.9317 4.56961 72.9602 4.61369 72.9951 4.61369C73.03 4.61369 73.0585 4.6698 73.0585 4.73839C73.0585 4.80697 73.0871 4.86308 73.122 4.86308C73.1568 4.86308 73.1854 4.91919 73.1854 4.98777C73.1854 5.05636 73.2139 5.11247 73.2488 5.11247C73.2837 5.11247 73.3122 5.16858 73.3122 5.23716C73.3122 5.30575 73.3407 5.36186 73.3756 5.36186C73.4105 5.36186 73.439 5.41797 73.439 5.48655C73.439 5.55513 73.4676 5.61125 73.5024 5.61125C73.5373 5.61125 73.5659 5.66736 73.5659 5.73594C73.5659 5.80452 73.5944 5.86064 73.6293 5.86064C73.6641 5.86064 73.6927 5.91675 73.6927 5.98533C73.6927 6.05391 73.7212 6.11002 73.7561 6.11002C73.791 6.11002 73.8195 6.16614 73.8195 6.23472C73.8195 6.3033 73.848 6.35941 73.8829 6.35941C73.9178 6.35941 73.9463 6.41553 73.9463 6.48411C73.9463 6.55269 73.9749 6.6088 74.0098 6.6088C74.0446 6.6088 74.0732 6.66491 74.0732 6.7335C74.0732 6.80208 74.1017 6.85819 74.1366 6.85819C74.1715 6.85819 74.2 6.9143 74.2 6.98289C74.2 7.05147 74.2285 7.10758 74.2634 7.10758C74.2983 7.10758 74.3268 7.16369 74.3268 7.23227C74.3268 7.30086 74.3554 7.35697 74.3902 7.35697C74.4251 7.35697 74.4537 7.41308 74.4537 7.48166C74.4537 7.55024 74.4822 7.60636 74.5171 7.60636C74.552 7.60636 74.5805 7.66247 74.5805 7.73105C74.5805 7.79963 74.609 7.85575 74.6439 7.85575C74.6788 7.85575 74.7073 7.91186 74.7073 7.98044C74.7073 8.04902 74.7359 8.10513 74.7707 8.10513C74.8056 8.10513 74.8341 8.14921 74.8341 8.20308C74.8341 8.48022 74.8211 8.47922 78.476 8.47922H81.9366V17.0208V25.5623H69H56.0634V17.0208V8.47922H59.524C63.1789 8.47922 63.1659 8.48022 63.1659 8.20308C63.1659 8.14921 63.1944 8.10513 63.2293 8.10513C63.2641 8.10513 63.2927 8.04902 63.2927 7.98044C63.2927 7.91186 63.3212 7.85575 63.3561 7.85575C63.391 7.85575 63.4195 7.79963 63.4195 7.73105C63.4195 7.66247 63.448 7.60636 63.4829 7.60636C63.5178 7.60636 63.5463 7.55024 63.5463 7.48166C63.5463 7.41308 63.5749 7.35697 63.6098 7.35697C63.6446 7.35697 63.6732 7.30086 63.6732 7.23227C63.6732 7.16369 63.7017 7.10758 63.7366 7.10758C63.7715 7.10758 63.8 7.05147 63.8 6.98289C63.8 6.9143 63.8285 6.85819 63.8634 6.85819C63.8983 6.85819 63.9268 6.80208 63.9268 6.7335C63.9268 6.66491 63.9554 6.6088 63.9902 6.6088C64.0251 6.6088 64.0537 6.55269 64.0537 6.48411C64.0537 6.41553 64.0822 6.35941 64.1171 6.35941C64.152 6.35941 64.1805 6.3033 64.1805 6.23472C64.1805 6.16614 64.209 6.11002 64.2439 6.11002C64.2788 6.11002 64.3073 6.05391 64.3073 5.98533C64.3073 5.91675 64.3359 5.86064 64.3707 5.86064C64.4056 5.86064 64.4341 5.80452 64.4341 5.73594C64.4341 5.66736 64.4627 5.61125 64.4976 5.61125C64.5324 5.61125 64.561 5.55513 64.561 5.48655C64.561 5.41797 64.5895 5.36186 64.6244 5.36186C64.6593 5.36186 64.6878 5.30575 64.6878 5.23716C64.6878 5.16858 64.7163 5.11247 64.7512 5.11247C64.7861 5.11247 64.8146 5.05636 64.8146 4.98777C64.8146 4.91919 64.8432 4.86308 64.878 4.86308C64.9129 4.86308 64.9415 4.80697 64.9415 4.73839C64.9415 4.6698 64.97 4.61369 65.0049 4.61369C65.0398 4.61369 65.0683 4.57042 65.0683 4.51755C65.0683 4.24086 65.0165 4.24447 68.9886 4.24198C72.1667 4.23998 72.7646 4.25345 72.8411 4.3287ZM67.8585 10.7861C67.8585 10.8204 67.7444 10.8484 67.6049 10.8484C67.4654 10.8484 67.3512 10.8765 67.3512 10.9108C67.3512 10.945 67.2656 10.9731 67.161 10.9731C67.0563 10.9731 66.9707 11.0012 66.9707 11.0355C66.9707 11.0697 66.9137 11.0978 66.8439 11.0978C66.7741 11.0978 66.7171 11.1259 66.7171 11.1601C66.7171 11.1944 66.66 11.2225 66.5902 11.2225C66.5205 11.2225 66.4634 11.2506 66.4634 11.2848C66.4634 11.3191 66.4126 11.3472 66.3506 11.3472C66.2885 11.3472 66.1966 11.4033 66.1463 11.4719C66.0961 11.5405 66.0162 11.5966 65.9688 11.5966C65.9215 11.5966 65.7731 11.7088 65.639 11.846C65.505 11.9831 65.3632 12.0954 65.324 12.0954C65.2309 12.0954 64.9415 12.3808 64.9415 12.4727C64.9415 12.512 64.8559 12.6227 64.7512 12.7188C64.6466 12.8149 64.561 12.9322 64.561 12.9794C64.561 13.0267 64.5039 13.1058 64.4341 13.1553C64.3644 13.2047 64.3073 13.295 64.3073 13.3561C64.3073 13.4171 64.2788 13.467 64.2439 13.467C64.209 13.467 64.1805 13.5231 64.1805 13.5917C64.1805 13.6603 64.152 13.7164 64.1171 13.7164C64.0822 13.7164 64.0537 13.7725 64.0537 13.8411C64.0537 13.9097 64.0251 13.9658 63.9902 13.9658C63.9554 13.9658 63.9268 14.0499 63.9268 14.1528C63.9268 14.2557 63.8983 14.3399 63.8634 14.3399C63.8285 14.3399 63.8 14.424 63.8 14.5269C63.8 14.6298 63.7715 14.7139 63.7366 14.7139C63.7004 14.7139 63.6732 14.901 63.6732 15.1504C63.6732 15.3998 63.646 15.5868 63.6098 15.5868C63.5735 15.5868 63.5463 15.7738 63.5463 16.0232C63.5463 16.2726 63.5735 16.4597 63.6098 16.4597C63.645 16.4597 63.6732 16.6259 63.6732 16.8337C63.6732 17.0415 63.7013 17.2078 63.7366 17.2078C63.7715 17.2078 63.8 17.32 63.8 17.4572C63.8 17.5944 63.8285 17.7066 63.8634 17.7066C63.8983 17.7066 63.9268 17.7627 63.9268 17.8313C63.9268 17.8999 63.9554 17.956 63.9902 17.956C64.0251 17.956 64.0537 18.0402 64.0537 18.143C64.0537 18.2459 64.0822 18.3301 64.1171 18.3301C64.152 18.3301 64.1805 18.38 64.1805 18.441C64.1805 18.502 64.2376 18.5924 64.3073 18.6418C64.3771 18.6912 64.4341 18.7754 64.4341 18.8289C64.4341 18.8823 64.4912 18.9665 64.561 19.0159C64.6307 19.0653 64.6878 19.1421 64.6878 19.1865C64.6878 19.2918 65.612 20.2005 65.7191 20.2005C65.7643 20.2005 65.8424 20.2566 65.8927 20.3252C65.943 20.3938 66.0286 20.4499 66.0829 20.4499C66.1373 20.4499 66.2229 20.506 66.2732 20.5746C66.3235 20.6432 66.4153 20.6993 66.4774 20.6993C66.5394 20.6993 66.5902 20.7273 66.5902 20.7616C66.5902 20.7959 66.6473 20.824 66.7171 20.824C66.7868 20.824 66.8439 20.852 66.8439 20.8863C66.8439 20.9206 66.9295 20.9487 67.0341 20.9487C67.1388 20.9487 67.2244 20.9767 67.2244 21.011C67.2244 21.0453 67.3385 21.0733 67.478 21.0733C67.6176 21.0733 67.7317 21.1014 67.7317 21.1357C67.7317 21.17 67.8744 21.198 68.0488 21.198C68.2232 21.198 68.3659 21.2261 68.3659 21.2604C68.3659 21.2978 68.6195 21.3227 69 21.3227C69.3805 21.3227 69.6341 21.2978 69.6341 21.2604C69.6341 21.2257 69.8033 21.198 70.0146 21.198C70.226 21.198 70.3951 21.1704 70.3951 21.1357C70.3951 21.1014 70.4807 21.0733 70.5854 21.0733C70.69 21.0733 70.7756 21.0453 70.7756 21.011C70.7756 20.9767 70.8612 20.9487 70.9659 20.9487C71.0705 20.9487 71.1561 20.9206 71.1561 20.8863C71.1561 20.852 71.2132 20.824 71.2829 20.824C71.3527 20.824 71.4098 20.7959 71.4098 20.7616C71.4098 20.7273 71.4606 20.6993 71.5226 20.6993C71.5847 20.6993 71.6765 20.6432 71.7268 20.5746C71.7771 20.506 71.8627 20.4499 71.9171 20.4499C71.9714 20.4499 72.057 20.3938 72.1073 20.3252C72.1576 20.2566 72.2357 20.2005 72.2809 20.2005C72.388 20.2005 73.3122 19.2918 73.3122 19.1865C73.3122 19.1421 73.3693 19.0653 73.439 19.0159C73.5088 18.9665 73.5659 18.8823 73.5659 18.8289C73.5659 18.7754 73.6229 18.6912 73.6927 18.6418C73.7671 18.589 73.8195 18.4804 73.8195 18.3786C73.8195 18.2834 73.848 18.2054 73.8829 18.2054C73.9178 18.2054 73.9463 18.1493 73.9463 18.0807C73.9463 18.0121 73.9749 17.956 74.0098 17.956C74.0446 17.956 74.0732 17.8999 74.0732 17.8313C74.0732 17.7627 74.1017 17.7066 74.1366 17.7066C74.1715 17.7066 74.2 17.5944 74.2 17.4572C74.2 17.32 74.2285 17.2078 74.2634 17.2078C74.2996 17.2078 74.3268 17.0208 74.3268 16.7714C74.3268 16.522 74.354 16.335 74.3902 16.335C74.4255 16.335 74.4537 16.1687 74.4537 15.9609C74.4537 15.7531 74.4255 15.5868 74.3902 15.5868C74.354 15.5868 74.3268 15.3998 74.3268 15.1504C74.3268 14.901 74.2996 14.7139 74.2634 14.7139C74.2285 14.7139 74.2 14.6298 74.2 14.5269C74.2 14.424 74.1715 14.3399 74.1366 14.3399C74.1017 14.3399 74.0732 14.2557 74.0732 14.1528C74.0732 14.0499 74.0446 13.9658 74.0098 13.9658C73.9749 13.9658 73.9463 13.9097 73.9463 13.8411C73.9463 13.7725 73.9178 13.7164 73.8829 13.7164C73.848 13.7164 73.8195 13.6603 73.8195 13.5917C73.8195 13.5231 73.791 13.467 73.7561 13.467C73.7212 13.467 73.6927 13.4171 73.6927 13.3561C73.6927 13.295 73.6356 13.2047 73.5659 13.1553C73.4961 13.1058 73.439 13.0267 73.439 12.9794C73.439 12.9322 73.3534 12.8149 73.2488 12.7188C73.1441 12.6227 73.0585 12.5123 73.0585 12.4735C73.0585 12.3817 72.6404 11.9707 72.5471 11.9707C72.5076 11.9707 72.3953 11.8865 72.2976 11.7836C72.1998 11.6807 72.0805 11.5966 72.0325 11.5966C71.9844 11.5966 71.9039 11.5405 71.8537 11.4719C71.8034 11.4033 71.7115 11.3472 71.6494 11.3472C71.5874 11.3472 71.5366 11.3191 71.5366 11.2848C71.5366 11.2506 71.4795 11.2225 71.4098 11.2225C71.34 11.2225 71.2829 11.1944 71.2829 11.1601C71.2829 11.1259 71.2259 11.0978 71.1561 11.0978C71.0863 11.0978 71.0293 11.0697 71.0293 11.0355C71.0293 11.0012 70.9437 10.9731 70.839 10.9731C70.7344 10.9731 70.6488 10.945 70.6488 10.9108C70.6488 10.8765 70.5346 10.8484 70.3951 10.8484C70.2556 10.8484 70.1415 10.8204 70.1415 10.7861C70.1415 10.7468 69.7187 10.7237 69 10.7237C68.2813 10.7237 67.8585 10.7468 67.8585 10.7861Z" fill="white"/>
</svg>
