<svg width="50" height="30" viewBox="0 0 50 30" fill="none" xmlns="http://www.w3.org/2000/svg">
<rect width="50" height="30" rx="4" fill="#F3F3F5"/>
<path fill-rule="evenodd" clip-rule="evenodd" d="M20.745 19.7734L22.2824 10.2363H24.7398L23.2026 19.7734H20.745Z" fill="#26337A"/>
<path fill-rule="evenodd" clip-rule="evenodd" d="M32.1165 10.4705C31.6306 10.279 30.8664 10.0703 29.9144 10.0703C27.4848 10.0703 25.7746 11.3645 25.7604 13.2178C25.7449 14.5886 26.9808 15.3531 27.9125 15.8088C28.8701 16.2758 29.1919 16.5747 29.1881 16.9923C29.1814 17.631 28.4237 17.9237 27.7172 17.9237C26.7333 17.9237 26.2106 17.7796 25.4024 17.4236L25.0863 17.2717L24.7426 19.4065C25.3157 19.6721 26.378 19.9027 27.4805 19.9148C30.0626 19.9148 31.7404 18.6362 31.76 16.6572C31.7689 15.5702 31.1141 14.7462 29.6959 14.0659C28.8371 13.6237 28.31 13.3307 28.3161 12.8831C28.3166 12.4868 28.7613 12.0624 29.7238 12.0624C30.5277 12.0495 31.1096 12.2351 31.563 12.4289L31.7836 12.5379L32.1165 10.4705Z" fill="#26337A"/>
<path fill-rule="evenodd" clip-rule="evenodd" d="M35.3887 16.3922C35.5924 15.844 36.3677 13.7264 36.3677 13.7264C36.3533 13.7516 36.5702 13.174 36.6943 12.8165L36.8602 13.6391C36.8602 13.6391 37.3317 15.9154 37.4288 16.3922C37.0463 16.3922 35.8686 16.3922 35.3887 16.3922ZM38.4204 10.2461H36.5213C35.9322 10.2461 35.4913 10.4148 35.2332 11.0367L31.5838 19.7768H34.1649C34.1649 19.7768 34.586 18.601 34.6816 18.343C34.9631 18.343 37.4711 18.3479 37.8291 18.3479C37.9028 18.6807 38.1283 19.7768 38.1283 19.7768H40.4092L38.4204 10.2461Z" fill="#26337A"/>
<path fill-rule="evenodd" clip-rule="evenodd" d="M18.6835 10.2441L16.2781 16.7461L16.0205 15.4244C15.5723 13.9016 14.177 12.251 12.6163 11.424L14.8168 19.7648L17.4176 19.7633L21.2877 10.2441H18.6835Z" fill="#26337A"/>
<path fill-rule="evenodd" clip-rule="evenodd" d="M14.0452 10.2378H10.0824L10.0497 10.4354C13.1333 11.2254 15.1735 13.1323 16.0203 15.4246L15.1592 11.0424C15.0106 10.4381 14.5788 10.2589 14.0452 10.2378Z" fill="#EC982D"/>
</svg>
