<svg width="20" height="20" viewBox="0 0 20 20" fill="none" xmlns="http://www.w3.org/2000/svg">
<g clip-path="url(#clip0)">
<path fill-rule="evenodd" clip-rule="evenodd" d="M7.80488 0.0240424C7.80488 0.0372657 7.77195 0.0480848 7.73171 0.0480848C7.69146 0.0480848 7.65854 0.0589038 7.65854 0.0721271C7.65854 0.0853505 7.64183 0.0961695 7.62141 0.0961695C7.57312 0.0961695 7.31707 0.348566 7.31707 0.39617C7.31707 0.416294 7.3061 0.432763 7.29268 0.432763C7.27927 0.432763 7.26829 0.454401 7.26829 0.480848C7.26829 0.507294 7.25732 0.528932 7.2439 0.528932C7.23049 0.528932 7.21951 0.550571 7.21951 0.577017C7.21951 0.603464 7.20854 0.625102 7.19512 0.625102C7.18171 0.625102 7.17073 0.64674 7.17073 0.673187C7.17073 0.699633 7.15976 0.721271 7.14634 0.721271C7.13293 0.721271 7.12195 0.74291 7.12195 0.769356C7.12195 0.795803 7.11098 0.817441 7.09756 0.817441C7.08415 0.817441 7.07317 0.839079 7.07317 0.865526C7.07317 0.891972 7.06219 0.91361 7.04878 0.91361C7.03537 0.91361 7.02439 0.935249 7.02439 0.961695C7.02439 0.988142 7.01341 1.00978 7 1.00978C6.98659 1.00978 6.97561 1.03142 6.97561 1.05786C6.97561 1.08431 6.96463 1.10595 6.95122 1.10595C6.9378 1.10595 6.92683 1.12759 6.92683 1.15403C6.92683 1.18048 6.91585 1.20212 6.90244 1.20212C6.88902 1.20212 6.87805 1.22376 6.87805 1.2502C6.87805 1.27665 6.86707 1.29829 6.85366 1.29829C6.84024 1.29829 6.82927 1.31993 6.82927 1.34637C6.82927 1.37282 6.81829 1.39446 6.80488 1.39446C6.79146 1.39446 6.78049 1.4161 6.78049 1.44254C6.78049 1.46899 6.76951 1.49063 6.7561 1.49063C6.74268 1.49063 6.73171 1.50763 6.73171 1.5284C6.73171 1.63515 6.73507 1.63488 5.35539 1.63488C4.50059 1.63488 4.04878 1.6432 4.04878 1.65892C4.04878 1.67215 4.00488 1.68297 3.95122 1.68297C3.89756 1.68297 3.85366 1.69379 3.85366 1.70701C3.85366 1.72023 3.83412 1.73105 3.81027 1.73105C3.78639 1.73105 3.75105 1.75269 3.73171 1.77914C3.71237 1.80558 3.682 1.82722 3.66424 1.82722C3.62237 1.82722 3.5122 1.93582 3.5122 1.9771C3.5122 1.9946 3.49024 2.02454 3.46341 2.0436C3.43478 2.06397 3.41463 2.10585 3.41463 2.14509C3.41463 2.18182 3.40366 2.2119 3.39024 2.2119C3.37683 2.2119 3.36585 2.26599 3.36585 2.33211C3.36585 2.39823 3.35488 2.45232 3.34146 2.45232C3.32537 2.45232 3.31707 3.26976 3.31707 4.85656C3.31707 7.24476 3.31676 7.2608 3.26829 7.2608C3.24146 7.2608 3.21951 7.27162 3.21951 7.28484C3.21951 7.29806 3.19998 7.30888 3.17612 7.30888C3.15224 7.30888 3.1169 7.33052 3.09756 7.35697C3.07822 7.38342 3.04288 7.40505 3.019 7.40505C2.99515 7.40505 2.97561 7.41587 2.97561 7.4291C2.97561 7.44232 2.95366 7.45314 2.92683 7.45314C2.9 7.45314 2.87805 7.46396 2.87805 7.47718C2.87805 7.4904 2.85851 7.50122 2.83466 7.50122C2.81078 7.50122 2.77544 7.52286 2.7561 7.54931C2.73676 7.57575 2.70383 7.59739 2.68293 7.59739C2.66202 7.59739 2.6291 7.61903 2.60976 7.64548C2.59041 7.67192 2.55749 7.69356 2.53659 7.69356C2.51568 7.69356 2.48276 7.7152 2.46341 7.74165C2.44407 7.76809 2.41115 7.78973 2.39024 7.78973C2.36934 7.78973 2.33641 7.81137 2.31707 7.83782C2.29773 7.86426 2.26678 7.8859 2.24829 7.8859C2.22983 7.8859 2.18393 7.91836 2.14634 7.95803C2.10876 7.9977 2.06507 8.03016 2.04927 8.03016C2.03349 8.03016 1.97839 8.07343 1.92683 8.12632C1.87527 8.17922 1.82117 8.22249 1.80661 8.22249C1.77171 8.22249 0.97561 9.00769 0.97561 9.04212C0.97561 9.05676 0.942683 9.09906 0.902439 9.1361C0.862195 9.17315 0.829268 9.21643 0.829268 9.23227C0.829268 9.24812 0.796341 9.29139 0.756098 9.32844C0.715854 9.36549 0.682927 9.41074 0.682927 9.42894C0.682927 9.44716 0.660976 9.47767 0.634146 9.49674C0.607317 9.51581 0.585366 9.55064 0.585366 9.57418C0.585366 9.59769 0.57439 9.61695 0.560976 9.61695C0.547561 9.61695 0.536585 9.63859 0.536585 9.66504C0.536585 9.69148 0.52561 9.71312 0.512195 9.71312C0.49878 9.71312 0.487805 9.73476 0.487805 9.76121C0.487805 9.78765 0.476829 9.80929 0.463415 9.80929C0.45 9.80929 0.439024 9.83093 0.439024 9.85738C0.439024 9.88382 0.428049 9.90546 0.414634 9.90546C0.401219 9.90546 0.390244 9.9271 0.390244 9.95355C0.390244 9.97999 0.379268 10.0016 0.365854 10.0016C0.352439 10.0016 0.341463 10.0233 0.341463 10.0497C0.341463 10.0762 0.330488 10.0978 0.317073 10.0978C0.303659 10.0978 0.292683 10.1194 0.292683 10.1459C0.292683 10.1723 0.281707 10.194 0.268293 10.194C0.254878 10.194 0.243902 10.2264 0.243902 10.2661C0.243902 10.3058 0.232927 10.3382 0.219512 10.3382C0.206098 10.3382 0.195122 10.3707 0.195122 10.4104C0.195122 10.45 0.184146 10.4825 0.170732 10.4825C0.157317 10.4825 0.146341 10.5149 0.146341 10.5546C0.146341 10.5943 0.135366 10.6267 0.121951 10.6267C0.108537 10.6267 0.097561 10.6808 0.097561 10.7469C0.097561 10.8131 0.0865854 10.8672 0.0731707 10.8672C0.0596098 10.8672 0.0487805 10.9313 0.0487805 11.0114C0.0487805 11.0915 0.0379512 11.1557 0.0243902 11.1557C0.00929268 11.1557 0 11.2839 0 11.4923C0 11.7006 0.00929268 11.8289 0.0243902 11.8289C0.0379512 11.8289 0.0487805 11.893 0.0487805 11.9731C0.0487805 12.0532 0.0596098 12.1174 0.0731707 12.1174C0.0865854 12.1174 0.097561 12.1715 0.097561 12.2376C0.097561 12.3037 0.108537 12.3578 0.121951 12.3578C0.135366 12.3578 0.146341 12.3902 0.146341 12.4299C0.146341 12.4696 0.157317 12.502 0.170732 12.502C0.184146 12.502 0.195122 12.5453 0.195122 12.5982C0.195122 12.6511 0.206098 12.6944 0.219512 12.6944C0.232927 12.6944 0.243902 12.716 0.243902 12.7425C0.243902 12.7689 0.254878 12.7905 0.268293 12.7905C0.281707 12.7905 0.292683 12.823 0.292683 12.8627C0.292683 12.9023 0.303659 12.9348 0.317073 12.9348C0.330488 12.9348 0.341463 12.9564 0.341463 12.9829C0.341463 13.0093 0.352439 13.031 0.365854 13.031C0.379268 13.031 0.390244 13.0526 0.390244 13.0791C0.390244 13.1055 0.401219 13.1271 0.414634 13.1271C0.428049 13.1271 0.439024 13.1488 0.439024 13.1752C0.439024 13.2017 0.45 13.2233 0.463415 13.2233C0.476829 13.2233 0.487805 13.2426 0.487805 13.2661C0.487805 13.2896 0.509756 13.3245 0.536585 13.3435C0.563415 13.3626 0.585366 13.395 0.585366 13.4156C0.585366 13.4363 0.607317 13.4687 0.634146 13.4878C0.660976 13.5068 0.682927 13.5393 0.682927 13.5599C0.682927 13.5805 0.704878 13.613 0.731707 13.632C0.758537 13.6511 0.780488 13.6816 0.780488 13.6998C0.780488 13.718 0.813415 13.7633 0.853658 13.8003C0.893902 13.8374 0.926829 13.8803 0.926829 13.8957C0.926829 13.9111 0.981707 13.9763 1.04878 14.0408C1.11585 14.1052 1.17073 14.1695 1.17073 14.1838C1.17073 14.2176 1.52771 14.5697 1.56193 14.5697C1.57632 14.5697 1.65271 14.6346 1.73171 14.7139C1.81071 14.7933 1.88802 14.8582 1.90349 14.8582C1.91898 14.8582 1.96241 14.8906 2 14.9303C2.03759 14.97 2.08149 15.0024 2.09756 15.0024C2.11363 15.0024 2.15754 15.0349 2.19512 15.0746C2.23271 15.1142 2.27861 15.1467 2.29707 15.1467C2.31556 15.1467 2.34651 15.1683 2.36585 15.1948C2.3852 15.2212 2.41812 15.2429 2.43902 15.2429C2.45993 15.2429 2.49285 15.2645 2.5122 15.291C2.53154 15.3174 2.56446 15.339 2.58537 15.339C2.60627 15.339 2.63919 15.3607 2.65854 15.3871C2.67788 15.4136 2.7108 15.4352 2.73171 15.4352C2.75261 15.4352 2.78554 15.4568 2.80488 15.4833C2.82422 15.5097 2.85956 15.5314 2.88344 15.5314C2.90729 15.5314 2.92683 15.5422 2.92683 15.5554C2.92683 15.5686 2.94878 15.5795 2.97561 15.5795C3.00244 15.5795 3.02439 15.5903 3.02439 15.6035C3.02439 15.6167 3.04634 15.6275 3.07317 15.6275C3.1 15.6275 3.12195 15.6384 3.12195 15.6516C3.12195 15.6648 3.1439 15.6756 3.17073 15.6756C3.19756 15.6756 3.21951 15.6865 3.21951 15.6997C3.21951 15.7129 3.23905 15.7237 3.2629 15.7237C3.28678 15.7237 3.32212 15.7454 3.34146 15.7718C3.3608 15.7982 3.39615 15.8199 3.42002 15.8199C3.44388 15.8199 3.46341 15.8307 3.46341 15.8439C3.46341 15.8572 3.48537 15.868 3.5122 15.868C3.53902 15.868 3.56098 15.8788 3.56098 15.892C3.56098 15.9052 3.58293 15.9161 3.60976 15.9161C3.63659 15.9161 3.65854 15.9269 3.65854 15.9401C3.65854 15.9533 3.68049 15.9641 3.70732 15.9641C3.73415 15.9641 3.7561 15.975 3.7561 15.9882C3.7561 16.0014 3.78902 16.0122 3.82927 16.0122C3.86951 16.0122 3.90244 16.023 3.90244 16.0363C3.90244 16.0495 3.92439 16.0603 3.95122 16.0603C3.97805 16.0603 4 16.0711 4 16.0844C4 16.0976 4.02195 16.1084 4.04878 16.1084C4.07561 16.1084 4.09756 16.1192 4.09756 16.1324C4.09756 16.1457 4.13049 16.1565 4.17073 16.1565C4.21098 16.1565 4.2439 16.1673 4.2439 16.1805C4.2439 16.1937 4.26585 16.2046 4.29268 16.2046C4.31951 16.2046 4.34146 16.2154 4.34146 16.2286C4.34146 16.2418 4.37439 16.2526 4.41463 16.2526C4.45488 16.2526 4.4878 16.2635 4.4878 16.2767C4.4878 16.2899 4.50976 16.3007 4.53659 16.3007C4.56341 16.3007 4.58537 16.3116 4.58537 16.3248C4.58537 16.338 4.61829 16.3488 4.65854 16.3488C4.69878 16.3488 4.73171 16.3596 4.73171 16.3729C4.73171 16.3861 4.76463 16.3969 4.80488 16.3969C4.84512 16.3969 4.87805 16.4077 4.87805 16.4209C4.87805 16.4342 4.91098 16.445 4.95122 16.445C4.99146 16.445 5.02439 16.4558 5.02439 16.469C5.02439 16.4823 5.05732 16.4931 5.09756 16.4931C5.1378 16.4931 5.17073 16.5039 5.17073 16.5171C5.17073 16.5303 5.20366 16.5412 5.2439 16.5412C5.28415 16.5412 5.31707 16.552 5.31707 16.5652C5.31707 16.5784 5.35 16.5892 5.39024 16.5892C5.43049 16.5892 5.46341 16.6001 5.46341 16.6133C5.46341 16.6265 5.50732 16.6373 5.56098 16.6373C5.61463 16.6373 5.65854 16.6481 5.65854 16.6614C5.65854 16.6746 5.69146 16.6854 5.73171 16.6854C5.77195 16.6854 5.80488 16.6962 5.80488 16.7095C5.80488 16.7227 5.84878 16.7335 5.90244 16.7335C5.9561 16.7335 6 16.7443 6 16.7575C6 16.7708 6.0439 16.7816 6.09756 16.7816C6.15122 16.7816 6.19512 16.7924 6.19512 16.8056C6.19512 16.8188 6.23902 16.8297 6.29268 16.8297C6.34634 16.8297 6.39024 16.8405 6.39024 16.8537C6.39024 16.8669 6.44512 16.8778 6.5122 16.8778C6.57927 16.8778 6.63415 16.8886 6.63415 16.9018C6.63415 16.915 6.68902 16.9258 6.7561 16.9258C6.82317 16.9258 6.87805 16.9367 6.87805 16.9499C6.87805 16.9631 6.93293 16.9739 7 16.9739C7.06707 16.9739 7.12195 16.9847 7.12195 16.998C7.12195 17.0117 7.19512 17.022 7.29268 17.022C7.39024 17.022 7.46341 17.0323 7.46341 17.046C7.46341 17.0598 7.53658 17.0701 7.63415 17.0701C7.73171 17.0701 7.80488 17.0804 7.80488 17.0941C7.80488 17.1082 7.88617 17.1182 8 17.1182C8.11383 17.1182 8.19512 17.1282 8.19512 17.1422C8.19512 17.1568 8.3008 17.1663 8.46341 17.1663C8.62602 17.1663 8.73171 17.1757 8.73171 17.1903C8.73171 17.2054 8.89432 17.2143 9.17073 17.2143C9.54651 17.2143 9.60976 17.2196 9.60976 17.2507C9.60976 17.2708 9.32429 17.5682 8.97537 17.9118L8.341 18.5365L8.91427 19.1016C9.22958 19.4124 9.49861 19.6667 9.51212 19.6667C9.55202 19.6667 12.3902 16.8572 12.3902 16.8177C12.3902 16.7978 12.4012 16.7816 12.4146 16.7816C12.428 16.7816 12.439 16.7491 12.439 16.7095C12.439 16.6698 12.45 16.6373 12.4634 16.6373C12.4779 16.6373 12.4878 16.5492 12.4878 16.4209C12.4878 16.2927 12.4779 16.2046 12.4634 16.2046C12.45 16.2046 12.439 16.1721 12.439 16.1324C12.439 16.0928 12.428 16.0603 12.4146 16.0603C12.4012 16.0603 12.3902 16.0441 12.3902 16.0242C12.3902 15.9847 9.55202 13.1752 9.51212 13.1752C9.49861 13.1752 9.22958 13.4295 8.91427 13.7403L8.341 14.3054L8.97537 14.9301C9.32429 15.2736 9.60976 15.5603 9.60976 15.5671C9.60976 15.5739 9.44512 15.5795 9.2439 15.5795C9.01627 15.5795 8.87805 15.5704 8.87805 15.5554C8.87805 15.5409 8.77237 15.5314 8.60976 15.5314C8.44715 15.5314 8.34146 15.5219 8.34146 15.5073C8.34146 15.4931 8.25202 15.4833 8.12195 15.4833C7.99188 15.4833 7.90244 15.4735 7.90244 15.4593C7.90244 15.4455 7.82927 15.4352 7.73171 15.4352C7.63415 15.4352 7.56098 15.4249 7.56098 15.4112C7.56098 15.3979 7.5061 15.3871 7.43902 15.3871C7.37195 15.3871 7.31707 15.3763 7.31707 15.3631C7.31707 15.3499 7.26219 15.339 7.19512 15.339C7.12805 15.339 7.07317 15.3282 7.07317 15.315C7.07317 15.3018 7.01829 15.291 6.95122 15.291C6.88415 15.291 6.82927 15.2801 6.82927 15.2669C6.82927 15.2537 6.77439 15.2429 6.70732 15.2429C6.64024 15.2429 6.58537 15.2321 6.58537 15.2188C6.58537 15.2056 6.54146 15.1948 6.4878 15.1948C6.43415 15.1948 6.39024 15.184 6.39024 15.1707C6.39024 15.1575 6.34634 15.1467 6.29268 15.1467C6.23902 15.1467 6.19512 15.1359 6.19512 15.1227C6.19512 15.1094 6.16219 15.0986 6.12195 15.0986C6.08171 15.0986 6.04878 15.0878 6.04878 15.0746C6.04878 15.0613 6.00488 15.0505 5.95122 15.0505C5.89756 15.0505 5.85366 15.0397 5.85366 15.0265C5.85366 15.0133 5.82073 15.0024 5.78049 15.0024C5.74024 15.0024 5.70732 14.9916 5.70732 14.9784C5.70732 14.9652 5.67439 14.9544 5.63415 14.9544C5.5939 14.9544 5.56098 14.9435 5.56098 14.9303C5.56098 14.9171 5.52805 14.9063 5.4878 14.9063C5.44756 14.9063 5.41463 14.8955 5.41463 14.8822C5.41463 14.869 5.38171 14.8582 5.34146 14.8582C5.30122 14.8582 5.26829 14.8474 5.26829 14.8341C5.26829 14.8209 5.24634 14.8101 5.21951 14.8101C5.19268 14.8101 5.17073 14.7993 5.17073 14.7861C5.17073 14.7728 5.1378 14.762 5.09756 14.762C5.05732 14.762 5.02439 14.7512 5.02439 14.738C5.02439 14.7248 5.00244 14.7139 4.97561 14.7139C4.94878 14.7139 4.92683 14.7031 4.92683 14.6899C4.92683 14.6767 4.8939 14.6659 4.85366 14.6659C4.81341 14.6659 4.78049 14.655 4.78049 14.6418C4.78049 14.6286 4.75854 14.6178 4.73171 14.6178C4.70488 14.6178 4.68293 14.6069 4.68293 14.5937C4.68293 14.5805 4.65 14.5697 4.60976 14.5697C4.56951 14.5697 4.53659 14.5589 4.53659 14.5456C4.53659 14.5324 4.51463 14.5216 4.4878 14.5216C4.46098 14.5216 4.43902 14.5108 4.43902 14.4976C4.43902 14.4843 4.41707 14.4735 4.39024 14.4735C4.36341 14.4735 4.34146 14.4627 4.34146 14.4495C4.34146 14.4362 4.31951 14.4254 4.29268 14.4254C4.26585 14.4254 4.2439 14.4146 4.2439 14.4014C4.2439 14.3882 4.22195 14.3773 4.19512 14.3773C4.16829 14.3773 4.14634 14.3665 4.14634 14.3533C4.14634 14.3401 4.12439 14.3293 4.09756 14.3293C4.07073 14.3293 4.04878 14.3184 4.04878 14.3052C4.04878 14.292 4.02924 14.2812 4.00539 14.2812C3.98151 14.2812 3.94617 14.2595 3.92683 14.2331C3.90749 14.2066 3.87215 14.185 3.84827 14.185C3.82441 14.185 3.80488 14.1742 3.80488 14.161C3.80488 14.1477 3.78293 14.1369 3.7561 14.1369C3.72927 14.1369 3.70732 14.1261 3.70732 14.1129C3.70732 14.0997 3.68778 14.0888 3.66393 14.0888C3.64005 14.0888 3.60471 14.0672 3.58537 14.0408C3.56602 14.0143 3.5331 13.9927 3.5122 13.9927C3.49129 13.9927 3.45837 13.971 3.43902 13.9446C3.41968 13.9181 3.38676 13.8965 3.36585 13.8965C3.34495 13.8965 3.31202 13.8749 3.29268 13.8484C3.27334 13.822 3.24263 13.8003 3.22441 13.8003C3.2062 13.8003 3.14912 13.7571 3.09756 13.7042C3.046 13.6513 2.99127 13.608 2.97593 13.608C2.96061 13.608 2.89461 13.5539 2.82927 13.4878C2.76393 13.4217 2.69851 13.3676 2.68388 13.3676C2.64922 13.3676 2.43902 13.1604 2.43902 13.1262C2.43902 13.1118 2.38415 13.0473 2.31707 12.9829C2.25 12.9185 2.19512 12.8532 2.19512 12.8378C2.19512 12.8224 2.16219 12.7795 2.12195 12.7425C2.08171 12.7054 2.04878 12.6578 2.04878 12.6367C2.04878 12.6155 2.0378 12.5982 2.02439 12.5982C2.01098 12.5982 2 12.5766 2 12.5501C2 12.5237 1.98902 12.502 1.97561 12.502C1.9622 12.502 1.95122 12.4804 1.95122 12.454C1.95122 12.4275 1.94024 12.4059 1.92683 12.4059C1.91341 12.4059 1.90244 12.3842 1.90244 12.3578C1.90244 12.3313 1.89146 12.3097 1.87805 12.3097C1.86463 12.3097 1.85366 12.2881 1.85366 12.2616C1.85366 12.2352 1.84268 12.2135 1.82927 12.2135C1.81585 12.2135 1.80488 12.1919 1.80488 12.1654C1.80488 12.139 1.7939 12.1174 1.78049 12.1174C1.76707 12.1174 1.7561 12.0741 1.7561 12.0212C1.7561 11.9683 1.74512 11.925 1.73171 11.925C1.71815 11.925 1.70732 11.8609 1.70732 11.7808C1.70732 11.7006 1.69649 11.6365 1.68293 11.6365C1.66937 11.6365 1.65854 11.5724 1.65854 11.4923C1.65854 11.4121 1.66937 11.348 1.68293 11.348C1.69649 11.348 1.70732 11.2839 1.70732 11.2037C1.70732 11.1236 1.71815 11.0595 1.73171 11.0595C1.74512 11.0595 1.7561 11.027 1.7561 10.9874C1.7561 10.9477 1.76707 10.9152 1.78049 10.9152C1.7939 10.9152 1.80488 10.8828 1.80488 10.8431C1.80488 10.8034 1.81585 10.771 1.82927 10.771C1.84268 10.771 1.85366 10.7493 1.85366 10.7229C1.85366 10.6965 1.86463 10.6748 1.87805 10.6748C1.89146 10.6748 1.90244 10.6532 1.90244 10.6267C1.90244 10.6003 1.91341 10.5786 1.92683 10.5786C1.94024 10.5786 1.95122 10.557 1.95122 10.5306C1.95122 10.5041 1.9622 10.4825 1.97561 10.4825C1.98902 10.4825 2 10.4632 2 10.4397C2 10.4162 2.02195 10.3813 2.04878 10.3623C2.07561 10.3432 2.09756 10.3127 2.09756 10.2945C2.09756 10.2763 2.13049 10.231 2.17073 10.194C2.21098 10.1569 2.2439 10.1146 2.2439 10.1C2.2439 10.0655 2.89356 9.42461 2.92851 9.42461C2.9431 9.42461 2.99722 9.38134 3.04878 9.32844C3.10034 9.27555 3.15741 9.23227 3.17563 9.23227C3.19385 9.23227 3.22456 9.21064 3.2439 9.18419C3.26324 9.15774 3.28761 9.1361 3.29807 9.1361C3.30851 9.1361 3.31707 9.49313 3.31707 9.9295C3.31707 10.4424 3.32571 10.7229 3.34146 10.7229C3.35488 10.7229 3.36585 10.777 3.36585 10.8431C3.36585 10.9092 3.37683 10.9633 3.39024 10.9633C3.40366 10.9633 3.41463 10.985 3.41463 11.0114C3.41463 11.0379 3.42561 11.0595 3.43902 11.0595C3.45244 11.0595 3.46341 11.076 3.46341 11.0961C3.46341 11.1437 3.71946 11.3961 3.76776 11.3961C3.78817 11.3961 3.80488 11.4069 3.80488 11.4201C3.80488 11.4334 3.8378 11.4442 3.87805 11.4442C3.91829 11.4442 3.95122 11.455 3.95122 11.4682C3.95122 11.4842 5.98373 11.4923 10 11.4923C14.0163 11.4923 16.0488 11.4842 16.0488 11.4682C16.0488 11.455 16.0793 11.4442 16.1166 11.4442C16.1564 11.4442 16.1989 11.4243 16.2195 11.3961C16.2389 11.3696 16.269 11.348 16.2865 11.348C16.3309 11.348 16.5366 11.1409 16.5366 11.0962C16.5366 11.076 16.5476 11.0595 16.561 11.0595C16.5744 11.0595 16.5854 11.0379 16.5854 11.0114C16.5854 10.985 16.5963 10.9633 16.6098 10.9633C16.6232 10.9633 16.6341 10.9092 16.6341 10.8431C16.6341 10.777 16.6451 10.7229 16.6585 10.7229C16.6743 10.7229 16.6829 10.4424 16.6829 9.9295C16.6829 9.49313 16.6915 9.1361 16.7019 9.1361C16.7124 9.1361 16.7368 9.15774 16.7561 9.18419C16.7754 9.21064 16.8061 9.23227 16.8244 9.23227C16.8426 9.23227 16.8997 9.27555 16.9512 9.32844C17.0028 9.38134 17.0569 9.42461 17.0715 9.42461C17.1064 9.42461 17.7561 10.0655 17.7561 10.1C17.7561 10.1146 17.789 10.1569 17.8293 10.194C17.8695 10.231 17.9024 10.2763 17.9024 10.2945C17.9024 10.3127 17.9244 10.3432 17.9512 10.3623C17.978 10.3813 18 10.4162 18 10.4397C18 10.4632 18.011 10.4825 18.0244 10.4825C18.0378 10.4825 18.0488 10.5041 18.0488 10.5306C18.0488 10.557 18.0598 10.5786 18.0732 10.5786C18.0866 10.5786 18.0976 10.6003 18.0976 10.6267C18.0976 10.6532 18.1085 10.6748 18.122 10.6748C18.1354 10.6748 18.1463 10.6965 18.1463 10.7229C18.1463 10.7493 18.1573 10.771 18.1707 10.771C18.1841 10.771 18.1951 10.8034 18.1951 10.8431C18.1951 10.8828 18.2061 10.9152 18.2195 10.9152C18.2329 10.9152 18.2439 10.9477 18.2439 10.9874C18.2439 11.027 18.2549 11.0595 18.2683 11.0595C18.2819 11.0595 18.2927 11.1236 18.2927 11.2037C18.2927 11.2839 18.3035 11.348 18.3171 11.348C18.3306 11.348 18.3415 11.4121 18.3415 11.4923C18.3415 11.5724 18.3306 11.6365 18.3171 11.6365C18.3035 11.6365 18.2927 11.7006 18.2927 11.7808C18.2927 11.8609 18.2819 11.925 18.2683 11.925C18.2549 11.925 18.2439 11.9683 18.2439 12.0212C18.2439 12.0741 18.2329 12.1174 18.2195 12.1174C18.2061 12.1174 18.1951 12.139 18.1951 12.1654C18.1951 12.1919 18.1841 12.2135 18.1707 12.2135C18.1573 12.2135 18.1463 12.2352 18.1463 12.2616C18.1463 12.2881 18.1354 12.3097 18.122 12.3097C18.1085 12.3097 18.0976 12.3313 18.0976 12.3578C18.0976 12.3842 18.0866 12.4059 18.0732 12.4059C18.0598 12.4059 18.0488 12.4275 18.0488 12.454C18.0488 12.4804 18.0378 12.502 18.0244 12.502C18.011 12.502 18 12.5237 18 12.5501C18 12.5766 17.989 12.5982 17.9756 12.5982C17.9622 12.5982 17.9512 12.6155 17.9512 12.6367C17.9512 12.6578 17.9183 12.7054 17.878 12.7425C17.8378 12.7795 17.8049 12.8223 17.8049 12.8376C17.8049 12.8528 17.739 12.9291 17.6585 13.0069C17.578 13.0848 17.5122 13.1604 17.5122 13.175C17.5122 13.2092 17.4005 13.3195 17.3658 13.3195C17.3511 13.3195 17.2633 13.3952 17.1707 13.4878C17.0781 13.5803 16.9898 13.6561 16.9744 13.6561C16.959 13.6561 16.9156 13.6885 16.878 13.7282C16.8405 13.7679 16.7946 13.8003 16.7761 13.8003C16.7576 13.8003 16.7267 13.822 16.7073 13.8484C16.688 13.8749 16.655 13.8965 16.6341 13.8965C16.6132 13.8965 16.5803 13.9181 16.561 13.9446C16.5416 13.971 16.5087 13.9927 16.4878 13.9927C16.4669 13.9927 16.434 14.0143 16.4146 14.0408C16.3953 14.0672 16.36 14.0888 16.3361 14.0888C16.3122 14.0888 16.2927 14.0997 16.2927 14.1129C16.2927 14.1261 16.2707 14.1369 16.2439 14.1369C16.2171 14.1369 16.1951 14.1477 16.1951 14.161C16.1951 14.1742 16.1756 14.185 16.1517 14.185C16.1279 14.185 16.0925 14.2066 16.0732 14.2331C16.0538 14.2595 16.0185 14.2812 15.9946 14.2812C15.9708 14.2812 15.9512 14.292 15.9512 14.3052C15.9512 14.3184 15.9293 14.3293 15.9024 14.3293C15.8756 14.3293 15.8537 14.3401 15.8537 14.3533C15.8537 14.3665 15.8317 14.3773 15.8049 14.3773C15.778 14.3773 15.7561 14.3882 15.7561 14.4014C15.7561 14.4146 15.7341 14.4254 15.7073 14.4254C15.6805 14.4254 15.6585 14.4362 15.6585 14.4495C15.6585 14.4627 15.6366 14.4735 15.6098 14.4735C15.5829 14.4735 15.561 14.4843 15.561 14.4976C15.561 14.5108 15.539 14.5216 15.5122 14.5216C15.4854 14.5216 15.4634 14.5324 15.4634 14.5456C15.4634 14.5589 15.4305 14.5697 15.3902 14.5697C15.35 14.5697 15.3171 14.5805 15.3171 14.5937C15.3171 14.6069 15.2951 14.6178 15.2683 14.6178C15.2415 14.6178 15.2195 14.6286 15.2195 14.6418C15.2195 14.655 15.1976 14.6659 15.1707 14.6659C15.1439 14.6659 15.122 14.6767 15.122 14.6899C15.122 14.7031 15.089 14.7139 15.0488 14.7139C15.0085 14.7139 14.9756 14.7248 14.9756 14.738C14.9756 14.7512 14.9537 14.762 14.9268 14.762C14.9 14.762 14.878 14.7728 14.878 14.7861C14.878 14.7993 14.8451 14.8101 14.8049 14.8101C14.7646 14.8101 14.7317 14.8209 14.7317 14.8341C14.7317 14.8474 14.6988 14.8582 14.6585 14.8582C14.6183 14.8582 14.5854 14.869 14.5854 14.8822C14.5854 14.8955 14.5524 14.9063 14.5122 14.9063C14.472 14.9063 14.439 14.9171 14.439 14.9303C14.439 14.9435 14.4061 14.9544 14.3659 14.9544C14.3256 14.9544 14.2927 14.9652 14.2927 14.9784C14.2927 14.9916 14.2754 15.0024 14.2544 15.0024C14.1499 15.0024 14.1463 15.031 14.1463 15.8783V16.6854H14.2439C14.2976 16.6854 14.3415 16.6746 14.3415 16.6614C14.3415 16.6481 14.3854 16.6373 14.439 16.6373C14.4927 16.6373 14.5366 16.6265 14.5366 16.6133C14.5366 16.6001 14.5695 16.5892 14.6098 16.5892C14.65 16.5892 14.6829 16.5784 14.6829 16.5652C14.6829 16.552 14.7159 16.5412 14.7561 16.5412C14.7963 16.5412 14.8293 16.5303 14.8293 16.5171C14.8293 16.5039 14.8622 16.4931 14.9024 16.4931C14.9427 16.4931 14.9756 16.4823 14.9756 16.469C14.9756 16.4558 15.0085 16.445 15.0488 16.445C15.089 16.445 15.122 16.4342 15.122 16.4209C15.122 16.4077 15.1549 16.3969 15.1951 16.3969C15.2354 16.3969 15.2683 16.3861 15.2683 16.3729C15.2683 16.3596 15.3012 16.3488 15.3415 16.3488C15.3817 16.3488 15.4146 16.338 15.4146 16.3248C15.4146 16.3116 15.4366 16.3007 15.4634 16.3007C15.4902 16.3007 15.5122 16.2899 15.5122 16.2767C15.5122 16.2635 15.5451 16.2526 15.5854 16.2526C15.6256 16.2526 15.6585 16.2418 15.6585 16.2286C15.6585 16.2154 15.6805 16.2046 15.7073 16.2046C15.7341 16.2046 15.7561 16.1937 15.7561 16.1805C15.7561 16.1673 15.789 16.1565 15.8293 16.1565C15.8695 16.1565 15.9024 16.1457 15.9024 16.1324C15.9024 16.1192 15.9244 16.1084 15.9512 16.1084C15.978 16.1084 16 16.0976 16 16.0844C16 16.0711 16.0219 16.0603 16.0488 16.0603C16.0756 16.0603 16.0976 16.0495 16.0976 16.0363C16.0976 16.023 16.1195 16.0122 16.1463 16.0122C16.1732 16.0122 16.1951 16.0014 16.1951 15.9882C16.1951 15.975 16.228 15.9641 16.2683 15.9641C16.3085 15.9641 16.3415 15.9533 16.3415 15.9401C16.3415 15.9269 16.3634 15.9161 16.3902 15.9161C16.4171 15.9161 16.439 15.9052 16.439 15.892C16.439 15.8788 16.461 15.868 16.4878 15.868C16.5146 15.868 16.5366 15.8572 16.5366 15.8439C16.5366 15.8307 16.5585 15.8199 16.5854 15.8199C16.6122 15.8199 16.6341 15.8091 16.6341 15.7958C16.6341 15.7826 16.6537 15.7718 16.6775 15.7718C16.7014 15.7718 16.7368 15.7502 16.7561 15.7237C16.7754 15.6973 16.8108 15.6756 16.8347 15.6756C16.8585 15.6756 16.878 15.6648 16.878 15.6516C16.878 15.6384 16.9 15.6275 16.9268 15.6275C16.9537 15.6275 16.9756 15.6167 16.9756 15.6035C16.9756 15.5903 16.9951 15.5795 17.019 15.5795C17.0429 15.5795 17.0782 15.5578 17.0976 15.5314C17.1169 15.5049 17.1522 15.4833 17.1761 15.4833C17.2 15.4833 17.2195 15.4725 17.2195 15.4593C17.2195 15.446 17.239 15.4352 17.2629 15.4352C17.2868 15.4352 17.3221 15.4136 17.3415 15.3871C17.3608 15.3607 17.3937 15.339 17.4146 15.339C17.4355 15.339 17.4685 15.3174 17.4878 15.291C17.5071 15.2645 17.5401 15.2429 17.561 15.2429C17.5819 15.2429 17.6148 15.2212 17.6341 15.1948C17.6535 15.1683 17.6844 15.1467 17.7029 15.1467C17.7214 15.1467 17.7673 15.1142 17.8049 15.0746C17.8425 15.0349 17.8864 15.0024 17.9024 15.0024C17.9185 15.0024 17.9624 14.97 18 14.9303C18.0376 14.8906 18.081 14.8582 18.0965 14.8582C18.112 14.8582 18.1893 14.7933 18.2683 14.7139C18.3473 14.6346 18.4237 14.5697 18.4381 14.5697C18.4723 14.5697 18.8293 14.2176 18.8293 14.1838C18.8293 14.1695 18.8841 14.1052 18.9512 14.0408C19.0183 13.9763 19.0732 13.9111 19.0732 13.8957C19.0732 13.8803 19.1061 13.8374 19.1463 13.8003C19.1866 13.7633 19.2195 13.72 19.2195 13.7042C19.2195 13.6883 19.2524 13.645 19.2927 13.608C19.3329 13.5709 19.3659 13.5233 19.3659 13.5022C19.3659 13.481 19.3768 13.4637 19.3902 13.4637C19.4037 13.4637 19.4146 13.4445 19.4146 13.421C19.4146 13.3974 19.4366 13.3626 19.4634 13.3435C19.4902 13.3245 19.5122 13.2896 19.5122 13.2661C19.5122 13.2426 19.5232 13.2233 19.5366 13.2233C19.55 13.2233 19.561 13.2017 19.561 13.1752C19.561 13.1488 19.572 13.1271 19.5854 13.1271C19.5988 13.1271 19.6098 13.1055 19.6098 13.0791C19.6098 13.0526 19.6207 13.031 19.6341 13.031C19.6476 13.031 19.6585 13.0093 19.6585 12.9829C19.6585 12.9564 19.6695 12.9348 19.6829 12.9348C19.6963 12.9348 19.7073 12.9023 19.7073 12.8627C19.7073 12.823 19.7183 12.7905 19.7317 12.7905C19.7451 12.7905 19.7561 12.7581 19.7561 12.7184C19.7561 12.6788 19.7671 12.6463 19.7805 12.6463C19.7939 12.6463 19.8049 12.6138 19.8049 12.5742C19.8049 12.5345 19.8159 12.502 19.8293 12.502C19.8427 12.502 19.8537 12.4696 19.8537 12.4299C19.8537 12.3902 19.8646 12.3578 19.878 12.3578C19.8915 12.3578 19.9024 12.3145 19.9024 12.2616C19.9024 12.2087 19.9134 12.1654 19.9268 12.1654C19.941 12.1654 19.9512 12.0853 19.9512 11.9731C19.9512 11.8609 19.9614 11.7808 19.9756 11.7808C19.9905 11.7808 20 11.6686 20 11.4923C20 11.316 19.9905 11.2037 19.9756 11.2037C19.9617 11.2037 19.9512 11.1316 19.9512 11.0355C19.9512 10.9393 19.9408 10.8672 19.9268 10.8672C19.9134 10.8672 19.9024 10.8131 19.9024 10.7469C19.9024 10.6808 19.8915 10.6267 19.878 10.6267C19.8646 10.6267 19.8537 10.5943 19.8537 10.5546C19.8537 10.5149 19.8427 10.4825 19.8293 10.4825C19.8159 10.4825 19.8049 10.45 19.8049 10.4104C19.8049 10.3707 19.7939 10.3382 19.7805 10.3382C19.7671 10.3382 19.7561 10.3058 19.7561 10.2661C19.7561 10.2264 19.7451 10.194 19.7317 10.194C19.7183 10.194 19.7073 10.1723 19.7073 10.1459C19.7073 10.1194 19.6963 10.0978 19.6829 10.0978C19.6695 10.0978 19.6585 10.0762 19.6585 10.0497C19.6585 10.0233 19.6476 10.0016 19.6341 10.0016C19.6207 10.0016 19.6098 9.97999 19.6098 9.95355C19.6098 9.9271 19.5988 9.90546 19.5854 9.90546C19.572 9.90546 19.561 9.88382 19.561 9.85738C19.561 9.83093 19.55 9.80929 19.5366 9.80929C19.5232 9.80929 19.5122 9.78765 19.5122 9.76121C19.5122 9.73476 19.5012 9.71312 19.4878 9.71312C19.4744 9.71312 19.4634 9.69148 19.4634 9.66504C19.4634 9.63859 19.4524 9.61695 19.439 9.61695C19.4256 9.61695 19.4146 9.59769 19.4146 9.57418C19.4146 9.55064 19.3927 9.51581 19.3659 9.49674C19.339 9.47767 19.3171 9.44716 19.3171 9.42894C19.3171 9.41074 19.2841 9.36549 19.2439 9.32844C19.2037 9.29139 19.1707 9.24812 19.1707 9.23227C19.1707 9.21643 19.1378 9.17315 19.0976 9.1361C19.0573 9.09906 19.0244 9.05676 19.0244 9.04212C19.0244 9.00769 18.2283 8.22249 18.1934 8.22249C18.1788 8.22249 18.1247 8.17922 18.0732 8.12632C18.0216 8.07343 17.9665 8.03016 17.9507 8.03016C17.9349 8.03016 17.8912 7.9977 17.8537 7.95803C17.8161 7.91836 17.7702 7.8859 17.7517 7.8859C17.7332 7.8859 17.7023 7.86426 17.6829 7.83782C17.6636 7.81137 17.6307 7.78973 17.6098 7.78973C17.5889 7.78973 17.5559 7.76809 17.5366 7.74165C17.5172 7.7152 17.4843 7.69356 17.4634 7.69356C17.4425 7.69356 17.4096 7.67192 17.3902 7.64548C17.3709 7.61903 17.338 7.59739 17.3171 7.59739C17.2962 7.59739 17.2632 7.57575 17.2439 7.54931C17.2246 7.52286 17.1892 7.50122 17.1653 7.50122C17.1415 7.50122 17.122 7.4904 17.122 7.47718C17.122 7.46396 17.1 7.45314 17.0732 7.45314C17.0463 7.45314 17.0244 7.44232 17.0244 7.4291C17.0244 7.41587 17.0049 7.40505 16.981 7.40505C16.9571 7.40505 16.9218 7.38342 16.9024 7.35697C16.8831 7.33052 16.8478 7.30888 16.8239 7.30888C16.8 7.30888 16.7805 7.29806 16.7805 7.28484C16.7805 7.27162 16.7585 7.2608 16.7317 7.2608C16.6832 7.2608 16.6829 7.24476 16.6829 4.85656C16.6829 3.26976 16.6746 2.45232 16.6585 2.45232C16.6451 2.45232 16.6341 2.39823 16.6341 2.33211C16.6341 2.26599 16.6232 2.2119 16.6098 2.2119C16.5963 2.2119 16.5854 2.18182 16.5854 2.14509C16.5854 2.10585 16.5652 2.06397 16.5366 2.0436C16.5098 2.02454 16.4878 1.9946 16.4878 1.9771C16.4878 1.93582 16.3776 1.82722 16.3358 1.82722C16.318 1.82722 16.2876 1.80558 16.2683 1.77914C16.249 1.75269 16.2136 1.73105 16.1897 1.73105C16.1659 1.73105 16.1463 1.72023 16.1463 1.70701C16.1463 1.69379 16.1024 1.68297 16.0488 1.68297C15.9951 1.68297 15.9512 1.67215 15.9512 1.65892C15.9512 1.6432 15.4994 1.63488 14.6446 1.63488C13.2649 1.63488 13.2683 1.63515 13.2683 1.5284C13.2683 1.50763 13.2573 1.49063 13.2439 1.49063C13.2305 1.49063 13.2195 1.46899 13.2195 1.44254C13.2195 1.4161 13.2085 1.39446 13.1951 1.39446C13.1817 1.39446 13.1707 1.37282 13.1707 1.34637C13.1707 1.31993 13.1598 1.29829 13.1463 1.29829C13.1329 1.29829 13.122 1.27665 13.122 1.2502C13.122 1.22376 13.111 1.20212 13.0976 1.20212C13.0841 1.20212 13.0732 1.18048 13.0732 1.15403C13.0732 1.12759 13.0622 1.10595 13.0488 1.10595C13.0354 1.10595 13.0244 1.08431 13.0244 1.05786C13.0244 1.03142 13.0134 1.00978 13 1.00978C12.9866 1.00978 12.9756 0.988142 12.9756 0.961695C12.9756 0.935249 12.9646 0.91361 12.9512 0.91361C12.9378 0.91361 12.9268 0.891972 12.9268 0.865526C12.9268 0.839079 12.9159 0.817441 12.9024 0.817441C12.889 0.817441 12.878 0.795803 12.878 0.769356C12.878 0.74291 12.8671 0.721271 12.8537 0.721271C12.8402 0.721271 12.8293 0.699633 12.8293 0.673187C12.8293 0.64674 12.8183 0.625102 12.8049 0.625102C12.7915 0.625102 12.7805 0.603464 12.7805 0.577017C12.7805 0.550571 12.7695 0.528932 12.7561 0.528932C12.7427 0.528932 12.7317 0.507294 12.7317 0.480848C12.7317 0.454401 12.7207 0.432763 12.7073 0.432763C12.6939 0.432763 12.6829 0.416294 12.6829 0.39617C12.6829 0.348566 12.4269 0.0961695 12.3786 0.0961695C12.3582 0.0961695 12.3415 0.0853505 12.3415 0.0721271C12.3415 0.0589038 12.3085 0.0480848 12.2683 0.0480848C12.228 0.0480848 12.1951 0.0372657 12.1951 0.0240424C12.1951 0.00819845 11.4471 0 10 0C8.55285 0 7.80488 0.00819845 7.80488 0.0240424ZM11.4773 1.66924C11.4965 1.68811 11.5122 1.72057 11.5122 1.74137C11.5122 1.76214 11.5232 1.77914 11.5366 1.77914C11.55 1.77914 11.561 1.80077 11.561 1.82722C11.561 1.85367 11.572 1.87531 11.5854 1.87531C11.5988 1.87531 11.6098 1.89694 11.6098 1.92339C11.6098 1.94984 11.6207 1.97148 11.6341 1.97148C11.6476 1.97148 11.6585 1.99311 11.6585 2.01956C11.6585 2.04601 11.6695 2.06764 11.6829 2.06764C11.6963 2.06764 11.7073 2.08928 11.7073 2.11573C11.7073 2.14218 11.7183 2.16381 11.7317 2.16381C11.7451 2.16381 11.7561 2.18545 11.7561 2.2119C11.7561 2.23835 11.7671 2.25998 11.7805 2.25998C11.7939 2.25998 11.8049 2.28162 11.8049 2.30807C11.8049 2.33452 11.8159 2.35615 11.8293 2.35615C11.8427 2.35615 11.8537 2.37779 11.8537 2.40424C11.8537 2.43068 11.8646 2.45232 11.878 2.45232C11.8915 2.45232 11.9024 2.47396 11.9024 2.50041C11.9024 2.52685 11.9134 2.54849 11.9268 2.54849C11.9402 2.54849 11.9512 2.57013 11.9512 2.59658C11.9512 2.62302 11.9622 2.64466 11.9756 2.64466C11.989 2.64466 12 2.6663 12 2.69275C12 2.71919 12.011 2.74083 12.0244 2.74083C12.0378 2.74083 12.0488 2.76247 12.0488 2.78892C12.0488 2.81536 12.0598 2.837 12.0732 2.837C12.0866 2.837 12.0976 2.85864 12.0976 2.88509C12.0976 2.91153 12.1085 2.93317 12.122 2.93317C12.1354 2.93317 12.1463 2.95481 12.1463 2.98126C12.1463 3.0077 12.1573 3.02934 12.1707 3.02934C12.1841 3.02934 12.1951 3.05098 12.1951 3.07742C12.1951 3.10387 12.2061 3.12551 12.2195 3.12551C12.2329 3.12551 12.2439 3.14251 12.2439 3.16328C12.2439 3.27015 12.2389 3.26976 13.6446 3.26976H14.9756V6.56357V9.85738H10H5.02439V6.56357V3.26976H6.35539C7.7611 3.26976 7.7561 3.27015 7.7561 3.16328C7.7561 3.14251 7.76707 3.12551 7.78049 3.12551C7.7939 3.12551 7.80488 3.10387 7.80488 3.07742C7.80488 3.05098 7.81585 3.02934 7.82927 3.02934C7.84268 3.02934 7.85366 3.0077 7.85366 2.98126C7.85366 2.95481 7.86463 2.93317 7.87805 2.93317C7.89146 2.93317 7.90244 2.91153 7.90244 2.88509C7.90244 2.85864 7.91341 2.837 7.92683 2.837C7.94024 2.837 7.95122 2.81536 7.95122 2.78892C7.95122 2.76247 7.96219 2.74083 7.97561 2.74083C7.98902 2.74083 8 2.71919 8 2.69275C8 2.6663 8.01097 2.64466 8.02439 2.64466C8.0378 2.64466 8.04878 2.62302 8.04878 2.59658C8.04878 2.57013 8.05976 2.54849 8.07317 2.54849C8.08659 2.54849 8.09756 2.52685 8.09756 2.50041C8.09756 2.47396 8.10854 2.45232 8.12195 2.45232C8.13537 2.45232 8.14634 2.43068 8.14634 2.40424C8.14634 2.37779 8.15732 2.35615 8.17073 2.35615C8.18415 2.35615 8.19512 2.33452 8.19512 2.30807C8.19512 2.28162 8.2061 2.25998 8.21951 2.25998C8.23293 2.25998 8.2439 2.23835 8.2439 2.2119C8.2439 2.18545 8.25488 2.16381 8.26829 2.16381C8.28171 2.16381 8.29268 2.14218 8.29268 2.11573C8.29268 2.08928 8.30366 2.06764 8.31707 2.06764C8.33049 2.06764 8.34146 2.04601 8.34146 2.01956C8.34146 1.99311 8.35244 1.97148 8.36585 1.97148C8.37927 1.97148 8.39024 1.94984 8.39024 1.92339C8.39024 1.89694 8.40122 1.87531 8.41463 1.87531C8.42805 1.87531 8.43902 1.85367 8.43902 1.82722C8.43902 1.80077 8.45 1.77914 8.46341 1.77914C8.47683 1.77914 8.4878 1.76245 8.4878 1.74206C8.4878 1.63536 8.4679 1.63676 9.99563 1.6358C11.218 1.63503 11.4479 1.64022 11.4773 1.66924ZM9.56098 4.15933C9.56098 4.17256 9.51707 4.18337 9.46341 4.18337C9.40976 4.18337 9.36585 4.19419 9.36585 4.20742C9.36585 4.22064 9.33293 4.23146 9.29268 4.23146C9.25244 4.23146 9.21951 4.24228 9.21951 4.2555C9.21951 4.26872 9.19756 4.27954 9.17073 4.27954C9.1439 4.27954 9.12195 4.29036 9.12195 4.30359C9.12195 4.31681 9.1 4.32763 9.07317 4.32763C9.04634 4.32763 9.02439 4.33845 9.02439 4.35167C9.02439 4.36489 9.00485 4.37571 8.981 4.37571C8.95712 4.37571 8.92178 4.39735 8.90244 4.4238C8.8831 4.45024 8.85239 4.47188 8.83417 4.47188C8.81595 4.47188 8.75888 4.51516 8.70732 4.56805C8.65576 4.62095 8.60124 4.66422 8.58617 4.66422C8.55034 4.66422 8.43902 4.77431 8.43902 4.80975C8.43902 4.8249 8.4061 4.8676 8.36585 4.90465C8.32561 4.9417 8.29268 4.98694 8.29268 5.00514C8.29268 5.02337 8.27073 5.05388 8.2439 5.07294C8.21707 5.09201 8.19512 5.12685 8.19512 5.15038C8.19512 5.1739 8.18415 5.19315 8.17073 5.19315C8.15732 5.19315 8.14634 5.21479 8.14634 5.24124C8.14634 5.26769 8.13537 5.28932 8.12195 5.28932C8.10854 5.28932 8.09756 5.31096 8.09756 5.33741C8.09756 5.36386 8.08659 5.38549 8.07317 5.38549C8.05976 5.38549 8.04878 5.41795 8.04878 5.45762C8.04878 5.49729 8.0378 5.52975 8.02439 5.52975C8.01097 5.52975 8 5.5622 8 5.60187C8 5.64154 7.98902 5.674 7.97561 5.674C7.96168 5.674 7.95122 5.74613 7.95122 5.8423C7.95122 5.93847 7.94076 6.0106 7.92683 6.0106C7.9129 6.0106 7.90244 6.08272 7.90244 6.17889C7.90244 6.27506 7.9129 6.34719 7.92683 6.34719C7.94039 6.34719 7.95122 6.41131 7.95122 6.49144C7.95122 6.57158 7.96205 6.6357 7.97561 6.6357C7.98902 6.6357 8 6.67897 8 6.73187C8 6.78476 8.01097 6.82804 8.02439 6.82804C8.0378 6.82804 8.04878 6.84967 8.04878 6.87612C8.04878 6.90257 8.05976 6.92421 8.07317 6.92421C8.08659 6.92421 8.09756 6.95666 8.09756 6.99633C8.09756 7.036 8.10854 7.06846 8.12195 7.06846C8.13537 7.06846 8.14634 7.08772 8.14634 7.11123C8.14634 7.13477 8.16829 7.16961 8.19512 7.18867C8.22195 7.20774 8.2439 7.24019 8.2439 7.2608C8.2439 7.2814 8.26585 7.31386 8.29268 7.33293C8.31951 7.35199 8.34146 7.38159 8.34146 7.39873C8.34146 7.43934 8.69693 7.78973 8.73812 7.78973C8.75551 7.78973 8.78554 7.81137 8.80488 7.83782C8.82422 7.86426 8.85715 7.8859 8.87805 7.8859C8.89895 7.8859 8.93188 7.90754 8.95122 7.93399C8.97056 7.96043 9.0059 7.98207 9.02978 7.98207C9.05363 7.98207 9.07317 7.99289 9.07317 8.00611C9.07317 8.01934 9.09512 8.03016 9.12195 8.03016C9.14878 8.03016 9.17073 8.04097 9.17073 8.0542C9.17073 8.06742 9.20366 8.07824 9.2439 8.07824C9.28415 8.07824 9.31707 8.08906 9.31707 8.10228C9.31707 8.11551 9.36098 8.12632 9.41463 8.12632C9.46829 8.12632 9.51219 8.13714 9.51219 8.15037C9.51219 8.16359 9.56707 8.17441 9.63415 8.17441C9.70122 8.17441 9.7561 8.18523 9.7561 8.19845C9.7561 8.21288 9.85366 8.22249 10 8.22249C10.1463 8.22249 10.2439 8.21288 10.2439 8.19845C10.2439 8.18508 10.309 8.17441 10.3902 8.17441C10.4715 8.17441 10.5366 8.16373 10.5366 8.15037C10.5366 8.13714 10.5695 8.12632 10.6098 8.12632C10.65 8.12632 10.6829 8.11551 10.6829 8.10228C10.6829 8.08906 10.7159 8.07824 10.7561 8.07824C10.7963 8.07824 10.8293 8.06742 10.8293 8.0542C10.8293 8.04097 10.8512 8.03016 10.878 8.03016C10.9049 8.03016 10.9268 8.01934 10.9268 8.00611C10.9268 7.99289 10.9464 7.98207 10.9702 7.98207C10.9941 7.98207 11.0294 7.96043 11.0488 7.93399C11.0681 7.90754 11.101 7.8859 11.122 7.8859C11.1429 7.8859 11.1758 7.86426 11.1951 7.83782C11.2145 7.81137 11.2445 7.78973 11.2619 7.78973C11.3031 7.78973 11.6585 7.43934 11.6585 7.39873C11.6585 7.38159 11.6805 7.35199 11.7073 7.33293C11.7341 7.31386 11.7561 7.2814 11.7561 7.2608C11.7561 7.24019 11.778 7.20774 11.8049 7.18867C11.8335 7.16831 11.8537 7.12643 11.8537 7.08719C11.8537 7.05045 11.8646 7.02038 11.878 7.02038C11.8915 7.02038 11.9024 6.99874 11.9024 6.97229C11.9024 6.94584 11.9134 6.92421 11.9268 6.92421C11.9402 6.92421 11.9512 6.90257 11.9512 6.87612C11.9512 6.84967 11.9622 6.82804 11.9756 6.82804C11.989 6.82804 12 6.78476 12 6.73187C12 6.67897 12.011 6.6357 12.0244 6.6357C12.0383 6.6357 12.0488 6.56357 12.0488 6.4674C12.0488 6.37123 12.0592 6.2991 12.0732 6.2991C12.0867 6.2991 12.0976 6.23498 12.0976 6.15485C12.0976 6.07472 12.0867 6.0106 12.0732 6.0106C12.0592 6.0106 12.0488 5.93847 12.0488 5.8423C12.0488 5.74613 12.0383 5.674 12.0244 5.674C12.011 5.674 12 5.64154 12 5.60187C12 5.5622 11.989 5.52975 11.9756 5.52975C11.9622 5.52975 11.9512 5.49729 11.9512 5.45762C11.9512 5.41795 11.9402 5.38549 11.9268 5.38549C11.9134 5.38549 11.9024 5.36386 11.9024 5.33741C11.9024 5.31096 11.8915 5.28932 11.878 5.28932C11.8646 5.28932 11.8537 5.26769 11.8537 5.24124C11.8537 5.21479 11.8427 5.19315 11.8293 5.19315C11.8159 5.19315 11.8049 5.1739 11.8049 5.15038C11.8049 5.12685 11.7829 5.09201 11.7561 5.07294C11.7293 5.05388 11.7073 5.02337 11.7073 5.00514C11.7073 4.98694 11.6744 4.9417 11.6341 4.90465C11.5939 4.8676 11.561 4.82502 11.561 4.81004C11.561 4.77465 11.4002 4.61614 11.3643 4.61614C11.3491 4.61614 11.3059 4.58368 11.2683 4.54401C11.2307 4.50434 11.1848 4.47188 11.1663 4.47188C11.1479 4.47188 11.1169 4.45024 11.0976 4.4238C11.0782 4.39735 11.0429 4.37571 11.019 4.37571C10.9951 4.37571 10.9756 4.36489 10.9756 4.35167C10.9756 4.33845 10.9537 4.32763 10.9268 4.32763C10.9 4.32763 10.878 4.31681 10.878 4.30359C10.878 4.29036 10.8561 4.27954 10.8293 4.27954C10.8024 4.27954 10.7805 4.26872 10.7805 4.2555C10.7805 4.24228 10.7476 4.23146 10.7073 4.23146C10.6671 4.23146 10.6341 4.22064 10.6341 4.20742C10.6341 4.19419 10.5902 4.18337 10.5366 4.18337C10.4829 4.18337 10.439 4.17256 10.439 4.15933C10.439 4.14419 10.2764 4.13529 10 4.13529C9.72359 4.13529 9.56098 4.14419 9.56098 4.15933Z" fill="#F1912C"/>
</g>
<defs>
<clipPath id="clip0">
<rect width="20" height="19.6667" fill="white"/>
</clipPath>
</defs>
</svg>
