<svg width="64" height="64" viewBox="0 0 64 64" fill="none" xmlns="http://www.w3.org/2000/svg">
<g clip-path="url(#clip0)">
<path d="M42.7966 63.986C54.5007 63.986 63.9888 54.4979 63.9888 42.7938C63.9888 31.0897 54.5007 21.6017 42.7966 21.6017C31.0925 21.6017 21.6045 31.0897 21.6045 42.7938C21.6045 54.4979 31.0925 63.986 42.7966 63.986Z" fill="#36F499"/>
<path d="M42.7957 59.0544C51.7762 59.0544 59.0563 51.7743 59.0563 42.7938C59.0563 33.8133 51.7762 26.5332 42.7957 26.5332C33.8153 26.5332 26.5352 33.8133 26.5352 42.7938C26.5352 51.7743 33.8153 59.0544 42.7957 59.0544Z" fill="white"/>
<path d="M43.862 42.3939L48.3937 46.9256C48.7936 47.3255 48.7936 47.9918 48.3937 48.3917C47.9939 48.7916 47.3275 48.7916 46.9276 48.3917L41.9961 43.4601" fill="#F3705A"/>
<path d="M41.996 43.4601C41.8627 43.3268 41.7295 43.0603 41.7295 42.7938V32.5309C41.7295 31.9978 42.1293 31.4647 42.7957 31.4647C43.3289 31.4647 43.862 31.8646 43.862 32.5309V42.2607" fill="#FFD15C"/>
<path d="M42.7961 45.3262C44.1947 45.3262 45.3285 44.1924 45.3285 42.7938C45.3285 41.3952 44.1947 40.2614 42.7961 40.2614C41.3975 40.2614 40.2637 41.3952 40.2637 42.7938C40.2637 44.1924 41.3975 45.3262 42.7961 45.3262Z" fill="#415A6B"/>
<path d="M42.7962 43.9933C43.4587 43.9933 43.9958 43.4563 43.9958 42.7938C43.9958 42.1313 43.4587 41.5942 42.7962 41.5942C42.1337 41.5942 41.5967 42.1313 41.5967 42.7938C41.5967 43.4563 42.1337 43.9933 42.7962 43.9933Z" fill="#344A5E"/>
<path d="M42.7967 29.8652C43.3856 29.8652 43.8629 29.3879 43.8629 28.799C43.8629 28.2102 43.3856 27.7328 42.7967 27.7328C42.2078 27.7328 41.7305 28.2102 41.7305 28.799C41.7305 29.3879 42.2078 29.8652 42.7967 29.8652Z" fill="#E8EAE9"/>
<path d="M32.9334 33.9971C33.5223 33.9971 33.9997 33.5197 33.9997 32.9309C33.9997 32.342 33.5223 31.8646 32.9334 31.8646C32.3446 31.8646 31.8672 32.342 31.8672 32.9309C31.8672 33.5197 32.3446 33.9971 32.9334 33.9971Z" fill="#E8EAE9"/>
<path d="M28.8016 43.86C29.3904 43.86 29.8678 43.3826 29.8678 42.7938C29.8678 42.2049 29.3904 41.7275 28.8016 41.7275C28.2127 41.7275 27.7354 42.2049 27.7354 42.7938C27.7354 43.3826 28.2127 43.86 28.8016 43.86Z" fill="#E8EAE9"/>
<path d="M32.9334 53.723C33.5223 53.723 33.9997 53.2457 33.9997 52.6568C33.9997 52.0679 33.5223 51.5906 32.9334 51.5906C32.3446 51.5906 31.8672 52.0679 31.8672 52.6568C31.8672 53.2457 32.3446 53.723 32.9334 53.723Z" fill="#E8EAE9"/>
<path d="M42.7967 57.8549C43.3856 57.8549 43.8629 57.3775 43.8629 56.7886C43.8629 56.1998 43.3856 55.7224 42.7967 55.7224C42.2078 55.7224 41.7305 56.1998 41.7305 56.7886C41.7305 57.3775 42.2078 57.8549 42.7967 57.8549Z" fill="#E8EAE9"/>
<path d="M52.66 53.723C53.2488 53.723 53.7262 53.2457 53.7262 52.6568C53.7262 52.0679 53.2488 51.5906 52.66 51.5906C52.0711 51.5906 51.5938 52.0679 51.5938 52.6568C51.5938 53.2457 52.0711 53.723 52.66 53.723Z" fill="#E8EAE9"/>
<path d="M56.7908 43.86C57.3797 43.86 57.8571 43.3826 57.8571 42.7938C57.8571 42.2049 57.3797 41.7275 56.7908 41.7275C56.202 41.7275 55.7246 42.2049 55.7246 42.7938C55.7246 43.3826 56.202 43.86 56.7908 43.86Z" fill="#E8EAE9"/>
<path d="M52.66 33.9971C53.2488 33.9971 53.7262 33.5197 53.7262 32.9309C53.7262 32.342 53.2488 31.8646 52.66 31.8646C52.0711 31.8646 51.5938 32.342 51.5938 32.9309C51.5938 33.5197 52.0711 33.9971 52.66 33.9971Z" fill="#E8EAE9"/>
<path d="M16.0058 31.9978C24.8391 31.9978 31.9998 24.837 31.9998 16.0037C31.9998 7.17043 24.8391 0.00964355 16.0058 0.00964355C7.17251 0.00964355 0.0117188 7.17043 0.0117188 16.0037C0.0117188 24.837 7.17251 31.9978 16.0058 31.9978Z" fill="#FFD15C"/>
<path d="M16.0059 27.5994C22.41 27.5994 27.6016 22.4078 27.6016 16.0037C27.6016 9.59953 22.41 4.40796 16.0059 4.40796C9.60173 4.40796 4.41016 9.59953 4.41016 16.0037C4.41016 22.4078 9.60173 27.5994 16.0059 27.5994Z" fill="#F7B64C"/>
<path d="M15.2064 23.4675V22.1346C13.607 21.8681 12.2742 21.2016 10.9414 20.002L12.6741 18.0028C13.6072 18.8025 14.5401 19.3357 15.2066 19.6022V16.9366C13.8737 16.67 12.9408 16.1369 12.4076 15.6037C11.8744 15.0705 11.4746 14.2708 11.4746 13.2046C11.4746 12.1383 11.8744 11.3386 12.5408 10.6721C13.2072 10.0056 14.1402 9.6059 15.2064 9.47258V8.53955H17.0724V9.47258C18.2719 9.6059 19.4715 10.139 20.671 10.9387L19.205 13.0712C18.4053 12.5381 17.7389 12.1382 17.0724 12.005V14.6706C18.4053 15.0705 19.3382 15.4704 20.0047 16.0035C20.671 16.5367 20.9377 17.3364 20.9377 18.4026C20.9377 19.4689 20.5378 20.2686 19.8715 20.9351C19.2051 21.6016 18.2721 22.0013 17.0725 22.1346V23.4675H15.2064ZM15.2064 11.8718C14.6733 12.0051 14.4067 12.405 14.4067 12.938C14.4067 13.4712 14.6733 13.7377 15.2064 14.0043V11.8718ZM18.1387 18.5361C18.1387 18.2696 18.0054 18.0029 17.8722 17.8697C17.7389 17.7364 17.4724 17.6032 17.2058 17.3365V19.6023C17.7389 19.469 18.1387 19.0691 18.1387 18.5361Z" fill="white"/>
<path d="M60.7894 14.9375C58.257 4.67452 47.9942 -1.7231 37.598 0.409479C36.132 0.676005 34.6658 1.20918 33.333 1.74236C42.1297 2.00889 49.9935 8.00666 52.126 16.8034L48.9272 17.4698L58.3903 25.2003L63.8549 14.271L60.7894 14.9375Z" fill="#F05540"/>
<path d="M3.21053 45.7261C4.01023 56.2556 12.9403 64.3858 23.603 63.9859C25.069 63.9859 26.5352 63.7194 28.0013 63.3196C19.3379 61.7202 12.6736 54.3895 12.0073 45.4596L15.2061 45.3262L7.20905 36.1296L0.0117188 45.8594L3.21053 45.7261Z" fill="#F05540"/>
</g>
<defs>
<clipPath id="clip0">
<rect width="64" height="64" fill="white"/>
</clipPath>
</defs>
</svg>
