<svg width="18" height="18" viewBox="0 0 18 18" fill="none" xmlns="http://www.w3.org/2000/svg">
<path d="M9.00225 0H8.99775C4.03538 0 0 4.0365 0 9C0 10.9688 0.6345 12.7935 1.71337 14.2751L0.59175 17.6186L4.05113 16.5128C5.47425 17.4555 7.17188 18 9.00225 18C13.9646 18 18 13.9624 18 9C18 4.03763 13.9646 0 9.00225 0Z" fill="#4CAF50"/>
<path d="M14.2386 12.709C14.0215 13.3221 13.1598 13.8306 12.4724 13.9791C12.0021 14.0792 11.3879 14.1591 9.32013 13.3018C6.67526 12.2061 4.97201 9.51846 4.83926 9.34409C4.71213 9.16971 3.77051 7.92096 3.77051 6.62946C3.77051 5.33796 4.42638 4.70909 4.69076 4.43909C4.90788 4.21746 5.26676 4.11621 5.61101 4.11621C5.72238 4.11621 5.82251 4.12184 5.91251 4.12634C6.17688 4.13759 6.30963 4.15334 6.48401 4.57071C6.70113 5.09384 7.22988 6.38534 7.29288 6.51809C7.35701 6.65084 7.42113 6.83084 7.33113 7.00521C7.24676 7.18521 7.17251 7.26509 7.03976 7.41809C6.90701 7.57109 6.78101 7.68809 6.64826 7.85234C6.52676 7.99521 6.38951 8.14821 6.54251 8.41259C6.69551 8.67134 7.22426 9.53421 8.00276 10.2272C9.00738 11.1216 9.82188 11.4073 10.1133 11.5288C10.3304 11.6188 10.5891 11.5975 10.7478 11.4287C10.9491 11.2116 11.1978 10.8516 11.4509 10.4972C11.6309 10.243 11.8581 10.2115 12.0966 10.3015C12.3396 10.3858 13.6255 11.0215 13.8899 11.1531C14.1543 11.2858 14.3286 11.3488 14.3928 11.4602C14.4558 11.5716 14.4558 12.0947 14.2386 12.709Z" fill="#FAFAFA"/>
</svg>
